<?xml version="1.0" standalone="no"?>
<!DOCTYPE svg PUBLIC "-//W3C//DTD SVG 1.1//EN" "http://www.w3.org/Graphics/SVG/1.1/DTD/svg11.dtd" >
<svg xmlns="http://www.w3.org/2000/svg" xmlns:xlink="http://www.w3.org/1999/xlink" version="1.1">
<metadata></metadata>
<defs>
<font id="a1010helvetika_tygranormal" horiz-adv-x="1138" >
<font-face units-per-em="2048" ascent="1638" descent="-410" />
<missing-glyph horiz-adv-x="569" />
<glyph horiz-adv-x="0" />
<glyph unicode="&#xd;" horiz-adv-x="569" />
<glyph unicode=" "  horiz-adv-x="569" />
<glyph unicode="&#x09;" horiz-adv-x="569" />
<glyph unicode="&#xa0;" horiz-adv-x="569" />
<glyph unicode="!" horiz-adv-x="569" d="M184 0v209h199v-209h-199zM184 985v485h199v-485l-49 -635h-101z" />
<glyph unicode="&#x22;" horiz-adv-x="727" d="M143 948v522h150v-522h-150zM434 948v522h150v-522h-150z" />
<glyph unicode="#" d="M57 430l19 129h211l39 291h-211l18 129h211l59 430h138l-60 -430h254l60 430h137l-60 -430h211l-18 -129h-211l-41 -291h211l-18 -129h-211l-60 -430h-135l59 430h-256l-59 -430h-135l59 430h-211zM422 559h256l39 291h-254z" />
<glyph unicode="$" d="M66 436h180q0 -162 59.5 -231.5t212.5 -93.5v542q-205 47 -291 113q-133 98 -133 291q0 166 121 282.5t303 116.5v131h96v-131q147 0 256 -70q160 -102 160 -319h-174q-12 96 -55 147q-57 68 -187 93v-490q254 -74 330 -131q121 -90 121 -285q0 -233 -162 -350 q-123 -90 -289 -90v-197h-96v197q-207 0 -321 105q-131 119 -131 370zM274 1069q0 -100 76 -162q64 -53 168 -69v469q-113 0 -178.5 -70t-65.5 -168zM614 111q129 0 200 74.5t71 183.5q0 84 -45 144t-115 83l-111 35v-520z" />
<glyph unicode="%" horiz-adv-x="1820" d="M80 1077q0 145 102.5 245.5t247.5 100.5q143 0 245.5 -100t102.5 -246q0 -145 -100 -247.5t-248 -102.5q-145 0 -247.5 100t-102.5 250zM223 1077q0 -92 59.5 -149.5t145.5 -57.5q88 0 147.5 61.5t59.5 145.5q0 86 -60.5 144.5t-144.5 58.5q-88 0 -147.5 -59.5 t-59.5 -143.5zM449 -39l808 1479h113l-811 -1479h-110zM1042 336q0 145 102.5 245.5t248.5 100.5q143 0 245.5 -100.5t102.5 -245.5t-100.5 -247.5t-247.5 -102.5q-145 0 -248 100t-103 250zM1186 336q0 -92 59.5 -149.5t145.5 -57.5q88 0 147 61.5t59 145.5q0 86 -60 144.5 t-144 58.5q-88 0 -147.5 -59.5t-59.5 -143.5z" />
<glyph unicode="&#x26;" horiz-adv-x="1366" d="M90 354q0 156 64 248q72 104 268 215q-88 109 -117 164q-39 74 -39 162q0 135 88 227q96 100 260 100q162 0 252 -96q78 -84 78 -207q0 -137 -90 -241q-51 -61 -174 -144l268 -319q25 68 35 106.5t25 122.5h170q0 -74 -31 -172.5t-88 -202.5l262 -317h-234l-137 168 q-84 -96 -170 -141q-109 -57 -258 -58q-240 0 -352 150q-80 106 -80 235zM270 369q0 -123 101 -191q78 -53 164 -53q200 0 319 164l-332 405q-135 -86 -184 -141q-68 -76 -68 -184zM440 1155q0 -66 52 -143q35 -54 94 -113q86 57 121 98q63 72 63 156q0 88 -55 129 q-43 33 -103 33q-98 0 -143 -62q-29 -41 -29 -98z" />
<glyph unicode="'" horiz-adv-x="391" d="M121 948v522h149v-522h-149z" />
<glyph unicode="(" horiz-adv-x="681" d="M139 535q0 258 90 499q82 217 256 467h125q-109 -205 -149 -299q-68 -156 -98.5 -316.5t-30.5 -400.5q0 -164 32.5 -302t102.5 -304q47 -109 145 -303h-120q-123 184 -187 305q-80 150 -123 311.5t-43 342.5z" />
<glyph unicode=")" horiz-adv-x="681" d="M70 1501h120q123 -184 187 -305q80 -150 123 -311.5t43 -341.5q0 -258 -90 -500q-82 -217 -256 -467h-125q109 205 149 299q68 156 98.5 316.5t30.5 400.5q0 164 -32.5 302t-102.5 304q-47 109 -145 303z" />
<glyph unicode="*" horiz-adv-x="796" d="M80 1210l41 113l215 -78v225h123v-225l215 78l41 -113l-221 -69l137 -189l-101 -69l-133 192l-133 -192l-100 69l137 189z" />
<glyph unicode="+" horiz-adv-x="1196" d="M80 442v150h444v442h150v-442h442v-150h-442v-442h-150v442h-444z" />
<glyph unicode="," horiz-adv-x="569" d="M178 0v217h213v-201q0 -178 -90 -260q-51 -47 -123 -57v94q59 6 84 64.5t25 142.5h-109z" />
<glyph unicode="-" horiz-adv-x="681" d="M90 475v184h502v-184h-502z" />
<glyph unicode="." horiz-adv-x="569" d="M178 0v217h213v-217h-213z" />
<glyph unicode="/" horiz-adv-x="569" d="M-35 -39l504 1548h135l-502 -1548h-137z" />
<glyph unicode="0" d="M76 700q0 295 90 482q125 258 403 258q276 0 402 -256q92 -191 92 -484q0 -295 -90 -481q-125 -258 -404 -258q-276 0 -401 256q-92 190 -92 483zM268 700q0 -279 74 -428t227 -149q152 0 226.5 150.5t74.5 426.5q0 279 -73.5 428.5t-227.5 149.5q-152 0 -226.5 -150.5 t-74.5 -427.5z" />
<glyph unicode="1" d="M207 1022v143q186 0 260 47q84 55 127 228h141v-1440h-192v1022h-336z" />
<glyph unicode="2" d="M53 0q0 209 97 354q82 123 241 217l191 111q147 86 190 129q74 78 74 207q0 102 -62 172q-78 88 -223 88q-137 0 -211 -84q-80 -92 -80 -270h-180q0 307 191 434q123 82 307 82q193 0 321.5 -117t128.5 -313q0 -178 -110 -295q-76 -80 -275 -187l-149 -82 q-131 -72 -195 -157q-45 -59 -53 -119h782v-170h-985z" />
<glyph unicode="3" d="M70 440h186q0 -135 51 -209q74 -109 256 -108q139 0 226.5 76.5t87.5 201.5q0 160 -121 224q-78 41 -215 41l-82 -2v155l94 -4q119 0 188 49q86 61 86 187q0 86 -51 145q-70 82 -215 82q-166 0 -235 -117q-45 -76 -45 -192h-177q0 195 91 315q117 156 374 156 q205 0 325 -105.5t120 -273.5q0 -127 -62 -209q-49 -66 -123 -88q115 -41 172 -115q68 -86 68 -225q0 -195 -121 -320q-139 -143 -397 -143q-68 0 -113 8q-74 14 -153 56q-115 59 -165 167.5t-50 247.5z" />
<glyph unicode="4" d="M51 350v176l660 914h149v-934h211v-156h-211v-350h-180v350h-629zM217 506h463v653z" />
<glyph unicode="5" d="M66 358h186q14 -121 98 -184q78 -57 207 -57q137 0 220 94t83 235q0 152 -90 236t-229 84q-162 0 -267 -137l-155 8l108 772h746v-176h-611l-61 -395q55 43 113 63q74 27 166 27q188 0 323 -119q150 -131 150 -342q0 -178 -92 -311q-135 -195 -431 -195q-172 0 -288 78 q-152 102 -176 319z" />
<glyph unicode="6" d="M78 670q0 299 104 501q139 268 428 269q158 0 273 -80q147 -102 147 -303h-176q-18 102 -74 157q-63 63 -174 64q-184 0 -276 -209q-66 -150 -66 -324l4 -4q43 74 113 117q96 59 229 60q166 0 291 -99q160 -125 160 -358q0 -211 -137 -361q-63 -70 -133 -100 q-90 -39 -232 -39q-100 0 -188 43q-111 53 -183 166q-61 96 -85.5 218t-24.5 282zM289 442q0 -129 71 -217q82 -102 232 -102q127 0 204.5 92t77.5 238q0 117 -61 198q-78 104 -229 105q-141 0 -218 -89.5t-77 -224.5z" />
<glyph unicode="7" d="M76 1233v176h995v-158q-88 -92 -192 -247q-133 -199 -230 -426q-123 -291 -170 -578h-198q35 287 208 643q166 344 379 590h-792z" />
<glyph unicode="8" d="M78 414q0 129 62.5 215t181.5 135q-195 74 -195 280q0 147 88 254q117 141 348 142q221 0 342 -121q103 -103 103 -250q0 -137 -68 -217q-37 -45 -117 -86q131 -55 191 -164q45 -84 45 -186q0 -190 -115 -314q-131 -141 -373 -141q-82 0 -159 21q-109 29 -187 90 q-96 76 -129 188q-18 61 -18 154zM270 410q0 -111 60 -187q80 -100 248 -100q121 0 192 51q96 70 96 221q0 139 -84 210t-215 71q-143 0 -220 -79t-77 -187zM313 1053q0 -100 74 -161t178 -61q115 0 185.5 65t70.5 167q0 82 -53 139q-72 76 -215 76q-131 0 -193 -78 q-47 -59 -47 -147z" />
<glyph unicode="9" d="M86 946q0 207 117 344q129 150 346 150q301 0 424 -246q80 -160 80 -422q0 -145 -25 -278q-41 -223 -141 -357q-133 -176 -357 -176q-225 0 -340 139q-88 106 -88 246h181q0 -109 65.5 -172t177.5 -63q147 0 229.5 129t116.5 409l-4 4q-37 -78 -131 -125t-198 -47 q-201 0 -327 126t-126 339zM272 954q0 -182 101 -258q71 -53 192 -53q102 0 172 55q104 84 105 273q0 133 -68 215q-76 92 -223 92q-127 0 -203 -88t-76 -236z" />
<glyph unicode=":" horiz-adv-x="569" d="M178 0v217h213v-217h-213zM178 840v217h213v-217h-213z" />
<glyph unicode=";" horiz-adv-x="569" d="M178 0v217h213v-201q0 -178 -90 -260q-51 -47 -123 -57v94q59 6 84 64.5t25 142.5h-109zM178 840v217h213v-217h-213z" />
<glyph unicode="&#x3c;" horiz-adv-x="1196" d="M98 446v144l1000 424v-164l-799 -332l799 -332v-163z" />
<glyph unicode="=" horiz-adv-x="1196" d="M80 236v149h1036v-149h-1036zM80 649v150h1036v-150h-1036z" />
<glyph unicode="&#x3e;" horiz-adv-x="1196" d="M98 23v163l799 332l-799 332v164l1000 -424v-144z" />
<glyph unicode="?" d="M115 1010q0 127 24 200q35 106 137 185q57 45 137.5 69.5t159.5 24.5q182 0 304 -103q131 -111 131 -299q0 -98 -43 -169q-35 -59 -150 -168q-88 -84 -113 -119q-66 -88 -65 -256h-180q0 164 43 252q33 66 151 188q90 94 111 119q53 68 53 166q0 84 -49 147 q-68 86 -199 86q-168 0 -233 -129q-39 -75 -39 -194h-180zM453 0v209h198v-209h-198z" />
<glyph unicode="@" horiz-adv-x="2078" d="M301 739q0 319 227.5 544.5t544.5 225.5q291 0 498 -181t207 -458q0 -254 -176 -434q-154 -158 -314 -157q-57 0 -94 32.5t-37 96.5q-51 -53 -117.5 -91t-132.5 -38q-131 0 -216 95t-85 232q0 221 129 387q137 178 344 178q78 0 137.5 -37.5t98.5 -121.5l41 127h139 q-31 -115 -121 -420q-63 -215 -63 -248q0 -59 43 -59q104 0 197.5 140t93.5 302q0 238 -170 387q-162 141 -402 141q-270 0 -446 -188t-176 -467q0 -270 184 -454.5t452 -184.5q145 0 276.5 61.5t221.5 172.5h137q-100 -168 -270 -264.5t-369 -96.5q-328 0 -555 225.5 t-227 552.5zM774 625q0 -88 47 -143.5t125 -55.5q121 0 217 143q88 134 88 267q0 76 -50 132t-118 56q-129 0 -223 -135q-86 -123 -86 -264z" />
<glyph unicode="A" horiz-adv-x="1366" d="M29 0l553 1470h225l532 -1470h-217l-145 428h-590l-154 -428h-204zM449 604h456l-217 647z" />
<glyph unicode="B" horiz-adv-x="1366" d="M152 0v1470h647q199 0 311 -108q104 -102 104 -262q0 -88 -36 -160q-49 -96 -160 -147q115 -47 168 -99q98 -96 98 -260q0 -186 -127 -305q-137 -129 -373 -129h-632zM350 170h424q154 0 232.5 70.5t78.5 197.5q0 139 -110 201q-86 47 -234 47h-391v-516zM350 848h359 q152 0 225 51q82 57 82 186q0 106 -72 160.5t-233 54.5h-361v-452z" />
<glyph unicode="C" horiz-adv-x="1478" d="M90 743q0 344 184.5 555t501.5 211q266 0 432 -147q149 -133 172 -334h-192q-37 174 -172 250q-98 55 -240 55q-211 0 -340 -145q-141 -158 -141 -438q0 -283 106 -437q123 -176 381 -176q133 0 232 72q143 104 188 332h193q-37 -250 -178 -398q-106 -111 -267 -155 q-94 -27 -198 -27q-281 0 -457 178q-205 207 -205 604z" />
<glyph unicode="D" horiz-adv-x="1478" d="M166 0v1470h596q283 0 450.5 -196.5t167.5 -517.5q0 -301 -131 -502q-166 -254 -495 -254h-588zM365 170h385q197 0 311.5 149.5t114.5 423.5q0 272 -117 414.5t-324 142.5h-370v-1130z" />
<glyph unicode="E" horiz-adv-x="1366" d="M176 0v1470h1071v-176h-872v-450h805v-176h-805v-492h887v-176h-1086z" />
<glyph unicode="F" horiz-adv-x="1251" d="M176 0v1470h1018v-176h-819v-450h721v-176h-721v-668h-199z" />
<glyph unicode="G" horiz-adv-x="1593" d="M98 748q0 301 168 516q192 245 526 245h3q225 0 397 -118q195 -135 225 -367h-192q-43 172 -183 250q-106 59 -258 59q-207 0 -340 -153q-141 -164 -141 -443q0 -266 96 -415q123 -190 394 -191q78 0 137 14q90 23 164 80q92 72 126.5 167t34.5 224h-458v170h645v-786 h-129l-47 190q-76 -104 -207 -166.5t-279 -62.5q-168 0 -291 55q-86 39 -159 111q-150 141 -201 332q-31 113 -31 289z" />
<glyph unicode="H" horiz-adv-x="1478" d="M158 0v1470h198v-608h768v608h199v-1470h-199v686h-768v-686h-198z" />
<glyph unicode="I" horiz-adv-x="569" d="M186 0v1470h199v-1470h-199z" />
<glyph unicode="J" horiz-adv-x="1024" d="M35 328v145h186v-102q0 -127 60 -187q53 -53 161 -53q129 0 187 72q49 61 49 182v1085h199v-1073q0 -233 -138 -346q-111 -90 -286 -90q-227 0 -336 131q-82 98 -82 236z" />
<glyph unicode="K" horiz-adv-x="1366" d="M156 0v1470h198v-712l713 712h274l-612 -593l629 -877h-258l-514 737l-232 -221v-516h-198z" />
<glyph unicode="L" d="M156 0v1470h198v-1294h746v-176h-944z" />
<glyph unicode="M" horiz-adv-x="1705" d="M150 0v1470h284l420 -1243l422 1243h283v-1470h-193v868l4 367l-418 -1235h-196l-414 1233v-365v-868h-192z" />
<glyph unicode="N" horiz-adv-x="1478" d="M156 0v1470h235l735 -1187l4 1187h193v-1470h-223l-748 1188l-4 -1188h-192z" />
<glyph unicode="O" horiz-adv-x="1593" d="M231 1241q193 268 566 268q371 0 563 -268q153 -213 153 -506q0 -295 -151 -506q-193 -268 -565 -268q-371 0 -564 268q-153 212 -153 502q0 299 151 510zM285 735q0 -264 138 -431t374 -167t374 167t138 431t-135 428q-141 170 -377 170t-374 -167t-138 -431z" />
<glyph unicode="P" horiz-adv-x="1366" d="M176 0v1470h662q201 0 318.5 -115.5t117.5 -297.5q0 -176 -98 -295q-117 -141 -338 -141h-463v-621h-199zM375 791h395q143 0 217 57q82 63 82 207q0 131 -84 192q-74 53 -207 53h-403v-509z" />
<glyph unicode="Q" horiz-adv-x="1593" d="M231 1241q193 268 566 268q371 0 563 -268q153 -212 153 -502v-4q0 -156 -47 -297q-55 -168 -166 -278l201 -156l-100 -119l-225 174q-74 -47 -169.5 -72.5t-209.5 -25.5q-371 0 -564 268q-153 212 -153 502q0 299 151 510zM285 735q0 -264 138 -431t374 -167 q123 0 217 47l-154 119l101 123l186 -145q162 162 162 454q0 264 -135 428q-141 170 -377 170t-374 -167t-138 -431z" />
<glyph unicode="R" horiz-adv-x="1478" d="M180 0v1470h680q211 0 332 -79q151 -99 151 -313q0 -148 -65 -238q-45 -61 -139 -117q86 -35 118 -74q57 -66 58 -203l12 -266q0 -63 13.5 -92t60.5 -55v-33h-244q-18 61 -26.5 173t-8.5 196q0 119 -41 176q-61 86 -221 86h-481v-631h-199zM379 801h461q135 0 204 45 q94 59 95 209q0 150 -95 207q-61 38 -165 38h-5h-495v-499z" />
<glyph unicode="S" horiz-adv-x="1366" d="M100 475h187q0 -182 131 -272q104 -72 274 -72q199 0 299 74q86 63 86 174q0 113 -64.5 165t-248.5 95l-301 70q-121 29 -193 84q-120 93 -120 259q0 193 118 316q137 141 387 141q338 0 480 -174q94 -115 94 -295h-187q0 156 -118 234q-97 65 -242 65h-4 q-131 0 -215 -45q-121 -66 -121 -213q0 -86 53 -131q43 -37 121 -55l420 -96q154 -37 238 -125q96 -102 96 -268q0 -236 -193 -353q-154 -92 -383 -92q-182 0 -299 47q-76 31 -145 94q-86 78 -118 168t-32 205z" />
<glyph unicode="T" horiz-adv-x="1251" d="M29 1294v176h1194v-176h-498v-1294h-199v1294h-497z" />
<glyph unicode="U" horiz-adv-x="1478" d="M162 489v981h198v-925q0 -219 119 -324q96 -84 254 -84q162 0 262 82q125 102 125 322v929h199v-954q0 -242 -143 -391q-158 -164 -449 -164q-281 0 -430 160q-135 143 -135 368z" />
<glyph unicode="V" horiz-adv-x="1366" d="M41 1470h221l420 -1253l420 1253h223l-537 -1470h-210z" />
<glyph unicode="W" horiz-adv-x="1933" d="M33 1470h215l274 -1196l334 1196h217l330 -1196l278 1196h220l-388 -1470h-208l-336 1219l-344 -1219h-209z" />
<glyph unicode="X" horiz-adv-x="1366" d="M39 0l526 754l-493 716h250l372 -563l373 563h238l-494 -716l516 -754h-246l-395 604l-407 -604h-240z" />
<glyph unicode="Y" horiz-adv-x="1366" d="M29 1470h231l422 -706l422 706h233l-555 -878v-592h-198v592z" />
<glyph unicode="Z" horiz-adv-x="1251" d="M47 0v166l901 1128h-833v176h1089v-172l-905 -1122h905v-176h-1157z" />
<glyph unicode="[" horiz-adv-x="569" d="M129 -401v1880h383v-146h-221v-1589h221v-145h-383z" />
<glyph unicode="\" horiz-adv-x="569" d="M-35 1509h135l504 -1548h-137z" />
<glyph unicode="]" horiz-adv-x="569" d="M57 -256h222v1589h-222v146h383v-1880h-383v145z" />
<glyph unicode="^" horiz-adv-x="960" d="M-29 541l437 868h147l434 -868h-158l-350 704l-350 -704h-160z" />
<glyph unicode="_" d="M0 -154h1139v-102h-1139v102z" />
<glyph unicode="`" horiz-adv-x="681" d="M29 1503h221l182 -289h-137z" />
<glyph unicode="a" d="M74 279q0 111 49 186q82 125 276 149l297 37q43 4 64 25q31 29 31 102q0 174 -252 174q-135 0 -195 -71q-37 -46 -51 -136h-166q0 186 115.5 271.5t326.5 85.5q131 0 230 -45q168 -76 168 -254v-617q0 -63 59 -63l59 8v-131q-31 -8 -53 -14t-45 -6q-109 0 -156 51 q-35 39 -34 112q-68 -74 -142 -114q-106 -59 -245 -60q-150 0 -243 85t-93 225zM260 305q0 -186 195 -186q131 0 231 73t100 179v176q-23 -18 -82 -32.5t-215 -35.5q-96 -14 -147 -41q-82 -43 -82 -133z" />
<glyph unicode="b" d="M119 0v1470h180v-534q121 166 313 166q207 0 330 -154q117 -147 117 -381q0 -236 -98 -395q-125 -203 -373 -203q-119 0 -201 60q-53 39 -94 104l-4 -133h-170zM291 485q0 -190 102 -286q80 -74 191 -74q141 0 214.5 115t73.5 299q0 162 -41 252q-70 149 -249 149h-2 q-172 0 -242 -162q-47 -109 -47 -293z" />
<glyph unicode="c" horiz-adv-x="1024" d="M61 506q0 264 123 422q135 174 391 174q197 0 306 -125q96 -110 96 -266h-174q-16 111 -80 170t-174 59q-156 0 -232 -129q-63 -106 -63 -274q0 -174 53 -275q72 -137 240 -137q92 0 162.5 66.5t93.5 187.5h174q-18 -162 -107 -268q-117 -141 -329 -142 q-221 0 -350.5 149.5t-129.5 387.5z" />
<glyph unicode="d" d="M72 567q0 233 118.5 384t327.5 151q127 0 217 -68q47 -35 103 -114l4 14v536h180v-1470h-170v147q-55 -100 -145 -143q-72 -35 -164 -35q-248 0 -373 203q-98 160 -98 395zM258 539q0 -186 72.5 -300t216.5 -114q111 0 188 72q104 96 105 288q0 242 -82 355 q-74 100 -207 100q-180 0 -250 -149q-43 -92 -43 -252z" />
<glyph unicode="e" d="M82 506q0 264 123 422q135 174 391 174q227 0 344 -167t117 -458h-783q0 -170 79 -261t233 -91q117 0 202 76q74 65 74 135h180q-8 -59 -45 -131q-53 -100 -145 -162q-51 -35 -98 -49q-78 -25 -193 -25q-221 0 -350 149.5t-129 387.5zM274 621h596q0 139 -65 221 q-78 98 -234 98q-123 0 -210 -95t-87 -224z" />
<glyph unicode="f" horiz-adv-x="569" d="M29 922v149h147v184q0 236 279 236l82 -4v-162l-74 4q-57 0 -82 -28.5t-25 -96.5v-133h181v-149h-181v-922h-180v922h-147z" />
<glyph unicode="g" d="M82 567q0 233 118.5 384t327.5 151q127 0 217 -68q47 -35 103 -114l4 151h170v-983q0 -213 -61 -326q-115 -213 -437 -213q-143 0 -239 52q-147 78 -170 268h180q16 -86 76.5 -128t165.5 -42q201 0 268 139q37 76 37 238v45l-4 -8q-39 -63 -110 -103.5t-175 -40.5 q-248 0 -373 203q-98 160 -98 395zM268 539q0 -186 73 -300t216 -114q111 0 188 72q104 96 105 288q0 242 -82 355q-74 100 -207 100q-180 0 -250 -149q-43 -92 -43 -252z" />
<glyph unicode="h" d="M133 0v1470h180v-542q63 76 115 112q88 61 203 62q154 0 250 -72q125 -94 125 -301v-729h-181v700q0 121 -41 174q-49 66 -172 66q-127 0 -204 -76q-94 -92 -95 -280v-584h-180z" />
<glyph unicode="i" horiz-adv-x="454" d="M137 0v1071h180v-1071h-180zM137 1266v204h180v-204h-180z" />
<glyph unicode="j" horiz-adv-x="454" d="M-33 -268h37q86 0 109.5 20.5t23.5 110.5v1208h180v-1229q0 -111 -36 -170q-63 -102 -238 -102l-76 6v156zM137 1266v204h180v-204h-180z" />
<glyph unicode="k" horiz-adv-x="1024" d="M137 0v1470h174v-852l461 453h229l-409 -399l434 -672h-231l-334 541l-150 -135v-406h-174z" />
<glyph unicode="l" horiz-adv-x="454" d="M137 0v1470h180v-1470h-180z" />
<glyph unicode="m" horiz-adv-x="1705" d="M133 0v1071h170v-151q74 98 151.5 140t176.5 42q125 0 203 -66q43 -37 81 -108q84 92 136 125q80 49 192 49q123 0 209 -66q123 -94 123 -295v-741h-180v692q0 119 -41 178q-49 70 -158 70q-111 0 -181.5 -86t-70.5 -201v-653h-180v741q0 84 -33 133q-43 66 -135 66 q-104 0 -178 -68q-104 -94 -105 -288v-584h-180z" />
<glyph unicode="n" d="M133 0v1071h170v-151q53 72 111 112q96 70 217 70q154 0 250 -72q125 -94 125 -301v-729h-181v659q0 147 -49 214t-180 67q-104 0 -178 -68q-104 -94 -105 -288v-584h-180z" />
<glyph unicode="o" d="M72 537q0 231 118 387q135 178 379 178q242 0 377 -178q121 -158 121 -387q0 -231 -119 -387q-135 -178 -379 -179q-242 0 -376 179q-121 158 -121 387zM258 537q0 -152 57 -258q82 -152 254 -152q170 0 252 149q59 109 60 261q0 152 -58 258q-81 151 -252 151h-2 q-170 0 -252 -149q-59 -108 -59 -260z" />
<glyph unicode="p" d="M119 -424v1495h170v-151q80 104 145 139q80 43 178 43q207 0 330 -154q117 -147 117 -381q0 -236 -98 -395q-125 -203 -373 -203q-100 0 -173 40t-112 104l-4 -537h-180zM291 485q0 -190 102 -286q80 -74 191 -74q141 0 214.5 114.5t73.5 299.5q0 162 -41 252 q-70 149 -249 149h-2q-172 0 -242 -162q-47 -109 -47 -293z" />
<glyph unicode="q" d="M72 567q0 233 118.5 384t327.5 151q127 0 217 -68q47 -35 103 -114l4 151h170v-1495h-181v537q-43 -63 -114.5 -103.5t-173.5 -40.5q-248 0 -373 203q-98 160 -98 395zM258 539q0 -186 72.5 -300t216.5 -114q111 0 188 72q105 95 105 288q0 242 -82 355q-74 100 -207 100 q-180 0 -250 -149q-43 -92 -43 -252z" />
<glyph unicode="r" horiz-adv-x="681" d="M158 0v1071h170v-178q61 102 129 151q78 57 176 58q25 0 47 -6v-187h-68q-123 0 -198.5 -81.5t-75.5 -204.5v-623h-180z" />
<glyph unicode="s" horiz-adv-x="1024" d="M66 344h174q0 -88 47 -141q70 -78 237 -78q109 0 172 39q74 45 74 131q0 61 -44 92t-169 62l-209 51q-119 29 -180 88q-68 66 -68 172q0 166 123 258q113 84 283 84q190 0 299.5 -94.5t109.5 -241.5h-174q0 72 -41 115q-62 65 -209 65h-4q-74 0 -127 -24 q-86 -39 -86 -127q0 -61 45 -93q33 -23 150 -51l180 -45q164 -41 232.5 -106.5t68.5 -175.5q0 -162 -118.5 -258.5t-305.5 -96.5q-276 0 -389 140q-72 90 -71 235z" />
<glyph unicode="t" horiz-adv-x="569" d="M29 922v149h145v299h180v-299h172v-149h-172v-697q0 -55 39 -73q23 -10 70 -11h63v-141l-135 -14q-123 0 -174 65q-43 55 -43 164v707h-145z" />
<glyph unicode="u" d="M139 301v770h180v-711q0 -125 60 -184q51 -51 147 -51q154 0 232 119q63 98 63 237v590h180v-1071h-170v156l-4 4q-59 -96 -137 -143.5t-203 -47.5q-141 0 -233 70q-115 86 -115 262z" />
<glyph unicode="v" horiz-adv-x="1024" d="M16 1071h209l279 -872l307 872h197l-408 -1071h-192z" />
<glyph unicode="w" horiz-adv-x="1478" d="M29 1071h196l205 -842l211 842h201l209 -842l221 842h180l-311 -1071h-187l-217 829l-213 -829h-186z" />
<glyph unicode="x" horiz-adv-x="1024" d="M23 0l376 551l-358 520h231l248 -377l248 377h221l-362 -520l377 -551h-230l-266 403l-258 -403h-227z" />
<glyph unicode="y" horiz-adv-x="1024" d="M23 1071h204l285 -872l291 872h198q-94 -262 -187 -522t-198 -529q-129 -328 -188 -393t-231 -65q-20 0 -41 6l-35 10v164q23 -8 47.5 -13t60.5 -5q68 0 99 40q25 33 92 207z" />
<glyph unicode="z" horiz-adv-x="1024" d="M63 0v141l646 781h-596v149h829v-147l-639 -774h658v-150h-898z" />
<glyph unicode="{" horiz-adv-x="684" d="M86 479v123q72 0 119 74t47 186v352q0 119 63.5 192t145.5 73h137v-133h-90q-49 0 -71.5 -46.5t-22.5 -121.5v-349q0 -131 -74 -215q-51 -57 -107 -71q86 -35 133.5 -113t47.5 -184v-346q0 -78 21.5 -123t72.5 -45h90v-133h-137q-84 0 -144 67q-66 76 -65 197v350 q0 115 -47 190.5t-119 75.5z" />
<glyph unicode="|" horiz-adv-x="532" d="M193 -39v1548h149v-1548h-149z" />
<glyph unicode="}" horiz-adv-x="684" d="M86 -268h90q51 0 72.5 46t21.5 122v346q0 137 74 221q47 53 107 72q-82 29 -131.5 108.5t-49.5 181.5v349q0 80 -20.5 124t-73.5 44h-90v133h137q84 0 146.5 -72t62.5 -193v-352q0 -113 47 -186.5t119 -73.5v-123q-72 0 -119 -75.5t-47 -190.5v-350q0 -119 -63.5 -191.5 t-145.5 -72.5h-137v133z" />
<glyph unicode="~" horiz-adv-x="1196" d="M125 483q41 80 92 121q68 55 164 55q51 0 111 -18q39 -12 116 -47q160 -74 209 -74q53 0 103 47q32 31 77 101l74 -115q-51 -82 -108 -125q-68 -51 -148 -51q-66 0 -133 29q-18 8 -75.5 39.5t-106.5 48.5q-66 23 -129 22q-59 0 -107 -47q-37 -37 -65 -100z" />
<glyph unicode="&#xa3;" horiz-adv-x="1024" d="M35 328v145h186v-102q0 -127 60 -187q53 -53 161 -53q129 0 187 72q49 61 49 182v1085h199v-1073q0 -233 -138 -346q-111 -90 -286 -90q-227 0 -336 131q-82 98 -82 236z" />
<glyph unicode="&#xa4;" d="M57 1137l99 98l116 -115q121 104 297 105q176 0 297 -105l117 115l98 -98l-112 -111q51 -59 76.5 -138t25.5 -169q0 -182 -102 -309l110 -115l-92 -92l-113 119q-59 -53 -140 -83t-165 -30q-88 0 -164.5 26.5t-140.5 86.5l-112 -119l-93 92l111 115q-51 66 -76.5 142.5 t-25.5 166.5q0 88 25.5 168t76.5 139zM217 719q0 -147 103.5 -257t248.5 -110q147 0 250 108.5t103 258.5q0 147 -103.5 254.5t-249.5 107.5q-145 0 -248.5 -107.5t-103.5 -254.5z" />
<glyph unicode="&#xa6;" horiz-adv-x="532" d="M193 -39v602h149v-602h-149zM193 942v567h149v-567h-149z" />
<glyph unicode="&#xa7;" d="M88 633q0 121 57 201q45 63 148 122q-53 57 -74.5 102.5t-21.5 102.5q0 133 82 230q102 119 286 118q152 0 250 -73q127 -96 127 -301h-174q0 84 -29 133q-49 86 -174 86q-70 0 -123 -37q-66 -45 -65 -129q0 -55 39 -101q33 -37 110 -83l299 -177q109 -63 158 -127 q66 -84 66 -200q0 -117 -66 -203q-49 -63 -145 -125q55 -59 80.5 -108.5t25.5 -124.5q0 -150 -119 -244q-109 -86 -252 -86q-182 0 -286 90q-117 100 -117 295h180q0 -86 29 -139q49 -90 170 -91q82 0 135 29q80 43 80 141q0 49 -27.5 87t-85.5 75l-430 287q-74 49 -108 129 q-25 57 -25 121zM258 678q0 -72 35 -121q23 -33 57 -53l387 -250q88 57 115 104.5t27 102.5q0 61 -35 111t-92 85l-357 220q-63 -33 -100 -81t-37 -118z" />
<glyph unicode="&#xa8;" horiz-adv-x="1366" d="M156 0v1470h1071v-176h-873v-450h805v-176h-805v-492h887v-176h-1085zM444 1636v209h187v-209h-187zM776 1636v209h187v-209h-187z" />
<glyph unicode="&#xa9;" horiz-adv-x="1509" d="M-29 737q0 330 231.5 551t555.5 221q322 0 552 -222t230 -550q0 -334 -228 -555t-554 -221t-553 219q-233 225 -234 557zM127 737q0 -276 181 -461.5t450 -185.5q266 0 446 184.5t180 462.5q0 272 -181 457.5t-445 185.5q-266 0 -448.5 -184.5t-182.5 -458.5zM328 739 q0 209 120.5 341t327.5 132q152 0 259.5 -85t127.5 -236h-137q-18 84 -85 135t-163 51q-139 0 -217 -94t-78 -242q0 -145 82 -244.5t219 -99.5q96 0 162 53.5t80 141.5h139q-29 -154 -132 -242t-249 -88q-205 0 -330.5 136.5t-125.5 340.5z" />
<glyph unicode="&#xab;" d="M199 473v189l321 251v-180l-215 -166l215 -166v-180zM618 473v189l322 251v-180l-215 -166l215 -166v-180z" />
<glyph unicode="&#xac;" horiz-adv-x="1196" d="M80 649v150h1036v-578h-149v428h-887z" />
<glyph unicode="&#xad;" horiz-adv-x="681" d="M20 1284v117h642v-117h-642z" />
<glyph unicode="&#xae;" horiz-adv-x="1509" d="M-29 737q0 330 231.5 551t555.5 221q322 0 552 -222t230 -550q0 -334 -228 -555t-554 -221t-553 219q-233 225 -234 557zM127 737q0 -276 181 -461.5t450 -185.5q266 0 446 184.5t180 462.5q0 272 -181 457.5t-445 185.5q-266 0 -448.5 -184.5t-182.5 -458.5zM459 289 v893h340q160 0 237.5 -61.5t77.5 -192.5q0 -113 -62.5 -172.5t-168.5 -73.5l254 -393h-152l-235 387h-156v-387h-135zM594 791h162q109 0 151 20q66 31 66 125q0 74 -62 106q-47 25 -133 25h-184v-276z" />
<glyph unicode="&#xaf;" horiz-adv-x="569" d="M27 1636v209h186v-209h-186zM186 0v1470h199v-1470h-199zM358 1636v209h187v-209h-187z" />
<glyph unicode="&#xb0;" horiz-adv-x="819" d="M111 1141q0 127 86 213t213 86t213 -86t86 -213t-86 -213t-213 -86t-213 86t-86 213zM209 1141q0 -82 60.5 -146.5t140.5 -64.5q82 0 141 63.5t59 147.5q0 82 -60 146.5t-140 64.5q-82 0 -141.5 -63.5t-59.5 -147.5z" />
<glyph unicode="&#xb1;" horiz-adv-x="1196" d="M80 0v150h1036v-150h-1036zM80 557v150h444v329h150v-329h442v-150h-442v-330h-150v330h-444z" />
<glyph unicode="&#xb2;" horiz-adv-x="569" d="M186 0v1470h199v-1470h-199z" />
<glyph unicode="&#xb3;" horiz-adv-x="454" d="M137 0v1071h180v-1071h-180zM137 1266v204h180v-204h-180z" />
<glyph unicode="&#xb5;" d="M139 301v770h180v-711q0 -125 60 -184q51 -51 147 -51q154 0 232 119q63 98 63 237v590h180v-1071h-170v156l-4 4q-59 -96 -137 -143.5t-203 -47.5q-47 0 -79 11q-51 16 -84 59l-5 -463h-180v725z" />
<glyph unicode="&#xb6;" horiz-adv-x="1099" d="M37 1081q0 195 126 292t347 97h508v-1824h-150v1702h-243v-1702h-150v1059q-195 0 -316.5 107.5t-121.5 268.5z" />
<glyph unicode="&#xb7;" horiz-adv-x="569" d="M158 516q0 55 39 92t90 37q49 0 88 -37t39 -92q0 -49 -37 -88t-92 -39q-53 0 -90 37t-37 90z" />
<glyph unicode="&#xb8;" d="M82 506q0 264 123 422q135 174 391 174q227 0 344 -167t117 -458h-783q0 -170 79 -261t233 -91q117 0 202 76q74 66 74 135h180q-8 -59 -45 -131q-53 -100 -145 -162q-51 -35 -98 -49q-78 -25 -193 -25q-221 0 -350 149.5t-129 387.5zM274 621h596q0 139 -65 221 q-78 98 -234 98q-123 0 -210 -95t-87 -224zM311 1237v209h187v-209h-187zM643 1237v209h186v-209h-186z" />
<glyph unicode="&#xb9;" horiz-adv-x="747" d="M51 1169q0 182 105 271q82 70 219 69q135 0 219 -69q104 -87 104 -271q0 -182 -104 -270q-82 -70 -219 -70q-135 0 -219 70q-104 86 -105 270zM72 623v98h606v-98h-606zM188 1169q0 -92 31 -147q47 -86 156 -86q82 0 129 51q57 63 57 182q0 92 -31 148q-47 86 -155 86 q-82 0 -129 -51q-57 -63 -58 -183z" />
<glyph unicode="&#xbb;" d="M199 221v180l215 166l-215 166v180l321 -251v-189zM618 221v180l216 166l-216 166v180l322 -251v-189z" />
<glyph unicode="&#xbc;" horiz-adv-x="454" d="M-33 -268h37q86 0 109.5 20.5t23.5 110.5v1208h180v-1229q0 -111 -36 -170q-63 -102 -238 -102l-76 6v156zM137 1266v204h180v-204h-180z" />
<glyph unicode="&#xbd;" horiz-adv-x="1366" d="M100 475h187q0 -182 131 -272q104 -72 274 -72q199 0 299 74q86 63 86 174q0 113 -64.5 165t-248.5 95l-301 70q-121 29 -193 84q-121 94 -120 262q0 190 118 313q137 141 387 141q338 0 480 -174q94 -115 94 -295h-187q0 156 -118 234q-98 66 -246 65q-131 0 -215 -45 q-121 -66 -121 -213q0 -86 53 -131q43 -37 121 -55l420 -96q154 -37 238 -125q96 -102 96 -268q0 -236 -193 -353q-154 -92 -383 -92q-182 0 -299 47q-76 31 -145 94q-86 78 -118 168t-32 205z" />
<glyph unicode="&#xbe;" horiz-adv-x="1024" d="M66 344h174q0 -88 47 -141q70 -78 237 -78q109 0 172 39q74 45 74 131q0 61 -44 92t-169 62l-209 51q-119 29 -180 88q-68 66 -68 172q0 166 123 258q113 84 283 84q190 0 299.5 -94.5t109.5 -241.5h-174q0 72 -41 115q-63 66 -213 65q-74 0 -127 -24q-86 -39 -86 -127 q0 -61 45 -93q33 -23 150 -51l180 -45q164 -41 232.5 -106.5t68.5 -175.5q0 -162 -118.5 -258.5t-305.5 -96.5q-276 0 -389 140q-72 90 -71 235z" />
<glyph unicode="&#xbf;" horiz-adv-x="569" d="M27 1237v209h186v-209h-186zM195 0v1071h180v-1071h-180zM358 1237v209h187v-209h-187z" />
<glyph unicode="&#xc0;" horiz-adv-x="1366" d="M27 0l553 1470h225l532 -1470h-217l-145 428h-590l-154 -428h-204zM446 604h457l-217 647z" />
<glyph unicode="&#xc1;" horiz-adv-x="1366" d="M156 0v1470h1036v-176h-838v-444h486q223 0 342 -133q104 -119 104 -299q0 -174 -134 -296t-312 -122h-684zM354 170h437q133 0 206 55q84 63 84 195q0 143 -77.5 201.5t-221.5 58.5h-428v-510z" />
<glyph unicode="&#xc2;" horiz-adv-x="1366" d="M156 0v1470h647q199 0 311 -108q104 -102 105 -262q0 -88 -37 -160q-49 -96 -160 -147q115 -47 168 -99q98 -96 98 -260q0 -186 -127 -305q-137 -129 -373 -129h-632zM354 170h424q154 0 233 70.5t79 197.5q0 137 -111 199q-88 49 -234 49h-391v-516zM354 848h359 q152 0 225 51q82 57 82 186q0 106 -71.5 160.5t-233.5 54.5h-361v-452z" />
<glyph unicode="&#xc3;" d="M156 2v1468h964v-176h-766v-1292h-198z" />
<glyph unicode="&#xc4;" horiz-adv-x="1366" d="M35 176h98q51 84 73.5 180.5t22.5 216.5v897h981v-1294h113v-450h-180v274h-928v-274h-180v450zM322 176h690v1118h-594v-721q0 -227 -96 -397z" />
<glyph unicode="&#xc5;" horiz-adv-x="1366" d="M156 0v1470h1071v-176h-873v-450h805v-176h-805v-492h887v-176h-1085z" />
<glyph unicode="&#xc6;" horiz-adv-x="2045" d="M33 0l569 864l-553 606h275l604 -712v712h198v-712l605 712h274l-553 -606l569 -864h-258l-454 725l-183 -209v-516h-198v516l-183 209l-454 -725h-258z" />
<glyph unicode="&#xc7;" horiz-adv-x="1366" d="M90 475h186q0 -184 132 -272q106 -72 286 -72q141 0 250 66q133 80 133 225q0 147 -137 217q-113 57 -289 57l-145 -4v162q31 -4 76 -4h84q139 0 243 55q119 63 119 172q0 147 -125 213q-88 45 -223 45q-152 0 -252 -63q-125 -80 -125 -236h-186q0 170 110 295 q154 174 475 174q229 0 375 -114.5t146 -298.5q0 -139 -99 -226q-72 -61 -172 -82q119 -18 213 -104q113 -102 113 -250q0 -231 -186 -358q-162 -111 -396 -111q-348 0 -503 205q-102 135 -103 309z" />
<glyph unicode="&#xc8;" horiz-adv-x="1478" d="M156 0v1470h192v-1187l739 1187h236v-1470h-193v1188l-751 -1188h-223z" />
<glyph unicode="&#xc9;" horiz-adv-x="1478" d="M156 0v1470h192v-1187l739 1187h236v-1470h-193v1188l-751 -1188h-223zM428 1735h100q6 -23 16.5 -48.5t35 -52t65.5 -44t105 -17.5q106 0 159 57q31 33 52 105h98q-16 -145 -105 -215q-80 -63 -221 -64q-137 0 -213 67.5t-92 211.5z" />
<glyph unicode="&#xca;" horiz-adv-x="1366" d="M156 0v1470h198v-712l713 712h274l-612 -593l629 -877h-258l-514 737l-232 -221v-516h-198z" />
<glyph unicode="&#xcb;" horiz-adv-x="1366" d="M29 -29v179q119 0 166 71q37 55 36 176v1073h983v-1470h-198v1294h-596v-897q0 -248 -125 -350q-92 -76 -266 -76z" />
<glyph unicode="&#xcc;" horiz-adv-x="1705" d="M156 0v1470h284l420 -1243l422 1243h283v-1470h-193v868l4 367l-418 -1235h-196l-414 1233v-365v-868h-192z" />
<glyph unicode="&#xcd;" horiz-adv-x="1478" d="M156 0v1470h198v-608h768v608h199v-1470h-199v686h-768v-686h-198z" />
<glyph unicode="&#xce;" horiz-adv-x="1593" d="M86 735q0 295 150 506q190 268 561 268t561 -268q150 -211 149 -506q0 -295 -149 -506q-190 -268 -561 -268t-561 268q-150 211 -150 506zM285 735q0 -264 138 -431t374 -167t374 167t138 431t-135 428q-141 170 -377 170t-374 -167t-138 -431z" />
<glyph unicode="&#xcf;" horiz-adv-x="1478" d="M156 0v1470h1165v-1470h-199v1294h-768v-1294h-198z" />
<glyph unicode="&#xd0;" horiz-adv-x="1366" d="M156 -2v1470h684q201 0 318.5 -115.5t117.5 -297.5q0 -176 -98 -295q-117 -141 -338 -142h-486v-620h-198zM354 788h418q143 0 217 58q82 63 82 207q0 131 -84 192q-74 53 -207 53h-426v-510z" />
<glyph unicode="&#xd1;" horiz-adv-x="1478" d="M90 743q0 344 184.5 555t501.5 211q266 0 432 -147q150 -133 172 -334h-192q-37 174 -172 250q-98 55 -240 55q-211 0 -340 -145q-141 -158 -141 -438q0 -283 106 -437q123 -176 381 -176q133 0 232 72q143 104 188 332h193q-37 -250 -178 -398q-106 -111 -267 -155 q-94 -27 -198 -27q-281 0 -457 178q-205 207 -205 604z" />
<glyph unicode="&#xd2;" horiz-adv-x="1251" d="M29 1294v176h1194v-176h-498v-1294h-199v1294h-497z" />
<glyph unicode="&#xd3;" horiz-adv-x="1366" d="M35 1470h248l460 -860l373 860h227l-606 -1296q-41 -84 -84 -129q-53 -56 -121 -70q-31 -8 -65 -8q-37 0 -50.5 2t-82.5 23v182q51 -29 100 -29q78 0 115 72l88 176z" />
<glyph unicode="&#xd4;" horiz-adv-x="1705" d="M74 735q0 244 168 406q186 178 514 178v151h196v-153q326 0 512 -178q170 -162 170 -404q0 -244 -168 -405q-186 -178 -514 -178v-152h-196v152q-328 0 -514 178q-168 162 -168 405zM279 735q0 -217 135 -327q123 -101 342 -101v856q-219 0 -342 -100 q-135 -111 -135 -328zM952 307q219 0 342 101q135 111 136 327q0 217 -136 328q-123 100 -342 100v-856z" />
<glyph unicode="&#xd5;" horiz-adv-x="1366" d="M39 0l520 754l-493 716h249l371 -563l377 563h237l-497 -716l524 -754h-246l-401 604l-401 -604h-240z" />
<glyph unicode="&#xd6;" horiz-adv-x="1478" d="M156 0v1470h198v-1294h768v1294h199v-1294h113v-450h-181v274h-1097z" />
<glyph unicode="&#xd7;" horiz-adv-x="1478" d="M156 967v503h198v-485q0 -123 86 -178q74 -47 207 -47q135 0 320 51q59 16 155 51v608h199v-1470h-199v686q-104 -39 -170 -57q-207 -59 -362 -60q-195 0 -301 78q-133 98 -133 320z" />
<glyph unicode="&#xd8;" horiz-adv-x="1744" d="M156 0v1470h198v-1294h410v1294h199v-1294h411v1294h199v-1470h-1417z" />
<glyph unicode="&#xd9;" horiz-adv-x="1744" d="M156 0v1470h198v-1294h410v1294h199v-1294h411v1294h199v-1294h113v-450h-181v274h-1349z" />
<glyph unicode="&#xda;" horiz-adv-x="1478" d="M-2 1303v167h469v-620h485q221 0 338 -141q98 -119 99 -295q0 -180 -121 -297t-316 -117h-684v1303h-270zM467 170h426q137 0 207 51q84 61 84 195q0 143 -78 203.5t-221 60.5h-418v-510z" />
<glyph unicode="&#xdb;" horiz-adv-x="1781" d="M156 0v1470h198v-620h463q221 0 338 -141q98 -119 98 -295q0 -182 -117.5 -298t-318.5 -116h-661zM354 170h404q137 0 207 51q84 61 84 195q0 143 -78 203.5t-221 60.5h-396v-510zM1427 0v1470h199v-1470h-199z" />
<glyph unicode="&#xdc;" horiz-adv-x="1366" d="M156 0v1470h198v-620h486q221 0 338 -141q98 -119 98 -295q0 -182 -118 -298t-318 -116h-684zM354 170h426q137 0 207 51q84 61 84 195q0 143 -78 203.5t-221 60.5h-418v-510z" />
<glyph unicode="&#xdd;" horiz-adv-x="1478" d="M84 479h192q39 -186 193 -276q113 -66 248 -66q229 0 350 150q115 141 115 381h-803v166h801q-25 240 -145 369.5t-312 129.5q-145 0 -248 -55q-139 -76 -184 -250h-193q41 203 189 332q170 150 436 149q311 0 491 -215q174 -207 175 -551q0 -395 -205 -602 q-178 -180 -457 -180q-94 0 -197 29q-160 45 -266 143q-143 133 -180 346z" />
<glyph unicode="&#xde;" horiz-adv-x="1972" d="M156 0v1470h198v-608h187q37 270 178 436q178 211 491 211q354 0 535 -268q141 -211 141 -506q0 -297 -145 -506q-186 -268 -551 -268q-324 0 -502 244q-149 205 -149 481h-185v-686h-198zM739 735q0 -264 127 -431t344 -167q225 0 348 165t123 433q0 264 -127 431 t-344 167q-225 0 -348 -164.5t-123 -433.5z" />
<glyph unicode="&#xdf;" horiz-adv-x="1478" d="M98 0l459 633q-160 0 -274 94q-143 117 -144 340q0 215 150 317q125 86 334 86h680v-1470h-199v631h-301l-445 -631h-260zM344 1055q0 -147 94 -209q70 -45 205 -45h461v499h-496q-109 0 -168 -36q-96 -59 -96 -209z" />
<glyph unicode="&#xe0;" d="M74 279q0 111 49 186q82 125 276 149l297 37q43 4 64 25q31 29 31 102q0 174 -252 174q-135 0 -195 -71q-37 -45 -51 -136h-166q0 186 115.5 271.5t326.5 85.5q131 0 230 -45q168 -76 168 -254v-617q0 -63 59 -63l59 8v-131q-31 -8 -53 -14t-45 -6q-109 0 -156 51 q-35 39 -34 112q-68 -74 -142 -114q-106 -59 -245 -60q-150 0 -243 85t-93 225zM260 305q0 -186 195 -186q131 0 231 72.5t100 179.5v176q-23 -18 -82 -32.5t-215 -35.5q-96 -14 -147 -41q-82 -43 -82 -133z" />
<glyph unicode="&#xe1;" d="M72 610q0 328 82 508q70 154 208 242q63 39 178 52t234 13h40h15q48 7 48 48h127q0 -18 -2.5 -63.5t-51.5 -88.5q-57 -51 -285.5 -67.5t-306.5 -84.5q-47 -41 -77.5 -102t-55.5 -168q86 94 148 127q86 45 227 45q215 0 348 -174q121 -158 121 -377q0 -227 -121 -377 q-139 -174 -393 -174q-190 0 -319 135q-164 170 -164 506zM260 520q0 -131 57 -239q82 -156 254 -156t254 156q58 108 58 239t-58 240q-82 156 -254 155q-172 0 -254 -155q-57 -109 -57 -240z" />
<glyph unicode="&#xe2;" horiz-adv-x="1130" d="M139 0v1071h527q166 0 247 -80q70 -70 70 -190q0 -66 -35 -123q-47 -76 -145 -113q102 -27 153 -63q90 -66 91 -187q0 -141 -86 -221q-100 -94 -308 -94h-514zM319 150h324q123 0 172 38.5t49 130.5q0 88 -55 123t-197 35h-293v-327zM319 621h265q119 0 168 36.5 t49 133.5q0 70 -46 100.5t-169 30.5h-267v-301z" />
<glyph unicode="&#xe3;" horiz-adv-x="833" d="M139 0v1071h697v-149h-517v-922h-180z" />
<glyph unicode="&#xe4;" horiz-adv-x="1054" d="M0 150h74q23 12 49.5 75.5t26.5 128.5v717h765v-921h97v-424h-160v274h-692v-274h-160v424zM248 150h487v772h-416v-568q0 -82 -24 -137q-16 -37 -47 -67z" />
<glyph unicode="&#xe5;" d="M82 506q0 264 123 422q135 174 391 174q227 0 344 -167t117 -458h-783q0 -170 79 -261t233 -91q117 0 202 76q74 66 74 135h180q-8 -59 -45 -131q-53 -100 -145 -162q-51 -35 -98 -49q-78 -25 -193 -25q-221 0 -350 149.5t-129 387.5zM274 621h596q0 139 -65 221 q-78 98 -234 98q-123 0 -210 -95t-87 -224z" />
<glyph unicode="&#xe6;" horiz-adv-x="1478" d="M-2 0l455 631l-430 440h229l399 -453v453h174v-453l400 453h229l-430 -440l455 -631h-232l-354 500l-68 -94v-406h-174v406l-67 94l-355 -500h-231z" />
<glyph unicode="&#xe7;" horiz-adv-x="1024" d="M66 346h170q0 -123 70.5 -176t215.5 -53q115 0 176 39q78 49 78 155q0 113 -88 156q-63 31 -205 31l-133 -4v135l146 -2q104 0 168.5 39t64.5 118q0 98 -67 138q-53 31 -152 30q-121 0 -185.5 -47t-64.5 -149h-170q0 166 118 253t318 87q176 0 285 -88q100 -82 100 -197 q0 -123 -75 -184q-45 -37 -131 -54q113 -16 174 -67q82 -68 82 -193q0 -162 -130 -256q-119 -86 -307 -86q-272 0 -387 150q-72 94 -71 225z" />
<glyph unicode="&#xe8;" d="M139 0v1071h180v-803l463 803h219v-1071h-180v803l-473 -803h-209z" />
<glyph unicode="&#xe9;" d="M139 0v1071h180v-803l463 803h219v-1071h-180v803l-473 -803h-209zM256 1497h100q6 -23 16.5 -48.5t35 -52t65.5 -44t105 -17.5q106 0 159 58q31 33 51 104h99q-16 -145 -105 -215q-80 -63 -221 -63q-137 0 -213 67.5t-92 210.5z" />
<glyph unicode="&#xea;" horiz-adv-x="1024" d="M137 0v1071h174v-453l461 453h229l-471 -440l496 -631h-231l-396 500l-88 -94v-406h-174z" />
<glyph unicode="&#xeb;" horiz-adv-x="1054" d="M25 -16v166q74 0 99.5 27.5t25.5 111.5v782h765v-1071h-180v922h-416v-633q0 -115 -51 -193q-76 -113 -243 -112z" />
<glyph unicode="&#xec;" horiz-adv-x="1478" d="M139 0v1071h269l333 -842l330 842h268v-1071l-174 -2v623q0 84 2 135t9 94h-15l-336 -850h-172l-336 850h-14q2 -25 2 -41q8 -117 8 -188v-621h-174z" />
<glyph unicode="&#xed;" d="M139 0v1071h180v-442h502v442h180v-1071h-180v485h-502v-485h-180z" />
<glyph unicode="&#xee;" d="M72 537q0 231 118 387q135 178 379 178q242 0 377 -178q121 -158 121 -387q0 -231 -119 -387q-135 -178 -379 -179q-242 0 -376 179q-121 158 -121 387zM258 537q0 -152 57 -258q82 -152 254 -152q170 0 252 149q59 109 60 261q0 152 -58 258q-82 152 -254 151 q-170 0 -252 -149q-59 -109 -59 -260z" />
<glyph unicode="&#xef;" d="M139 0v1071h862v-1071h-180v922h-502v-922h-180z" />
<glyph unicode="&#xf0;" d="M135 -424v1495h170v-151q80 104 146 139q80 43 178 43q207 0 329 -154q117 -147 117 -381q0 -236 -98 -395q-125 -203 -373 -203q-100 0 -173 40t-112 104l-4 -537h-180zM307 485q0 -190 103 -286q79 -74 190 -74q141 0 215 114.5t74 299.5q0 162 -41 252 q-70 150 -252 149q-172 0 -242 -162q-47 -109 -47 -293z" />
<glyph unicode="&#xf1;" horiz-adv-x="1024" d="M61 506q0 264 123 422q135 174 391 174q197 0 306 -125q96 -111 96 -266h-174q-16 111 -80 170t-174 59q-156 0 -232 -129q-63 -106 -63 -274q0 -174 53 -275q72 -137 240 -137q92 0 162.5 66.5t93.5 187.5h174q-18 -162 -107 -268q-117 -141 -329 -142 q-221 0 -350.5 149.5t-129.5 387.5z" />
<glyph unicode="&#xf2;" horiz-adv-x="909" d="M23 922v149h864v-149h-342v-922h-180v922h-342z" />
<glyph unicode="&#xf3;" horiz-adv-x="1024" d="M23 1071h204l285 -872l291 872h198q-94 -262 -187 -522t-198 -529q-129 -328 -188 -393t-231 -65q-20 0 -41 6l-35 10v164q23 -8 47.5 -13t60.5 -5q68 0 99 40q25 33 92 207z" />
<glyph unicode="&#xf4;" horiz-adv-x="1478" d="M70 567q0 225 73 365q90 170 275 170q102 0 162 -53q14 -12 75 -101l-6 123v328h180v-328l-10 -123q70 92 78 99q63 55 164 55q182 0 272 -170q76 -141 76 -365q0 -328 -113 -477q-92 -121 -260 -121q-61 0 -112.5 40t-89.5 104l-5 -537h-180v537q-45 -66 -88 -101 q-55 -43 -119 -43q-213 0 -305 203q-68 150 -67 395zM256 539q0 -201 37 -295q47 -119 166 -119q88 0 139 65q68 88 68 295q0 221 -35 320q-47 135 -172 135q-121 0 -170 -137q-33 -92 -33 -264zM813 485q0 -207 68 -295q51 -65 139 -65q119 0 166 119q37 92 37 295 q0 170 -33 264q-47 137 -170 137t-170 -135q-37 -104 -37 -320z" />
<glyph unicode="&#xf5;" horiz-adv-x="1024" d="M23 0l376 551l-358 520h231l248 -377l248 377h221l-362 -520l377 -551h-230l-266 403l-258 -403h-227z" />
<glyph unicode="&#xf6;" d="M139 0v1071h180v-921h502v921h180v-921h99v-424h-160v274h-801z" />
<glyph unicode="&#xf7;" d="M139 690v381h180v-354q0 -82 62 -119q51 -31 143 -31q86 0 201 29q37 8 96 29v446h180v-1071h-180v483q-70 -25 -114 -37q-137 -37 -250 -36q-141 0 -219 55q-98 70 -99 225z" />
<glyph unicode="&#xf8;" horiz-adv-x="1478" d="M139 0v1071h180v-921h330v921h180v-921h330v921h180v-1071h-1200z" />
<glyph unicode="&#xf9;" horiz-adv-x="1478" d="M139 0v1071h180v-921h330v921h180v-921h330v921h180v-921h99v-424h-160v274h-1139z" />
<glyph unicode="&#xfa;" d="M0 922v149h436v-450h230q207 0 304 -80.5t97 -225.5q0 -137 -90 -219q-104 -96 -311 -96h-410v922h-256zM436 150h228q123 0 172 38.5t49 130.5q0 86 -50.5 122t-168.5 36h-230v-327z" />
<glyph unicode="&#xfb;" horiz-adv-x="1441" d="M139 0v1071h180v-450h232q205 0 307 -82q94 -77 94 -224q0 -137 -90 -219q-104 -96 -311 -96h-412zM319 150h230q123 0 172 38.5t49 130.5q0 158 -219 158h-232v-327zM1122 0v1071h181v-1071h-181z" />
<glyph unicode="&#xfc;" horiz-adv-x="1024" d="M139 0v1071h180v-450h232q205 0 307 -82q94 -77 94 -224q0 -137 -90 -219q-104 -96 -311 -96h-412zM319 150h230q123 0 172 38.5t49 130.5q0 158 -219 158h-232v-327z" />
<glyph unicode="&#xfd;" horiz-adv-x="1118" d="M74 336h178q10 -63 88 -133q86 -78 170 -78q158 0 243 95t85 259h-506v142h502q0 133 -74 223q-84 102 -234 102q-119 0 -198 -82q-59 -61 -84 -153h-168q23 135 127 245q131 139 323 140q248 0 387 -183q119 -156 119 -366q0 -262 -131 -416q-137 -162 -389 -162 q-180 0 -311 140q-100 106 -127 227z" />
<glyph unicode="&#xfe;" horiz-adv-x="1536" d="M139 0v1071h180v-442h189q25 203 133 327q125 145 338 146q240 0 367 -178q111 -154 110 -387q0 -236 -108 -387q-127 -178 -369 -179q-227 0 -358 160q-117 143 -117 354h-185v-485h-180zM688 537q0 -160 47 -258q72 -152 244 -152q170 0 242 149q49 102 49 261 q0 152 -53 258q-76 152 -238 151q-170 0 -242 -149q-49 -102 -49 -260z" />
<glyph unicode="&#xff;" d="M82 0l332 455q-88 0 -172 80q-96 92 -97 223q0 152 103.5 232.5t290.5 80.5h456v-1071h-180v451h-194l-318 -451h-221zM338 758q0 -164 201 -164h276v328h-276q-201 0 -201 -164z" />
<glyph unicode="&#x2000;" horiz-adv-x="922" />
<glyph unicode="&#x2001;" horiz-adv-x="1845" />
<glyph unicode="&#x2002;" horiz-adv-x="922" />
<glyph unicode="&#x2003;" horiz-adv-x="1845" />
<glyph unicode="&#x2004;" horiz-adv-x="615" />
<glyph unicode="&#x2005;" horiz-adv-x="461" />
<glyph unicode="&#x2006;" horiz-adv-x="307" />
<glyph unicode="&#x2007;" horiz-adv-x="307" />
<glyph unicode="&#x2008;" horiz-adv-x="230" />
<glyph unicode="&#x2009;" horiz-adv-x="369" />
<glyph unicode="&#x200a;" horiz-adv-x="102" />
<glyph unicode="&#x2010;" horiz-adv-x="681" d="M90 475v184h502v-184h-502z" />
<glyph unicode="&#x2011;" horiz-adv-x="681" d="M90 475v184h502v-184h-502z" />
<glyph unicode="&#x2012;" horiz-adv-x="681" d="M90 475v184h502v-184h-502z" />
<glyph unicode="&#x2013;" d="M0 492v149h1139v-149h-1139z" />
<glyph unicode="&#x2014;" horiz-adv-x="2048" d="M0 492v149h2048v-149h-2048z" />
<glyph unicode="&#x2018;" horiz-adv-x="454" d="M133 963v200q0 131 43 205q51 88 170 117v-96q-70 -10 -94 -84q-14 -43 -14 -125h108v-217h-213z" />
<glyph unicode="&#x2019;" horiz-adv-x="454" d="M109 948v96q70 10 94 84q14 43 14 125h-108v217h213v-200q0 -131 -43 -205q-51 -88 -170 -117z" />
<glyph unicode="&#x201a;" horiz-adv-x="454" d="M109 0v217h213v-201q0 -131 -43 -204q-51 -88 -170 -117v96q70 10 94 84q14 43 14 125h-108z" />
<glyph unicode="&#x201c;" horiz-adv-x="681" d="M78 963v200q0 131 43 205q51 88 170 117v-96q-70 -10 -94 -84q-14 -43 -15 -125h109v-217h-213zM416 963v200q0 131 43 205q51 88 170 117v-96q-70 -10 -94 -84q-14 -43 -15 -125h109v-217h-213z" />
<glyph unicode="&#x201d;" horiz-adv-x="681" d="M53 948v96q70 10 94 84q14 43 15 125h-109v217h213v-200q0 -131 -43 -205q-51 -88 -170 -117zM391 948v96q70 10 94 84q14 43 15 125h-109v217h213v-200q0 -131 -43 -205q-51 -88 -170 -117z" />
<glyph unicode="&#x201e;" horiz-adv-x="681" d="M53 0v217h213v-201q0 -131 -43 -204q-51 -88 -170 -117v96q70 10 94 84q14 43 15 125h-109zM391 0v217h213v-201q0 -131 -43 -204q-51 -88 -170 -117v96q70 10 94 84q14 43 15 125h-109z" />
<glyph unicode="&#x2022;" horiz-adv-x="716" d="M37 735q0 135 92 229.5t229 94.5q135 0 229.5 -94.5t94.5 -229.5q0 -133 -94 -227t-230 -94q-133 0 -227 92t-94 229z" />
<glyph unicode="&#x2026;" horiz-adv-x="2048" d="M236 0v217h213v-217h-213zM918 0v217h212v-217h-212zM1599 0v217h213v-217h-213z" />
<glyph unicode="&#x202f;" horiz-adv-x="369" />
<glyph unicode="&#x2039;" horiz-adv-x="681" d="M180 473v189l322 251v-180l-215 -166l215 -166v-180z" />
<glyph unicode="&#x203a;" horiz-adv-x="681" d="M180 221v180l215 166l-215 166v180l322 -251v-189z" />
<glyph unicode="&#x205f;" horiz-adv-x="461" />
<glyph unicode="&#x2122;" horiz-adv-x="2048" d="M94 1348v122h670v-122h-260v-721h-150v721h-260zM911 627v843h230l241 -620l238 620h229v-843h-149v686l-268 -686h-103l-264 686l-4 -686h-150z" />
<glyph unicode="&#x25fc;" horiz-adv-x="1075" d="M0 0v1075h1075v-1075h-1075z" />
</font>
</defs>
</svg>
