<?xml version="1.0" standalone="no"?>
<!DOCTYPE svg PUBLIC "-//W3C//DTD SVG 1.1//EN" "http://www.w3.org/Graphics/SVG/1.1/DTD/svg11.dtd" >
<svg xmlns="http://www.w3.org/2000/svg" xmlns:xlink="http://www.w3.org/1999/xlink" version="1.1">
<metadata></metadata>
<defs>
<font id="a_cooperblacknrregular" horiz-adv-x="1013" >
<font-face units-per-em="2048" ascent="1638" descent="-410" />
<missing-glyph horiz-adv-x="737" />
<glyph horiz-adv-x="0" />
<glyph unicode="&#xd;" horiz-adv-x="681" />
<glyph unicode=" "  horiz-adv-x="737" />
<glyph unicode="&#x09;" horiz-adv-x="737" />
<glyph unicode="&#xa0;" horiz-adv-x="737" />
<glyph unicode="!" horiz-adv-x="624" d="M106 1149q0 150 55.5 231.5t149.5 81.5q96 0 150.5 -82t54.5 -231q0 -90 -18.5 -184.5t-51.5 -192.5q-74 -213 -137 -213q-43 0 -102 137q-51 115 -76 229.5t-25 223.5zM121 205q0 98 55 165.5t135 67.5q82 0 137.5 -67.5t55.5 -165.5q0 -96 -55.5 -164t-137.5 -68 q-80 0 -135 68t-55 164z" />
<glyph unicode="&#x22;" horiz-adv-x="577" d="M53 1292q0 51 26.5 85t70.5 34q43 0 69.5 -34t26.5 -85q0 -10 -1 -18t-3 -19l-74 -448h-37l-74 448q-2 10 -3 18.5t-1 18.5zM334 1292q0 51 25.5 85t68.5 34q45 0 70.5 -34t25.5 -85q0 -10 -1 -18t-1 -19l-73 -448h-39l-72 448q-2 10 -3 18.5t-1 18.5z" />
<glyph unicode="#" d="M57 444q0 31 14.5 66t36 64.5t43 50t37.5 20.5q8 0 20.5 -2t20.5 -2q18 0 23 41l8 57v15q0 27 -27 26q-4 0 -34.5 -2t-63.5 -2q-37 0 -37 31q0 10 9.5 33.5t20.5 49t22.5 47t15.5 30.5q27 43 65 43q8 0 20.5 -2t18.5 -2q23 0 25 38l6 39q6 49 6 142q0 27 19.5 51t47 42.5 t60.5 29t60 10.5q29 0 28 -29q0 -27 -5 -49.5t-13 -85.5l-17 -147q-2 -10 -3 -15.5t-1 -7.5q0 -27 39 -27h43q27 0 36 9.5t13 40.5l4 36q6 55 7 140q0 27 18.5 51t47 42.5t60 30t60.5 11.5q31 0 31 -29q0 -27 -6.5 -49.5t-14.5 -85.5l-18 -147q-2 -10 -2 -16.5v-8.5 q0 -25 30 -25q68 0 78 2t15.5 2h9.5q29 0 29 -32q0 -8 -11.5 -41t-28 -68t-38 -63.5t-41.5 -28.5q-6 0 -23.5 4t-29.5 4q-20 0 -23 -39l-6 -47q-2 -10 -3 -16t-1 -10q0 -31 49 -31q18 0 32.5 1t28.5 3q8 0 14.5 1t10.5 1q27 0 27 -31q0 -18 -11.5 -52t-28 -67.5t-38 -58 t-39.5 -24.5q-8 0 -25.5 3t-29.5 3t-20.5 -45t-14.5 -100.5t-13.5 -104.5t-15.5 -58q-6 -6 -29.5 -19t-50 -26.5t-50.5 -22.5t-32 -9q-29 0 -28 36q0 51 11 112t19 126l8 57q0 6 1.5 12.5t1.5 12.5q0 35 -37 35h-52q-37 0 -38 -43l-5 -21q-4 -43 -7 -86t-3 -82 q0 -31 -18.5 -59.5t-46 -51t-61.5 -35.5t-64 -13q-27 0 -27 39q0 45 11.5 108.5t21.5 126.5l6 45q4 39 -1 55.5t-40 16.5q-2 0 -30.5 -3t-51.5 -3q-35 0 -35 32zM442 659q0 -26 31 -26h57q23 0 29 7t10 36l6 57q4 25 5 23q0 25 -33 24h-58q-23 0 -28.5 -7t-9.5 -34l-7 -57 q-2 -8 -2 -23z" />
<glyph unicode="$" d="M29 260q0 178 94 178q25 0 52.5 -20.5t47.5 -52.5q43 -66 78 -112t109 -46q35 0 57 19.5t22 52.5q0 55 -60 86.5t-157 93.5q-113 74 -170 152.5t-57 215.5q0 86 26.5 162t78 133.5t124 92t162.5 40.5v78q0 39 14.5 47.5t63.5 8.5h51q41 0 56.5 -8.5t15.5 -43.5v-82 q305 -66 305 -233q0 -72 -39 -113t-88 -41q-45 0 -71.5 23.5t-53.5 58.5q-37 43 -70.5 75t-91.5 32q-45 0 -71.5 -20.5t-26.5 -47.5q0 -57 54.5 -84.5t146.5 -75.5q172 -84 257 -176t85 -235q0 -180 -99.5 -290t-285.5 -126v-82q0 -39 -38 -56.5t-126 -17.5q-27 0 -34 11.5 t-9 40.5l-10 106q-178 39 -260 95.5t-82 160.5z" />
<glyph unicode="%" horiz-adv-x="1521" d="M41 954q0 84 23.5 154t65.5 119t96.5 76.5t115.5 27.5q133 0 220 -108.5t87 -290.5q0 -168 -83 -275.5t-210 -107.5q-68 0 -125 30.5t-99 84t-66.5 128t-24.5 162.5zM283 991q0 -104 24.5 -166.5t52.5 -62.5q49 0 50 125q0 106 -24 169.5t-50 63.5q-53 0 -53 -129z M348 92q0 27 92 178.5t250 462.5q156 305 228.5 466t99.5 161q18 0 54 -24.5t95 -71.5q16 -12 17 -33q0 -20 -16.5 -44t-43.5 -63q-63 -88 -165.5 -269t-241.5 -456q-90 -178 -129 -280.5t-45 -116.5q-12 -37 -35 -37q-29 0 -137 88q-23 16 -23 39zM864 403q0 84 23.5 154 t65.5 120t97.5 77.5t116.5 27.5q133 0 219.5 -109.5t86.5 -289.5q0 -170 -84 -276.5t-211 -106.5q-66 0 -123.5 29.5t-99.5 84t-66.5 128t-24.5 161.5zM1106 444q0 -106 24.5 -168.5t53.5 -62.5q47 0 47 127q0 104 -23.5 167.5t-50.5 63.5q-51 0 -51 -127z" />
<glyph unicode="&#x26;" horiz-adv-x="1581" d="M74 561q0 135 54.5 239.5t158.5 170.5q-35 80 -35 147q0 152 97 250t267 98q131 0 203 -47t72 -112q0 -98 -90 -99q-39 0 -74 13.5t-68 13.5q-45 0 -73.5 -34t-28.5 -85q0 -84 70 -129q31 -20 58.5 -28.5t27.5 -53.5q0 -59 -34 -115.5t-83 -56.5q-23 0 -43.5 10.5 t-34.5 10.5q-33 0 -33 -119q0 -150 90 -273q84 -113 183 -112q74 0 124 51t50 111q0 45 -23.5 72.5t-56.5 27.5q-31 0 -53.5 -25.5t-48.5 -25.5q-25 0 -42.5 29.5t-17.5 76.5q0 78 56.5 144.5t171.5 138.5q78 49 141 85t109 68.5t71 66.5t25 77q0 33 -15.5 55.5t-36.5 22.5 q-18 0 -35.5 -16.5t-39.5 -16.5q-45 0 -45 63q0 33 16 67t47 61.5t72 45t90 17.5q109 0 174 -83t65 -222q0 -309 -368 -455q55 -102 55 -235q0 -82 -39 -169t-110 -155q-172 -162 -432 -162q-135 0 -244 45t-185.5 125t-117.5 189.5t-41 236.5z" />
<glyph unicode="'" horiz-adv-x="301" d="M55 1292q0 51 27 85t68 34q43 0 69.5 -34t26.5 -85q0 -10 -1 -18t-3 -19l-74 -448h-35l-74 448q-2 10 -3 18.5t-1 18.5z" />
<glyph unicode="(" horiz-adv-x="825" d="M98 606q0 186 52.5 347t146.5 280q100 127 213 192.5t190 65.5q84 0 84 -80q0 -25 -16 -39q-29 -33 -64.5 -61.5t-56.5 -67.5q-53 -90 -74.5 -241.5t-21.5 -368.5q0 -203 17.5 -350.5t49.5 -237.5q25 -70 56 -112t55 -72q20 -25 35.5 -43.5t15.5 -44.5q0 -27 -17.5 -45.5 t-51.5 -18.5q-51 0 -137.5 39t-180.5 123q-152 135 -223.5 314t-71.5 421z" />
<glyph unicode=")" horiz-adv-x="825" d="M41 1411q0 80 84 80q80 0 190.5 -65.5t212.5 -192.5q94 -119 146.5 -280t52.5 -347q0 -242 -71.5 -421t-221.5 -314q-94 -84 -180 -123t-139 -39q-68 0 -68 64q0 27 14.5 45t34.5 43q25 31 56.5 72.5t56.5 111.5q31 90 48 237.5t17 350.5q0 217 -20.5 368.5t-75.5 241.5 q-23 39 -57.5 67.5t-63.5 61.5q-16 16 -16 39z" />
<glyph unicode="*" horiz-adv-x="1077" d="M123 1108q0 66 39 110t98 44q39 0 66.5 -18.5t54.5 -53.5q43 -57 65 -57q23 0 23 18t-12.5 37.5t-25.5 41t-25.5 45t-12.5 52.5q0 57 40 97t106 40q63 0 104 -40t41 -97q0 -29 -12.5 -52.5t-25.5 -45t-25.5 -40t-12.5 -34.5q0 -22 27 -22q18 0 61 59q27 37 54.5 54.5 t66.5 17.5q59 0 99 -44t40 -110q0 -57 -38.5 -97t-94.5 -40q-33 0 -63.5 12t-63.5 12t-32 -22q0 -25 75 -49q115 -41 115 -138q0 -59 -46 -103t-106 -44q-53 0 -93 40t-40 95q0 14 1 23.5t1 13.5q0 74 -32 74q-33 0 -33 -76v-29q0 -61 -38 -101t-97 -40q-57 0 -102.5 44 t-45.5 101q0 98 111 138q76 25 76 53q0 23 -29 22q-33 0 -62.5 -13t-62.5 -13q-57 0 -95 38t-38 97z" />
<glyph unicode="+" horiz-adv-x="1206" d="M117 518q0 31 11 69t29.5 70.5t41 54t45.5 21.5q55 0 102 -5t64 -5h26q53 0 53 49v68q0 27 -7 72.5t-7 86.5q0 20 28.5 41t66.5 37.5t74 25.5t52 9q49 0 49 -43q0 -23 -5 -56.5t-5 -97.5v-143q0 -49 53 -49h111q61 0 93 5t73 5q20 0 30.5 -15.5t10.5 -31.5q0 -18 -8 -55 t-24.5 -72t-37 -61.5t-45.5 -26.5q-55 0 -80.5 6t-76.5 6h-46q-29 0 -41 -11t-12 -42v-18q0 -35 5 -86.5t5 -104.5q0 -20 -22.5 -42.5t-57 -41t-72.5 -30t-69 -11.5q-18 0 -33.5 19.5t-15.5 52.5q0 57 7 106.5t7 114.5v41q0 31 -12 42t-41 11h-49q-72 0 -120 -6t-103 -6 q-20 0 -33.5 16.5t-13.5 30.5z" />
<glyph unicode="," horiz-adv-x="505" d="M66 242q0 106 52 170.5t132 64.5q86 0 142.5 -85t56.5 -234q0 -104 -26 -196.5t-77 -188.5q-76 -137 -113 -138q-37 0 -61.5 16.5t-24.5 35.5q0 14 9.5 29.5t21.5 37.5q33 57 48.5 108.5t15.5 88.5q0 43 -14.5 50t-43.5 24q-55 27 -86.5 84t-31.5 133z" />
<glyph unicode="-" horiz-adv-x="628" d="M59 422q0 57 13.5 114.5t29.5 114.5q20 76 64 76q10 0 57 -5t133 -5q70 0 114 2t58 2q41 0 41 -53q0 -143 -57 -254q-20 -41 -33.5 -48.5t-58.5 -7.5q-37 0 -81 5.5t-91 5.5q-61 0 -97 -8.5t-49 -8.5q-27 0 -35 14.5t-8 55.5z" />
<glyph unicode="." horiz-adv-x="505" d="M53 215q0 100 57.5 170t141.5 70q86 0 143.5 -70t57.5 -170t-57.5 -171t-143.5 -71q-84 0 -141.5 71t-57.5 171z" />
<glyph unicode="/" horiz-adv-x="628" d="M51 -102l334 1562q6 33 44 40t116 7q33 0 33 -26q0 -4 -1.5 -13.5t-3.5 -21.5l-327 -1544q-6 -31 -40 -37t-100 -6q-29 0 -42 4t-13 20v15z" />
<glyph unicode="0" d="M31 645q0 139 32.5 250t104.5 201q143 178 342 178q96 0 184 -49t154 -138q135 -186 135 -477q0 -264 -125 -444q-135 -193 -336 -193q-96 0 -185 47.5t-159 137.5q-147 190 -147 487zM416 723q0 -178 39 -287.5t80 -109.5q68 0 67 190q0 186 -37 296t-78 110 q-71 0 -71 -199z" />
<glyph unicode="1" d="M74 133q0 88 80 88q14 0 26.5 -2t26.5 -2q39 0 54 22.5t24 82.5q6 53 10 168.5t4 291.5q0 82 -10 114t-74 32q-18 0 -32.5 -1t-24.5 -1q-63 0 -64 78q0 84 158 161q96 49 221 79t234 30q66 0 96.5 -20.5t30.5 -67.5q0 -29 -8.5 -45.5t-20.5 -26.5t-27.5 -17t-29.5 -18 q-23 -16 -27 -79.5t-4 -178.5v-114q0 -195 5 -304.5t32 -136.5q35 -35 70.5 -37t64.5 -10q41 -12 41 -86q0 -84 -92.5 -112.5t-284.5 -28.5q-242 0 -360.5 26.5t-118.5 114.5z" />
<glyph unicode="2" d="M29 68q0 45 57 111.5t145 187.5q190 264 191 399q0 35 -24.5 60.5t-61.5 25.5q-31 0 -52.5 -17.5t-47.5 -39.5q-25 -20 -44.5 -37t-44.5 -17q-45 0 -77.5 42t-32.5 102q0 80 86 178q80 88 186.5 135t237.5 47q182 0 285.5 -100.5t103.5 -247.5q0 -102 -42 -178t-112 -160 q-51 -63 -84.5 -101t-33.5 -75q0 -53 59 -53q51 0 94 37q33 27 52.5 53t48.5 26q33 0 57 -46t24 -132q0 -84 -18 -152.5t-45 -118.5t-60.5 -78t-64.5 -28q-20 0 -35.5 14.5t-30.5 39.5q-20 35 -42.5 45t-88.5 10h-479q-106 0 -106 68z" />
<glyph unicode="3" d="M-20 -12q0 70 24.5 106.5t65.5 36.5t94 -22.5t125 -22.5q94 0 147 50t53 126q0 70 -41.5 116t-111.5 46q-18 0 -40 -3t-50 -3q-41 0 -64.5 42t-23.5 107q0 37 7 54.5t19.5 26.5t30.5 14.5t43 15.5q121 55 121 172q0 55 -31 91t-82 36q-43 0 -81 -24.5t-72 -24.5 q-27 0 -47.5 32.5t-20.5 83.5q0 43 12.5 68t38.5 45q154 117 334 117q205 0 319.5 -87t114.5 -226q0 -129 -88 -211q-20 -18 -35.5 -27.5t-15.5 -26.5q0 -20 27.5 -21t62.5 -16q168 -66 168 -313q0 -121 -41 -221t-117.5 -173t-184.5 -114t-241 -41q-96 0 -174 17.5t-132 45 t-83.5 61.5t-29.5 67z" />
<glyph unicode="4" d="M4 160q0 68 22.5 135t63.5 143t98.5 164t128.5 199q150 223 256.5 345t206.5 122q70 0 91.5 -32t21.5 -118q0 -205 -8 -383t-8 -329v-15q0 -23 2 -30t16 -7q2 0 10 1t25 1q31 0 40 -14t9 -55v-205q0 -33 -8 -49.5t-29 -26.5q-14 -6 -24.5 -5t-17.5 -1t-10 -9t-3 -28 q0 -68 2 -107.5t2 -56.5q0 -47 -21.5 -58t-81.5 -11h-86q-174 0 -196 12q-20 10 -24.5 27.5t-4.5 44.5v159q0 27 -20 27h-336q-66 0 -91.5 40t-25.5 120zM233 375q0 -41 84 -41h115q43 0 54.5 14t11.5 64v260q0 27 -5.5 39t-25.5 12q-18 0 -42 -29.5t-63 -85.5 q-129 -197 -129 -233z" />
<glyph unicode="5" d="M37 508q0 29 7 87t24.5 140t47 183.5t72.5 211.5q25 66 42.5 91.5t60.5 25.5h579q51 0 65.5 -19.5t14.5 -101.5q0 -127 -43 -198.5t-121 -71.5h-327q-43 0 -67.5 -9t-24.5 -61q0 -20 41 -23t114 -24q217 -53 324.5 -152.5t107.5 -285.5q0 -199 -155 -344 q-80 -76 -192.5 -120t-229.5 -44q-160 0 -246 50.5t-86 140.5q0 119 57 118q25 0 74 -17t119 -17q63 0 98 37.5t35 99.5q0 119 -195 174q-98 27 -147 44t-49 85z" />
<glyph unicode="6" d="M39 592q0 332 272 690q45 57 79 87t67 30q72 0 172 -68q31 -20 47 -40.5t16 -51.5q0 -29 -20.5 -56.5t-50.5 -66.5q-84 -108 -119 -221q84 51 160 51q145 0 233 -111.5t88 -304.5q0 -121 -34 -214t-105 -177q-143 -170 -344 -170q-100 0 -185.5 44t-147 125t-95 196 t-33.5 258zM442 526q0 -100 34 -165.5t71 -65.5q49 0 49 113q0 102 -30.5 167.5t-67.5 65.5q-55 0 -56 -115z" />
<glyph unicode="7" d="M35 918q0 176 50 280.5t116 104.5q20 0 38.5 -14.5t41.5 -26.5q27 -10 60.5 -12.5t76.5 -2.5h434q74 0 107.5 -19.5t33.5 -80.5q0 -92 -86 -375t-213 -768q-23 -82 -35 -139.5t-24 -85.5q-16 -37 -103 -37q-115 0 -182 45t-67 80q0 45 52 164t138 323q76 178 116 279.5 t40 132.5q0 55 -60 55h-190q-33 0 -56.5 -9t-43.5 -36q-29 -35 -50.5 -59.5t-62.5 -24.5q-59 0 -95 58.5t-36 167.5z" />
<glyph unicode="8" d="M25 385q-1 172 120 274q-111 111 -110 287q0 188 120.5 301t340.5 113q225 0 345 -89t120 -245q0 -168 -138 -254q164 -115 164 -342q0 -104 -34.5 -189t-99.5 -145.5t-154 -94.5t-199 -34q-215 0 -361 139q-59 57 -86.5 124t-27.5 155zM322 436q0 -88 52 -149.5 t124 -61.5q41 0 66.5 24.5t25.5 63.5q0 68 -63.5 107t-188.5 96q-16 -43 -16 -80zM451 1055q0 -86 135 -154q45 47 45 117q0 51 -28 83t-77 32q-35 0 -55 -21.5t-20 -56.5z" />
<glyph unicode="9" d="M33 760q0 113 33.5 207t96 161.5t150.5 105.5t197 38t197 -38t150.5 -105.5t97 -162t34.5 -208.5q0 -428 -327 -891q-39 -53 -68 -81t-64 -28q-31 0 -76.5 16.5t-95.5 55.5q-63 49 -63 88q0 25 26.5 49.5t61.5 71.5q88 120 94 235q-59 -18 -106 -18q-143 0 -236 129 q-45 63 -73.5 163.5t-28.5 211.5zM432 825q0 -106 41 -174.5t84 -68.5q20 0 33.5 22.5t13.5 63.5q0 102 -37 179t-82 77q-23 0 -38 -26t-15 -73z" />
<glyph unicode=":" horiz-adv-x="600" d="M102 215q0 100 57.5 170t139.5 70q84 0 142.5 -70t58.5 -170t-58.5 -171t-142.5 -71q-82 0 -139.5 71t-57.5 171zM102 825q0 102 57.5 173t139.5 71q84 0 142.5 -70.5t58.5 -173.5q0 -100 -58.5 -170.5t-142.5 -70.5q-82 0 -139.5 70.5t-57.5 170.5z" />
<glyph unicode=";" horiz-adv-x="600" d="M104 242q0 106 52.5 170.5t130.5 64.5q88 0 145 -85t57 -234q0 -104 -25.5 -196.5t-76.5 -188.5q-74 -137 -113 -138q-41 0 -63.5 16.5t-22.5 35.5q0 14 8.5 29.5t22.5 37.5q33 57 48.5 108.5t15.5 88.5q0 43 -14.5 50t-47.5 24q-53 27 -85 84t-32 133zM104 829 q0 100 57.5 170t139.5 70t138.5 -69.5t56.5 -170.5q0 -98 -56.5 -166.5t-138.5 -68.5q-84 0 -140.5 68.5t-56.5 166.5z" />
<glyph unicode="&#x3c;" horiz-adv-x="1206" d="M141 453v270l916 387v-289l-559 -233l559 -234v-286z" />
<glyph unicode="=" horiz-adv-x="1206" d="M141 330v65q0 39 30 69t69 30h725q39 0 68.5 -30t29.5 -69v-65q0 -39 -29.5 -69t-68.5 -30h-725q-39 0 -69 30t-30 69zM141 782v66q0 41 30 69.5t69 28.5h725q39 0 68.5 -28.5t29.5 -69.5v-66q0 -41 -29.5 -69.5t-68.5 -28.5h-725q-39 0 -69 28.5t-30 69.5z" />
<glyph unicode="&#x3e;" horiz-adv-x="1206" d="M139 68v286l559 234l-559 233v289l916 -387v-270z" />
<glyph unicode="?" horiz-adv-x="927" d="M49 1071q0 102 72 205q59 88 145 136t189 48q90 0 166.5 -32.5t133 -86t88 -123t31.5 -143.5q0 -109 -63 -188q-31 -35 -61.5 -59.5t-57 -43t-48 -34t-32.5 -31.5q-14 -27 -18 -61.5t-19 -57.5q-31 -55 -92 -55q-68 0 -99.5 30.5t-31.5 108.5q0 70 22.5 124t49.5 110 q25 53 40 97t15 93q0 53 -20.5 87t-44.5 34q-33 0 -43.5 -44t-10.5 -134q0 -53 -44.5 -106.5t-110.5 -53.5q-76 0 -116 47t-40 133zM281 203q0 98 56 165.5t136 67.5t136.5 -67.5t56.5 -165.5q0 -96 -56.5 -164t-136.5 -68q-82 0 -137 68t-55 164z" />
<glyph unicode="@" horiz-adv-x="1908" d="M119 512q0 174 61.5 329.5t181.5 278.5q133 137 315.5 214t389.5 77q164 0 298 -48t229.5 -137t147.5 -213t52 -274t-45 -270.5t-141 -222.5q-63 -68 -138 -101.5t-155 -33.5q-96 0 -154.5 51t-60.5 131q-113 -180 -266 -180q-141 0 -226.5 89t-85.5 244q0 227 164 388 q74 74 160 112.5t170 38.5q188 0 207 -166l43 144h221l-168 -607q-12 -49 -12 -82q0 -90 63 -90q18 0 71.5 27t104.5 80q170 170 170 446q0 215 -102 353q-78 104 -219.5 169.5t-307.5 65.5q-137 0 -265 -46t-232 -134q-139 -119 -211 -286t-72 -372q0 -158 49.5 -283.5 t139.5 -213.5t221 -135.5t293 -47.5q170 0 311 51.5t289 147.5l43 -63q-289 -221 -639 -222q-209 0 -375 56.5t-281.5 161t-177 250t-61.5 323.5zM774 336q0 -137 105 -137q80 0 161 168q31 63 54.5 128.5t38 124t21.5 106.5t7 77q0 96 -86 96q-51 0 -90 -32.5t-78 -98.5 q-68 -121 -100.5 -243t-32.5 -189z" />
<glyph unicode="A" horiz-adv-x="1392" d="M-10 113q0 35 9 50t23.5 25.5t36 19.5t45.5 32q29 25 66 126t100 269q94 254 154.5 409.5t60.5 225.5q0 25 -6 38t-6 58q0 10 4 26.5t19.5 32t47 26.5t85.5 11q68 0 115 -12t85.5 -53t75.5 -119t82 -209l160 -457q25 -68 46 -132t40.5 -115.5t37 -85t32.5 -39.5 q57 -27 73.5 -51.5t16.5 -75.5t-70 -91t-266 -40q-182 0 -264 30.5t-82 100.5q0 39 15 58t34.5 31.5t35 25t15.5 36.5q0 82 -182 82h-66q-96 0 -140 -16.5t-44 -67.5q0 -29 16.5 -41t37 -22.5t36.5 -27.5t16 -58q0 -70 -62.5 -100.5t-195.5 -30.5q-125 0 -181 33.5t-56 97.5 zM485 612h252q-41 141 -75.5 211t-53.5 70q-20 0 -48 -71t-75 -210z" />
<glyph unicode="B" horiz-adv-x="1267" d="M27 102q0 57 24.5 71.5t61.5 53.5q12 12 20 32t14.5 60.5t8.5 110t2 184.5v222q0 127 -2 199.5t-6.5 109.5t-11.5 49t-17 16q-94 41 -94 123q0 59 37.5 82t117.5 23q51 0 104.5 -3t114.5 -3q49 0 102.5 3t104.5 6t95.5 6t74.5 3q193 0 286 -96.5t93 -257.5 q0 -59 -15.5 -108.5t-39.5 -82.5q-27 -33 -58.5 -59.5t-31.5 -48.5q0 -14 47 -31.5t94 -67.5q35 -39 58.5 -113.5t23.5 -162.5q0 -109 -36 -190.5t-99.5 -137t-150.5 -84t-189 -28.5q-113 0 -210 9t-196 9q-51 0 -106 -6t-90 -6q-78 0 -104.5 36.5t-26.5 77.5zM551 885 q0 -49 51 -49q68 0 98.5 41t30.5 141q0 106 -28.5 149t-108.5 43q-43 0 -43 -51v-274zM561 317q0 -53 19.5 -71.5t60.5 -18.5q137 0 137 205q0 96 -28.5 139t-112.5 43q-39 0 -57.5 -16t-18.5 -61v-220z" />
<glyph unicode="C" horiz-adv-x="1253" d="M41 700q0 152 48 288t133 238.5t197.5 163t242.5 60.5q59 0 107 -11.5t85 -23.5t62.5 -23.5t41.5 -11.5q18 0 39 9.5t45 9.5q33 0 65 -30t57.5 -79t41 -113.5t15.5 -134.5q0 -100 -47.5 -158.5t-112.5 -58.5q-53 0 -82 31t-61 105q-43 96 -99.5 139t-156.5 43 q-88 0 -139.5 -67.5t-51.5 -196.5q0 -256 98.5 -389.5t264.5 -133.5q57 0 106 22.5t94 61.5q25 23 50.5 51.5t66.5 28.5q31 0 54.5 -39t23.5 -100q0 -47 -14.5 -96t-38 -88t-51 -63.5t-56.5 -24.5q-27 0 -54.5 -21.5t-70.5 -48.5t-109.5 -48.5t-172.5 -21.5 q-129 0 -243 57.5t-198 158t-132 232.5t-48 283z" />
<glyph unicode="D" horiz-adv-x="1363" d="M25 115q0 51 10 67.5t24.5 23.5t32 14t31.5 41t24.5 104.5t10.5 201.5v244q0 141 -8.5 220t-20.5 118t-25.5 50t-25.5 19.5t-20.5 23.5t-8.5 65q0 82 53.5 106.5t161.5 24.5q35 0 69 -9.5t85 -9.5q33 0 108.5 9.5t210.5 9.5q283 0 436.5 -191.5t153.5 -537.5 q0 -350 -159.5 -538.5t-462.5 -188.5q-53 0 -127 9t-166 9q-47 0 -104.5 -9t-98.5 -9q-106 0 -145 38.5t-39 94.5zM565 408q0 -100 16.5 -133t53.5 -33q250 0 250 432q0 256 -60.5 381t-197.5 125q-18 0 -30.5 -6.5t-19 -26t-9.5 -59t-3 -107.5v-127v-446z" />
<glyph unicode="E" horiz-adv-x="1191" d="M20 96q0 31 8.5 49.5t20.5 30.5t26.5 22.5t26.5 24.5q33 39 43.5 168t10.5 383q0 123 -2 200t-6.5 123t-11.5 67.5t-17 35.5t-27.5 24.5t-33 24t-27 30.5t-11.5 48q0 109 142 109q49 0 156.5 -5.5t277.5 -5.5q109 0 180.5 5.5t117.5 10.5t75.5 10t54.5 5q45 0 72.5 -61.5 t27.5 -155.5q0 -117 -29.5 -181.5t-76.5 -64.5q-29 0 -54.5 39t-48.5 70q-37 51 -85 71.5t-115 20.5q-63 0 -99 -6t-57 -23q-6 -6 -10 -15t-7 -30.5t-4 -60.5t-1 -105q0 -78 11 -98t66 -20q45 0 62.5 20.5t17.5 46.5q0 61 16.5 97t51.5 36q57 0 91 -76.5t34 -224.5 q0 -158 -32 -246t-93 -88q-68 0 -68 113q0 33 -14 70t-64 37q-51 0 -60 -26t-9 -106q0 -72 1 -113.5t4 -65t8 -32t11 -14.5q16 -14 48 -19t94 -5q106 0 156.5 41t75 90t39.5 90t50 41q27 0 50.5 -10.5t40 -39t26.5 -79.5t10 -133q0 -43 -7 -92.5t-22.5 -90.5t-39 -67.5 t-58.5 -26.5q-10 0 -33.5 6t-70.5 12.5t-124 12.5t-198 6q-72 0 -118 -3t-83.5 -6t-78.5 -6t-101 -3q-84 0 -145.5 34.5t-61.5 79.5z" />
<glyph unicode="F" horiz-adv-x="1130" d="M27 133q0 51 17 72.5t44 34.5q20 10 33.5 23t21 56t10.5 124t3 227q0 244 -6.5 375t-16.5 149q-14 25 -38.5 31t-35.5 18q-14 14 -23 28.5t-9 43.5q0 123 155 123q29 0 120 -9.5t194 -9.5q137 0 225 6.5t141 14.5t81 14t44 6q51 0 92 -51t41 -182q0 -104 -23.5 -168 t-76.5 -64q-35 0 -52.5 33t-43.5 68q-59 74 -116.5 91t-145.5 17q-78 0 -93 -24q-8 -16 -14 -59.5t-6 -162.5q0 -66 15.5 -94t58.5 -28q37 0 58 32.5t21 65.5q0 41 12.5 71.5t49.5 30.5q59 0 94 -67.5t35 -231.5q0 -170 -29.5 -248.5t-91.5 -78.5q-35 0 -52.5 26.5 t-17.5 52.5q0 68 -21.5 106t-72.5 38q-33 0 -46 -16.5t-13 -57.5v-137q0 -106 18.5 -138t63.5 -44q82 -23 82 -105q0 -88 -83 -120.5t-255 -32.5q-176 0 -262 32.5t-86 118.5z" />
<glyph unicode="G" horiz-adv-x="1404" d="M49 721q0 152 53.5 290t149.5 246q184 203 453 203q117 0 184 -31.5t90 -31.5q25 0 50.5 18.5t51.5 18.5q66 0 119 -93.5t53 -240.5q0 -96 -38.5 -149.5t-106.5 -53.5q-59 0 -92 34t-70 93q-47 78 -96 117t-119 39q-102 0 -170.5 -95.5t-68.5 -246.5q0 -133 25.5 -241 t68.5 -182.5t99 -115.5t116 -41q86 0 86 127q0 49 -22.5 57.5t-71.5 12.5q-35 4 -59.5 34.5t-24.5 73.5q0 174 346 174q344 0 344 -170q0 -27 -11.5 -51t-25.5 -37q-33 -25 -57.5 -30t-30.5 -13q-8 -10 -11 -24.5t-8 -32.5q-10 -55 -28.5 -106.5t-59.5 -108.5 q-141 -203 -462 -203q-147 0 -268.5 55.5t-207.5 154.5t-133 239.5t-47 310.5z" />
<glyph unicode="H" horiz-adv-x="1419" d="M27 133q0 61 27.5 77.5t60.5 33.5q41 23 41 428q0 471 -25 510q-6 8 -23.5 16t-36 20.5t-31.5 33t-13 53.5q0 133 323 133q156 0 236 -30t80 -103q0 -41 -11.5 -64.5t-36.5 -42.5q-35 -25 -48 -54.5t-13 -99.5v-75q0 -57 26.5 -77t129.5 -20q98 0 123.5 19.5t25.5 77.5 v75q0 74 -9 108t-36 46t-45 39t-18 68q0 84 83 108.5t253 24.5q154 0 228.5 -29t74.5 -104q0 -61 -35 -81t-64 -46q-20 -20 -25 -131t-5 -320q0 -154 2 -247t7 -145t13 -73.5t21 -30.5q25 -14 55.5 -34.5t30.5 -73.5q0 -78 -86 -109.5t-242 -31.5q-311 0 -311 153 q0 78 53 103q16 8 27.5 17t17.5 34.5t8 73t2 131.5q0 74 -21.5 98t-82.5 24h-84q-70 0 -93.5 -24.5t-23.5 -97.5q0 -111 9 -173.5t22 -72.5q29 -23 53.5 -43.5t24.5 -69.5q0 -153 -322 -153h-4q-147 0 -230 39.5t-83 111.5z" />
<glyph unicode="I" horiz-adv-x="747" d="M43 135q0 59 31.5 81t60.5 50q29 25 36 143.5t7 340.5q0 135 -2 216t-6 125t-10 60t-15 25q-31 27 -58.5 45t-27.5 71q0 145 326 146q156 0 232.5 -33t76.5 -109q0 -31 -11 -51t-25.5 -33.5t-29 -22.5t-20.5 -22q-8 -14 -14 -50t-9 -114.5t-5 -207.5t-2 -332 q0 -82 5 -131t23 -70q27 -31 57.5 -53.5t30.5 -75.5q0 -149 -323 -149h-4q-158 0 -241 41.5t-83 109.5z" />
<glyph unicode="J" horiz-adv-x="1083" d="M10 367q0 111 53.5 178t135.5 67q84 0 137 -62.5t53 -156.5q0 -29 -9 -49t-9 -61q0 -25 15 -40.5t36 -15.5q51 0 76.5 54.5t25.5 173.5v555q0 104 -16 132.5t-62 37.5q-86 16 -86 110q0 80 89.5 114t267.5 34q170 0 251 -30t81 -116q0 -53 -16.5 -78.5t-49.5 -33.5 q-14 -4 -24.5 -14.5t-17.5 -47.5t-10 -110.5t-3 -202.5q0 -176 -5 -290t-18.5 -187.5t-36 -118.5t-55.5 -88q-119 -152 -358 -152q-209 0 -327 110.5t-118 287.5z" />
<glyph unicode="K" horiz-adv-x="1433" d="M29 109q0 51 19.5 78.5t62.5 52.5q14 8 23 32.5t14.5 83t7.5 158.5t2 258q0 170 -9.5 276.5t-29.5 127.5q-25 20 -57.5 47.5t-32.5 76.5q0 137 309 138q145 0 224 -31t79 -104q0 -41 -9 -61.5t-36 -39.5q-35 -25 -45 -72t-10 -135q0 -65 33 -65h1q23 0 42.5 20.5 t44.5 61.5q45 72 65.5 118t20.5 56q0 20 -14.5 47t-14.5 67q0 76 81 107t242 31q127 0 190.5 -28t63.5 -99q0 -49 -31.5 -81t-80.5 -32q-63 0 -109.5 -22.5t-91.5 -69.5q-61 -66 -80.5 -98.5t-19.5 -65.5q0 -16 4 -34.5t19.5 -51.5t45 -85t80.5 -132q80 -129 129 -204 t80 -114.5t50.5 -55t41.5 -25.5q45 -18 61.5 -53t16.5 -72q0 -74 -49 -103.5t-156 -29.5h-133q-78 0 -140.5 40.5t-133.5 157.5q-59 96 -91 151.5t-50.5 84t-31 37t-32.5 8.5q-33 0 -33 -72q0 -119 25 -149q18 -27 47 -48.5t29 -80.5q0 -78 -73 -103.5t-229 -25.5 q-162 0 -246.5 27.5t-84.5 99.5z" />
<glyph unicode="L" horiz-adv-x="1105" d="M33 123q0 41 20.5 51t46 36t46 88t20.5 208v303q0 162 -3 253t-20 112q-14 18 -32.5 25t-35 15.5t-27.5 25.5t-11 56q0 142 348 142q334 0 334 -131q0 -31 -9.5 -49.5t-23.5 -29.5t-29.5 -19.5t-29.5 -18.5q-33 -27 -42.5 -81t-9.5 -142q0 -49 1.5 -110.5t1.5 -135.5 v-158q0 -102 2 -167.5t6 -92.5q12 -53 108 -53q88 0 131 27.5t70 103.5q18 53 31.5 89t56.5 36q45 0 78 -62.5t33 -177.5q0 -41 -4.5 -93t-17.5 -99t-38.5 -79t-68.5 -32q-59 0 -130 18.5t-178 18.5q-80 0 -135 -3t-101 -6t-90 -6t-102 -3q-33 0 -67.5 2t-63 16t-47 42 t-18.5 81z" />
<glyph unicode="M" horiz-adv-x="1579" d="M16 102q0 35 11.5 54.5t27 32t31.5 20.5t25 20q10 16 18 47t13 93.5t8.5 162t3.5 250.5q0 129 -2 204t-8.5 116t-16.5 56.5t-25 25.5q-86 57 -86 133q0 59 53.5 90t182.5 31q88 0 153.5 -10.5t77.5 -20.5q20 -14 51 -65.5t64 -145.5q129 -360 195 -360q31 0 76.5 96 t119.5 305q25 70 50.5 113t47.5 59q18 14 58.5 21.5t148.5 7.5q121 0 184.5 -20.5t63.5 -100.5q0 -31 -10 -53.5t-43 -42.5q-10 -6 -21.5 -24.5t-20.5 -68t-15.5 -139.5t-6.5 -241q0 -225 9.5 -349.5t21.5 -146.5q4 -8 18.5 -15.5t30 -20.5t26.5 -34.5t11 -56.5 q0 -82 -79 -112.5t-238 -30.5q-156 0 -230.5 31.5t-74.5 115.5q0 29 8 46.5t20.5 28.5t24.5 19t20 21q20 33 25.5 109.5t5.5 201.5q0 63 -10 83.5t-23 20.5q-10 0 -19 -7t-21.5 -28.5t-27 -64.5t-36.5 -113q-41 -131 -68.5 -207.5t-48 -115.5t-38.5 -49.5t-38 -10.5 q-18 0 -34.5 9.5t-37 43.5t-46 101.5t-62.5 183.5q-27 90 -45 142.5t-30.5 78t-20.5 31.5t-19 6q-10 0 -16 -7t-10 -34.5t-6 -81t-3 -143.5q0 -109 12.5 -143.5t41.5 -48.5q59 -27 59 -107q0 -66 -56 -89t-177 -23q-117 0 -172.5 27.5t-55.5 92.5z" />
<glyph unicode="N" horiz-adv-x="1406" d="M10 1288q0 80 72 107.5t221 27.5q43 0 76 -4t57 -18q39 -29 92.5 -84t122.5 -135q141 -162 220 -248t114 -86q37 0 37 90q0 53 1 84t1 39q0 66 -11.5 96.5t-49.5 52.5q-25 14 -41.5 28.5t-16.5 68.5q0 80 61.5 104.5t192.5 24.5q121 0 178.5 -25t57.5 -98 q0 -51 -17.5 -71.5t-50.5 -41.5q-35 -23 -45 -55.5t-18 -124.5q-8 -96 -10 -208t-3 -237q-6 -186 -10 -301.5t-12 -162.5q-25 -125 -92 -125q-45 0 -126 82t-210 227q-154 172 -233 270.5t-111 98.5q-33 0 -43.5 -45.5t-10.5 -139.5t9.5 -152.5t17.5 -72.5t23.5 -23.5 t31 -21.5t26.5 -29.5t11 -48.5q0 -143 -237 -143q-248 0 -248 135q0 29 10 47t25.5 31.5t31 24t23.5 24.5q20 39 27.5 140.5t7.5 271.5q0 182 -6 302.5t-33 182.5q-10 27 -29.5 36t-34.5 17q-49 33 -49 88z" />
<glyph unicode="O" horiz-adv-x="1374" d="M39 719q0 160 50 294t140 231t211 151.5t262 54.5q137 0 254 -53.5t201 -150.5t131 -233t47 -300t-49 -300.5t-135 -234.5t-204 -153.5t-257 -55.5q-137 0 -256 59.5t-207 161t-138 237.5t-50 292zM481 922q0 -68 19.5 -176.5t56.5 -211t90 -177t121 -74.5q57 0 91 59 t34 166q0 80 -20.5 188.5t-57.5 205.5t-89 166t-116 69q-57 0 -93 -55.5t-36 -159.5z" />
<glyph unicode="P" horiz-adv-x="1165" d="M16 1319q0 57 42 82.5t130 25.5q37 0 67 -3t52 -3q80 0 173 11.5t198 11.5q475 0 475 -451q0 -229 -124 -358t-353 -129q-52 0 -101 6q0 -20 -1 -40.5t-1 -37.5q0 -78 6.5 -124t26.5 -64q12 -12 26.5 -20.5t28 -18.5t21.5 -27.5t8 -46.5q0 -80 -79 -115.5t-240 -35.5 q-170 0 -253 36.5t-83 120.5q0 33 13 52.5t29.5 33t33 23.5t24.5 24q18 31 22.5 221.5t4.5 542.5q0 78 -10.5 118t-47.5 60q-35 23 -61.5 37.5t-26.5 67.5zM561 879q0 -76 6 -100.5t29 -24.5q63 0 102 54t39 157q0 113 -36.5 172t-94.5 59q-31 0 -38 -40t-7 -132v-55v-90z " />
<glyph unicode="Q" horiz-adv-x="1374" d="M39 719q0 150 54 297t149 250q177 196 457 196h3q137 0 256 -56t205 -159q82 -102 127 -238.5t45 -295.5q0 -137 -31.5 -256t-92 -213t-146 -157.5t-191.5 -90.5q168 -72 269 -72q41 0 73.5 18.5t63.5 18.5q59 0 59 -106q0 -39 -28.5 -83t-79.5 -81t-121 -61.5 t-149 -24.5q-88 0 -180.5 31.5t-198.5 84.5q-158 82 -250 135.5t-127 53.5q-16 0 -34.5 -7t-37.5 -7q-35 0 -54.5 22.5t-19.5 58.5q0 57 42 99.5t110 42.5q55 0 119 -33q-139 106 -215 272t-76 361zM467 924q0 -72 18.5 -169.5t57.5 -213.5q94 -270 227 -271q61 0 97 59.5 t36 172.5q0 74 -15.5 165t-47.5 193q-98 293 -232 293q-61 0 -101 -60t-40 -169z" />
<glyph unicode="R" horiz-adv-x="1345" d="M45 179.5q18 27.5 64 49.5q10 4 18 20.5t14 67t9.5 147.5t3.5 265v74q0 180 -5.5 278.5t-27.5 118.5q-31 25 -62.5 42.5t-31.5 72.5q0 57 44 90t150 33q35 0 101.5 -9.5t117.5 -9.5q94 0 185.5 9.5t156.5 9.5q168 0 269.5 -98.5t101.5 -274.5q0 -170 -111 -262 q-27 -23 -50 -34t-23 -32q0 -14 11 -21t29.5 -13.5t40 -15.5t40.5 -25q53 -45 78.5 -115t39.5 -166q8 -63 14.5 -103t26.5 -49q57 -27 73.5 -48t16.5 -48q0 -70 -64.5 -114t-193.5 -44q-160 0 -236.5 85t-99.5 249q-25 172 -62.5 230.5t-86.5 58.5q-25 0 -43 -8v-191 q0 -88 4 -120.5t18 -42.5q47 -31 67 -60t20 -63q0 -76 -76 -107t-236 -31q-323 0 -323 143q0 34 18 61.5zM543 958q0 -51 8 -122q14 -4 23.5 -7.5t19.5 -3.5q66 0 92.5 51.5t26.5 159.5q0 168 -115 168q-39 0 -47 -32.5t-8 -124.5v-89z" />
<glyph unicode="S" horiz-adv-x="1132" d="M29 446q0 123 80 123q51 0 73.5 -43t55.5 -94q115 -182 258 -182q57 0 88.5 27.5t31.5 66.5q0 27 -14 43t-42 30.5t-68.5 31t-92.5 40.5q-344 162 -344 486q0 102 35 190t98.5 152.5t151.5 101.5t195 37q98 0 156.5 -21.5t78.5 -21.5q31 0 56.5 9.5t45.5 9.5 q55 0 107 -72q45 -68 67.5 -134.5t22.5 -117.5q0 -70 -32.5 -112t-84.5 -42q-47 0 -80.5 40t-85.5 96q-71 81 -170 81h-2q-96 0 -96 -81q0 -66 60.5 -92.5t164.5 -65.5q174 -63 259 -163.5t85 -283.5q0 -113 -38.5 -209t-110.5 -166.5t-173 -109.5t-228 -39q-164 0 -281 50 t-152 95q-31 45 -53 132.5t-22 207.5z" />
<glyph unicode="T" horiz-adv-x="1187" d="M6 1239q0 113 48 168t106 55q41 0 67.5 -6t66.5 -12t108.5 -12.5t191.5 -6.5t190.5 6.5t107.5 12.5t66.5 12t67.5 6q59 0 107.5 -55t48.5 -168q0 -51 -9.5 -101.5t-24.5 -90t-39 -64.5t-50 -25q-51 0 -73.5 36t-40 80t-39 80t-75.5 36q-16 0 -26 -42t-10 -190v-401 q0 -147 16 -224t68 -93q39 -12 61.5 -38t22.5 -73q0 -86 -90.5 -116.5t-278.5 -30.5t-279.5 30.5t-91.5 116.5q0 47 22.5 72.5t61.5 38.5q53 16 69.5 93t16.5 224v401q0 147 -10 189.5t-27 42.5q-53 0 -75.5 -36t-39 -80t-39 -80t-73.5 -36q-27 0 -50.5 25t-38.5 64.5 t-24.5 90t-9.5 101.5z" />
<glyph unicode="U" horiz-adv-x="1402" d="M49 1268q0 76 92 122t269 46q143 0 211.5 -30t68.5 -106q0 -63 -30.5 -85.5t-59.5 -47.5q-35 -29 -35 -489q0 -190 46 -279.5t171 -89.5q127 0 183 92q31 53 38 166t7 293v62q0 117 -4.5 185.5t-20.5 90.5q-10 12 -26.5 20.5t-33 18.5t-28.5 25.5t-12 44.5q0 57 69.5 93 t200.5 36q225 0 225 -129q0 -51 -23.5 -70.5t-51.5 -40.5q-31 -25 -37 -62.5t-13 -113.5q-10 -248 -12 -435.5t-45 -310.5q-111 -307 -512 -307q-246 0 -385 137.5t-139 362.5v487v23q0 82 -6 120t-41 64q-29 23 -47.5 43.5t-18.5 63.5z" />
<glyph unicode="V" horiz-adv-x="1323" d="M31 1268q0 178 311 178q158 0 233.5 -36t75.5 -124q0 -33 -11 -50t-24.5 -28.5t-24.5 -17.5t-11 -19q0 -8 8 -32.5t22 -69.5l86 -260q29 -74 52 -74q31 0 67 109q53 145 83 231t30 119q0 16 -14.5 23.5t-36.5 21.5q-33 20 -33 61q0 63 57 104.5t170 41.5 q137 0 193.5 -27.5t56.5 -111.5q0 -33 -6 -50.5t-16.5 -24.5t-24.5 -10t-31 -8q-49 -10 -77.5 -91t-84.5 -240l-118 -338q-139 -408 -197 -502q-29 -43 -53.5 -61.5t-65.5 -18.5q-45 0 -80 36t-65.5 106.5t-63.5 176t-78 242.5l-110 336q-45 141 -74 220t-51 91 q-35 20 -64.5 30.5t-29.5 66.5z" />
<glyph unicode="W" horiz-adv-x="1777" d="M18 1270q0 176 310 176q141 0 208.5 -33t67.5 -104q0 -31 -7 -49.5t-17.5 -30.5t-17.5 -21.5t-7 -19.5q0 -23 20 -96l76 -248q20 -68 41 -68q16 0 33 49l33 113q14 37 14 53q0 12 -16 68l-19 69q-16 57 -34.5 75t-24.5 26q-10 14 -17.5 36.5t-7.5 41.5q0 78 74 108.5 t225 30.5q129 0 193.5 -30t64.5 -101q0 -25 -10 -43.5t-22.5 -33.5t-22.5 -28.5t-10 -27.5q0 -27 11 -62t26 -82l45 -139q20 -59 31.5 -91t25.5 -32q16 0 49 103l53 168q14 49 20.5 80.5t6.5 41.5q0 31 -13.5 38t-29.5 22q-18 16 -28.5 34.5t-10.5 45.5q0 63 55.5 100 t161.5 37q117 0 171.5 -25.5t54.5 -103.5q0 -55 -18.5 -73.5t-51.5 -39.5q-53 -29 -69.5 -70.5t-43.5 -123.5l-168 -533q-41 -129 -69.5 -225t-55 -160.5t-54 -96.5t-68.5 -32q-61 0 -93 58.5t-67 183.5l-107 383q-12 43 -26 43q-10 0 -27 -39l-111 -391 q-35 -119 -68.5 -175.5t-84.5 -56.5q-66 0 -115 103q-20 41 -51 150.5t-88 283.5l-150 471q-25 76 -42 124t-58 70q-27 16 -48.5 31t-21.5 68z" />
<glyph unicode="X" horiz-adv-x="1374" d="M12 119q0 57 39 84q23 16 58.5 16t68.5 19q57 35 295 438q-141 229 -219 352t-98 139q-16 10 -38 13.5t-42 19.5q-39 27 -39 84q0 86 90 120t270 34q88 0 149.5 -3t99.5 -18.5t54.5 -46.5t16.5 -86q0 -45 -26.5 -63.5t-26.5 -36.5q0 -23 88 -142q45 66 65.5 110t20.5 62 q0 10 -11.5 18.5t-26 20t-25.5 26.5t-11 40q0 66 60.5 92.5t185.5 26.5q137 0 200.5 -26t63.5 -103q0 -41 -21 -72q-20 -27 -53 -26h-7q-30 0 -63 -7q-45 -8 -106 -98t-168 -248q166 -270 261 -420.5t122 -177.5q14 -16 36.5 -22.5t41.5 -16.5q23 -14 31 -31.5t8 -52.5 q0 -90 -94.5 -122.5t-294.5 -32.5q-160 0 -237 25.5t-77 101.5q0 29 11.5 46t24.5 29.5t24.5 23.5t11.5 30q0 43 -129 225q-63 -94 -92 -152.5t-29 -70.5t11.5 -24.5t24.5 -27t24.5 -32t11.5 -41.5q0 -72 -63.5 -102.5t-200.5 -30.5q-139 0 -205 30.5t-66 106.5z" />
<glyph unicode="Y" horiz-adv-x="1175" d="M-8 1305q0 86 77.5 113.5t239.5 27.5q170 0 250 -27.5t80 -105.5q0 -47 -20.5 -69.5t-20.5 -43.5q0 -10 8 -33.5t27 -56.5q37 -66 61 -66q8 0 22.5 17.5t28 42t23.5 50.5t10 44t-23.5 47t-23.5 74q0 125 238 125q123 0 181 -26.5t58 -94.5q0 -74 -65 -94 q-18 -6 -38 -10.5t-38 -20.5q-25 -23 -48.5 -56.5t-49.5 -74.5l-90 -137q-18 -31 -39 -60.5t-33 -70.5q-12 -37 -14 -85t-2 -110v-47q0 -258 36 -293q12 -10 27.5 -18t29 -20.5t21.5 -31t8 -49.5q0 -88 -79.5 -124.5t-245.5 -36.5q-328 0 -328 153q0 45 22.5 67.5t53.5 43.5 q16 10 26.5 20.5t12.5 26.5q4 29 8 104.5t4 200.5q0 111 -8 145q-6 31 -26.5 62t-43.5 67l-159 254q-33 51 -60 57.5t-47 18.5q-51 35 -51 101z" />
<glyph unicode="Z" horiz-adv-x="1075" d="M4 115q0 35 46 122t128 234l328 600q26 51 26 72q0 25 -21.5 32t-66.5 7q-59 0 -94 -15.5t-57 -62.5q-12 -25 -20.5 -50.5t-20.5 -48t-31.5 -37t-54.5 -14.5q-43 0 -68.5 37t-25.5 103t21.5 138.5t62.5 133.5q55 88 110 88q27 0 45.5 -8t28.5 -8h578q74 0 109.5 -21.5 t35.5 -81.5q0 -63 -66.5 -187t-173.5 -337l-219 -428q-29 -47 -29 -76q0 -35 87 -35q119 0 149 58q31 57 49.5 108t71.5 51q98 0 98 -157q0 -74 -15.5 -138.5t-39 -113.5t-51 -78t-52.5 -29q-18 0 -46.5 13.5t-73.5 13.5h-578q-84 0 -127 24.5t-43 90.5z" />
<glyph unicode="[" horiz-adv-x="825" d="M102 -43v1352q0 88 44 135t124 47h402q57 0 79.5 -23.5t22.5 -89.5q0 -63 -22.5 -87.5t-79.5 -24.5q-106 0 -131 -16.5t-25 -63.5v-1106q0 -47 24.5 -63.5t131.5 -16.5q57 0 79.5 -24.5t22.5 -88.5q0 -80 -28.5 -96t-106.5 -16h-369q-80 0 -124 47t-44 135z" />
<glyph unicode="\" horiz-adv-x="628" d="M49 1481q0 27 33 26q80 0 117 -7t43 -40l333 -1562v-15q0 -16 -12 -20t-41 -4q-66 0 -99.5 6t-41.5 37l-326 1544q-6 25 -6 35z" />
<glyph unicode="]" horiz-adv-x="825" d="M51 -113q0 63 21.5 88t81.5 25q106 0 130.5 16.5t24.5 63.5v1106q0 47 -24.5 63.5t-130.5 16.5q-59 0 -81 24.5t-22 87.5q0 66 22.5 89.5t80.5 23.5h401q80 0 124 -47t44 -135v-1352q0 -88 -44 -135t-124 -47h-367q-78 0 -107.5 16t-29.5 96z" />
<glyph unicode="^" horiz-adv-x="1935" d="M389 864l440 545h275l438 -545h-123l-452 303l-453 -303h-125z" />
<glyph unicode="_" horiz-adv-x="1048" d="M-12 -193h1073v-272h-1073v272z" />
<glyph unicode="`" horiz-adv-x="804" d="M119 1380q0 49 33 78t133 29q27 0 56.5 -4t55 -12.5t43 -19.5t17.5 -24q0 -8 -7.5 -23t-7.5 -24q0 -6 22.5 -23.5t50.5 -40t50.5 -45t22.5 -34.5q0 -39 -18.5 -60.5t-65.5 -21.5q-29 0 -92.5 18.5t-129 50t-114.5 72.5t-49 84z" />
<glyph unicode="a" horiz-adv-x="989" d="M16 293q0 72 28 132t76 105t113.5 71t141.5 26q27 0 59.5 -4.5t71.5 -12.5q2 29 3 52.5t1 46.5q0 182 -74 182q-35 0 -57.5 -32t-50.5 -73q-35 -51 -69 -76.5t-75 -25.5q-43 0 -72.5 36t-29.5 93q0 100 110.5 178t296.5 78q195 0 295.5 -90t100.5 -262q0 -66 -3 -123 t-3 -107v-30q0 -53 1 -87t6 -54.5t15 -30t29 -15.5q47 -16 47 -69q0 -35 -20.5 -75t-56.5 -74t-86 -55.5t-109 -21.5q-33 0 -60 9.5t-47 33.5q-23 27 -37 47.5t-29 20.5q-10 0 -19 -9t-24 -20q-41 -37 -81.5 -55t-100.5 -18q-133 0 -212 87t-79 222zM379 336q0 -117 65 -117 q41 0 50.5 44.5t9.5 146.5q0 35 -7.5 43t-35.5 8q-82 0 -82 -125z" />
<glyph unicode="b" horiz-adv-x="1114" d="M-16 1180q0 45 31.5 80.5t93.5 70.5q84 45 168.5 68.5t156.5 23.5q51 0 59.5 -13t8.5 -54v-424q102 137 250 137q68 0 127 -34t103 -93t69.5 -144t25.5 -186q0 -121 -34.5 -233.5t-90.5 -190.5q-156 -215 -387 -215q-172 0 -307 138q-33 -16 -59.5 -23.5t-46.5 -7.5 q-63 0 -64 55q0 12 8 40t15 77q8 66 9 193.5t1 322.5q0 305 -23 313q-18 6 -38.5 10.5t-38 13.5t-27.5 25.5t-10 49.5zM506 408q0 -113 13 -165.5t56 -52.5q45 0 74 66t29 186q0 139 -32 211t-83 72q-57 0 -57 -96v-221z" />
<glyph unicode="c" horiz-adv-x="929" d="M37 518q0 188 90 322q72 109 179.5 168t234.5 59q86 0 153.5 -23.5t114.5 -64.5t72.5 -96.5t25.5 -118.5q0 -90 -50 -150.5t-120 -60.5q-39 0 -72.5 20.5t-58.5 65.5q-12 20 -19 44t-16.5 43t-24 32.5t-40.5 13.5q-37 0 -63.5 -38t-26.5 -101q0 -53 17.5 -103.5t46 -88.5 t65.5 -60.5t78 -22.5q33 0 60.5 10.5t52 21.5t46 21.5t41.5 10.5q33 0 58.5 -35t25.5 -88q0 -61 -34.5 -122.5t-102.5 -108.5q-63 -45 -134 -70t-142 -25q-188 0 -318 154q-139 162 -139 391z" />
<glyph unicode="d" horiz-adv-x="1134" d="M29 530q0 246 141 410q117 133 270 133q88 0 137.5 -29.5t57.5 -29.5q6 0 6 41v41q0 53 -6 59q-16 10 -32.5 16.5t-32 14.5t-24.5 22.5t-9 38.5q0 45 28.5 70.5t87.5 48.5q96 35 185.5 51.5t144.5 16.5q31 0 37 -15.5t6 -64.5v-33q0 -43 -3 -242.5t-3 -554.5v-57 q0 -84 3 -132t17 -63q10 -12 27.5 -18t33 -15.5t27 -22.5t11.5 -40q0 -70 -64 -108q-76 -47 -155.5 -71t-143.5 -24q-63 0 -88.5 12.5t-25.5 51.5v43q0 33 -13 33q-8 0 -17 -11.5t-28 -25.5q-47 -39 -90 -61.5t-100 -22.5q-150 0 -262 147q-123 155 -123 391zM440 524 q0 -121 30 -185.5t73 -64.5q59 0 78.5 89.5t19.5 269.5v53q0 72 -10 107.5t-58 35.5q-63 0 -98 -79t-35 -226z" />
<glyph unicode="e" horiz-adv-x="950" d="M31 512q0 170 86 317q68 113 170 175.5t219 62.5q94 0 171 -34t131 -92t84 -138t30 -170q0 -84 -23 -118t-72 -34h-372q-29 0 -40.5 -5t-11.5 -23q0 -76 54.5 -136.5t152.5 -60.5q39 0 71 13.5t58.5 30.5t47 30.5t36.5 13.5q29 0 49.5 -28.5t20.5 -75.5q0 -82 -102 -166 q-131 -102 -293 -103q-102 0 -188.5 42t-148 115t-96 171t-34.5 213zM397 741q0 -39 13.5 -51t48.5 -12h22h17q68 0 86 9t18 61q0 59 -28.5 92.5t-67.5 33.5q-43 0 -76 -36.5t-33 -96.5z" />
<glyph unicode="f" horiz-adv-x="743" d="M49 674q0 143 25 157q20 16 44.5 14.5t24.5 12.5q0 10 -10 31.5t-23.5 52.5t-23.5 70t-10 88q0 72 26.5 132t74.5 106t116.5 72t152.5 26q74 0 133.5 -21.5t102.5 -58.5t66.5 -84t23.5 -98q0 -80 -39 -125t-104 -45q-53 0 -82 26.5t-62 73.5q-27 35 -46 57.5t-46 22.5 q-53 0 -53 -70q0 -49 43 -98q35 -41 69.5 -63.5t57.5 -45.5q16 -18 21.5 -32.5t7.5 -16.5q14 -12 73 -12h58q35 0 40 -12.5t5 -59.5q0 -57 -2 -90t-9.5 -48t-20.5 -19.5t-34 -4.5h-26q-43 0 -58.5 -9t-15.5 -60q0 -258 55 -297q18 -12 35.5 -19.5t33 -17.5t25 -27.5 t9.5 -52.5q0 -156 -342 -156q-301 0 -302 148q0 39 19.5 58.5t48.5 43.5q12 10 22.5 19.5t14.5 27.5q8 23 14 92.5t6 178.5q0 55 -12 60t-53 11q-45 4 -59.5 9.5t-14.5 52.5z" />
<glyph unicode="g" horiz-adv-x="987" d="M10 -88q0 111 109 149q-102 63 -103 181q0 136 160 204q-131 86 -131 265q0 76 30.5 141.5t85 112.5t130.5 74.5t166 27.5q88 0 153.5 -23.5t110.5 -23.5q43 0 75.5 15.5t57.5 32.5t41 32.5t25 15.5q63 0 63 -102q0 -59 -23.5 -106.5t-70.5 -98.5q6 -37 6 -70 q0 -158 -110.5 -259t-295.5 -101q-63 0 -141 14q-23 -14 -22 -47q0 -31 32.5 -54.5t92.5 -23.5q53 0 122.5 13.5t153.5 13.5q254 0 254 -258q0 -88 -37 -164t-106.5 -132t-169 -89t-224.5 -33q-100 0 -181 24.5t-137 65.5t-86 93.5t-30 109.5zM258 -53q0 -49 55.5 -93 t143.5 -44q76 0 116.5 26.5t40.5 69.5q0 55 -49 55q-27 0 -61.5 -5t-79.5 -5h-7q-87 0 -153 26q-6 -14 -6 -30zM383 756q0 -109 27.5 -167.5t72.5 -58.5q84 0 84 154q0 223 -100 223h-1q-83 0 -83 -151z" />
<glyph unicode="h" horiz-adv-x="1198" d="M14 1235q0 41 21.5 64.5t68.5 50.5q78 43 170.5 67.5t180.5 24.5q43 0 51 -29t8 -86v-12v-383q0 -45 14 -45q10 0 21.5 22.5t34.5 51.5q82 106 219 106q88 0 154.5 -51t95.5 -135q29 -82 31.5 -207t7.5 -293q0 -59 3 -98t17 -62q16 -23 37.5 -43t21.5 -67 q0 -70 -65.5 -97.5t-202.5 -27.5q-268 0 -268 131q0 33 16.5 55.5t26.5 48.5q12 33 15 79t3 108v110q0 109 -23.5 160t-86.5 51q-76 0 -76 -104q0 -145 2 -239.5t8 -133.5q4 -29 29.5 -58.5t25.5 -76.5q0 -70 -66.5 -100.5t-203.5 -30.5t-213 40t-76 99q0 27 8.5 42 t19.5 26.5t23.5 20.5t20.5 22q23 35 29 124t6 236v160q0 330 -31 362q-12 12 -26.5 20.5t-25.5 18.5t-18.5 28.5t-7.5 49.5z" />
<glyph unicode="i" horiz-adv-x="659" d="M37 856q0 45 26.5 70.5t81.5 52.5q113 51 207 70.5t133 19.5q35 0 44.5 -14.5t9.5 -53.5v-59v-610q0 -45 7 -62.5t27 -38.5q20 -23 38 -43t18 -59q0 -147 -287 -147q-147 0 -223 39.5t-76 111.5q0 37 12.5 54.5t36.5 39.5q12 10 22.5 20.5t14.5 26.5q6 29 8 94.5t2 166.5 v43q0 78 -7 118.5t-38 67.5q-20 14 -38.5 31.5t-18.5 60.5zM49 1266q0 72 79 131t210 59q90 0 138 -37t48 -102q0 -80 -82 -140.5t-217 -60.5q-176 0 -176 150z" />
<glyph unicode="j" horiz-adv-x="661" d="M14 -215q0 29 13.5 49.5t29.5 20.5q14 0 27.5 -3.5t26.5 -3.5q47 0 47 52q0 12 -5.5 34.5t-5.5 59.5v663q0 45 -6 63.5t-39 37.5q-27 14 -42 32.5t-15 63.5q0 39 25.5 69.5t76.5 57.5q78 39 161 61.5t171 22.5q41 0 52.5 -12.5t11.5 -46.5v-1012q0 -377 -310 -377 q-98 0 -158.5 53.5t-60.5 114.5zM63 1262q0 74 79 132t208 58q92 0 140.5 -37t48.5 -102q0 -80 -82 -140.5t-217 -60.5q-176 0 -177 150z" />
<glyph unicode="k" horiz-adv-x="1220" d="M-8 1217q0 39 32.5 70.5t98.5 64.5q88 45 171 65.5t142 20.5q45 0 54.5 -28.5t9.5 -98.5v-512q0 -37 22 -37q23 0 47.5 11t46 28.5t36 36t14.5 32.5t-18.5 33t-18.5 51q0 100 223 102q256 0 256 -124q0 -53 -23.5 -58.5t-62.5 -19.5q-57 -20 -106.5 -68.5t-49.5 -76.5 q0 -33 65.5 -146.5t203.5 -304.5q16 -25 33.5 -40t33 -30.5t24.5 -35t9 -52.5q0 -84 -66.5 -98t-207.5 -14h-89q-33 0 -53 4t-34.5 16t-29 35t-36.5 59l-148 256q-12 20 -20 31.5t-19 11.5q-23 0 -22 -39v-36q0 -90 16 -107q23 -25 40.5 -42t17.5 -58q0 -137 -273 -137 q-291 0 -291 137q0 45 28 60.5t48 41.5q18 27 22.5 125t4.5 270v308q0 88 -3 136t-22 62q-18 12 -36.5 18.5t-34 14.5t-25.5 21.5t-10 40.5z" />
<glyph unicode="l" horiz-adv-x="655" d="M2 1196q0 43 19.5 71.5t60.5 57.5q72 49 174 81t201 32q51 0 66.5 -18.5t15.5 -67.5q0 -25 -3.5 -199t-3.5 -502q0 -180 8.5 -282.5t28.5 -128.5q18 -23 45 -41.5t27 -71.5q0 -147 -315 -147q-303 0 -303 143q0 59 29.5 72.5t51.5 33.5q27 25 33 151t6 357v82 q0 98 -4 161.5t-30 92.5q-14 16 -33 25.5t-35 20.5t-27.5 27.5t-11.5 49.5z" />
<glyph unicode="m" horiz-adv-x="1613" d="M37 125q0 39 19.5 55.5t39.5 44.5q18 23 22.5 96.5t4.5 202.5q0 96 -4 154.5t-23 83.5q-20 25 -37.5 44t-17.5 56q0 51 32.5 81t108.5 63q76 35 140.5 49t101.5 14q25 0 36 -9t19 -32q8 -41 8 -80v-16q-2 -47 23 -47q14 0 24.5 24.5t30.5 51.5q83 108 215 108h2 q106 0 162 -84q23 -35 34 -63.5t23 -28.5t25.5 24.5t40.5 51.5q43 49 86 74.5t109 25.5q250 0 249 -338v-438q0 -31 8.5 -52.5t19.5 -39t19.5 -34.5t8.5 -40q0 -141 -244 -141q-242 0 -242 131q0 33 11.5 55.5t19.5 44.5q14 29 18.5 103.5t4.5 195.5q0 113 -15.5 167 t-56.5 54q-39 0 -55.5 -45t-16.5 -135q0 -250 15 -313q4 -14 18 -41t14 -76q0 -78 -57 -109.5t-182 -31.5t-180.5 29.5t-55.5 99.5q0 39 13.5 63.5t29.5 52.5q14 25 16.5 83.5t2.5 148.5q0 139 -14.5 206.5t-63.5 67.5q-41 0 -49.5 -60.5t-8.5 -187.5v-165q0 -76 14.5 -118 t14.5 -75q0 -78 -56 -111.5t-177 -33.5q-125 0 -186.5 32.5t-61.5 106.5z" />
<glyph unicode="n" horiz-adv-x="1198" d="M35 850q0 72 98 123q111 59 197 82.5t125 23.5q65 0 65 -89q0 -44 4 -64.5t19 -20.5q10 0 16 17.5t23 40.5q68 104 198 104q86 0 155 -37t105 -96q39 -57 50.5 -133t11.5 -178q0 -111 -2 -184.5t-2 -110.5q0 -45 7 -67.5t30 -51.5q14 -16 26.5 -33.5t12.5 -48.5 q0 -82 -76 -112.5t-238 -30.5q-229 0 -229 122q0 35 14 50.5t25 33.5q23 41 25.5 119t2.5 197q0 117 -22.5 174t-77.5 57q-47 0 -62.5 -47t-15.5 -139q0 -137 3 -217t18 -109q8 -18 22.5 -38.5t14.5 -65.5q0 -76 -72 -106.5t-223 -30.5q-115 0 -174.5 38t-59.5 101 q0 51 26.5 69.5t35.5 34.5q10 23 13 123.5t3 278.5v33q0 49 -6 62t-37 40q-49 37 -49 86z" />
<glyph unicode="o" horiz-adv-x="1038" d="M29 504q0 248 164 411q150 154 358 154q102 0 187 -38t145.5 -105.5t94.5 -162.5t34 -212q0 -115 -37 -220.5t-107 -187.5q-152 -170 -374 -170q-193 0 -318 144q-147 164 -147 387zM418 649q0 -59 10 -136t31 -151q43 -139 98 -139q33 0 52.5 34t19.5 97 q0 98 -12.5 182.5t-33 145.5t-45 95t-49.5 34q-71 0 -71 -162z" />
<glyph unicode="p" horiz-adv-x="1165" d="M27 803q0 33 28.5 71.5t85.5 71.5q104 66 195.5 92.5t142.5 26.5q29 0 36 -13.5t7 -50.5q0 -65 20 -65h1q12 0 25.5 15.5t35.5 37.5q68 74 178 74q150 0 248 -134t98 -376t-108 -403q-55 -84 -126 -128.5t-146 -44.5q-39 0 -72 12.5t-57.5 27t-43 26.5t-28.5 12t-10 -43 q0 -63 10 -88.5t43 -48.5q41 -27 66.5 -45t25.5 -70q0 -145 -336 -145q-150 0 -225.5 39t-75.5 102q0 53 28.5 76t59.5 51q23 23 28 122t5 284q0 365 -27 397q-12 20 -34.5 23.5t-36.5 13.5q-41 33 -41 80zM524 385q0 -74 17.5 -103.5t66.5 -29.5q123 0 123 225 q0 137 -38 212t-83 75q-39 0 -53 -18.5t-18 -59.5q-4 -39 -9.5 -115.5t-5.5 -185.5z" />
<glyph unicode="q" horiz-adv-x="1134" d="M33 512q0 254 128 404.5t351 150.5q102 0 170 -21.5t106 -21.5q39 0 84.5 24.5t98.5 24.5q71 0 71 -93q0 -38 -11 -226q-11 -187 -11 -533q0 -143 5 -227t32 -111q29 -29 58.5 -50t29.5 -77q0 -141 -311 -141q-178 0 -266.5 35t-88.5 110q0 39 15.5 57.5t46.5 39.5 q25 14 41 24t26 26.5t15.5 43t5.5 74.5q0 31 -23 30q-8 0 -23.5 -13t-39 -27.5t-57 -28t-80.5 -13.5q-76 0 -143.5 40t-119 112t-81 170t-29.5 217zM446 586q0 -156 35 -239t92 -83q41 0 50.5 48t9.5 157v72q0 145 -16.5 216.5t-69.5 71.5h-1q-100 0 -100 -243z" />
<glyph unicode="r" horiz-adv-x="925" d="M33 141q0 49 18.5 69.5t40.5 39.5q12 10 20.5 20.5t10.5 22.5q6 23 10 111t4 239v31q0 39 -5 53t-28 29q-33 23 -50 44t-17 52q0 61 86 113q70 41 161 68.5t173 27.5q55 0 61 -49t7 -76t18 -27q14 0 18 20.5t14 45.5q47 86 148 86q96 0 157.5 -69.5t61.5 -184.5 t-56.5 -188.5t-140.5 -73.5q-94 0 -145 78q-16 25 -22.5 49t-22.5 24q-31 0 -31 -223q0 -111 7.5 -163t46.5 -74q33 -23 58.5 -41.5t25.5 -69.5q0 -80 -76 -110.5t-236 -30.5h-4q-313 0 -313 157z" />
<glyph unicode="s" horiz-adv-x="802" d="M16 268q0 121 72 121q39 0 62.5 -26.5t50.5 -61.5q80 -98 129 -98q20 0 31.5 13t11.5 30q0 49 -35 67.5t-86 51.5q-215 131 -215 350q0 70 25.5 132t70.5 109.5t106.5 76t131.5 28.5q45 0 80.5 -12.5t62.5 -12.5q25 0 46.5 15.5t43.5 15.5q23 0 50.5 -23.5t51 -60.5 t39 -83t15.5 -93q0 -53 -24.5 -84t-69.5 -31q-43 0 -91 47q-33 35 -56 69t-62 34q-23 0 -37 -15.5t-14 -38.5q0 -39 38.5 -61t104.5 -61q117 -72 173 -149.5t56 -194.5q0 -147 -95 -247t-253 -100q-70 0 -115 18.5t-63 18.5t-37.5 -12t-38.5 -12q-23 0 -50.5 23.5t-52 63.5 t-41 90t-16.5 103z" />
<glyph unicode="t" horiz-adv-x="780" d="M6 907q0 29 5 46.5t15.5 30.5t29 27.5t46.5 39.5q131 111 214 173t141 62q57 0 67.5 -32.5t10.5 -120.5v-93h180q35 0 45 -6t10 -47v-88q0 -55 -12.5 -65.5t-52.5 -12.5l-130 -6q-29 -2 -41 -7t-12 -42v-365q0 -116 85 -116h1q33 0 57.5 19.5t51.5 19.5q23 0 39 -30 t16 -83q0 -39 -25.5 -81t-70.5 -77t-106.5 -57.5t-135.5 -22.5q-143 0 -221 93.5t-78 273.5v481q-45 2 -70.5 3t-39 8.5t-16.5 24.5t-3 50z" />
<glyph unicode="u" horiz-adv-x="1196" d="M18 856q0 45 28 70.5t83 52.5q111 51 204 70.5t128 19.5q33 0 45 -12.5t12 -52.5q0 -53 -10 -185.5t-10 -341.5q0 -109 19.5 -162t74.5 -53q68 0 89 59.5t21 192.5v131q0 47 -5 71.5t-33 47.5q-20 14 -38 31.5t-18 60.5q0 45 25.5 70.5t81.5 52.5q104 49 196.5 69.5 t126.5 20.5q39 0 46.5 -21.5t7.5 -95.5q0 -158 -5.5 -307t-5.5 -291q0 -55 6.5 -67.5t32.5 -34.5q20 -14 33.5 -30.5t13.5 -49.5q0 -70 -109.5 -127t-299.5 -57q-29 0 -40 4t-13 33q-4 41 -5.5 69.5t-27.5 28.5q-16 0 -28.5 -13.5t-29.5 -29.5q-51 -45 -99 -68.5t-118 -23.5 q-145 0 -212.5 96t-67.5 289v272q0 47 -7.5 71.5t-33.5 47.5q-20 14 -39 31.5t-19 60.5z" />
<glyph unicode="v" horiz-adv-x="1103" d="M8 926q0 78 76 106.5t233 28.5q154 0 225.5 -22.5t71.5 -96.5q0 -31 -9 -48t-19.5 -28.5t-19.5 -23t-9 -29.5q0 -25 10.5 -53.5t22.5 -63.5q14 -37 26.5 -55t34.5 -18q31 0 60 75q20 51 28.5 84t8.5 49q0 23 -25 46.5t-25 68.5q0 61 56.5 87t171.5 26q96 0 139 -20.5 t43 -77.5q0 -37 -12.5 -58.5t-44.5 -38.5q-23 -14 -45.5 -24.5t-42.5 -63.5q-16 -35 -65.5 -166t-143.5 -356q-57 -139 -96.5 -210t-98.5 -71q-76 0 -161 188.5t-230 557.5q-12 35 -24.5 59.5t-41.5 40.5q-41 20 -67.5 33.5t-26.5 73.5z" />
<glyph unicode="w" horiz-adv-x="1611" d="M12 918q0 61 80 102t227 41q246 0 246 -129q0 -33 -13 -52.5t-13 -37.5t10 -49t26 -72q20 -47 34 -72.5t30 -25.5q6 0 18.5 14t22.5 34.5t18.5 44t8.5 40.5q0 14 -11.5 44.5t-40.5 53.5q-20 16 -31.5 33.5t-11.5 46.5q0 66 77 94.5t229 28.5q111 0 165 -25.5t54 -85.5 q0 -47 -27 -73.5t-27 -61.5t29 -104q35 -88 66 -89q18 0 39 44q29 61 46 102t17 63q0 35 -22.5 61.5t-22.5 61.5q0 109 207 109q92 0 135 -19.5t43 -70.5q0 -70 -35 -86q-33 -14 -58.5 -25.5t-49.5 -66.5q-14 -31 -70.5 -175.5t-165.5 -396.5q-49 -115 -80 -178.5t-74 -63.5 q-39 0 -73.5 60.5t-85.5 175.5q-51 109 -76 169t-47 60q-25 0 -45.5 -57t-65.5 -164q-47 -119 -81.5 -183.5t-73.5 -64.5q-31 0 -64 50.5t-75 146.5t-97 234.5t-133 314.5q-14 37 -32.5 61.5t-47.5 40.5q-31 14 -54.5 30.5t-23.5 66.5z" />
<glyph unicode="x" horiz-adv-x="1073" d="M-12 94q0 49 32 74q20 14 45 19.5t41 23.5q16 23 37 61.5t50 92.5l71.5 143t26.5 70q0 18 -70 133q-68 98 -86 112q-14 8 -37.5 9.5t-46.5 19.5q-26 24 -26 72q0 141 346 141q141 0 210.5 -19.5t69.5 -87.5q0 -43 -16.5 -67.5t-16.5 -36.5q0 -27 19.5 -60.5t36.5 -33.5 q12 0 37.5 38t25.5 64q0 12 -15 36t-15 54q0 51 45 82t127 31q178 0 178 -102q0 -27 -11.5 -43.5t-29 -29.5t-38 -27.5t-38.5 -37.5q-37 -49 -65.5 -99t-49 -90t-31 -65.5t-10.5 -27.5q0 -10 11.5 -41t33 -74t53 -92t72.5 -96q16 -18 33 -27.5t30 -18t22.5 -22.5t9.5 -45 q0 -82 -83 -112.5t-255 -30.5q-150 0 -219.5 20.5t-69.5 93.5q0 29 10 45.5t21.5 28.5t21.5 22.5t10 22.5q0 45 -28.5 91t-50.5 46q-8 0 -22.5 -17.5t-28 -43t-23.5 -52t-10 -44.5q0 -16 15 -37t15 -56q0 -72 -46 -91t-142 -19q-90 0 -133 19.5t-43 80.5z" />
<glyph unicode="y" horiz-adv-x="1073" d="M0 911q0 78 90 116t254 38q133 0 202.5 -30.5t69.5 -108.5q0 -29 -8 -44.5t-18 -26.5t-18.5 -20.5t-8.5 -21.5q0 -14 12.5 -56t31 -87t39 -81t36.5 -36q14 0 29.5 36t28 81t19.5 85t7 48q0 18 -10.5 32.5t-22.5 29t-22.5 29.5t-10.5 38q0 55 51.5 94t153.5 39 q94 0 136 -37t42 -96q0 -45 -13 -58.5t-34.5 -32t-50.5 -59.5t-61 -143q-41 -129 -71 -228.5t-54.5 -181.5t-49 -155.5t-57.5 -153.5q-66 -156 -139.5 -230.5t-192.5 -74.5q-121 0 -204.5 78t-83.5 198q0 84 47 133.5t108 49.5q51 0 92 -38t41 -93q0 -20 -5 -28.5t-5 -29.5 q0 -20 10.5 -29.5t24.5 -9.5q20 0 34.5 19.5t14.5 54.5q0 76 -37 172t-94 240l-135 327q-33 82 -48.5 107t-37.5 33q-31 12 -56.5 36.5t-25.5 75.5z" />
<glyph unicode="z" horiz-adv-x="919" d="M31 758q0 45 12 100t39 113q43 96 104 96q4 0 47 -13.5t140 -13.5h178q88 0 137 1t60 1q112 0 112 -83q0 -50 -59 -181l-193 -409q-14 -33 -22 -55.5t-8 -39.5q0 -34 46 -34h3q68 0 104 67q18 31 31.5 66t48.5 35q43 0 69.5 -34t26.5 -98q0 -57 -15 -111t-40 -97 t-54.5 -69t-58.5 -26q-6 0 -57 13.5t-182 13.5h-219q-29 0 -60 -2t-61 -2q-109 0 -109 96q0 35 14.5 72t36.5 84l177 340q41 80 63.5 126t22.5 64q0 35 -52 35q-53 0 -75.5 -25.5t-38.5 -70.5q-14 -33 -28.5 -55.5t-53.5 -22.5q-35 0 -60.5 34t-25.5 85z" />
<glyph unicode="{" horiz-adv-x="1034" d="M123 623q0 74 59 96q59 20 78 59t19 129v324q0 162 61 230.5t211 68.5q178 0 261 -27.5t83 -85.5q0 -43 -29.5 -57t-85.5 -14q-61 0 -97 -6.5t-54.5 -27t-23.5 -60.5t-5 -109v-254q0 -182 -84 -248q-8 -6 -8 -18t33 -39t46 -85.5t13 -140.5v-256q0 -72 4 -112.5t22.5 -60 t54.5 -24.5t99 -5q55 0 85 -13.5t30 -56.5q0 -61 -83 -88t-261 -27q-150 0 -211 69t-61 232v322q0 92 -18.5 130t-78.5 58q-59 18 -59 97z" />
<glyph unicode="|" horiz-adv-x="628" d="M203 -168v1675h221v-1675h-221z" />
<glyph unicode="}" horiz-adv-x="1034" d="M123 -170q0 43 30.5 56.5t84.5 13.5q63 0 99 5t54.5 24.5t22.5 60.5t4 112v256q0 82 14 140.5t47 85.5q31 27 31 39t-8 18q-84 66 -84 248v254q0 70 -5 109.5t-23.5 60t-54.5 27t-97 6.5q-53 0 -84 14t-31 57q0 57 84 85t260 28q150 0 211 -68.5t61 -230.5v-324 q0 -90 19.5 -129t77.5 -59q59 -20 59 -96q0 -78 -59 -97q-57 -20 -77 -58t-20 -130v-322q0 -164 -61.5 -232.5t-210.5 -68.5q-176 0 -260 27t-84 88z" />
<glyph unicode="~" horiz-adv-x="1206" d="M92 649q43 119 86 182q102 152 252 152q20 0 68.5 -15.5t102.5 -32.5t106.5 -32.5t83.5 -15.5q33 0 53 19.5t55 82.5l215 -184q-41 -104 -71.5 -155.5t-73.5 -96.5q-78 -84 -193 -84q-23 0 -72 15.5t-104 34t-107.5 33.5t-80.5 15q-52 0 -105 -102z" />
<glyph unicode="&#xa4;" d="M94 346l139 146q-25 39 -35 80.5t-10 86.5q0 92 45 164l-139 148l94 96l144 -143q70 49 164 49q100 0 170 -49l141 143l94 -96l-141 -148q47 -78 47 -166t-47 -165l141 -146l-94 -98l-141 145q-72 -51 -168 -51q-94 0 -166 51l-144 -145zM328 657q0 -72 49 -124t121 -52 t122 52.5t50 123.5q0 72 -50 124.5t-122 52.5t-121 -52.5t-49 -124.5z" />
<glyph unicode="&#xa6;" horiz-adv-x="811" d="M295 -168v731h223v-731h-223zM295 709v729h223v-729h-223z" />
<glyph unicode="&#xa7;" horiz-adv-x="905" d="M-10 526q0 115 48 208t140 149q-115 102 -115 231q0 72 28 135.5t80 110.5t127 74.5t169 27.5q168 0 256 -63.5t88 -163.5q0 -61 -34 -101t-79 -40q-47 0 -74.5 25.5t-48.5 80.5q-23 57 -53 83t-84 26q-53 0 -82.5 -30t-29.5 -81q0 -68 53 -106.5t160 -92.5 q84 -41 158.5 -75.5t127.5 -100.5q84 -106 84 -262q0 -223 -176 -311q111 -137 111 -279q0 -182 -106.5 -285.5t-311.5 -103.5q-164 0 -256 71t-92 175q0 66 42 115t101 49q45 0 73 -29t48 -86q10 -25 17.5 -47.5t19.5 -39.5t33.5 -27.5t60.5 -10.5q59 0 92 35t33 90 q0 82 -58.5 123t-160.5 86q-96 43 -169 84t-122 91t-73.5 113.5t-24.5 151.5zM203 629q0 -43 23.5 -74t70.5 -61q96 -63 165.5 -92t108.5 -29q47 0 76 28.5t29 75.5q0 49 -26.5 81t-78.5 67q-96 63 -169.5 88.5t-96.5 25.5q-43 0 -72.5 -31.5t-29.5 -78.5z" />
<glyph unicode="&#xa9;" horiz-adv-x="1695" d="M49 614q0 164 68.5 305.5t184.5 246t265.5 164t311.5 59.5q172 0 320.5 -61.5t256 -168t169 -247t61.5 -298.5q0 -166 -68 -307t-181.5 -244.5t-260 -163t-304.5 -59.5q-164 0 -312 59.5t-262 164t-181.5 246t-67.5 304.5zM215 614q0 -129 52 -243.5t142.5 -199.5 t210 -134t252.5 -49q129 0 247 48t207 133t141.5 199.5t52.5 245.5q0 129 -50.5 243t-137.5 200t-203.5 135t-249.5 49q-129 0 -249 -47t-212 -131t-147.5 -198.5t-55.5 -250.5zM461 600q0 84 42 163t113 134q127 96 285 96q53 0 110.5 -24.5t102.5 -24.5q6 0 22.5 3t26.5 3 q45 0 80 -57t35 -133q0 -51 -30.5 -85t-82.5 -34q-55 0 -90 57q-41 68 -82 99.5t-104 31.5q-57 0 -89 -38.5t-32 -104.5q0 -63 24.5 -123.5t69.5 -97.5q57 -47 142 -47q35 0 63.5 11t53 24.5t45 24.5t36.5 11q23 0 39 -19t16 -46q0 -51 -33.5 -98t-90.5 -58 q-61 -10 -115.5 -34.5t-120.5 -24.5q-154 0 -272 84q-72 51 -118 137t-46 170z" />
<glyph unicode="&#xab;" horiz-adv-x="907" d="M29 524q0 33 43 92.5t121 155.5q76 94 128 145.5t91 51.5q25 0 38 -19.5t13 -48.5q0 -45 -40 -137t-106 -242q70 -147 107 -240.5t37 -134.5q0 -70 -53 -69q-45 0 -96.5 53t-123.5 148q-74 90 -116.5 145t-42.5 100zM440 524q0 33 43 92.5t121 155.5q76 94 128 145.5 t91 51.5q23 0 37 -19.5t14 -48.5q0 -45 -39.5 -137t-107.5 -242q72 -147 108.5 -239.5t36.5 -135.5q0 -70 -53 -69q-45 0 -96 53t-125 148q-74 90 -116 145t-42 100z" />
<glyph unicode="&#xac;" horiz-adv-x="1206" d="M174 655v256h858v-483h-258v227h-600z" />
<glyph unicode="&#xad;" horiz-adv-x="628" d="M59 422q0 57 13.5 114.5t29.5 114.5q20 76 64 76q10 0 57 -5t133 -5q70 0 114 2t58 2q41 0 41 -53q0 -143 -57 -254q-20 -41 -33.5 -48.5t-58.5 -7.5q-37 0 -81 5.5t-91 5.5q-61 0 -97 -8.5t-49 -8.5q-27 0 -35 14.5t-8 55.5z" />
<glyph unicode="&#xae;" horiz-adv-x="1802" d="M49 621q0 170 70.5 318t190.5 258t275.5 171t327.5 59q180 0 334 -63.5t266.5 -174t176 -258t63.5 -310.5q0 -172 -70.5 -319.5t-188.5 -256t-271.5 -170t-317.5 -61.5q-170 0 -324.5 62.5t-273.5 171t-188.5 256t-69.5 317.5zM221 621q0 -135 54.5 -254t148.5 -208 t218 -140.5t263 -51.5q135 0 258 50.5t215 138.5t147.5 207.5t55.5 257.5q0 135 -53 253.5t-143.5 207.5t-212.5 141.5t-259 50.5q-139 4 -264 -45t-220 -137t-151.5 -209t-56.5 -262zM403 291q0 27 48 55q33 20 44 63.5t11 106.5q0 53 -3 116.5t-3 137.5q0 78 -8.5 107.5 t-34.5 40.5q-53 25 -54 59q0 78 152 78q10 0 61.5 -4t96.5 -4q57 0 151 6q31 2 52.5 3t33.5 1q141 0 227.5 -61.5t86.5 -164.5q0 -57 -31 -106t-78 -70q-18 -8 -18 -14q0 -14 26 -23q70 -27 101.5 -73.5t46.5 -145.5q4 -27 19.5 -39t32.5 -21t30.5 -19.5t13.5 -34.5 q0 -45 -56.5 -72t-150.5 -27q-70 0 -114 15.5t-72.5 48.5t-47 84t-34.5 121q-24 98 -90 100q-23 0 -28 -11.5t-5 -68.5q0 -72 8 -106q2 -12 14.5 -21.5t25.5 -19t23.5 -21.5t10.5 -31q0 -41 -55.5 -59t-186.5 -18q-246 0 -246 92zM805 723q0 -27 29 -27q51 0 72.5 24.5 t21.5 84.5q0 106 -82 106q-23 0 -32 -8t-9 -33v-147z" />
<glyph unicode="&#xb0;" horiz-adv-x="598" d="M16 1096q0 76 23.5 138t64.5 107t96.5 71t116.5 26q55 0 103.5 -26t83.5 -69t55.5 -101t20.5 -124q0 -70 -27 -128t-70 -101t-98.5 -67.5t-112.5 -24.5q-113 0 -184.5 83t-71.5 216zM207 1235q0 -29 6 -83t20.5 -106.5t36 -91.5t52.5 -39q66 0 65 91q0 39 -7 93 t-20.5 104t-35 87t-50.5 39q-31 0 -49 -25.5t-18 -68.5z" />
<glyph unicode="&#xb1;" horiz-adv-x="1206" d="M143 41v211h920v-211h-920zM143 602v213h353v242h215v-242h352v-213h-352v-242h-215v242h-353z" />
<glyph unicode="&#xb5;" horiz-adv-x="1200" d="M-68 -274q0 72 56.5 230.5t109.5 408.5l101 487h317l-110 -522q-12 -63 -13 -107q0 -96 84 -96q57 0 89 53t57 168l108 504h316l-105 -496q-4 -20 -6 -38.5t-2 -30.5q0 -88 74 -88q41 0 59 24.5t41 61.5q14 25 26.5 39t34.5 14q14 0 23.5 -12.5t9.5 -28.5q0 -12 -11 -56 t-40 -98q-90 -166 -240 -166q-170 0 -182 189q-76 -184 -260 -184q-94 0 -150.5 47t-64.5 131q-20 -141 -28.5 -242.5t-18.5 -159.5q-12 -92 -43 -131t-103 -39q-59 0 -94 37t-35 101z" />
<glyph unicode="&#xb6;" horiz-adv-x="966" d="M10 1090q0 147 99.5 240t267.5 93h581v-135h-96v-1288h-190v1288h-131v-1288h-193v756q-156 8 -247 100t-91 234z" />
<glyph unicode="&#xb7;" horiz-adv-x="628" d="M131 588q0 92 53.5 155.5t128.5 63.5q76 0 131.5 -63.5t55.5 -155.5t-55.5 -155.5t-131.5 -63.5t-129 63.5t-53 155.5z" />
<glyph unicode="&#xbb;" horiz-adv-x="907" d="M31 141q0 47 40.5 140.5t106.5 240.5q-70 147 -106.5 240.5t-36.5 134.5q0 70 53 70q45 0 95 -54.5t126 -146.5q72 -92 115 -147.5t43 -100.5q0 -35 -43 -92t-119 -152q-76 -94 -129 -145t-92 -51q-53 0 -53 63zM436 141q0 47 40 139t108 242q-72 147 -109 239.5 t-37 135.5q0 70 56 70q45 0 95 -54.5t126 -146.5q72 -92 114.5 -147.5t42.5 -100.5q0 -35 -43 -92t-118 -152q-76 -94 -129.5 -145t-92.5 -51q-53 0 -53 63z" />
<glyph unicode="&#x2000;" horiz-adv-x="765" />
<glyph unicode="&#x2001;" horiz-adv-x="1530" />
<glyph unicode="&#x2002;" horiz-adv-x="765" />
<glyph unicode="&#x2003;" horiz-adv-x="1530" />
<glyph unicode="&#x2004;" horiz-adv-x="510" />
<glyph unicode="&#x2005;" horiz-adv-x="382" />
<glyph unicode="&#x2006;" horiz-adv-x="255" />
<glyph unicode="&#x2007;" horiz-adv-x="255" />
<glyph unicode="&#x2008;" horiz-adv-x="191" />
<glyph unicode="&#x2009;" horiz-adv-x="306" />
<glyph unicode="&#x200a;" horiz-adv-x="85" />
<glyph unicode="&#x2010;" horiz-adv-x="628" d="M59 422q0 57 13.5 114.5t29.5 114.5q20 76 64 76q10 0 57 -5t133 -5q70 0 114 2t58 2q41 0 41 -53q0 -143 -57 -254q-20 -41 -33.5 -48.5t-58.5 -7.5q-37 0 -81 5.5t-91 5.5q-61 0 -97 -8.5t-49 -8.5q-27 0 -35 14.5t-8 55.5z" />
<glyph unicode="&#x2011;" horiz-adv-x="628" d="M59 422q0 57 13.5 114.5t29.5 114.5q20 76 64 76q10 0 57 -5t133 -5q70 0 114 2t58 2q41 0 41 -53q0 -143 -57 -254q-20 -41 -33.5 -48.5t-58.5 -7.5q-37 0 -81 5.5t-91 5.5q-61 0 -97 -8.5t-49 -8.5q-27 0 -35 14.5t-8 55.5z" />
<glyph unicode="&#x2012;" horiz-adv-x="628" d="M59 422q0 57 13.5 114.5t29.5 114.5q20 76 64 76q10 0 57 -5t133 -5q70 0 114 2t58 2q41 0 41 -53q0 -143 -57 -254q-20 -41 -33.5 -48.5t-58.5 -7.5q-37 0 -81 5.5t-91 5.5q-61 0 -97 -8.5t-49 -8.5q-27 0 -35 14.5t-8 55.5z" />
<glyph unicode="&#x2013;" horiz-adv-x="880" d="M0 426q0 14 8 50t18.5 76t20.5 76t16 48q29 70 78 69q31 0 53.5 -3t46 -6t51 -6t68.5 -3h340q25 0 38.5 3t25.5 6t26.5 6t38.5 3q18 0 35 -22.5t17 -46.5q0 -41 -10.5 -96.5t-28 -104.5t-40 -84t-44.5 -35q-59 0 -96 10.5t-87 10.5h-274q-57 0 -94 -2t-63.5 -3t-48 -3 t-46.5 -2q-20 0 -34.5 16t-14.5 43z" />
<glyph unicode="&#x2014;" horiz-adv-x="1761" d="M0 426q0 14 8 50t18.5 76t20.5 76t16 48q29 70 78 69q31 0 53.5 -3t46 -6t51 -6t68.5 -3h1221q25 0 38 3t25.5 6t27 6t38.5 3q18 0 34.5 -22.5t16.5 -46.5q0 -41 -10 -96.5t-27.5 -104.5t-40 -84t-45.5 -35q-59 0 -96 10.5t-86 10.5h-1155q-57 0 -94 -2t-63.5 -3t-48 -3 t-46.5 -2q-20 0 -34.5 16t-14.5 43z" />
<glyph unicode="&#x2018;" horiz-adv-x="477" d="M53 934q0 102 31 210.5t90 207.5q35 53 62.5 81.5t58.5 28.5q33 0 56.5 -24.5t23.5 -59.5q0 -20 -13.5 -42.5t-29 -51.5t-28.5 -62.5t-13 -74.5q0 -37 18.5 -49.5t40.5 -36.5q72 -76 72 -193q0 -102 -48 -166.5t-124 -64.5q-86 0 -141.5 79t-55.5 218z" />
<glyph unicode="&#x2019;" horiz-adv-x="477" d="M53 1231q0 100 49.5 165.5t124.5 65.5q84 0 139.5 -79.5t55.5 -219.5q0 -102 -31 -209.5t-90 -205.5q-68 -111 -121 -111q-31 0 -54.5 23.5t-23.5 58.5q0 20 13.5 42.5t29 50.5t28.5 61.5t13 76.5q0 35 -19.5 48.5t-41.5 39.5q-72 78 -72 193z" />
<glyph unicode="&#x201a;" horiz-adv-x="477" d="M53 250q0 102 49.5 165.5t124.5 63.5q84 0 139.5 -80t55.5 -217q0 -102 -31 -210.5t-90 -207.5q-35 -53 -62.5 -81.5t-58.5 -28.5t-54.5 25.5t-23.5 58.5q0 20 13.5 42.5t29 51.5t28.5 62.5t13 76.5q0 35 -19.5 47.5t-41.5 36.5q-72 78 -72 195z" />
<glyph unicode="&#x201c;" horiz-adv-x="925" d="M53 934q0 102 31 210.5t90 207.5q35 53 62.5 81.5t58.5 28.5q33 0 56.5 -24.5t23.5 -59.5q0 -20 -13.5 -42.5t-29 -51.5t-28.5 -62.5t-13 -74.5q0 -37 18.5 -49.5t40.5 -36.5q72 -76 72 -193q0 -102 -48 -166.5t-124 -64.5q-86 0 -141.5 79t-55.5 218zM504 934 q0 102 30.5 210.5t88.5 207.5q66 111 122 110q29 0 53.5 -24.5t24.5 -59.5q0 -20 -13 -42.5t-28.5 -51.5t-29 -62.5t-13.5 -74.5q0 -37 18.5 -49.5t43.5 -36.5q33 -37 52 -86t19 -107q0 -102 -49 -166.5t-127 -64.5q-84 0 -138 79t-54 218z" />
<glyph unicode="&#x201d;" horiz-adv-x="925" d="M53 1231q0 100 49.5 165.5t124.5 65.5q84 0 139.5 -79.5t55.5 -219.5q0 -102 -31 -209.5t-90 -205.5q-68 -111 -121 -111q-31 0 -54.5 23.5t-23.5 58.5q0 20 13.5 42.5t29 50.5t28.5 61.5t13 76.5q0 35 -19.5 48.5t-41.5 39.5q-72 78 -72 193zM504 1231q0 100 48 165.5 t124 65.5q86 0 141 -79.5t55 -219.5q0 -102 -30.5 -209.5t-89.5 -205.5q-68 -111 -123 -111q-31 0 -55.5 23.5t-24.5 58.5q0 20 13 42.5t29.5 50.5t30 61.5t13.5 76.5q0 35 -18.5 48.5t-41.5 39.5q-72 76 -71 193z" />
<glyph unicode="&#x201e;" horiz-adv-x="925" d="M53 250q0 102 49.5 165.5t124.5 63.5q84 0 139.5 -80t55.5 -217q0 -102 -31 -210.5t-90 -207.5q-35 -53 -62.5 -81.5t-58.5 -28.5t-54.5 25.5t-23.5 58.5q0 20 13.5 42.5t29 51.5t28.5 62.5t13 76.5q0 35 -19.5 47.5t-41.5 36.5q-72 78 -72 195zM504 250q0 102 48 165.5 t124 63.5q86 0 141 -80t55 -217q0 -102 -30.5 -210.5t-89.5 -207.5q-35 -53 -64 -81.5t-59 -28.5q-31 0 -55.5 25.5t-24.5 58.5q0 20 13 42.5t29.5 51.5t30 62.5t13.5 76.5q0 35 -18.5 47.5t-41.5 36.5q-72 76 -71 195z" />
<glyph unicode="&#x2022;" d="M272 733q0 119 69 202t167 83q47 0 90 -22.5t75 -60.5t50 -90t18 -112q0 -57 -18 -109.5t-51 -91t-75 -61t-91 -22.5q-98 0 -166 82.5t-68 201.5z" />
<glyph unicode="&#x2026;" horiz-adv-x="1626" d="M72 215q0 100 58 170t142 70t140.5 -70t56.5 -170t-56.5 -171t-140.5 -71t-142 71t-58 171zM612 215q0 100 58.5 170t140.5 70q86 0 143.5 -70t57.5 -170t-57.5 -171t-143.5 -71q-82 0 -140.5 71t-58.5 171zM1155 215q0 100 58.5 170t142.5 70t141 -70t57 -170t-57 -171 t-141 -71t-142.5 71t-58.5 171z" />
<glyph unicode="&#x202f;" horiz-adv-x="306" />
<glyph unicode="&#x2039;" horiz-adv-x="489" d="M29 524q0 33 43 92.5t121 155.5q76 94 128 145.5t91 51.5q25 0 38 -19.5t13 -48.5q0 -45 -40 -137t-106 -242q70 -147 107 -240.5t37 -134.5q0 -70 -53 -69q-45 0 -96.5 53t-123.5 148q-74 90 -116.5 145t-42.5 100z" />
<glyph unicode="&#x203a;" horiz-adv-x="489" d="M27 141q0 47 38.5 139t106.5 242q-70 147 -107.5 240.5t-37.5 134.5q0 70 53 70q47 0 97 -54.5t126 -146.5q72 -92 114 -147.5t42 -100.5q0 -35 -43 -92t-119 -152q-76 -94 -128 -145t-91 -51q-51 0 -51 63z" />
<glyph unicode="&#x205f;" horiz-adv-x="382" />
<glyph unicode="&#x2122;" horiz-adv-x="2070" d="M31 1184q0 27 12 65.5t33.5 75.5t49.5 62.5t60 25.5q27 0 58.5 -8t72.5 -8h324q37 0 68.5 10t60.5 10q33 0 59.5 -25.5t45 -61.5t28.5 -73.5t10 -64.5q0 -45 -24.5 -71.5t-67.5 -26.5q-27 0 -50 21.5t-43.5 48t-38 48t-32.5 21.5q-41 0 -41 -82v-342q0 -51 17.5 -75.5 t37 -38t37 -26t17.5 -36.5q0 -88 -244 -88q-287 0 -286 94q0 20 11 30.5t54 22.5q39 12 49 113.5t10 327.5q0 102 -36 102q-23 0 -47 -35q-41 -59 -69 -82.5t-61 -23.5t-54 24.5t-21 65.5zM928 614q0 16 8 24.5t41 23.5q37 16 45 120.5t8 319.5q0 92 -9 122.5t-44 47.5 q-45 23 -45 55q0 29 22.5 45.5t54 25.5t68.5 12t64 3q41 0 67.5 -3t43 -11t28.5 -22.5t25 -37.5l127 -237q20 -37 29 -45t24 -8q23 0 41 41l88 170q29 53 49 83.5t43 46t51.5 19.5t71.5 4q180 0 180 -76q0 -31 -37 -59q-16 -12 -26.5 -29.5t-15.5 -48.5t-7 -77t-2 -115 q0 -133 5 -210t26 -98q18 -18 37.5 -35.5t19.5 -41.5q0 -41 -50 -58.5t-171 -17.5q-209 0 -209 71q0 20 11.5 30.5t24.5 31t24.5 58.5t11.5 114q0 49 -4.5 64.5t-18.5 15.5q-18 0 -33.5 -23.5t-48.5 -95.5l-73 -166q-31 -70 -58 -69q-14 0 -35.5 31.5t-58.5 115.5l-82 184 q-14 37 -37 37q-14 0 -19 -30.5t-5 -133.5q0 -74 8 -92t49 -39q20 -10 20 -37q0 -68 -176 -67q-152 0 -151 67z" />
<glyph unicode="&#x25fc;" horiz-adv-x="1064" d="M0 0v1065h1065v-1065h-1065z" />
</font>
</defs>
</svg>
