<?xml version="1.0" standalone="no"?>
<!DOCTYPE svg PUBLIC "-//W3C//DTD SVG 1.1//EN" "http://www.w3.org/Graphics/SVG/1.1/DTD/svg11.dtd" >
<svg xmlns="http://www.w3.org/2000/svg" xmlns:xlink="http://www.w3.org/1999/xlink" version="1.1">
<metadata></metadata>
<defs>
<font id="a_bodoninovanritalic" horiz-adv-x="1017" >
<font-face units-per-em="2048" ascent="1638" descent="-410" />
<missing-glyph horiz-adv-x="512" />
<glyph horiz-adv-x="0" />
<glyph unicode="&#xd;" horiz-adv-x="512" />
<glyph unicode=" "  horiz-adv-x="512" />
<glyph unicode="&#x09;" horiz-adv-x="512" />
<glyph unicode="&#xa0;" horiz-adv-x="512" />
<glyph unicode="!" horiz-adv-x="679" d="M133 100q0 119 105 119q47 0 75.5 -34.5t28.5 -84.5q0 -49 -27.5 -82.5t-76.5 -33.5t-77 33.5t-28 82.5zM250 328q96 446 121 850q4 78 16 135q29 143 123 143q29 0 60.5 -23.5t31.5 -93.5q0 -76 -180 -559q-74 -200 -127 -452h-45z" />
<glyph unicode="&#x22;" horiz-adv-x="745" d="M252 1450h186l-49 -481h-82zM582 1450h186l-51 -481h-80z" />
<glyph unicode="#" horiz-adv-x="1118" d="M102 414l33 149h217l72 316h-217l31 151h219l65 293h111l-66 -293h232l67 293h111l-68 -293h219l-32 -151h-217l-72 -316h217l-33 -149h-217l-65 -295h-113l66 295h-230l-67 -295h-111l65 295h-217zM465 563h231l70 316h-231z" />
<glyph unicode="$" d="M0 0l84 459l41 10q-4 -37 -4 -72q0 -135 73.5 -236.5t202.5 -137.5l127 595q-102 43 -125 56q-72 39 -100 90q-43 78 -43 170q0 215 115 364q127 162 336 162l34 164h54l-37 -164q35 -2 99.5 -42t94.5 -40q43 0 82 62h29l-57 -344l-33 -4q-51 276 -223 323l-117 -545 q135 -49 149 -55q86 -41 117 -100q41 -78 41 -172q0 -236 -133 -396q-143 -172 -373 -172h4l-41 -192h-53l43 192q-68 0 -154 54.5t-110 54.5q-45 0 -84 -84h-39zM371 1096q0 -92 63 -146q46 -38 148 -67l116 538q-119 0 -204.5 -70.5t-112.5 -187.5q-10 -45 -10 -67z M449 20q150 0 256 97.5t106 247.5q0 72 -35 129q-29 45 -90 73q-13 6 -113 39z" />
<glyph unicode="%" horiz-adv-x="1603" d="M285 1030q0 154 98 287q107 145 254 145q102 0 160 -80q53 -70 53 -176q0 -147 -105 -280q-111 -143 -253 -144q-100 0 -158 76q-49 68 -49 172zM352 10l953 1456l49 -34l-955 -1457zM406 956q0 -141 96 -141q135 0 192 260q35 160 35 209q0 90 -30.5 119t-63.5 29 q-94 0 -154 -140q-29 -68 -61 -217q-14 -66 -14 -119zM848 227q0 150 100 285q111 147 254 147q100 0 158 -79q51 -70 51 -177q0 -152 -100 -282q-109 -141 -256 -141q-100 0 -156 75q-51 68 -51 172zM969 154q0 -143 96 -144q129 0 192 262q37 152 37 207q0 90 -31.5 118 t-62.5 28q-133 0 -196 -260q-35 -141 -35 -211z" />
<glyph unicode="&#x26;" horiz-adv-x="1325" d="M59 272q0 287 441 535q-68 195 -68 280q0 131 107.5 258.5t236.5 127.5q182 0 182 -179q0 -205 -268 -399l168 -424q68 70 135 141q98 96 148 109q25 6 47 6q100 0 100 -109q0 -137 -121 -137q-86 0 -86 103q0 14 7.5 30.5t7.5 18.5q0 6 -11 6q-16 0 -208 -207 q121 -285 239 -285q78 0 184 170l25 -26q-74 -139 -129 -205q-95 -115 -199 -115q-129 0 -268 283q-254 -283 -436 -283q-109 0 -174 101q-59 88 -60 200zM260 422q0 -104 51 -197q61 -109 158 -108q92 0 242 174q-133 260 -203 485q-125 -74 -178 -141q-70 -88 -70 -213z M612 1221q0 -102 68 -289q236 176 235 352q0 61 -28 102q-35 47 -92 48q-82 0 -132.5 -64.5t-50.5 -148.5z" />
<glyph unicode="'" horiz-adv-x="415" d="M252 1450h190l-53 -481h-80z" />
<glyph unicode="(" horiz-adv-x="733" d="M158 193q0 627 583 1255l37 -16q-213 -291 -340 -709q-123 -403 -123 -778q0 -172 23 -279q10 -44 35 -112l-41 -31q-174 330 -174 670z" />
<glyph unicode=")" horiz-adv-x="733" d="M-111 -457q211 266 342 707q121 412 121 780q0 256 -57 393l43 29q172 -297 172 -668q0 -647 -584 -1257z" />
<glyph unicode="*" horiz-adv-x="1071" d="M231 874q0 43 20.5 61.5t151.5 49.5q53 12 121 43v43q-80 31 -135 41t-76 16q-49 14 -65.5 34t-16.5 67q0 37 25 62.5t61 25.5q49 0 175 -129q35 -37 67 -62l35 21q-12 70 -37 135.5t-25 112.5q0 39 29 68.5t68 29.5q90 0 90 -96q0 -39 -25 -121q-31 -100 -37 -129 l37 -19q57 55 115 111q80 76 123 76q35 0 60.5 -26.5t25.5 -61.5q0 -55 -60 -82q-29 -12 -124 -33q-82 -18 -109 -41v-43q72 -29 131 -41t80 -18q49 -14 65.5 -35t16.5 -66q0 -35 -26.5 -60.5t-61.5 -25.5q-51 0 -104.5 61.5t-131.5 129.5l-37 -19q12 -70 39 -143 q23 -63 23 -111q0 -88 -88 -88q-98 0 -99 90q0 45 64 250l-39 21q-6 -4 -113 -111q-80 -78 -120 -78q-37 0 -65 27t-28 63z" />
<glyph unicode="+" horiz-adv-x="1071" d="M115 696v86h446v447h94v-447h445v-86h-445v-442h-94v442h-446z" />
<glyph unicode="," horiz-adv-x="768" d="M133 -338q72 55 135 133q80 100 80 164q0 31 -24 31q-6 0 -18.5 -3t-18.5 -3q-18 0 -51 24.5t-33 89.5q0 121 114 121q111 0 111 -162q0 -115 -92 -243q-75 -109 -186 -191z" />
<glyph unicode="-" horiz-adv-x="665" d="M143 475v98h398v-98h-398z" />
<glyph unicode="." horiz-adv-x="681" d="M133 100q0 119 105 119q47 0 75.5 -34.5t28.5 -84.5q0 -49 -27.5 -82.5t-76.5 -33.5t-77 33.5t-28 82.5z" />
<glyph unicode="/" horiz-adv-x="1009" d="M0 -156l1010 1846h131l-1010 -1846h-131z" />
<glyph unicode="0" d="M94 446q0 264 115 537q127 303 328 426q88 53 174 53q162 0 241 -166q61 -129 62 -309q0 -262 -115 -532q-129 -303 -330 -424q-92 -55 -178 -56q-49 0 -104 29q-102 53 -154 193q-39 111 -39 249zM250 213q0 -197 151 -197q143 0 230 174q49 96 92 299l100 463 q31 141 31 258q0 211 -149 211q-139 0 -226 -174q-47 -96 -90 -295l-100 -463q-39 -180 -39 -276z" />
<glyph unicode="1" d="M80 0l8 43h221l287 1335h-176l10 49l393 33l-305 -1417h215l-8 -43h-645z" />
<glyph unicode="2" d="M0 0l29 139l403 355q176 154 242 243q96 129 137 314q23 100 23 168q0 201 -189 200q-76 0 -143 -45q-78 -51 -78 -123q0 -27 34 -70.5t34 -74.5q0 -66 -46.5 -116t-111.5 -50q-94 0 -94 111q0 76 55 172q63 109 171.5 175t231.5 66q338 0 338 -297q0 -201 -112 -350 q-78 -100 -279 -250l-491 -364h475q47 0 82 8q59 14 96 88q16 33 45 131h43l-94 -430h-801z" />
<glyph unicode="3" d="M31 215q0 70 35.5 124t103.5 54t68 -71q0 -74 -51.5 -120t-51.5 -75q0 -55 74 -88q57 -25 121 -25q252 0 346 447q33 156 33 203q0 98 -72 127q-41 16 -158 16l-10 33q172 137 285 241q78 70 221 222l-2 8q-80 -31 -457 -31q-152 0 -217 -180l-31 4l125 381h33v-8 q0 -37 88 -37h496q59 0 69 45h33q-27 -121 -94 -201q-137 -166 -461 -414l2 -8q55 25 162 25q100 0 158 -88q49 -76 49 -183q0 -139 -71 -298.5t-211 -251t-318 -91.5q-127 0 -207 56q-90 63 -90 184z" />
<glyph unicode="4" d="M80 410l12 61l744 1004h100l-211 -977h195l-19 -88h-194l-80 -367h145l-8 -43h-502l8 43h160l80 367h-430zM154 498h374l150 696z" />
<glyph unicode="5" d="M59 209q0 86 39 153q47 80 127 80q92 0 92 -90q0 -82 -66.5 -141t-68.5 -76v-16q0 -102 137 -103q242 0 320 369l49 233q10 49 10 87q0 188 -182 188q-131 0 -258 -139l-14 4l192 704q135 -72 295 -71q139 0 287 69l14 -24q-63 -102 -217 -166q-139 -56 -274 -56 q-37 0 -131 15l-105 -381q100 80 174 94q66 12 94 12q184 0 264.5 -96t80.5 -233q0 -109 -62 -271q-80 -209 -264 -319q-100 -59 -244 -60q-117 0 -196 58q-92 63 -93 176z" />
<glyph unicode="6" d="M104 373q0 125 37 293q70 317 195 516q174 281 434 280q154 0 217.5 -61.5t63.5 -136.5q0 -70 -39 -129q-45 -68 -111 -68q-90 0 -90 92q0 47 44 112.5t44 92.5q0 59 -137 59q-154 0 -242 -145q-53 -92 -98 -285l-62 -268q74 111 158 146.5t144 35.5q129 0 204 -110 q66 -96 66 -232q0 -170 -84 -311q-72 -121 -180 -197q-119 -82 -250 -82q-164 0 -246 123q-68 102 -68 275zM260 221q0 -106 59.5 -155.5t116.5 -49.5q182 0 248 306.5t66 365.5q0 166 -132 166q-49 0 -96 -25q-156 -80 -196 -268l-56 -252q-10 -47 -10 -88z" />
<glyph unicode="7" d="M211 1073l127 367h709q18 0 18 -17q0 -109 -283 -553q-229 -360 -340 -870h-202q70 317 325 674q100 135 199 268q115 158 172 287h-526q-63 0 -103 -49q-23 -27 -57 -107h-39z" />
<glyph unicode="8" d="M63 281q0 282 375 475q-96 94 -119 125q-45 68 -45 161q0 121 78 228q74 100 187 155q78 37 186 37q121 0 201 -55q92 -63 92 -178q0 -252 -316 -383q115 -104 148 -150q63 -86 63 -194q0 -131 -82 -264q-70 -113 -176 -185q-117 -78 -239 -78q-156 0 -250 72 q-102 82 -103 234zM203 236q0 -100 58 -160t159 -60q137 0 229 115q88 106 88 248q0 121 -78 188l-180 156q-104 -57 -164 -152q-39 -61 -90 -202q-23 -63 -22 -133zM438 1171q0 -98 84 -170l144 -124q219 117 219 360q0 184 -170 184q-115 0 -193 -67q-84 -70 -84 -183z " />
<glyph unicode="9" d="M63 176q0 68 41 127q43 68 109 68q92 0 92 -92q0 -41 -44 -112t-44 -91q0 -61 137 -62q246 0 342 432l60 269q-74 -111 -160 -148t-145 -37q-129 0 -205 111q-66 98 -66 233q0 217 150 398q156 190 368 190q164 0 246 -123q68 -104 68 -276q0 -223 -104.5 -536.5 t-305.5 -467.5q-109 -84 -258 -84q-152 0 -216.5 62.5t-64.5 138.5zM367 754q0 -170 133 -170q102 0 190 98q80 90 103 197l53 251q10 50 10 89q0 84 -45 141q-51 61 -133 61q-178 0 -246 -309l-47 -217q-18 -84 -18 -141z" />
<glyph unicode=":" horiz-adv-x="688" d="M133 100q0 119 105 119q47 0 75.5 -34.5t28.5 -84.5q0 -49 -27.5 -82.5t-76.5 -33.5t-77 33.5t-28 82.5zM295 852q0 49 28.5 83t75.5 34t77 -35t30 -82q0 -49 -28.5 -84t-78.5 -35q-49 0 -76.5 34t-27.5 85z" />
<glyph unicode=";" horiz-adv-x="765" d="M133 -338q61 49 129 129q86 100 86 152q0 47 -22 47q-6 0 -19.5 -3t-19.5 -3q-84 0 -84 114q0 53 31.5 87t84.5 34q111 0 111 -162q0 -111 -92 -241q-78 -111 -182 -193zM373 852q0 47 29.5 82t76.5 35q45 0 75 -35t30 -82q0 -49 -28 -84t-77 -35q-47 0 -76.5 35 t-29.5 84z" />
<glyph unicode="&#x3c;" horiz-adv-x="1071" d="M53 721l912 528l55 -106l-725 -422l725 -418l-55 -106z" />
<glyph unicode="=" horiz-adv-x="1071" d="M82 494v92h942v-92h-942zM82 801v92h942v-92h-942z" />
<glyph unicode="&#x3e;" horiz-adv-x="1071" d="M92 303l727 418l-727 422l60 106l909 -528l-909 -524z" />
<glyph unicode="?" horiz-adv-x="935" d="M182 100q0 51 29 85t78 34t77.5 -33.5t28.5 -85.5q0 -49 -28.5 -82.5t-77.5 -33.5q-47 0 -77 33.5t-30 82.5zM225 1083q0 143 101.5 258t242.5 115q123 0 201 -55q88 -63 88 -182q0 -184 -135 -349l-258 -278q-69 -89 -96 -236h-52q41 199 107 328q35 68 104 172 q86 127 111 170q45 76 45 182q0 209 -127 209q-84 0 -165 -66.5t-81 -148.5q0 -33 21 -39h49q68 0 68 -76q0 -53 -42 -99t-96 -46q-43 0 -67 51q-18 41 -19 90z" />
<glyph unicode="@" horiz-adv-x="1882" d="M76 690q0 373 260 630t635 257q362 0 608 -199q264 -213 264 -567q0 -227 -123 -401q-137 -195 -356 -195q-156 0 -234 123q-141 -104 -284 -105q-152 0 -242 113q-82 104 -82 260q0 223 157 383t380 160q147 0 235 -129l35 92h164l-164 -539q-41 -135 -41 -163 q0 -74 34 -99.5t60 -25.5q113 0 217 102q88 86 136 205q39 98 39 219q0 322 -244 516q-225 182 -553 182q-197 0 -344 -73q-209 -104 -334 -309t-125 -439q0 -340 234.5 -582.5t574.5 -242.5q332 0 541 180l45 -53q-262 -195 -580 -195q-229 0 -401 86q-334 168 -455 508 q-57 160 -57 301zM717 590q0 -127 34.5 -206t137.5 -79q82 0 139 43q76 55 82 78l139 471q-14 78 -63 131q-55 57 -131 57q-63 0 -125 -41q-100 -68 -160 -200q-53 -123 -53 -254z" />
<glyph unicode="A" horiz-adv-x="1075" d="M-104 0l6 43q47 0 100 53q45 43 70 97l602 1263h12l195 -1413h123l-9 -43h-489l6 43h160l-56 444h-358q-43 -86 -84 -170q-70 -150 -70 -202q0 -72 99 -72l-6 -43h-301zM274 530h334l-71 547z" />
<glyph unicode="B" horiz-adv-x="1228" d="M-16 0l10 43h137l291 1352h-137l10 45h534q352 0 353 -248q0 -172 -125 -283q-115 -102 -291 -121v-4q319 -66 319 -299q0 -158 -83.5 -277.5t-231.5 -172.5q-94 -35 -227 -35h-559zM326 43h200q170 0 262 158q78 129 78 311q0 246 -241 246h-144zM489 801h132 q172 0 264 131q80 113 80 293q0 96 -48.5 133t-148.5 37h-152z" />
<glyph unicode="C" horiz-adv-x="1142" d="M106 457q0 80 35 248q49 238 158 419q131 215 324 301q100 45 190 45q74 0 135.5 -33.5t85.5 -33.5q53 0 86 67h39l-82 -464h-39q7 133 9 133v-2q0 293 -232 293q-45 0 -104 -27q-217 -98 -312 -533l-77 -358q-23 -104 -23 -193q0 -123 47 -200q57 -94 174 -94 q147 0 275 163q91 119 157 299h39l-119 -487h-38q0 96 -39 96q-12 0 -121 -56t-205 -56q-174 0 -274 155q-88 133 -89 318z" />
<glyph unicode="D" horiz-adv-x="1368" d="M-14 0l8 43h139l291 1354h-135l8 43h518q221 0 348 -142.5t127 -365.5q0 -270 -104 -494q-117 -248 -336 -364q-139 -74 -301 -74h-563zM328 43h239q80 0 172 59q199 127 297 506q51 197 51 473q0 156 -57 232q-66 84 -217 84h-190z" />
<glyph unicode="E" horiz-adv-x="1187" d="M-14 0l8 43h139l291 1354h-135l8 43h874l-96 -447h-41q16 82 17 178q0 100 -61.5 163t-162.5 63h-204l-134 -606h64q193 0 248 245h35l-115 -538h-39q14 57 14 102q0 102 -61 131q-37 16 -154 17l-153 -705h254q150 0 256 135q70 90 135 271h41l-103 -449h-925z" />
<glyph unicode="F" horiz-adv-x="1173" d="M-14 0l8 43h139l291 1354h-135l8 43h883l-101 -463h-41q20 94 21 197q0 223 -232 223h-204l-134 -606h113q195 0 242 239h41l-119 -551h-39q12 45 12 109q0 160 -137 160h-121l-153 -705h157l-10 -43h-489z" />
<glyph unicode="G" horiz-adv-x="1282" d="M113 496q0 272 118 508q92 184 234 311q169 151 344 151h2q66 0 145.5 -33.5t126.5 -33.5q51 0 84 67h43l-88 -465l-45 5q10 61 10 96q0 139 -69 225q-74 94 -209 94q-309 0 -451 -694q-55 -270 -55 -410q0 -299 180 -299q199 0 293 185q43 84 103 358h-127l10 43h416 l-11 -43h-94l-100 -469h-39q8 39 8 45q0 35 -35 35t-80 -35q-37 -31 -71 -59q-63 -49 -133 -74q-59 -20 -144 -20q-193 0 -289 168q-77 133 -77 339v5z" />
<glyph unicode="H" horiz-adv-x="1433" d="M-16 0l10 43h137l293 1354h-137l8 43h457l-9 -43h-125l-131 -606h523l133 606h-127l10 43h459l-8 -43h-140l-290 -1354h135l-8 -43h-459l10 43h123l153 705h-522l-153 -705h123l-9 -43h-456z" />
<glyph unicode="I" horiz-adv-x="735" d="M-12 -4l8 43h139l291 1354h-135l8 43h467l-8 -43h-133l-295 -1354h135l-10 -43h-467z" />
<glyph unicode="J" horiz-adv-x="765" d="M-98 203q0 198 144 198h1q78 0 78 -122q0 -45 -55.5 -97.5t-55.5 -66.5q0 -96 101 -97q27 0 49 11q72 33 127 290l231 1078h-151l10 43h483l-8 -43h-133l-236 -1078q-39 -180 -143 -262t-227 -82q-111 0 -163 73t-52 155z" />
<glyph unicode="K" horiz-adv-x="1300" d="M-10 0l8 43h137l291 1352h-135l10 45h467l-10 -45h-133l-127 -586h123q55 0 98 12q88 25 145 174q47 137 92 273q59 154 148 182q37 12 90 12q61 0 95 -40t34 -101q0 -109 -48 -157t-104 -48q-84 0 -84 109q0 41 28 84t28 67q0 27 -25 27q-78 0 -137 -195 q-63 -207 -78 -241q-68 -160 -155 -174v-7q150 -8 213 -83.5t63 -227.5q0 -78 -27 -217q-28 -145 -28 -167q0 -40 24 -40q80 0 154 131l29 -30q-90 -168 -238 -168q-176 0 -176 180q0 68 30.5 204t30.5 214q0 184 -166 184h-170l-155 -723h135l-8 -43h-469z" />
<glyph unicode="L" horiz-adv-x="1034" d="M-10 0l8 43h137l293 1354h-135l8 43h467l-8 -43h-133l-295 -1354h190q172 0 285 129q82 90 156 285h41l-119 -457h-895z" />
<glyph unicode="M" horiz-adv-x="1585" d="M-39 0l8 43q143 0 185 184l221 1016q10 47 10 78q0 55 -45 70q-20 6 -92 6l10 43h358l91 -1118l585 1118h334l-10 -43h-137l-293 -1354h137l-8 -43h-471l10 43h135l268 1231l-673 -1274h-25l-131 1294l-231 -1069q-12 -57 -13 -88q0 -94 105 -94l-8 -43h-320z" />
<glyph unicode="N" horiz-adv-x="1232" d="M-70 0v43q150 0 193 197l221 1030q2 10 2 14q0 49 -39 81t-88 32l8 43h318l397 -1014l172 823q6 29 6 43q0 104 -123 105l9 43h340l-11 -43q-88 0 -131 -60q-29 -41 -51 -143l-262 -1219h-25l-485 1248l-209 -983q-14 -68 -14 -115q0 -25 24.5 -53.5t100.5 -28.5l-11 -43 h-342z" />
<glyph unicode="O" horiz-adv-x="1304" d="M88 494q0 238 72 419q139 356 422 494q131 63 247 63q211 0 324 -145q102 -131 102 -348q0 -293 -110 -533q-125 -274 -363 -393q-135 -67 -272 -67q-205 0 -320 157q-102 139 -102 353zM293 375q0 -350 225 -350q47 0 115 26q248 98 373 676q45 209 45 348 q-1 355 -230 355q-250 0 -405 -422q-123 -330 -123 -633z" />
<glyph unicode="P" horiz-adv-x="1183" d="M-16 0l8 43h137l293 1354h-158l10 43h527q166 0 260 -76q104 -82 104 -244q0 -389 -311 -508q-86 -33 -205 -39q-27 -2 -211 -2l-112 -528h163l-8 -43h-497zM446 612h123q193 0 301 195q88 162 88 371q0 219 -217 219h-125z" />
<glyph unicode="Q" horiz-adv-x="1304" d="M90 492q0 250 76 434q145 352 430 485q129 59 233 59q213 0 326 -145q102 -131 102 -350q0 -233 -67 -418q-131 -358 -402 -502q-125 -67 -236 -67h-3l4 -4h-4q63 0 149 -101.5t111 -101.5q92 0 172 106l27 -37q-125 -182 -283 -182q-55 0 -144 108.5t-147 108.5 q-59 0 -130 -31.5t-107 -76.5l-21 37q143 147 289 166l2 4q-186 23 -287 176q-90 135 -90 332zM293 375q0 -350 225 -350q47 0 115 26q254 100 375 676q45 213 45 348q-1 355 -232 355q-250 0 -405 -422q-123 -330 -123 -633z" />
<glyph unicode="R" horiz-adv-x="1249" d="M-16 0l10 43h137l293 1354h-137l8 43h477q207 0 315.5 -54.5t108.5 -216.5q0 -354 -426 -405l-2 -4q119 -27 168 -64q68 -53 68 -159q0 -63 -27 -197.5t-27 -200.5q0 -84 39 -84q33 0 86 51q45 41 68 80l20 -39q-100 -172 -256 -172q-88 0 -123 45q-32 38 -32 125v5 q0 29 8 81q14 80 28 158q16 96 17 160q0 190 -182 190h-146l-151 -696h137l-10 -43h-469zM487 782h121q160 0 248 92q76 82 113 248q12 57 12 101q0 102 -66 141q-53 33 -161 33h-136z" />
<glyph unicode="S" horiz-adv-x="1046" d="M0 8l84 459h39q12 -440 317 -440q135 0 230 110q88 104 88 242q0 147 -131 207q-121 47 -244 92q-131 76 -131 262q0 158 67 291q76 147 207 211q57 28 124 28h5q78 0 113 -10q23 -6 76 -37q37 -20 86 -20q29 0 53 51h31l-76 -354h-33q-6 332 -252 332q-125 0 -213 -111 q-80 -104 -80 -234q0 -133 166 -188l170 -57q188 -63 189 -285q0 -201 -115 -375q-130 -198 -317 -198h-2q-76 0 -132 18q-78 27 -143 74q-23 16 -47 16q-59 0 -88 -84h-41z" />
<glyph unicode="T" horiz-adv-x="1138" d="M117 985l100 455h1022l-98 -455h-43q18 74 18 150q0 262 -297 262l-295 -1354h158l-8 -43h-506l10 43h150l293 1354q-373 0 -461 -412h-43z" />
<glyph unicode="U" horiz-adv-x="1247" d="M127 293q0 51 12 108l215 996h-147l8 43h479l-8 -43h-135l-223 -1030q-10 -47 -11 -93q0 -113 69 -174t183 -61q295 0 383 391l183 811q10 45 10 74q0 82 -135 82l8 43h350l-8 -43q-92 0 -133 -56q-31 -37 -53 -139l-183 -801q-96 -426 -485 -426q-168 0 -266 74 q-113 82 -113 244z" />
<glyph unicode="V" horiz-adv-x="1046" d="M53 1397l6 43h502l-6 -43h-139l125 -1020l379 799q49 104 49 157q0 63 -101 64l9 43h329l-8 -43q-86 0 -139 -58q-31 -35 -78 -135l-573 -1214h-19l-207 1407h-129z" />
<glyph unicode="W" horiz-adv-x="1701" d="M80 1397l8 43h473l-6 -43h-133l133 -1010l332 692l-37 318h-123l8 43h467l-6 -43h-137l133 -1026l352 716q68 137 68 213q0 35 -4 50q-14 47 -160 47l8 43h416l-8 -43q-41 0 -66 -8q-78 -25 -201 -275l-555 -1124h-12l-133 1014l-498 -1014h-12l-178 1407h-129z" />
<glyph unicode="X" horiz-adv-x="1163" d="M-80 0v45q88 18 148 61q49 39 110 121l352 478l-223 692h-117l7 43h467l-9 -43h-112l155 -498l250 336q35 47 35 94q0 68 -106 68l6 43h385l-8 -43q-106 -8 -166 -56q-35 -27 -113 -133l-264 -360l252 -805h112l-6 -43h-483l8 43h135l-184 610l-297 -391 q-53 -70 -53 -131q0 -74 135 -88l-8 -43h-408z" />
<glyph unicode="Y" horiz-adv-x="1069" d="M121 1397l10 43h473l-8 -43h-141l145 -715l309 467q66 98 66 147q0 100 -123 101l10 43h377l-10 -43q-37 0 -58 -6q-57 -16 -208 -244l-349 -522l-127 -582h140l-11 -43h-469l9 43h139l113 528l-181 826h-106z" />
<glyph unicode="Z" horiz-adv-x="1105" d="M0 0l934 1397h-266q-170 0 -252 -80q-78 -72 -113 -244h-43l57 367h846l-907 -1397h334q211 0 362 340h35l-100 -383h-887z" />
<glyph unicode="[" horiz-adv-x="905" d="M37 -459l407 1899h424l-12 -56h-223l-385 -1790h198l-12 -53h-397z" />
<glyph unicode="\" horiz-adv-x="1003" d="M133 1675h137l602 -1829h-139z" />
<glyph unicode="]" horiz-adv-x="880" d="M37 -459l12 53h199l387 1790h-176l10 56h373l-408 -1899h-397z" />
<glyph unicode="^" horiz-adv-x="907" d="M137 1083l318 367l315 -367h-168l-147 174l-152 -174h-166z" />
<glyph unicode="_" horiz-adv-x="907" d="M-20 -276h948v-154h-948v154z" />
<glyph unicode="`" horiz-adv-x="382" d="M115 1440h264l117 -299h-29z" />
<glyph unicode="a" horiz-adv-x="976" d="M53 334q0 176 78 330q86 164 234 243q84 45 172 45h1q110 0 128 -157h2l26 133h176l-182 -801q-6 -27 -6 -45q0 -41 37 -41q47 0 129 160l31 -25q-104 -201 -234 -201q-125 0 -125 164q-86 -164 -223 -164q-119 0 -186 125q-57 104 -58 234zM217 166q0 -154 100 -154 q57 0 129 81t119 282q74 309 74 377q0 59 -23 108q-29 59 -84 60q-170 0 -237 -316l-51 -242q-27 -125 -27 -196z" />
<glyph unicode="b" horiz-adv-x="886" d="M53 342q0 72 35 217l195 813h-224l7 29h389l-138 -592q94 143 205 143q287 0 287 -389q0 -203 -141 -389q-150 -199 -344 -199q-131 0 -207 123q-63 104 -64 244zM186 201q0 -70 33 -125q39 -63 105 -64q131 0 211 283q94 333 94 399q0 180 -62 199q-20 6 -63 6 q-166 0 -262 -399q-55 -227 -56 -299z" />
<glyph unicode="c" horiz-adv-x="872" d="M53 360q0 242 127 408q141 184 375 184q100 0 160 -49q66 -55 65 -153q1 -158 -110 -158q-104 0 -105 110q0 49 31 87t31 65q0 66 -76 66q-63 0 -142 -81t-120 -268q-59 -274 -60 -348q0 -211 156 -211q137 0 252 191l25 -27q-125 -201 -297 -201q-311 0 -312 385z" />
<glyph unicode="d" horiz-adv-x="1034" d="M53 291q0 221 123 426q140 235 346 235h2q156 0 203 -178l125 598h-209l6 29h385l-268 -1274q-8 -39 -8 -45q0 -41 37 -41q43 0 129 158l30 -23q-96 -201 -229 -201q-88 0 -113 60q-16 35 -16 137q-125 -197 -256 -197q-287 0 -287 316zM229 209q0 -190 125 -191 q68 0 129 78q86 109 144 297q55 181 55 328q0 68 -33 119q-39 59 -102 59q-102 0 -182 -166q-27 -57 -86 -248q-49 -156 -50 -276z" />
<glyph unicode="e" horiz-adv-x="858" d="M53 342q0 231 133 412q146 198 369 198h2q102 0 163.5 -58t61.5 -161q0 -129 -94 -194q-59 -43 -211 -82l-233 -60q-35 -150 -35 -190q0 -78 43 -133q47 -61 123 -62q53 0 139 41t164 152l27 -29q-154 -201 -349 -201q-303 0 -303 367zM252 432l199 55q96 27 151 220 q27 92 27 137q0 76 -70 76q-33 0 -76 -31q-154 -111 -202 -330z" />
<glyph unicode="f" horiz-adv-x="536" d="M-338 -299q0 125 98 125t99 -109q0 -37 -6 -55q-20 -59 -21 -65q0 -41 70 -41q20 0 65 51t70 192l184 1098h-172l6 31h172q29 250 130.5 373.5t232.5 123.5q84 0 146.5 -54t62.5 -136q0 -125 -99 -125q-45 0 -74.5 32t-29.5 79q0 25 16.5 62.5t16.5 57.5q0 39 -47 39 q-104 0 -144 -241l-35 -211h215l-2 -31h-219l-125 -754q-43 -260 -106 -397q-106 -233 -295 -233q-102 0 -155.5 61t-53.5 127z" />
<glyph unicode="g" horiz-adv-x="876" d="M-111 -256q0 170 181 276q-20 35 -21 72q0 139 150 211q-86 74 -86 207q0 174 111.5 308t283.5 134q68 0 121 -24h207q57 0 57 -35q0 -47 -55 -47q-23 0 -127 35q45 -45 45 -172q0 -178 -109 -308q-115 -137 -289 -137q-41 0 -86 12q-84 -37 -84 -79q0 -43 102.5 -54.5 t205.5 -19.5q121 -18 153 -70q20 -35 21 -90q0 -203 -142 -317q-133 -106 -340 -107q-299 0 -299 205zM18 -229q0 -90 57.5 -141.5t147.5 -51.5q106 0 213 76q117 82 117 184q0 82 -113 90l-186 15q-92 6 -139 37q-97 -103 -97 -209zM279 451q0 -147 88 -148q47 0 88 43 q66 68 104 197q35 113 35 221q0 147 -92 147q-74 0 -135 -114q-43 -80 -68 -183q-20 -86 -20 -163z" />
<glyph unicode="h" horiz-adv-x="995" d="M0 0l313 1372h-211l7 29h376l-166 -748q160 299 367 299q98 0 143 -75q23 -39 23 -101q0 -80 -14 -137l-123 -485q-12 -49 -13 -72q0 -41 35 -41q47 0 131 160l27 -25q-98 -199 -231 -199q-57 0 -89 43t-32 101q0 61 18 133l113 440q8 33 8 78q0 100 -68 100 q-94 0 -211 -165q-106 -152 -114 -187l-113 -520h-176z" />
<glyph unicode="i" horiz-adv-x="483" d="M27 897l4 31h348l-182 -801q-6 -27 -7 -45q0 -41 35 -41q53 0 125 158l37 -23q-98 -199 -233 -199q-125 0 -125 138q0 39 22 139l144 643h-168zM272 1372q39 61 111 62q72 -1 72 -64q0 -72 -33 -125q-38 -65 -103 -65h-2q-77 0 -77 61q0 78 32 131z" />
<glyph unicode="j" horiz-adv-x="473" d="M-262 -229q0 106 88 106q90 0 90 -96q0 -20 -12.5 -48t-12.5 -38q0 -25 21 -25q61 0 88 119q14 86 29 170q8 16 18 49q2 23 10 68l185 821h-179l9 31h348l-209 -930q-39 -176 -84 -250q-74 -121 -215 -121q-72 0 -123 37t-51 107zM313 1370q41 63 109 64q76 -1 76 -64 q0 -68 -37 -125q-42 -65 -105 -65h-2q-75 0 -75 61q0 74 34 129z" />
<glyph unicode="k" horiz-adv-x="927" d="M0 0l313 1372h-211l7 29h376l-196 -869q14 8 53 9q14 0 41 -2t41 -2q94 0 131 108q27 98 53 199q41 108 142 108h2q137 0 137 -147q0 -51 -25 -86q-29 -41 -78 -41q-92 0 -92 106q0 33 14.5 49.5t14.5 36.5q0 27 -21 27q-16 0 -45 -41q-25 -33 -43 -123 q-23 -104 -36 -137q-29 -68 -86 -78v-4q172 -41 172 -182q0 -61 -25 -199q-6 -35 -6 -43q0 -49 18 -49q53 0 142 162l28 -27q-96 -199 -235 -199q-125 0 -125 173q0 41 19.5 118.5t19.5 118.5q0 63 -6 80q-12 35 -62 35q-16 0 -49 -10.5t-51 -10.5q-33 0 -49 8l-109 -489 h-174z" />
<glyph unicode="l" horiz-adv-x="485" d="M27 121q0 35 22 133l256 1118h-213l6 29h387l-290 -1274q-6 -27 -7 -45q0 -41 37 -41q59 0 170 254l33 -19q-115 -299 -276 -299q-125 0 -125 144z" />
<glyph unicode="m" horiz-adv-x="1507" d="M27 0l204 897h-180l8 31h349l-64 -279q70 115 158 195q116 108 215 108h2q145 0 145 -176q0 -63 -12 -112h4q61 104 156 186q115 102 211 102q147 0 147 -176q0 -47 -22 -137l-127 -512q-4 -16 -4 -45q0 -41 30 -41q25 0 43 22q88 111 129 232l37 -19 q-123 -299 -278 -299q-123 0 -123 144q0 61 18 133l115 440q10 39 10 101q0 31 -19.5 54t-48.5 23q-68 0 -159 -106q-72 -84 -113 -170q-18 -37 -39 -76l-117 -520h-176l158 694q12 53 12 88q0 33 -17 61.5t-48 28.5q-53 0 -129 -71q-59 -57 -99 -121q-80 -131 -86 -160 l-116 -520h-174z" />
<glyph unicode="n" horiz-adv-x="1019" d="M27 0l204 897h-180l8 31h349l-64 -277q172 301 389 301q150 0 150 -176q0 -55 -21 -137l-129 -512q-6 -25 -6 -45q0 -41 25 -41q55 0 139 160l29 -25q-49 -94 -89 -135q-61 -63 -143 -64q-123 0 -123 144q0 53 21 133l112 440q14 55 15 101q0 31 -19.5 54t-50.5 23 q-117 0 -264 -237q-55 -90 -62 -115l-118 -520h-172z" />
<glyph unicode="o" horiz-adv-x="925" d="M53 287q0 203 74 364q86 186 252 267q90 43 178 43q289 0 289 -320q0 -207 -72 -365q-84 -188 -254 -262q-90 -39 -178 -39q-289 0 -289 312zM227 199q0 -186 127 -187q182 0 281 453q37 170 37 272q0 184 -125 185q-92 0 -158 -91q-53 -74 -129 -370q-33 -129 -33 -262z " />
<glyph unicode="p" horiz-adv-x="983" d="M-43 -395q0 12 12 69l262 1223h-180l6 31h349l-46 -185q59 96 97 138q69 71 141 71h2q176 0 248 -133q53 -100 53 -295q0 -203 -110 -364q-127 -184 -320 -185q-98 0 -156 76q-53 70 -53 170h-4l-106 -528q-8 -41 -9 -55q0 -39 31 -48q10 -4 64 -4l-7 -32h-161 q-55 0 -72 4q-41 10 -41 47zM301 266q0 -96 29 -162q39 -92 121 -92q158 0 219 324l45 235q10 53 10 107q0 242 -123 242q-66 0 -141 -86q-61 -68 -96 -197q-12 -39 -46 -215q-18 -96 -18 -156z" />
<glyph unicode="q" horiz-adv-x="952" d="M53 285q0 229 115 430q134 237 346 237h2q152 0 193 -157l51 133h153l-280 -1276q-6 -29 -6 -37q0 -25 32 -29q-4 0 52 0l-6 -32h-179q-80 0 -80 57q0 10 11 55l104 457q-92 -145 -217 -146q-139 0 -215 84t-76 224zM240 176q0 -147 122 -147q162 0 254 395 q58 246 58 301q0 74 -33 121q-39 53 -109 53q-76 0 -137 -98q-45 -72 -69 -166q-55 -219 -58 -227q-28 -125 -28 -225v-7z" />
<glyph unicode="r" horiz-adv-x="673" d="M27 0l204 897h-178l6 31h322l-21 -125q77 149 218 149h2q66 0 106.5 -46t40.5 -113q0 -53 -30.5 -90t-82.5 -37q-86 0 -86 96q0 23 17.5 52.5t17.5 51.5q0 25 -24 25q-139 0 -213 -332l-125 -559h-174z" />
<glyph unicode="s" horiz-adv-x="765" d="M0 182q0 51 26.5 87t75.5 36q94 0 95 -96q0 -31 -19.5 -56.5t-19.5 -60.5q0 -84 114 -84q72 0 132.5 61.5t60.5 133.5q0 74 -68 129l-170 141q-77 65 -77 186q0 40 22 93q39 92 129 145t195 53q92 0 154.5 -47t62.5 -135q0 -127 -111 -127q-76 0 -76 92q0 29 21.5 59.5 t21.5 61.5q0 61 -94 61q-68 0 -112 -49t-44 -118q0 -94 60 -142l182 -145q80 -63 80 -191q0 -137 -123 -221q-109 -74 -252 -74q-152 0 -209 61.5t-57 145.5z" />
<glyph unicode="t" horiz-adv-x="514" d="M53 897l6 31h170l60 250l188 75l-71 -325h188l-6 -31h-191l-161 -721q-16 -74 -17 -98q0 -37 31 -37q55 0 135 160l27 -25q-98 -199 -232 -199q-121 0 -121 136q0 59 19 141l145 643h-170z" />
<glyph unicode="u" horiz-adv-x="1007" d="M45 897l6 31h330l-152 -697q-10 -47 -10 -102q0 -74 62 -74q109 0 249 213q70 104 78 140l113 489h-117l4 31h355l-5 -31h-61l-174 -770q-6 -27 -6 -45q0 -41 24 -41q14 0 27 4q37 13 113 158l30 -27q-98 -199 -233 -199q-123 0 -123 144q0 37 27 162q-63 -111 -160 -197 q-121 -109 -221 -109q-150 0 -150 199q0 39 17 113l135 608h-158z" />
<glyph unicode="v" horiz-adv-x="831" d="M31 897l6 31h352l-117 -578q-28 -136 -28 -217v-6q0 -92 51 -92q49 0 123 51q129 90 215 245.5t86 311.5q0 82 -17.5 99.5t-25.5 17.5q-10 0 -31.5 -4t-32.5 -4q-63 0 -63 98q0 102 106 102q55 0 98.5 -61.5t43.5 -181.5q0 -223 -164 -467q-180 -264 -393 -265 q-92 0 -133 55.5t-41 106.5q0 74 16 154l125 604h-176z" />
<glyph unicode="w" horiz-adv-x="1245" d="M37 897l8 31h338l-154 -697q-8 -37 -8 -102q0 -74 64 -74q61 0 151 90q68 68 117 146l121 606h-160l6 31h332l-125 -662q-12 -66 -12 -123q0 -108 82 -108h2q66 0 129 61q96 92 160.5 252t64.5 295q0 117 -61 117q-109 0 -109 90q0 102 88 102q76 0 115 -88 q28 -66 28 -149v-6q0 -244 -124 -467q-145 -264 -369 -265q-115 0 -152 64q-28 45 -28 164v8q-180 -236 -338 -236q-152 0 -152 185q0 43 19 127l133 608h-166z" />
<glyph unicode="x" horiz-adv-x="1087" d="M-31 152q0 53 33 95t86 42q43 0 74 -35t31 -78q0 -47 -35 -84t-35 -59q0 -20 27 -21q49 0 119.5 117t170.5 283l-39 311q-14 115 -27.5 142.5t-41.5 27.5q-43 0 -174 -172l-23 22q137 209 266 209q162 0 181 -176l16 -164q170 340 301 340q63 0 110.5 -43t47.5 -104 q0 -49 -28 -94t-75 -45q-106 0 -106 114q0 33 24.5 59.5t24.5 47.5q0 29 -14 28q-100 0 -279 -356l49 -366q10 -76 19 -101q20 -59 69 -59q68 0 183 168l24 -25q-76 -113 -131 -151q-70 -49 -190 -50q-125 0 -154 218l-22 165l-95 -161q-129 -221 -237 -222q-80 0 -115 59.5 t-35 117.5z" />
<glyph unicode="y" horiz-adv-x="952" d="M-74 -334q0 45 24.5 81t67.5 36q78 0 78 -92q0 -23 -19.5 -49.5t-19.5 -42.5q0 -8 31 -9q94 0 191 154q41 66 116 233l-108 766q-16 119 -58 119q-16 0 -66 -50t-87 -144l-37 18q55 137 135 202.5t145 65.5q117 0 140 -151l73 -518l187 430q104 239 206 239h1 q41 0 66.5 -28.5t25.5 -71.5q0 -41 -21.5 -76t-60.5 -35q-68 0 -68 62q0 14 7.5 30.5t7.5 18.5q0 8 -13 8q-37 0 -120 -188l-222 -496q-59 -133 -104 -246q-100 -254 -211 -338q-66 -51 -164 -51q-55 0 -89 34t-34 89z" />
<glyph unicode="z" horiz-adv-x="829" d="M-53 0q0 37 133 195l512 608q-127 -49 -283 -49q-76 0 -155 24l-54 -112h-41l109 295q328 -53 434 -54q59 0 96 15q31 69 55 69h1q39 0 39 -30q0 -23 -27 -54l-645 -735l2 -4h-2q76 27 139 27q49 0 178 -52.5t164 -52.5q20 0 36.5 20.5t16.5 43.5q0 12 -38.5 63t-38.5 74 q0 84 71 84q74 0 74 -119q0 -139 -82 -211t-225 -72q-23 0 -283 70q-45 12 -74 12q-16 0 -34 -24q0 -68 -43 -68q-35 0 -35 37z" />
<glyph unicode="{" horiz-adv-x="667" d="M102 522v88q174 16 174 381q0 27 -2 80t-2 80q0 397 289 434l8 -74q-145 -43 -145 -208q0 -45 5 -136.5t5 -136.5q0 -168 -45 -268q-53 -119 -186 -195q133 -72 186 -192q45 -102 45 -271q0 -37 -5 -110.5t-5 -110.5v-53q0 -76 35 -133q41 -66 110 -74l-8 -74 q-289 37 -289 437q0 27 2 79t2 78q0 369 -174 379z" />
<glyph unicode="|" horiz-adv-x="907" d="M371 -446v2301h166v-2301h-166z" />
<glyph unicode="}" horiz-adv-x="667" d="M98 -377q70 10 109 76q35 55 35 131q0 45 -5.5 137t-5.5 137q0 168 45 271q55 121 189 192q-133 76 -189 193q-45 102 -45 270q0 29 5.5 84t5.5 82v107q0 174 -144 208l8 74q168 -23 236 -149q53 -98 53 -285q0 -27 -2 -80t-2 -80q0 -207 51.5 -290t120.5 -91v-88 q-172 -14 -172 -379q0 -27 2 -79t2 -78q0 -186 -53 -287q-68 -127 -236 -150z" />
<glyph unicode="~" horiz-adv-x="907" d="M94 721q33 96 92 162q74 80 160 80q74 0 211 -43t195 -43q33 0 69 79h58q-92 -233 -205 -233q-63 0 -205.5 39t-200.5 39q-79 0 -112 -80h-62z" />
<glyph unicode="&#xa4;" horiz-adv-x="1071" d="M43 283l164 157q-102 117 -103 281q0 162 103 283l-164 157l74 74l157 -162q121 98 281 98q164 0 285 -98l155 162l74 -74l-162 -157q100 -123 101 -283q0 -162 -101 -281l162 -157l-74 -76l-155 164q-121 -98 -285 -99q-160 0 -281 99l-157 -164zM209 721 q0 -147 99.5 -251.5t246.5 -104.5q150 0 250 103t100 253t-101.5 255t-248.5 105q-145 0 -245.5 -106.5t-100.5 -253.5z" />
<glyph unicode="&#xa6;" horiz-adv-x="907" d="M371 -446v1024h166v-1024h-166zM371 842v1013h166v-1013h-166z" />
<glyph unicode="&#xa7;" horiz-adv-x="1062" d="M84 -2q0 57 28.5 99t84.5 42q104 0 104 -112q0 -59 -68 -109q-16 -12 -38 -47q-4 -12 -5 -27q0 -57 62 -96q53 -35 115 -35q106 0 170.5 60.5t64.5 167.5q0 137 -78 237l-227 295q-86 111 -86 248q0 223 197 407q-25 72 -25 138q0 143 97.5 253.5t238.5 110.5 q111 0 184.5 -83t73.5 -193q0 -47 -25 -80q-27 -39 -71 -39q-102 0 -103 108q0 47 42 90.5t42 59.5q0 25 -30.5 61.5t-112.5 36.5q-84 0 -143.5 -54t-59.5 -136q0 -133 78 -236l213 -278q86 -113 86 -223q0 -51 -2 -78q-12 -160 -182 -367q35 -63 34 -160 q0 -162 -108.5 -273.5t-267.5 -111.5q-123 0 -207 103q-76 94 -76 221zM324 850q0 -92 77 -199l283 -389q113 102 113 250q0 76 -84 184l-254 328l-39 57q-96 -102 -96 -231z" />
<glyph unicode="&#xa9;" horiz-adv-x="1660" d="M137 717q0 309 216 527t524 218q309 0 524 -218t215 -527q0 -305 -217 -523.5t-522 -218.5q-309 0 -524.5 216.5t-215.5 525.5zM188 717q0 -283 203 -481.5t486 -198.5q281 0 485.5 199.5t204.5 480.5q0 283 -203 483.5t-487 200.5q-283 0 -486 -200.5t-203 -483.5z M463 698q0 195 104 332q115 152 303 152q96 0 137.5 -14.5t69.5 -14.5q16 0 29 29h22l13 -291h-27q-12 111 -72 176q-66 74 -172 74q-121 0 -180 -129q-45 -98 -45 -234q0 -483 242 -483q102 0 182 90q70 78 90 186h25l-10 -301h-25v6q2 35 -29 35q-6 0 -69.5 -27.5 t-165.5 -27.5q-197 0 -309.5 123t-112.5 319z" />
<glyph unicode="&#xab;" horiz-adv-x="827" d="M133 459q274 172 549 454l14 -18q-152 -227 -350 -438q109 -220 164 -441l-21 -20q-139 266 -356 463zM461 459q164 96 311 243l25 -8q-80 -131 -185 -235q64 -111 80 -242l-30 -8q-80 150 -201 250z" />
<glyph unicode="&#xac;" horiz-adv-x="1071" d="M88 545v69h889v-399h-80v330h-809z" />
<glyph unicode="&#xad;" horiz-adv-x="665" d="M143 475v98h398v-98h-398z" />
<glyph unicode="&#xae;" horiz-adv-x="1675" d="M137 719q0 309 216 528t524 219q217 0 401 -119.5t276 -316.5q63 -137 64 -311q0 -307 -217 -525.5t-524 -218.5t-523.5 218.5t-216.5 525.5zM188 719q0 -281 204 -481.5t485 -200.5q285 0 487.5 199.5t202.5 482.5q0 287 -202 485.5t-488 198.5q-199 0 -370 -109.5 t-257 -289.5q-62 -129 -62 -285zM489 309v25h97v764h-97v26h357q344 0 344 -182q0 -162 -252 -197v-4q195 -45 215 -157q6 -61 23 -187q8 -55 38 -55q12 0 36 13.5t30 23.5l16 -17q-63 -66 -139 -65q-82 0 -117 35q-29 29 -51 217q-20 166 -90 176q-14 2 -55 2h-94v-393h96 v-25h-357zM750 752h73q186 0 187 190q0 90 -42 123t-134 33h-84v-346z" />
<glyph unicode="&#xb0;" horiz-adv-x="557" d="M133 1307q0 80 48 139t128 59t129 -59.5t49 -138.5q0 -80 -49 -138q-51 -63 -129 -63q-80 0 -128 59.5t-48 141.5zM182 1307q0 -57 36 -106.5t91 -49.5q61 0 97 49q31 43 30 107q0 61 -30 106q-37 49 -97 49q-59 0 -93 -47t-34 -108z" />
<glyph unicode="&#xb1;" horiz-adv-x="1071" d="M53 127v90h965v-90h-965zM53 715v94h441v350h92v-350h432v-94h-432v-330h-92v330h-441z" />
<glyph unicode="&#xb5;" horiz-adv-x="1071" d="M88 -344q0 45 10 125q16 115 47 342q10 86 11 139v674h204v-741q0 -68 40 -114t108 -46q119 0 211 145v756h207v-899h133v-37h-340v125q-129 -154 -293 -154q-98 0 -162 72h-8q23 -100 63 -303q10 -55 11 -84q0 -152 -125 -152q-117 0 -117 152z" />
<glyph unicode="&#xb6;" horiz-adv-x="1071" d="M45 1153q0 162 117 273.5t280 111.5h643v-53h-170v-1831h-155v1831h-162v-1831h-156v1114q-162 4 -279.5 114.5t-117.5 270.5z" />
<glyph unicode="&#xb7;" horiz-adv-x="354" d="M78 692q0 49 26.5 84t73.5 35q98 0 98 -119q0 -49 -25.5 -84t-72.5 -35q-100 0 -100 119z" />
<glyph unicode="&#xbb;" horiz-adv-x="827" d="M31 215q78 123 184 242q-64 110 -80 235l29 8q84 -147 203 -243q-172 -111 -312 -250zM131 16q152 227 348 441q-111 229 -162 438l23 18q139 -266 354 -456q-305 -203 -549 -461z" />
<glyph unicode="&#x2000;" horiz-adv-x="927" />
<glyph unicode="&#x2001;" horiz-adv-x="1855" />
<glyph unicode="&#x2002;" horiz-adv-x="927" />
<glyph unicode="&#x2003;" horiz-adv-x="1855" />
<glyph unicode="&#x2004;" horiz-adv-x="618" />
<glyph unicode="&#x2005;" horiz-adv-x="463" />
<glyph unicode="&#x2006;" horiz-adv-x="309" />
<glyph unicode="&#x2007;" horiz-adv-x="309" />
<glyph unicode="&#x2008;" horiz-adv-x="231" />
<glyph unicode="&#x2009;" horiz-adv-x="371" />
<glyph unicode="&#x200a;" horiz-adv-x="103" />
<glyph unicode="&#x2010;" horiz-adv-x="665" d="M143 475v98h398v-98h-398z" />
<glyph unicode="&#x2011;" horiz-adv-x="665" d="M143 475v98h398v-98h-398z" />
<glyph unicode="&#x2012;" horiz-adv-x="665" d="M143 475v98h398v-98h-398z" />
<glyph unicode="&#x2013;" horiz-adv-x="907" d="M27 643v92h854v-92h-854z" />
<glyph unicode="&#x2014;" horiz-adv-x="1808" d="M115 537l10 71h1612l-15 -71h-1607z" />
<glyph unicode="&#x2018;" horiz-adv-x="481" d="M252 1153q0 209 274 430l25 -37q-109 -86 -162 -172t-53 -110q0 -43 20 -43q6 0 19.5 2t19.5 2q82 0 82 -115q0 -121 -112 -121q-113 0 -113 164z" />
<glyph unicode="&#x2019;" horiz-adv-x="481" d="M174 899q74 57 137 133q82 100 82 164q0 31 -26 31q-6 0 -17.5 -2t-17.5 -2q-25 0 -53.5 22.5t-28.5 89.5q0 121 108 121q117 0 117 -164q0 -111 -92 -241q-80 -111 -184 -189z" />
<glyph unicode="&#x201a;" horiz-adv-x="768" d="M133 -338q72 55 135 133q80 100 80 164q0 31 -24 31q-6 0 -18.5 -3t-18.5 -3q-18 0 -51 24.5t-33 89.5q0 121 114 121q111 0 111 -162q0 -115 -92 -243q-75 -109 -186 -191z" />
<glyph unicode="&#x201c;" horiz-adv-x="907" d="M252 1153q0 209 274 430l25 -37q-109 -86 -162 -172t-53 -110q0 -43 20 -43q6 0 19.5 2t19.5 2q82 0 82 -115q0 -121 -112 -121q-113 0 -113 164zM643 1153q1 215 275 430l22 -37q-70 -55 -135 -135q-82 -100 -82 -164q0 -27 27 -26q6 0 17 2t17 2q80 0 80 -115 q0 -121 -108 -121q-113 0 -113 164z" />
<glyph unicode="&#x201d;" horiz-adv-x="907" d="M221 899q63 49 131 129q84 100 84 154v22q0 23 -22 23q-6 0 -17.5 -2t-17.5 -2q-84 0 -84 112q0 121 113 121q111 0 110 -164q0 -111 -92 -241q-78 -111 -182 -189zM610 899q68 49 133 131q84 102 84 162q0 35 -22 35q-6 0 -19.5 -2t-19.5 -2q-84 0 -84 112q0 53 31.5 87 t83.5 34q113 0 112 -164q0 -209 -274 -430z" />
<glyph unicode="&#x201e;" horiz-adv-x="1159" d="M133 -338q72 55 135 133q80 100 80 164q0 31 -24 31q-6 0 -18.5 -3t-18.5 -3q-18 0 -51 24.5t-33 89.5q0 121 114 121q111 0 111 -162q0 -115 -92 -243q-75 -109 -186 -191zM520 -338q72 51 139 135q80 102 78 170q-12 23 -20 23q-6 0 -20.5 -3t-20.5 -3q-82 0 -82 114 q0 121 115 121q111 0 110 -162q0 -111 -92 -241q-74 -107 -180 -193z" />
<glyph unicode="&#x2022;" horiz-adv-x="907" d="M268 768q0 84 52.5 149.5t134.5 65.5t133 -65.5t51 -149.5q0 -86 -51 -149.5t-133 -63.5q-84 0 -135.5 64.5t-51.5 148.5z" />
<glyph unicode="&#x2026;" horiz-adv-x="1679" d="M127 100q0 119 106 119q47 0 75 -34.5t28 -84.5q0 -49 -27.5 -82.5t-75.5 -33.5q-49 0 -77.5 33.5t-28.5 82.5zM670 100q0 49 27.5 84t76.5 35t79 -34.5t30 -84.5q0 -51 -30 -83.5t-79 -32.5q-47 0 -75.5 34.5t-28.5 81.5zM1214 100q0 49 30 84t77 35t75.5 -36t28.5 -83 t-29.5 -81.5t-74.5 -34.5q-47 0 -77 34.5t-30 81.5z" />
<glyph unicode="&#x202f;" horiz-adv-x="371" />
<glyph unicode="&#x2039;" horiz-adv-x="733" d="M133 459q274 172 549 454l16 -18q-160 -233 -352 -438q107 -208 164 -441l-21 -20q-139 266 -356 463z" />
<glyph unicode="&#x203a;" horiz-adv-x="731" d="M31 16q156 221 352 441q-105 205 -162 438l21 18q143 -274 356 -454q-305 -199 -549 -463z" />
<glyph unicode="&#x205f;" horiz-adv-x="463" />
<glyph unicode="&#x2122;" horiz-adv-x="1779" d="M301 1253l12 187h461l12 -187h-26q-14 160 -166 160v-448q0 -39 22 -50q16 -8 58 -8v-26h-260v26q43 0 57 6q23 12 23 52v448h-21q-131 0 -145 -160h-27zM870 881v26q43 0 58 6q25 12 24 52v389q0 59 -82 59v27h193l145 -420l156 420h182v-27q-45 0 -57 -6 q-23 -12 -23 -51v-391q0 -39 23 -52q12 -6 57 -6v-26h-248v26q80 0 80 58v389l-186 -473h-16l-181 460v-376q0 -39 23 -50q16 -8 57 -8v-26h-205z" />
<glyph unicode="&#x25fc;" horiz-adv-x="952" d="M0 0v952h952v-952h-952z" />
</font>
</defs>
</svg>
