<?xml version="1.0" standalone="no"?>
<!DOCTYPE svg PUBLIC "-//W3C//DTD SVG 1.1//EN" "http://www.w3.org/Graphics/SVG/1.1/DTD/svg11.dtd" >
<svg xmlns="http://www.w3.org/2000/svg" xmlns:xlink="http://www.w3.org/1999/xlink" version="1.1">
<metadata></metadata>
<defs>
<font id="ag_benguiat_cyrbook" horiz-adv-x="1270" >
<font-face units-per-em="2048" ascent="1638" descent="-410" />
<missing-glyph horiz-adv-x="655" />
<glyph horiz-adv-x="0" />
<glyph unicode="&#xd;" horiz-adv-x="0" />
<glyph unicode=" "  horiz-adv-x="655" />
<glyph unicode="&#x09;" horiz-adv-x="655" />
<glyph unicode="&#xa0;" horiz-adv-x="655" />
<glyph unicode="!" horiz-adv-x="696" d="M166 1348h362q-88 -186 -88 -398v-200q0 -233 58 -402q-68 62 -152 62q-82 0 -150 -62q58 170 58 402v200q0 210 -88 398zM207 123q0 62 39.5 104.5t99.5 42.5q56 0 92.5 -42t36.5 -99q0 -58 -39.5 -103.5t-95.5 -45.5t-94.5 43.5t-38.5 99.5z" />
<glyph unicode="&#x22;" horiz-adv-x="573" d="M129 936v412h103v-412h-103zM340 936v412h102v-412h-102z" />
<glyph unicode="#" horiz-adv-x="1310" d="M129 396l31 102h225l92 368h-239l30 102h232l88 380h112l-90 -380h226l90 380h108l-86 -380h232l-31 -102h-227l-90 -368h239l-31 -102h-233l-95 -396h-108l94 396h-225l-94 -396h-113l94 396h-231zM498 498h223l90 368h-223z" />
<glyph unicode="$" horiz-adv-x="1310" d="M123 545l19 2q57 -111 107 -177t123 -110q73 -46 183 -68v457l-19 5q-111 20 -191.5 47t-136.5 87t-56 160q0 72 37 130t96.5 95t131 56t138.5 21v52q0 78 -11 120q-10 40 -52 46v19h237v-19q-51 0 -51 -92q0 -13 1 -33.5t1 -25.5v-67q44 0 121 -13t102 -13q45 0 65 21 l56 -377h-16q-41 130 -146.5 205.5t-243.5 75.5q-244 1 -243 -141q0 -104 219 -148l225 -45q154 -30 236.5 -94.5t82.5 -206.5q0 -119 -64 -215.5t-170 -151.5t-224 -63v-54q0 -14 -1 -37t-1 -32q0 -36 11.5 -55.5t45.5 -28.5v-19h-235v19q58 2 57 90q0 11 -1 30t-1 25v62 q-60 0 -134.5 16t-92.5 16q-50 0 -80 -48zM680 190q111 10 190.5 79t79.5 175q0 56 -24 89.5t-62.5 51t-94 27.5t-89.5 16v-438z" />
<glyph unicode="%" horiz-adv-x="1843" d="M86 950q0 107 38 204.5t114.5 158.5t185.5 61q164 0 244 -125.5t80 -298.5q0 -104 -36 -200t-110 -157t-180 -61q-112 0 -188 59.5t-112 155t-36 203.5zM234 926q0 -72 15 -144t55 -124t110 -52q110 0 148 121t38 264q0 116 -36.5 212.5t-133.5 96.5q-112 0 -154 -117 t-42 -257zM528 0v18q42 12 58 34q14 21 40 79l451 1049q11 24 20 44t15 38t6 32q0 34 -43 35v19h229v-19q-30 0 -53 -30t-41 -73q-18 -44 -30 -71l-432 -1024q-28 -78 -29 -88q0 -25 39 -25v-18h-230zM1088 398q0 107 38 204t114 158t186 61q164 0 243.5 -125t79.5 -298 q0 -104 -36 -200t-110 -157q-73 -61 -179 -61q-112 0 -188 59t-112 154t-36 205zM1235 372q0 -72 15 -144t55.5 -123.5t109.5 -51.5q110 0 148.5 121.5t38.5 263.5q0 116 -37 213t-133 97q-112 0 -154.5 -118t-42.5 -258z" />
<glyph unicode="&#x26;" horiz-adv-x="1802" d="M108 418q0 103 47 190t130 145.5t184 78.5q-160 96 -160 258q0 91 53.5 155.5t136.5 96.5t171 32q84 0 159.5 -31t122 -93t46.5 -148q0 -43 -19 -84q201 -127 367 -127q66 0 121 31.5t55 91.5q0 36 -22 58t-58 22q-42 0 -96 -37q28 52 74 85q48 34 102 34q78 0 124 -51 t46 -129q0 -77 -42 -136t-111 -90.5t-145 -31.5q-84 0 -178 48q52 -108 52 -225q0 -61 -12 -105q152 -136 268 -340q27 -46 51.5 -68t68.5 -30v-18h-470v18q90 16 90 82q0 69 -90 162q-55 -94 -140 -158.5t-189 -97t-212 -32.5q-130 0 -251.5 54t-197.5 155.5t-76 234.5z M334 454q0 -103 44 -186t125 -130.5t185 -47.5q80 0 160 31.5t144 88.5t102 128l-29 26l-467 371l-68 51q-100 -64 -148 -140q-48 -78 -48 -192zM502 1143q0 -68 57 -131.5t129 -103.5q67 30 111.5 84t44.5 122q0 78 -49 124t-127 46q-68 0 -117 -38t-49 -103zM744 866 l415 -321q2 20 2 61q0 124 -49 230t-141 168q-67 -108 -227 -138z" />
<glyph unicode="'" horiz-adv-x="368" d="M133 936v412h103v-412h-103z" />
<glyph unicode="(" horiz-adv-x="696" d="M168 540q0 154 43 315.5t125 303.5t196 242l62 -55q-106 -61 -182 -282.5t-76 -471.5q0 -162 26.5 -309t69.5 -260t89.5 -178t84.5 -75l-74 -65q-86 80 -152.5 175.5t-114.5 206.5t-72.5 225t-24.5 228z" />
<glyph unicode=")" horiz-adv-x="696" d="M90 1336l74 65q84 -76 152 -173.5t115 -206t72 -225t25 -231.5q0 -154 -43 -315t-125 -303t-196 -242l-62 55q70 40 130 157t94 275.5t34 321.5q0 167 -27 314.5t-69 257.5t-89 176t-85 74z" />
<glyph unicode="*" horiz-adv-x="1065" d="M236 1080l55 157q51 -56 170 -94l23 -7v17q0 125 -48 195h170q-38 -58 -38 -184v-28l16 4q67 22 108 43.5t66 59.5l55 -153l-37 2q-46 0 -156 -29l-24 -9l41 -48q67 -78 121 -98l-136 -99q-10 78 -82 176l-14 21l-10 -15q-67 -92 -84 -182l-135 99q38 12 63 32 q24 20 54 56l32 38l15 20l-19 7q-85 27 -145 27q-19 0 -61 -8z" />
<glyph unicode="+" horiz-adv-x="1229" d="M135 422v114h420v422h115v-422h422v-114h-422v-422h-115v422h-420z" />
<glyph unicode="," horiz-adv-x="655" d="M94 -174q34 24 76 118l74 158q36 81 36 117q0 17 -4 23h222l-234 -416h-170z" />
<glyph unicode="-" horiz-adv-x="532" d="M4 375l86 229q24 -16 88 -16h178q61 0 97 9t59 44h16l-86 -229q-24 16 -88 16h-178q-61 0 -96.5 -8.5t-59.5 -44.5h-16z" />
<glyph unicode="." horiz-adv-x="655" d="M162 123q0 62 39.5 104.5t99.5 42.5q56 0 92.5 -42t36.5 -99t-39.5 -103t-95.5 -46t-94.5 43.5t-38.5 99.5z" />
<glyph unicode="/" horiz-adv-x="860" d="M-6 -278q46 12 66 43t46 93l525 1322q33 80 33 102q0 40 -48 47v19h250v-19q-42 -4 -62 -29.5t-40 -77.5l-20 -56l-514 -1285q-34 -81 -34 -113q0 -21 9 -29.5t33 -16.5v-17h-244v17z" />
<glyph unicode="0" horiz-adv-x="1310" d="M80 668q0 136 39 264t112.5 227.5t179.5 157t234 57.5q118 0 216.5 -48t170 -140t111 -222.5t39.5 -289.5q0 -156 -40 -286t-113 -223t-176 -142t-227 -49q-127 0 -228.5 54t-172.5 151t-108 223t-37 266zM305 628q0 -121 28 -248.5t100 -217.5t193 -90q114 0 189 92 t108 239.5t33 321.5q0 163 -35 288t-103 194t-166 69q-196 0 -272 -204q-75 -206 -75 -444z" />
<glyph unicode="1" horiz-adv-x="1310" d="M326 0v18q102 0 148 38t57 98t11 176v690q0 112 -22 180t-104 68l-90 -8v18l450 123v-1071q0 -113 11 -173.5t58 -98.5t149 -40v-18h-668z" />
<glyph unicode="2" horiz-adv-x="1310" d="M60 0l30 24q176 146 272 232q96 84 193 194q57 64 108 128t95 133.5t72 143.5q28 75 28 145q0 128 -76 194t-206 66q-86 0 -159.5 -34t-125.5 -100q-33 -41 -43 -89.5t-10 -118.5l-21 -4l-77 356q64 31 142 54.5t156 36.5t150 13q118 0 234 -38t193 -120t77 -202 q0 -104 -47 -192t-133 -189l-310 -303l-152 -130h346q132 6 186 14t107 46.5t89 124.5l20 -4l-131 -407q-10 18 -27.5 22t-62.5 4h-917z" />
<glyph unicode="3" horiz-adv-x="1310" d="M53 135l211 313l12 -8q-22 -54 -22 -104q0 -75 50 -131.5t125 -86.5t149 -30q104 0 199 49.5t154.5 136t59.5 191.5q0 114 -66.5 195.5t-172.5 123.5t-216 42q-54 0 -168 -17l458 359h-320q-84 0 -128 -6.5t-82 -35t-68 -92.5l-19 4l96 336q16 -18 39 -22t76 -4h651 l41 -70l-381 -299q128 -14 234.5 -74t170.5 -160.5t64 -230.5q0 -160 -90 -284t-235 -190t-303 -66q-252 0 -519 161z" />
<glyph unicode="4" horiz-adv-x="1310" d="M58 358q0 36 16 77.5t41 83t64 95.5q39 52 69 94q223 314 223 482q1 79 -55 84l284 213q12 -47 12 -97q0 -90 -25 -166t-77 -167l-200 -301l-84 -113q-76 -106 -92 -141h483v575q155 49 209 233h26q-12 -57 -18 -117t-7 -116t-1 -139v-436h51q104 0 151 17q46 17 78 79 l18 -4l-65 -260q-13 28 -31 35.5t-69 7.5h-133v-117q0 -112 21 -174t101 -68v-18h-454v18q81 10 102 71t21 171v117h-502q-107 -1 -157 -19z" />
<glyph unicode="5" horiz-adv-x="1310" d="M56 110l192 320l16 -10q-18 -44 -18 -86q0 -102 76.5 -179t232.5 -77q104 0 201 47t157 133q60 84 60 190q0 113 -67.5 185.5t-171.5 103.5t-216 31q-190 0 -366 -72q44 106 70 231t26 257q0 96 -14 188q38 -24 126 -24h545q47 0 65 4t36 20l-76 -282l-18 4v14 q-3 36 -25.5 46t-81.5 10h-453q0 -121 -32 -232q50 8 130 14t92 6q20 2 64 2q146 0 281.5 -55t221 -164t85.5 -256q0 -114 -53.5 -208t-146 -161.5t-209 -103.5t-238.5 -36q-261 0 -491 140z" />
<glyph unicode="6" horiz-adv-x="1310" d="M92 645q0 230 82.5 394.5t233 249.5t350.5 85q172 0 328 -55l-113 -321l-21 6v44q0 66 -26 116t-76 77t-117 27q-123 0 -221.5 -75t-152.5 -197t-54 -256q76 78 180 120q103 43 217 43q134 0 245 -57.5t175 -161.5q64 -106 64 -240q0 -142 -72.5 -249t-194 -164 t-261.5 -57q-189 0 -317 91t-188.5 243t-60.5 337zM318 444q0 -94 42 -180.5t119 -139t173 -52.5q98 0 172 48t113.5 130t39.5 178q0 168 -90 270q-41 46 -99 72t-118 26q-154 0 -264 -106q-88 -90 -88 -246z" />
<glyph unicode="7" horiz-adv-x="1310" d="M98 1020l102 356q12 -18 33 -23t68 -5h625h49q102 0 127 46q8 -41 8 -63q0 -116 -43.5 -218t-134.5 -261q-114 -197 -172.5 -311.5t-100 -253t-41.5 -287.5h-258q6 140 55 273t116 239.5t145 202t106 129.5q74 91 123 165q49 75 74 157h-577q-84 0 -132 -8t-86 -41 t-68 -103z" />
<glyph unicode="8" horiz-adv-x="1310" d="M74 387q0 140 92 235q94 94 238 132q-106 16 -182 93t-76 181q0 120 75 198t188 113t232 35q109 0 218.5 -34.5t182 -110t72.5 -189.5q0 -76 -35.5 -137.5t-97.5 -100t-137 -48.5q66 -9 129 -39.5t111.5 -76.5t77 -106t28.5 -130q0 -142 -81.5 -238.5t-209 -143 t-264.5 -46.5q-102 0 -199.5 23t-180.5 73t-132 130t-49 187zM307 391q0 -94 40 -166.5t112.5 -112.5t166.5 -40t169.5 36t118 106t42.5 167q0 146 -90 231.5t-240 85.5q-66 0 -129.5 -22t-109.5 -64q-80 -78 -80 -221zM348 1038q0 -76 40 -128.5t105 -78.5t140 -26 q116 0 195.5 62.5t79.5 174.5q0 115 -78 174.5t-197 59.5q-76 0 -141.5 -26.5t-104.5 -80t-39 -131.5z" />
<glyph unicode="9" horiz-adv-x="1310" d="M84 905q0 143 72.5 250t194.5 163q121 56 263 56q190 0 318 -92t190 -247t62 -341q0 -162 -48.5 -294t-141 -228t-223 -147t-292.5 -51q-170 0 -342 63l123 319l20 -4l-6 -57q0 -65 30 -117t83 -79t121 -27q97 0 189.5 49t156.5 131q64 80 90 174t27 213 q-74 -82 -183.5 -125t-226.5 -43q-94 0 -181 30.5t-153.5 87.5t-104.5 138t-38 178zM293 920q0 -97 36.5 -176.5t107.5 -126.5t169 -47q96 0 177 45t128 124t47 175q0 97 -43 179.5t-120 132.5t-177 50t-173 -48t-112.5 -130t-39.5 -178z" />
<glyph unicode=":" horiz-adv-x="655" d="M162 123q0 62 39.5 104.5t99.5 42.5q56 0 92.5 -42t36.5 -99t-39.5 -103t-95.5 -46t-94.5 43.5t-38.5 99.5zM162 729q0 62 39.5 104.5t99.5 42.5q38 0 67.5 -20t45.5 -52t16 -69q0 -57 -39.5 -103t-95.5 -46t-94.5 43.5t-38.5 99.5z" />
<glyph unicode=";" horiz-adv-x="655" d="M94 -174q34 24 76 118l74 158q36 81 36 117q0 17 -4 23h222l-234 -416h-170zM262 731q0 61 40 103t100 42q36 0 66 -19.5t46 -52t16 -69.5q0 -56 -40 -102.5t-97 -46.5q-55 0 -93 44.5t-38 100.5z" />
<glyph unicode="&#x3c;" horiz-adv-x="1229" d="M135 426v106l957 441v-119l-824 -377l824 -373v-116z" />
<glyph unicode="=" horiz-adv-x="1229" d="M135 280v116h957v-116h-957zM135 563v115h957v-115h-957z" />
<glyph unicode="&#x3e;" horiz-adv-x="1229" d="M135 -12v116l823 373l-823 377v119l957 -441v-106z" />
<glyph unicode="?" horiz-adv-x="1065" d="M60 1282q20 -8 34 -8q31 0 107.5 30t153.5 50t192 20q104 0 207.5 -34t171.5 -106t68 -180q0 -162 -216 -278l-124 -70q-86 -48 -127 -80t-41 -88q0 -47 35 -73.5t85 -28.5v-18h-16q-76 0 -126 -14q-52 -14 -106 -56q-58 68 -57 136q0 62 30.5 102t94.5 92l137 114 q94 78 144.5 142t50.5 148q0 64 -32 111t-86 71t-118 24q-93 0 -178 -42.5t-136.5 -119t-51.5 -172.5q0 -23 8 -65h-18zM318 125q0 61 39 103t99 42q56 0 93 -41.5t37 -99.5t-40 -103.5t-98 -45.5q-55 0 -92.5 44t-37.5 101z" />
<glyph unicode="@" horiz-adv-x="1597" d="M135 676q0 140 53.5 267t147.5 224t219.5 152t265.5 55q129 0 244.5 -41.5t205 -119t139.5 -186.5t50 -241q0 -196 -122 -344q-62 -80 -152 -131t-182 -51q-54 0 -102 28q-47 28 -54 80q-46 -48 -107 -78t-121 -30q-71 0 -122.5 37t-78 98t-26.5 129q0 90 30.5 189 t88 183.5t139 136t179.5 51.5q66 0 120.5 -28t69.5 -85l26 88h160l-178 -519q-47 -138 -47 -180q0 -38 45 -38q90 0 196 94q49 46 82.5 107t49.5 129t16 140q0 107 -43.5 199t-120 160t-173.5 104.5t-201 36.5q-164 0 -305 -81t-221 -222t-80 -307q0 -131 38 -240 q37 -108 121 -198q85 -89 201 -135.5t244 -46.5q107 0 210 36t186.5 106t133.5 164h82q-46 -119 -141.5 -208.5t-220 -137.5t-252.5 -48q-192 0 -351 94t-250.5 255t-91.5 353zM538 428q0 -51 30 -82.5t81 -31.5q141 0 223 245l96 277q12 44 13 61q0 55 -28.5 95t-82.5 40 q-91 0 -167 -110.5t-120.5 -257t-44.5 -236.5z" />
<glyph unicode="A" horiz-adv-x="1351" d="M-16 0v18q40 8 62 21.5t44 44.5q42 60 92 190l330 871q30 81 30 119q0 54 -63 65v19h455v-19q-60 -15 -60 -73q0 -30 19 -80l350 -1008q2 -3 17.5 -41t27.5 -56t31 -31.5t49 -21.5v-18h-465v18q101 22 101 144q0 70 -42 147t-118 142t-180 106t-224 43l-118 -326 q-32 -92 -33 -145q0 -47 33 -77q34 -30 80 -34v-18h-418zM471 702q117 0 227 -41q108 -41 186 -123l-226 656z" />
<glyph unicode="B" horiz-adv-x="1351" d="M72 0v18q62 8 90 41.5t35 77.5t8 117v826q-2 116 -24.5 176.5t-108.5 72.5v19h752q86 0 155 -10t121 -48q53 -38 53 -116q0 -55 -28.5 -101.5t-73.5 -81t-105 -67t-98 -52.5q116 -38 217 -100.5t164 -156t63 -209.5q0 -122 -61.5 -215t-173.5 -135q-98 -37 -205.5 -46.5 t-265.5 -9.5h-514zM430 256q0 -72 10 -104t42 -45t108 -13q216 0 326 68q67 44 105 118t38 154q0 131 -94 236q-93 106 -225 162l-310 -117v-459zM430 811q98 28 205 71t191 108.5t84 143.5t-76 99q-74 21 -182 21q-168 0 -202 -42q-20 -26 -20 -128v-273z" />
<glyph unicode="C" horiz-adv-x="1433" d="M78 742q0 138 51 264t151 210q106 86 232 122t278 36l226 -18l66 -6q60 0 79 42l95 -386l-17 -6q-36 86 -105.5 146t-159.5 91t-184 31q-108 0 -189 -31t-147 -107q-64 -74 -97 -172t-33 -202q0 -133 43 -255.5t125.5 -217.5t197 -149t250.5 -54q304 0 452 320l21 -9 l-157 -411q-20 6 -68 6l-248 -12q-376 0 -598 184q-130 108 -197 259t-67 325z" />
<glyph unicode="D" horiz-adv-x="1474" d="M74 0v18q62 10 90.5 43t35.5 77t7 116v826q0 112 -23 174q-22 63 -110 75v19h487q180 0 317.5 -38t255.5 -138q78 -65 136 -153.5t88 -188.5t30 -202q0 -140 -56 -271t-160 -217q-110 -92 -228 -116t-307 -24h-563zM432 358q0 -109 10 -159.5t55 -77.5t146 -27 q160 0 272.5 63t170.5 181q57 116 57 276q0 128 -36.5 244t-109.5 205.5t-177 140t-234 50.5q-70 0 -103 -20t-42 -55t-9 -97v-44v-680z" />
<glyph unicode="E" d="M72 0v18q62 10 90.5 43t35.5 77t7 116v826q0 111 -23 174q-22 62 -110 75v19h876q80 0 111 24l92 -412l-17 -6q-41 98 -121.5 166t-182.5 101t-212 33q-76 0 -115 -12.5t-56 -48.5q-17 -35 -17 -111v-118h158h45q84 0 133 24t49 100l19 6l80 -459l-17 -7 q-26 88 -63.5 138t-87 71t-107 26t-160.5 5h-49v-548q0 -94 11 -138t55 -66t145 -22q421 0 615 396l20 -6l-174 -510q-20 26 -90 26h-940z" />
<glyph unicode="F" horiz-adv-x="1147" d="M82 0v18q62 8 90.5 42t35.5 77.5t7 116.5v826q0 74 -7 120t-35.5 82.5t-90.5 46.5v19h882q50 0 73 4t36 22l93 -422l-17 -4q-24 74 -94 145t-179.5 116t-244.5 45q-90 0 -129.5 -16t-50.5 -51t-11 -114v-109h220q58 0 91 7t55 33t22 80l18 6l80 -459l-16 -5 q-29 88 -65 137t-81.5 71.5t-103.5 28t-156 5.5h-64v-602q0 -78 7.5 -125.5t36.5 -82.5q30 -36 92 -42v-16h-494z" />
<glyph unicode="G" horiz-adv-x="1556" d="M82 740q0 202 88 346t244.5 216t355.5 72l250 -22q42 -8 64 -8q56 0 90 46l71 -378l-21 -4q-59 126 -175.5 193t-260.5 67q-146 0 -250 -63t-157 -175t-53 -258q0 -128 40 -250t118 -219t188 -153t244 -56q100 0 147.5 25.5t60 74t12.5 138.5v324q0 111 -22 173.5 t-106 75.5v19h458v-19q-70 -14 -87 -48.5t-17 -114.5v-546q0 -86 17 -125t87 -55v-16h-528q-126 0 -226 12.5t-193 49t-179 108.5q-84 70 -143 160t-88 194t-29 216z" />
<glyph unicode="H" horiz-adv-x="1474" d="M74 0v18q61 8 90 42t36 77.5t7 116.5v826q0 112 -23 174q-22 63 -110 75v19h491v-19q-62 -6 -90.5 -38.5t-35.5 -76.5t-7 -120v-121h610v107q-1 79 -7.5 127t-34.5 82.5t-90 39.5v19h491v-19q-87 -10 -109 -65.5t-24 -169.5v-826q2 -82 8.5 -126.5t35 -80t89.5 -43.5v-18 h-491v18q88 6 109 63t23 173v620h-610v-606q0 -78 7 -125.5t36 -83t90 -41.5v-18h-491z" />
<glyph unicode="I" horiz-adv-x="655" d="M82 0v18q62 8 90.5 41t35.5 77t7 118v826q0 112 -22.5 174.5t-110.5 74.5v19h492v-19q-62 -10 -91 -43.5t-36 -76.5t-7 -117v-824q0 -76 7 -122.5t37 -82.5q30 -37 90 -45v-18h-492z" />
<glyph unicode="J" horiz-adv-x="1065" d="M-47 192l207 340l18 -8q-28 -114 -28 -168q0 -74 35 -138t97 -101t136 -37q120 0 184 78t64 217v705q0 84 -7 132t-36 81.5t-91 35.5v19h492v-19q-61 -10 -90 -43.5t-36 -76.5t-7 -115v-666q0 -80 -8.5 -135t-35.5 -104.5t-81 -94.5q-72 -59 -164 -90q-92 -30 -186 -30 q-130 0 -253 59t-210 159z" />
<glyph unicode="K" horiz-adv-x="1351" d="M41 0v18q62 10 90.5 43t35.5 77t7 116v826q0 112 -23 174t-110 75v19h491v-19q-88 -8 -110 -65.5t-22 -169.5v-250l176 141q106 86 190 166t84 129q0 26 -14 36t-42 13v19h494v-19q-56 -4 -107 -21.5t-95.5 -44.5t-96.5 -68t-84 -67l-153 -126q280 -264 452 -695l39 -94 q13 -34 27 -67.5t31 -59.5t41 -45t57 -23v-18h-451v18q72 10 72 80q0 73 -48 191.5t-102 212.5q-106 180 -276 368l-194 -155v-447q0 -78 7 -125.5t35 -82.5q28 -36 90 -42v-18h-491z" />
<glyph unicode="L" horiz-adv-x="1147" d="M72 0v18q60 8 89.5 41.5t36.5 77t7 117.5v826q0 112 -23 174q-22 63 -110 75v19h491v-19q-88 -8 -110.5 -65.5t-22.5 -169.5v-858q0 -75 38 -108q38 -34 114 -34q130 0 242 49t198 138t144 211l18 -8l-176 -510q-24 26 -119 26h-817z" />
<glyph unicode="M" horiz-adv-x="1638" d="M76 0v18q61 8 90 41.5t36 77t7 117.5v826q0 112 -22.5 174.5t-110.5 74.5v19h518v-19q-35 -8 -35 -39q1 -28 27 -78l235 -430l233 379q54 86 54 125q0 35 -39 43v19h493v-19q-62 -10 -90 -43t-35 -76.5t-7 -115.5v-826q0 -76 7 -122t35 -82t90 -46v-18h-491v18 q62 7 90.5 39.5t35.5 77t7 119.5v952l-448 -727l-414 727v-938q0 -78 7 -125.5t36 -83t90 -41.5v-18h-399z" />
<glyph unicode="N" horiz-adv-x="1433" d="M72 0v18q61 8 90 42t36 77.5t7 116.5v826q0 112 -23 174q-22 63 -110 75v19h538v-19q-42 -3 -42 -25q0 -30 63 -80l467 -388v244q0 116 -23 178t-115 71v19h404v-19q-87 -12 -110 -69.5t-23 -165.5v-826q0 -76 7 -123t36 -83t90 -44v-18h-404v18q90 10 114 68t24 168v84 q0 137 -8 184q-9 36 -31.5 58t-73.5 65l-647 539v-916q0 -78 7 -125.5t36 -83t90 -41.5v-18h-399z" />
<glyph unicode="O" horiz-adv-x="1638" d="M92 670q0 151 54.5 280t154 224.5t231.5 147.5t281 52q155 0 289 -52t233.5 -149t154 -229t54.5 -288q0 -145 -58.5 -271.5t-161 -219t-234 -142t-275.5 -49.5t-273.5 47t-229.5 141q-68 64 -118 147t-76 176t-26 185zM338 744q0 -159 62 -313t181 -252.5t281 -98.5 q104 0 187 42t138 114.5t83 165t28 192.5q0 178 -72.5 334t-195.5 248t-264 92q-140 0 -236.5 -73.5t-144 -194t-47.5 -256.5z" />
<glyph unicode="P" horiz-adv-x="1147" d="M76 0v18q61 8 90 41.5t36 77t7 117.5v826q0 76 -7 123t-35.5 82.5t-90.5 43.5v19h752q148 0 235.5 -47.5t87.5 -182.5q0 -100 -74.5 -182t-190.5 -144t-229 -102t-223 -70v-352q0 -78 7 -125.5t36 -83t91 -41.5v-18h-492zM434 719q488 155 488 367q0 95 -76 131.5 t-220 36.5q-150 0 -178 -58q-14 -30 -14 -139v-338z" />
<glyph unicode="Q" horiz-adv-x="1679" d="M86 676q0 198 96 358t263 250t364 90q200 0 367 -92t263.5 -255t96.5 -363q0 -121 -39 -230.5t-113 -198.5t-178 -153q125 -129 244 -129q62 0 105 38.5t43 98.5q0 18 -9 50l17 6q24 -58 24 -116q0 -72 -32 -130t-89 -90.5t-131 -32.5q-96 0 -175 63.5t-167 171.5 q-94 -38 -221 -38q-145 0 -277.5 45t-232.5 139q-104 99 -161.5 235t-57.5 283zM332 740q0 -259 127 -439q144 76 266 76q114 0 213 -53q98 -52 182 -146q90 84 130 184t40 230q0 120 -36 238.5t-105 214t-171 153.5t-228 58q-100 0 -186 -46t-144 -130q-88 -126 -88 -340z M471 286q73 -98 175 -149t222 -51q50 0 96 12q-46 56 -102 105t-121 81t-129 32q-52 0 -141 -30z" />
<glyph unicode="R" horiz-adv-x="1310" d="M72 0v18q62 10 90.5 43.5t35.5 77t7 117.5v824q0 112 -23 174q-22 63 -110 75v19h792q160 0 227.5 -51t67.5 -159q0 -111 -81.5 -189t-213.5 -148q208 -235 358 -611q12 -29 26 -59.5t28 -51t36 -37.5q22 -18 54 -24v-18h-432v18q76 14 76 80q0 50 -36 135.5t-75 151.5 l-211 305l-20 27l-238 -82v-367q0 -82 7 -128t36 -80t90 -42v-18h-491zM430 731q98 27 214 77t204 124t88 160q0 100 -66 131t-180 31q-198 0 -236 -46q-24 -26 -24 -126v-351z" />
<glyph unicode="S" d="M60 514l18 6q38 -123 112 -219.5t181 -152.5t233 -56q108 0 197 38t141 103t52 142q0 118 -78 170.5t-224 97.5l-272 84q-140 42 -218 112q-79 69 -79 199q0 115 70.5 190.5t179 110.5t219.5 35q84 0 178 -22.5t129 -22.5q43 0 74 37l81 -408l-16 -4q-30 90 -100 162 t-162 112t-190 40q-56 0 -116 -18t-101 -56t-41 -96q0 -63 52 -90.5t158 -61.5l288 -86q186 -58 262 -129q110 -104 110 -272q0 -143 -83 -254t-217 -171t-280 -60q-63 0 -100.5 8t-133.5 32.5t-136 24.5q-36 0 -70 -37z" />
<glyph unicode="T" horiz-adv-x="1188" d="M-22 968l100 406q14 -18 38 -22t82 -4h787q59 0 83.5 4t37.5 22l100 -406l-18 -6q-58 147 -175 213t-309 66v-975q0 -82 7 -130.5t36 -82t91 -35.5v-18h-492v18q88 2 110.5 60t22.5 176v987q-190 0 -307.5 -65.5t-175.5 -213.5z" />
<glyph unicode="U" horiz-adv-x="1392" d="M49 1348h493v-19q-62 0 -90.5 -29.5t-35 -75.5t-6.5 -130v-660q0 -174 85 -259t247 -85q126 0 211.5 44t126 123t40.5 185v640q0 86 -7 136t-35.5 80.5t-90.5 30.5v19h399v-19q-62 -8 -90 -41t-35 -77.5t-7 -116.5v-568q0 -210 -70.5 -333t-190 -171t-281.5 -48 q-224 0 -380 100q-62 38 -94.5 89t-43 112t-10.5 143v664q0 115 -23 177.5t-110 69.5z" />
<glyph unicode="V" horiz-adv-x="1351" d="M22 1329v19h449v-19q-86 -18 -86 -94q0 -39 39 -151l282 -871l314 873q37 114 37 149q-1 84 -93 94v19h365v-19q-36 -4 -62 -24.5t-43 -50.5t-30 -65q-12 -35 -26 -73l-353 -936q-27 -73 -27 -100q0 -54 64 -62v-18h-393v18q63 8 63 66q0 32 -28 116l-316 908 q-34 102 -64 157t-92 64z" />
<glyph unicode="W" horiz-adv-x="1843" d="M41 1329v19h443v-19q-100 -11 -101 -111q1 -30 21 -130l202 -922l209 958q15 68 15 92q0 97 -103 113v19h467v-19q-112 -8 -112 -98q0 -39 16 -103l212 -962l200 934q12 57 12 92q0 124 -119 137v19h399v-19q-60 -5 -95 -43.5t-49 -83t-34 -129.5l-190 -883 q-12 -54 -12 -92q0 -72 52 -80v-18h-417v18q47 10 47 68q0 22 -8 60l-191 852l-180 -820q-17 -78 -17 -94q0 -58 56 -66v-18h-422v18q60 13 60 68q0 20 -9 58l-219 980q-6 28 -13 66t-20 67t-37 48.5t-63 23.5z" />
<glyph unicode="X" horiz-adv-x="1392" d="M2 0v18q66 11 104 52.5t109 142.5l359 514l-230 346q-76 114 -136 181t-134 75v19h522v-19q-88 -13 -88 -71q0 -46 60 -134l136 -204l136 192q80 112 80 164q0 48 -66 53v19h398v-19q-48 -4 -88 -26t-72 -55.5t-49.5 -57.5t-65.5 -92l-199 -283l426 -641 q53 -78 88.5 -112t97.5 -44v-18h-536v18q98 12 98 84q0 50 -49 126l-264 394l-193 -286q-58 -86 -87 -143.5t-29 -98.5q0 -64 90 -76v-18h-418z" />
<glyph unicode="Y" horiz-adv-x="1229" d="M-39 1329v19h529v-19q-100 -5 -101 -79q0 -68 82 -196l191 -304l188 309q92 153 92 205q0 60 -90 65v19h398v-19q-48 -6 -84 -31t-58 -54t-64 -91l-329 -531v-354q0 -82 7 -130t35.5 -82t90.5 -38v-18h-492v18q62 7 91 39.5t36 77t7 119.5v368l-328 516q-13 21 -37.5 60 t-46.5 65.5t-51 44.5t-66 21z" />
<glyph unicode="Z" horiz-adv-x="1188" d="M6 0l792 1245l-153 9q-7 0 -21 1t-20 1q-116 0 -213 -34t-171 -107t-116 -185l-18 4l104 440q14 -18 37 -22t78 -4h819l-798 -1246l153 -8q8 0 22.5 -1t20.5 -1q206 0 375.5 99t259.5 284l19 -6l-197 -495q-19 26 -103 26h-870z" />
<glyph unicode="[" horiz-adv-x="614" d="M112 10v6q18 22 19 94v959q-1 73 -19 95v6q27 14 64 50l113 120l10 15t9.5 16t3.5 13q0 2 -5 17h221q-32 -16 -92 -80l-147 -151v-1158l174 -180q25 -32 65 -53h-221q5 14 5 16q0 17 -40 63l-96 101q-42 42 -64 51z" />
<glyph unicode="\" horiz-adv-x="1106" d="M154 1348h128l564 -1348h-127z" />
<glyph unicode="]" horiz-adv-x="614" d="M86 -221q32 15 92 79l148 152v1160l-174 180q-28 34 -66 51h221q-4 -13 -4 -15q0 -18 39 -63l96 -101q36 -40 64 -44v-6q-18 -26 -18 -103v-959q0 -70 18 -94v-6q-18 -6 -64 -51l-112 -119q-1 -2 -12 -18.5t-11 -26.5q0 -4 4 -16h-221z" />
<glyph unicode="^" horiz-adv-x="1229" d="M234 639l323 709h105l325 -709h-119l-262 571l-258 -571h-114z" />
<glyph unicode="_" horiz-adv-x="1024" d="M0 -135h1024v-160h-1024v160z" />
<glyph unicode="`" horiz-adv-x="655" d="M135 1360q0 42 31 73q32 31 74 31q36 0 62 -22t56 -64l148 -198l-35 -44l-209 97q-62 28 -94.5 54t-32.5 73z" />
<glyph unicode="a" horiz-adv-x="1147" d="M72 219q0 112 72 191.5t180.5 127.5t251 83t210.5 51v38q0 77 -20 121.5t-65 64.5t-121 20q-98 0 -182 -32t-149 -95t-105 -152l32 336q38 -27 62 -27q19 0 69 16q106 37 180.5 52.5t174.5 15.5q132 0 206 -33t107 -107t33 -204v-385q0 -124 25 -193.5t120 -89.5v-18 h-281q-66 86 -69 184q-38 -68 -103 -115t-143.5 -68t-160.5 -21q-143 0 -233.5 64t-90.5 175zM305 246q0 -70 48.5 -111t117.5 -41q172 0 243 124q72 122 72 318v52q-180 -39 -330.5 -121.5t-150.5 -220.5z" />
<glyph unicode="b" horiz-adv-x="1310" d="M98 0v18q80 12 101.5 71t21.5 163v844q0 78 -6.5 124t-32.5 78q-28 31 -84 31v19l332 53v-379l140 8q8 0 24 1t22 1q174 0 312 -72t214 -200t76 -285q0 -152 -64 -258.5t-196 -161.5t-330 -55h-530zM430 252q0 -59 11.5 -90t48.5 -46q38 -16 120 -18q182 0 285 107 t103 285q0 126 -59 227t-162 158t-228 57l-119 -8v-672z" />
<glyph unicode="c" horiz-adv-x="1106" d="M84 538q0 140 61 252.5t170.5 176t247.5 63.5l145 -10l132 -12q52 0 86 22l59 -315l-12 -7q-52 105 -137.5 164.5t-198.5 59.5q-103 0 -179 -58t-114.5 -152t-38.5 -198q1 -174 105 -296q56 -66 136 -108t160 -42q108 0 208 57t149 154l14 -9l-104 -294q-24 10 -43 10 l-37 -2l-59 -6l-136 -8q-124 0 -235 38t-197 111t-134 177t-48 232z" />
<glyph unicode="d" d="M84 504q0 174 73.5 292t204 176t300.5 58l220 -12v80q0 104 -21 167.5t-101 63.5v19l332 53v-1149q0 -74 6 -119.5t33 -78t83 -36.5v-18h-512q-278 0 -413 92q-96 67 -150.5 179t-54.5 233zM305 500q0 -201 132.5 -307.5t336.5 -106.5q50 0 108 14v604q0 76 -10 121 t-53 76t-133 31q-120 0 -206 -58t-130.5 -156t-44.5 -218z" />
<glyph unicode="e" horiz-adv-x="1188" d="M82 504q0 150 71 270t195 188t272 68q170 0 303 -95t175 -257l-782 -217q16 -106 76 -193.5t153 -138.5t197 -51q58 0 129 29.5t118 70.5q55 48 109 156l18 -8l-106 -338q-22 14 -48 14q-14 0 -38 -4l-216 -18q-103 0 -211 30t-203.5 95t-153.5 166t-58 233zM303 547 l555 157q-32 96 -98 162t-158 66q-97 0 -164.5 -53t-101 -141t-33.5 -191z" />
<glyph unicode="f" horiz-adv-x="696" d="M47 903v19q83 9 110 49.5t31 128.5q6 84 25 144t69 108q58 56 138 84t164 28q90 0 204 -36l-67 -216l-15 2q0 71 -38 110.5t-103 39.5q-116 0 -146 -81t-30 -224v-68h117q46 0 75 5.5t52 27.5l-55 -140q-9 18 -72 19h-115v-651q0 -80 6.5 -126t33.5 -77t83 -31v-18h-454 v18q80 6 101 66t21 168v651h-135z" />
<glyph unicode="g" horiz-adv-x="1106" d="M20 -256l230 232l10 -13q-28 -47 -28 -90q0 -66 41 -118.5t115 -81.5t169 -29q96 0 171.5 27t118 76t42.5 111q0 90 -56.5 116t-158.5 26q-147 0 -246 18q-98 18 -190 82q-104 73 -159 189.5t-55 248.5q0 153 59.5 259.5t170 159.5t262.5 53h566v-19q-75 -4 -99.5 -44.5 t-24.5 -116.5v-72v-539q0 -60 9.5 -87.5t48.5 -65.5q46 -44 68 -81t22 -93q0 -104 -77 -182t-204.5 -118t-269.5 -40q-155 0 -295 46t-240 146zM246 534q0 -132 57 -231t151 -152t200 -53l96 6v658q0 100 -29 133q-43 33 -135 33q-110 0 -187 -53t-115 -142t-38 -199z" />
<glyph unicode="h" d="M68 0v18q81 12 101.5 71t20.5 165v842q0 112 -21 171t-101 62v19l332 53v-603q234 232 440 232q128 0 182.5 -79t54.5 -243v-456q0 -110 22 -170t105 -66v-16h-454v16q78 10 98 70t20 168v364q0 78 -7 132t-41 93t-103 39q-65 0 -134 -40q-69 -38 -112 -94 q-46 -60 -58.5 -121t-12.5 -160v-213q0 -108 20.5 -168t99.5 -70v-16h-452z" />
<glyph unicode="i" horiz-adv-x="573" d="M60 0v18q80 6 101 66t21 168v479q0 107 -21 166t-101 67v19l331 27v-758q0 -74 6.5 -119.5t33.5 -78t83 -36.5v-18h-454zM148 1288q0 65 38 108q36 44 100 44q58 0 98 -44t40 -102q0 -60 -38 -107t-97 -47q-61 0 -101 43t-40 105z" />
<glyph unicode="j" horiz-adv-x="655" d="M-262 -332l196 250l13 -6q-27 -54 -27 -100q0 -67 49.5 -109.5t116.5 -42.5q82 0 122 42t50 109t10 183v737q0 107 -21 166t-101 67v19l331 27v-1020v-48q0 -85 -11.5 -147.5t-49.5 -108.5q-50 -62 -138 -91t-184 -29q-189 0 -356 102zM232 1300q0 64 38 108t100 44 q58 0 98 -44t40 -102q0 -59 -38 -106t-95 -47q-62 0 -102.5 42.5t-40.5 104.5z" />
<glyph unicode="k" horiz-adv-x="1188" d="M76 0v18q80 8 101 67.5t21 166.5v844q0 114 -21 172t-101 61v19l332 53v-833l270 260q76 70 76 118q0 36 -58 45v19h418v-19q-50 -7 -96.5 -28t-90 -52t-85.5 -67.5t-82 -71.5l-52 -45q120 -113 212 -254t192 -333q16 -30 26 -49t21.5 -33.5t30 -25t45.5 -14.5v-18h-437 v18q70 12 70 66q0 58 -54 164.5t-129.5 208.5t-129.5 145l-147 -131v-217q0 -82 6 -128.5t33 -77t83 -30.5v-18h-454z" />
<glyph unicode="l" horiz-adv-x="573" d="M60 0v18q80 10 101 69t21 165v844q0 112 -21 170.5t-101 62.5v19l331 53v-1149q0 -74 6.5 -119.5t33.5 -78t83 -36.5v-18h-454z" />
<glyph unicode="m" horiz-adv-x="1925" d="M56 0v18q80 6 101 66t21 168v479q0 107 -21 166t-101 67v19l278 27q46 -80 53 -220q98 100 213 170q116 70 228 70q106 0 166 -61t73 -168q251 229 443 229q118 0 175.5 -85t57.5 -235v-458q0 -110 22.5 -170t104.5 -64v-18h-450v18q75 10 94.5 69t19.5 165v374 q0 124 -30 190t-130 66q-66 0 -135 -43t-109 -101q-31 -47 -45 -98t-17 -99.5t-3 -122.5v-166q0 -74 6.5 -119.5t34.5 -78t88 -36.5v-18h-454v18q76 6 96 66t20 168v374q0 121 -30 188q-32 68 -126 68q-58 0 -118 -31.5t-103 -78.5q-54 -60 -73 -126t-19 -162v-232 q0 -108 21 -168q22 -60 100 -66v-18h-452z" />
<glyph unicode="n" d="M68 0v18q81 8 101.5 67.5t20.5 166.5v481q0 72 -6 116.5t-31 77.5t-79 37v19l274 27q48 -86 52 -216q226 236 415 236q151 0 206.5 -88t55.5 -254v-434q0 -70 6.5 -117.5t33.5 -81t83 -37.5v-18h-454v18q81 6 101.5 66.5t20.5 169.5v354q0 135 -32 204q-34 70 -128 70 q-66 0 -135.5 -44t-111.5 -105q-42 -62 -51.5 -119.5t-9.5 -159.5v-200q0 -108 20.5 -168t99.5 -70v-16h-452z" />
<glyph unicode="o" d="M74 498q0 160 74.5 281t205 186t289.5 65q158 0 283.5 -61t196.5 -176.5t71 -274.5q0 -162 -75 -284.5t-205 -188t-292 -65.5q-156 0 -281 63t-196 181t-71 274zM307 538q0 -112 34.5 -217t109.5 -174t190 -69q98 0 170.5 57.5t110.5 152t38 202.5q0 110 -33.5 211 t-108 166t-187.5 65q-163 0 -243.5 -112t-80.5 -282z" />
<glyph unicode="p" d="M66 -414q81 6 101.5 65t20.5 169v938q0 110 -21 169t-101 64v19h542q179 0 313 -58t206.5 -175t72.5 -285q0 -162 -73 -272.5t-203 -165.5q-132 -54 -302 -54l-222 8v-186q0 -110 20.5 -170t99.5 -66v-18h-454v18zM398 289q0 -76 13.5 -118.5t57 -63.5t135.5 -21 q116 0 201 56t129.5 152t44.5 210q0 128 -56.5 224t-156.5 146t-228 50h-140v-635z" />
<glyph unicode="q" d="M80 526q0 228 162 369q80 68 183 91.5t237 23.5h536v-19q-80 -4 -101.5 -63.5t-21.5 -169.5v-936q0 -74 6.5 -120t34 -79t82.5 -37v-18h-454v18q81 6 101.5 65.5t20.5 170.5v186l-184 -8q-136 0 -248 41t-191 114t-121 169t-42 202zM301 534q0 -124 55.5 -224t157.5 -157 t234 -57l118 8v619q0 70 -5 105.5t-24 56.5t-59 30q-38 9 -114 9q-108 0 -191 -52.5t-127.5 -142t-44.5 -195.5z" />
<glyph unicode="r" horiz-adv-x="778" d="M56 0v18q80 8 101 68t21 166v479q0 107 -21 166t-101 67v19l282 27q44 -94 47 -226q44 100 144.5 173t203.5 73l70 -12l-45 -205q-65 43 -127 43q-136 0 -190 -112t-54 -288v-163q0 -102 6.5 -152t32.5 -81.5t84 -41.5v-18h-454z" />
<glyph unicode="s" horiz-adv-x="1024" d="M64 414l16 4q12 -100 69 -178t145 -120t190 -42q60 0 122 22t103 65t41 103q0 76 -69 108t-239.5 83t-256 114t-85.5 187q0 93 58 154.5t146 88.5t180 27q72 0 129.5 -9t120 -23.5t79.5 -14.5q28 1 49 17l14 -318l-14 -2q-20 115 -126 183.5t-228 68.5q-76 0 -137.5 -30 t-61.5 -99t65 -98t237.5 -79t259.5 -114t87 -184q0 -112 -65 -190.5t-167.5 -118t-209.5 -39.5q-78 0 -151 12.5t-147 30.5t-87 18q-26 -1 -51 -29z" />
<glyph unicode="t" horiz-adv-x="696" d="M2 903v19q82 21 127 92q45 72 45 164q0 34 -12 104l184 82v-373h164q48 0 76 6t55 29l-57 -146q-20 22 -88 23h-150v-598q0 -109 29 -158t117 -49q116 0 194 94l12 -6l-70 -168q-120 -38 -256 -38q-93 0 -144.5 38t-71.5 104q-19 64 -19 156v625h-135z" />
<glyph unicode="u" d="M70 964v19l332 27v-617q0 -145 30 -207.5t119 -62.5q73 0 145 42.5t115 106.5q42 62 53.5 133t11.5 177v149q0 112 -21 170.5t-101 62.5v19l332 27v-762q0 -105 22 -167.5t104 -62.5v-18h-294q-34 84 -42 209q-112 -102 -219 -165.5t-219 -63.5q-246 0 -246 304v447 q0 109 -21 169q-21 58 -101 64z" />
<glyph unicode="v" horiz-adv-x="1106" d="M14 991v19h406v-19q-76 -7 -76 -73q0 -32 26 -117l212 -635l256 680q22 62 22 86q0 56 -70 59v19h302v-19q-56 -5 -81.5 -45t-64.5 -135l-260 -643q-28 -66 -28 -100q0 -38 44 -50v-18h-340v18q46 6 46 44q0 24 -23 84l-248 684q-30 86 -50.5 123t-72.5 38z" />
<glyph unicode="w" horiz-adv-x="1556" d="M4 991v19h404v-19q-68 -5 -68 -77q0 -36 18 -105l166 -653l274 838h17l291 -806l180 602q29 102 29 132q0 64 -72 69v19h315v-19q-36 0 -62 -19.5t-41 -48t-27 -65t-23 -70.5l-207 -640q-20 -72 -20 -88q0 -38 42 -42v-18h-310v18q32 2 32 33q0 27 -18 76l-164 453 l-162 -466q-16 -46 -16 -61q0 -29 34 -35v-18h-302v18q38 8 38 46q0 22 -18 86l-199 665q-26 88 -49.5 132t-81.5 44z" />
<glyph unicode="x" horiz-adv-x="1147" d="M14 0v18q48 10 78 40t82 96l308 376l-173 248q-12 19 -40.5 62t-53.5 73.5t-56 53.5t-61 24v19h440v-19q-68 -6 -67 -51q-1 -42 63 -135l78 -115l92 121q78 104 78 137q0 38 -61 43v19h342v-19q-39 -4 -75 -24.5t-69 -52.5t-63 -70t-55 -68l-137 -164l315 -452 q19 -26 43 -59.5t51 -56t57 -26.5v-18h-424v18q64 8 64 48q0 34 -78 151l-154 231l-147 -184q-123 -156 -123 -200q0 -36 62 -46v-18h-316z" />
<glyph unicode="y" horiz-adv-x="1024" d="M-10 -364l126 276l17 -10q-8 -24 -8 -56q0 -58 31.5 -99.5t87.5 -41.5q62 0 105 39t65 98.5t22 118.5q0 101 -86 311l-219 547q-31 80 -61 126t-80 46v19h412v-19q-68 -7 -68 -63q0 -26 28 -107l212 -565l192 512q14 38 25 68t17.5 52t6.5 42q0 54 -71 61v19h313v-19 q-34 -4 -58 -21t-41 -43t-29.5 -56.5t-25.5 -63.5l-348 -911q-41 -107 -83 -176.5t-110 -113.5q-70 -44 -172 -44q-110 0 -200 74z" />
<glyph unicode="z" horiz-adv-x="1024" d="M51 0l629 914l-119 4q-323 0 -401 -193l-16 4l67 311q27 -30 115 -30h665l-629 -906l193 -12q148 0 262.5 55t159.5 181l17 -4l-124 -344q-44 20 -164 20h-655z" />
<glyph unicode="{" horiz-adv-x="573" d="M68 594q92 24 120.5 68t28.5 141v313q0 106 22 166.5t80.5 89.5t170.5 29q-81 -24 -113.5 -75t-32.5 -138v-334q0 -114 -32 -175.5t-132 -84.5q96 -22 130 -79t34 -163v-356q0 -92 30 -140t116 -77q-73 0 -117 9q-45 8 -87 40q-44 32 -56.5 82t-12.5 120v355q0 53 -6 82 t-33 63q-40 50 -110 64z" />
<glyph unicode="|" horiz-adv-x="1229" d="M555 0v1348h117v-1348h-117z" />
<glyph unicode="}" horiz-adv-x="573" d="M68 -221q85 28 115 76.5t30 140.5v356q0 106 33.5 163t130.5 79q-99 23 -131.5 84.5t-32.5 175.5v334q0 88 -32.5 139t-112.5 74q111 0 169.5 -29t80.5 -89.5t22 -166.5v-313q0 -97 29 -141t121 -68q-70 -14 -111 -64q-26 -32 -32.5 -62t-6.5 -83v-355q0 -71 -13 -120.5 t-57 -81.5q-42 -32 -86 -40.5t-116 -8.5z" />
<glyph unicode="~" horiz-adv-x="1229" d="M100 404q62 98 129 151t164 53q50 0 106.5 -17t145.5 -52.5t129 -48.5t76 -13q62 0 102 35q40 36 86 102l88 -55q-66 -94 -125 -143.5t-149 -49.5q-60 0 -113 16t-130.5 50t-123 50t-96.5 16q-68 0 -112 -39q-45 -39 -91 -113z" />
<glyph unicode="&#xa3;" horiz-adv-x="1065" d="M-47 192l207 340l18 -8q-28 -114 -28 -168q0 -74 35 -138t97 -101t136 -37q120 0 184 78t64 217v705q0 84 -7 132t-36 81.5t-91 35.5v19h492v-19q-61 -10 -90 -43.5t-36 -76.5t-7 -115v-666q0 -80 -8.5 -135t-35.5 -104.5t-81 -94.5q-72 -59 -164 -90q-92 -30 -186 -30 q-130 0 -253 59t-210 159z" />
<glyph unicode="&#xa4;" horiz-adv-x="1310" d="M174 668q0 82 20.5 146t67.5 128l-78 80l94 96l78 -78q123 90 283 90q132 0 266 -90l80 78l97 -96l-80 -80q88 -128 88 -282q0 -134 -88 -260l80 -80l-97 -94l-80 77q-123 -92 -283 -92q-134 0 -266 92l-78 -77l-94 94l78 80q-88 126 -88 268zM364 668q0 -70 37 -131 t98 -98t129 -37q112 0 191.5 78t79.5 192q0 70 -34.5 131.5t-94 99t-129.5 37.5q-76 0 -139.5 -35.5t-100.5 -98t-37 -138.5z" />
<glyph unicode="&#xa6;" horiz-adv-x="1229" d="M555 0v448h117v-448h-117zM555 899v449h117v-449h-117z" />
<glyph unicode="&#xa7;" horiz-adv-x="1310" d="M182 125l16 6q49 -156 163.5 -255t271.5 -99q88 0 162.5 31.5t116.5 85t42 116.5q0 98 -64 142t-184 80l-224 69q-116 36 -181 93.5t-65 164.5q0 88 63 167.5t217 111.5v4q-75 22 -127.5 51.5t-85.5 79t-33 123.5q0 96 59 158.5t148 91t181 28.5q71 0 147.5 -18 t106.5 -18q37 0 61 30l67 -338l-12 -2q-40 114 -146 186t-228 72q-78 0 -146 -35t-68 -106q0 -52 44 -75.5t130 -49.5l238 -72q154 -46 217 -106q90 -84 90 -226q0 -101 -48.5 -179.5t-102.5 -108.5q116 -96 116 -248q0 -90 -40 -165t-109 -128t-154.5 -81t-175.5 -28 q-39 0 -75.5 7t-95.5 22t-84.5 21t-51.5 6t-58 -31zM406 608q0 -52 42 -74t132 -50l317 -95q90 46 90 176q0 76 -54.5 118.5t-154.5 74.5l-110 36q-78 -8 -138.5 -39.5t-92 -72t-31.5 -74.5z" />
<glyph unicode="&#xa8;" d="M72 0v18q62 10 90.5 43t35.5 77t7 116v826q0 111 -23 174q-22 62 -110 75v19h876q80 0 111 24l92 -412l-17 -6q-41 98 -121.5 166t-182.5 101t-212 33q-76 0 -115 -12.5t-56 -48.5q-17 -35 -17 -111v-118h158h45q84 0 133 24t49 100l19 6l80 -459l-17 -7 q-26 88 -63.5 138t-87 71t-107 26t-160.5 5h-49v-548q0 -94 11 -138t55 -66t145 -22q421 0 615 396l20 -6l-174 -510q-20 26 -90 26h-940zM381 1620q0 46 29.5 82.5t75.5 36.5q52 0 81 -34t29 -87q0 -46 -30 -80.5t-74 -34.5q-46 0 -78.5 35.5t-32.5 81.5zM682 1620 q0 46 30 82q28 37 74 37q52 0 81.5 -34t29.5 -87q0 -46 -30 -80q-31 -35 -75 -35q-47 0 -78.5 35t-31.5 82z" />
<glyph unicode="&#xa9;" horiz-adv-x="1556" d="M78 670q0 196 89 358t248 254t359 92q154 0 284 -52t224 -146t145 -224q51 -128 51 -280q0 -154 -51 -283t-146 -222t-225 -143t-286 -50q-152 0 -280 52t-221 146t-142 222t-49 276zM168 676q0 -133 43 -246.5t126 -198.5t196 -130t251 -45q128 0 239 43.5t194 126 t127 197.5t44 253q0 124 -42 235t-123 197t-195 135t-252 49q-144 0 -258 -49t-192 -135t-118 -198t-40 -234zM393 672q0 122 51 216t145 146t216 52q129 0 287 -56v-211h-64q-3 94 -57.5 150.5t-149.5 56.5q-80 0 -142 -47t-95 -123q-33 -78 -33 -162q0 -88 34 -171 t98.5 -134t152.5 -51q150 0 229 144l49 -17q-36 -94 -128 -145q-92 -50 -204 -50q-116 0 -204 52.5t-136.5 144t-48.5 205.5z" />
<glyph unicode="&#xab;" horiz-adv-x="737" d="M127 506l147 272l56 -26l-84 -246l84 -252l-56 -24zM406 506l147 272l55 -26l-84 -246l84 -252l-55 -24z" />
<glyph unicode="&#xac;" horiz-adv-x="1229" d="M135 563v115h957v-582h-115v467h-842z" />
<glyph unicode="&#xad;" horiz-adv-x="901" d="M135 1222v122h645v-122h-645z" />
<glyph unicode="&#xae;" horiz-adv-x="1556" d="M78 670q0 190 90 352t248.5 257t355.5 95q188 0 351 -93t259 -252.5t96 -350.5q0 -194 -94 -356t-257 -255t-355 -93q-144 0 -272.5 54.5t-222.5 151t-146.5 223.5t-52.5 267zM168 672q0 -172 81 -313t222 -222t311 -81q166 0 305 82t220 223t81 309q0 172 -83.5 315 t-225 225t-303.5 82q-134 0 -246.5 -47t-193.5 -131t-124.5 -198t-43.5 -244zM438 297v37h37q32 0 41 11q8 11 10 46v598q-4 26 -16 35.5t-39 11.5l-33 2v37h330q165 0 232 -49q67 -50 67 -146q0 -82 -60.5 -139t-144.5 -63q56 -13 93 -65q37 -51 71 -131q12 -24 23 -47.5 t22 -44t23 -34.5q20 -22 59 -22v-37h-43h-43q-59 1 -86 21q-14 11 -25.5 28.5t-23.5 43.5t-18 41t-15 38q-34 80 -49.5 107.5t-60.5 47t-135 19.5v-225q0 -42 4 -60.5t24 -21.5l60 -2v-37h-304zM654 717h48q110 0 170 30.5t60 128.5q0 162 -168 162q-62 0 -86 -13t-24 -67 v-241z" />
<glyph unicode="&#xaf;" horiz-adv-x="655" d="M74 1620q0 46 29 82.5t75 36.5q52 0 81.5 -34t29.5 -87q0 -46 -30 -80q-31 -35 -75 -35q-46 0 -78 35.5t-32 81.5zM82 0v18q62 8 90.5 41t35.5 77t7 118v826q0 112 -22.5 174.5t-110.5 74.5v19h492v-19q-62 -10 -91 -43.5t-36 -76.5t-7 -117v-824q0 -76 7 -122.5 t37 -82.5q30 -37 90 -45v-18h-492zM375 1620q0 47 29.5 83t74.5 36q52 0 81.5 -34t29.5 -87q0 -46 -30 -80.5t-74 -34.5q-47 0 -79 35t-32 82z" />
<glyph unicode="&#xb0;" horiz-adv-x="819" d="M82 1067q0 83 41 153.5t112 112t154 41.5q82 0 153 -41.5t112.5 -112.5t41.5 -153q0 -83 -41.5 -154t-112.5 -112t-153 -41q-84 0 -154.5 41t-111.5 111.5t-41 154.5zM164 1067q0 -94 66 -159.5t159 -65.5q61 0 112.5 30t82 82t30.5 113q0 60 -30 112t-83.5 82.5 t-113.5 30.5q-92 0 -157.5 -66t-65.5 -159z" />
<glyph unicode="&#xb1;" horiz-adv-x="1229" d="M135 0v114h959v-114h-959zM135 555v115h422v288h115v-288h422v-115h-422v-289h-115v289h-422z" />
<glyph unicode="&#xb2;" horiz-adv-x="655" d="M82 0v18q62 8 90.5 41t35.5 77t7 118v826q0 112 -22.5 174.5t-110.5 74.5v19h492v-19q-62 -10 -91 -43.5t-36 -76.5t-7 -117v-824q0 -76 7 -122.5t37 -82.5q30 -37 90 -45v-18h-492z" />
<glyph unicode="&#xb3;" horiz-adv-x="573" d="M60 0v18q80 6 101 66t21 168v479q0 107 -21 166t-101 67v19l331 27v-758q0 -74 6.5 -119.5t33.5 -78t83 -36.5v-18h-454zM148 1288q0 65 38 108q36 44 100 44q58 0 98 -44t40 -102q0 -60 -38 -107t-97 -47q-61 0 -101 43t-40 105z" />
<glyph unicode="&#xb5;" d="M70 964v19l332 27v-617q0 -145 30 -207.5t119 -62.5q73 0 145 42.5t115 106.5q42 62 53.5 133t11.5 177v149q0 112 -21 170.5t-101 62.5v19l332 27v-762q0 -105 22 -167.5t104 -62.5v-18h-294q-34 84 -42 209q-112 -102 -219 -165.5t-219 -63.5q-33 0 -47 2v-17 q0 -210 88 -397h-363q88 186 89 397v185q-13 60 -13 134v447q0 109 -21 169q-21 58 -101 64z" />
<glyph unicode="&#xb6;" horiz-adv-x="1024" d="M68 998q0 350 409 350h541v-19q-80 -4 -101.5 -63.5t-21.5 -169.5v-1074q0 -74 6.5 -119.5t33.5 -79t83 -36.5v-19h-256v1448h-211v-1448h-256v19q80 6 101.5 65.5t21.5 169.5v627q-92 0 -173 47.5t-129 128.5t-48 173z" />
<glyph unicode="&#xb8;" horiz-adv-x="1188" d="M82 504q0 150 71 270t195 188t272 68q170 0 303 -95t175 -257l-782 -217q16 -106 76 -193.5t153 -138.5t197 -51q58 0 129 29.5t118 70.5q55 48 109 156l18 -8l-106 -338q-22 14 -48 14q-14 0 -38 -4l-216 -18q-103 0 -211 30t-203.5 95t-153.5 166t-58 233zM303 547 l555 157q-32 96 -98 162t-158 66q-97 0 -164.5 -53t-101 -141t-33.5 -191zM340 1282q0 46 30 82q28 37 74 37q52 0 81.5 -34t29.5 -87q0 -46 -30 -80q-31 -34 -75 -34q-45 0 -77.5 35t-32.5 81zM641 1282q0 46 29.5 82.5t75.5 36.5q52 0 81 -34t29 -87q0 -46 -30 -80 t-74 -34q-46 0 -78.5 34.5t-32.5 81.5z" />
<glyph unicode="&#xb9;" horiz-adv-x="860" d="M123 594v80h598v-80h-598zM123 1092q0 86 39.5 149t108.5 98t155 35q82 0 150 -32t106.5 -94t38.5 -148q0 -65 -23 -117.5t-65.5 -90.5t-98.5 -57.5t-118 -19.5q-129 0 -211 75t-82 202zM246 1112q0 -96 45 -170t135 -74q84 0 128 66t44 152q0 96 -44.5 165.5 t-135.5 69.5q-87 0 -129.5 -60t-42.5 -149z" />
<glyph unicode="&#xbb;" horiz-adv-x="737" d="M129 256l84 246l-84 252l55 24l148 -276l-148 -272zM408 256l84 246l-84 252l55 24l147 -276l-147 -272z" />
<glyph unicode="&#xbc;" horiz-adv-x="655" d="M-262 -332l196 250l13 -6q-27 -54 -27 -100q0 -67 49.5 -109.5t116.5 -42.5q82 0 122 42t50 109t10 183v737q0 107 -21 166t-101 67v19l331 27v-1020v-48q0 -85 -11.5 -147.5t-49.5 -108.5q-50 -62 -138 -91t-184 -29q-189 0 -356 102zM232 1300q0 64 38 108t100 44 q58 0 98 -44t40 -102q0 -59 -38 -106t-95 -47q-62 0 -102.5 42.5t-40.5 104.5z" />
<glyph unicode="&#xbd;" d="M60 514l18 6q38 -123 112 -219.5t181 -152.5t233 -56q108 0 197 38t141 103t52 142q0 118 -78 170.5t-224 97.5l-272 84q-140 42 -218 112q-79 69 -79 199q0 115 70.5 190.5t179 110.5t219.5 35q84 0 178 -22.5t129 -22.5q43 0 74 37l81 -408l-16 -4q-30 90 -100 162 t-162 112t-190 40q-56 0 -116 -18t-101 -56t-41 -96q0 -63 52 -90.5t158 -61.5l288 -86q186 -58 262 -129q110 -104 110 -272q0 -143 -83 -254t-217 -171t-280 -60q-63 0 -100.5 8t-133.5 32.5t-136 24.5q-36 0 -70 -37z" />
<glyph unicode="&#xbe;" horiz-adv-x="1024" d="M64 414l16 4q12 -100 69 -178t145 -120t190 -42q60 0 122 22t103 65t41 103q0 76 -69 108t-239.5 83t-256 114t-85.5 187q0 93 58 154.5t146 88.5t180 27q72 0 129.5 -9t120 -23.5t79.5 -14.5q28 1 49 17l14 -318l-14 -2q-20 115 -126 183.5t-228 68.5q-76 0 -137.5 -30 t-61.5 -99t65 -98t237.5 -79t259.5 -114t87 -184q0 -112 -65 -190.5t-167.5 -118t-209.5 -39.5q-78 0 -151 12.5t-147 30.5t-87 18q-26 -1 -51 -29z" />
<glyph unicode="&#xbf;" horiz-adv-x="573" d="M33 1282q0 47 29.5 83t74.5 36q52 0 81.5 -34t29.5 -87q0 -46 -30 -80t-74 -34q-45 0 -78 35t-33 81zM60 0v18q80 6 101 66t21 168v479q0 107 -21 166t-101 67v19l331 27v-758q0 -74 6.5 -119.5t33.5 -78t83 -36.5v-18h-454zM334 1282q0 46 30 82q28 37 74 37 q52 0 81.5 -34t29.5 -87q0 -46 -30 -80q-31 -34 -75 -34q-46 0 -78 34.5t-32 81.5z" />
<glyph unicode="&#xc0;" horiz-adv-x="1351" d="M-35 0v18q40 8 62.5 21.5t44.5 44.5q44 64 92 190l330 871q30 83 30 119q0 54 -63 65v19h455v-19q-60 -15 -60 -73q0 -28 18 -80l350 -1008q2 -3 18 -41t28 -56t31 -31.5t49 -21.5v-18h-466v18q100 22 101 144q0 70 -41.5 147t-118 142t-180.5 106t-223 43l-119 -326 q-33 -92 -33 -145q0 -47 33 -77t80 -34v-18h-418zM452 702q76 0 152 -18t143 -55t119 -91l-227 656z" />
<glyph unicode="&#xc1;" horiz-adv-x="1310" d="M72 0v18q61 8 90 42t36 77.5t7 116.5v840q0 106 -22.5 164.5t-108.5 70.5v19h852q59 0 83.5 4t36.5 22l101 -406l-19 -6q-58 147 -175 213t-308 66q-104 0 -146.5 -4t-56.5 -18.5t-14 -50.5q0 -8 1 -38t1 -50v-198q264 0 451 -69t279 -182t92 -244q0 -387 -568 -387h-612 zM430 196q0 -54 10 -73t43 -24t123 -5q127 0 219 39.5t140.5 108t48.5 151.5q0 102 -60 192.5t-191 147.5t-333 57v-542v-52z" />
<glyph unicode="&#xc2;" horiz-adv-x="1351" d="M72 0v18q62 8 90 41.5t35 77.5t8 117v826q-2 116 -24.5 176.5t-108.5 72.5v19h752q86 0 155 -10t121 -48q53 -38 53 -116q0 -55 -28.5 -101.5t-73.5 -81t-105 -67t-98 -52.5q116 -38 217 -100.5t164 -156t63 -209.5q0 -122 -61.5 -215t-173.5 -135q-98 -37 -205.5 -46.5 t-265.5 -9.5h-514zM430 256q0 -72 10 -104t42 -45t108 -13q216 0 326 68q67 44 105 118t38 154q0 131 -94 236q-93 106 -225 162l-310 -117v-459zM430 811q98 28 205 71t191 108.5t84 143.5t-76 99q-74 21 -182 21q-168 0 -202 -42q-20 -26 -20 -128v-273z" />
<glyph unicode="&#xc3;" horiz-adv-x="1147" d="M82 0v18q62 8 90.5 42t35.5 77.5t7 116.5v826q0 74 -7 120t-35.5 82.5t-90.5 46.5v19h882q50 0 73 4t36 22l93 -422l-17 -4q-24 74 -94 145t-179.5 116t-244.5 45q-90 0 -129.5 -16t-50.5 -51t-11 -114v-807q0 -78 7.5 -125.5t36.5 -82.5q30 -36 92 -42v-16h-494z" />
<glyph unicode="&#xc4;" horiz-adv-x="1392" d="M-156 -334l100 406q26 -22 50 -23q50 0 87 76.5t46 138.5q16 109 40 217.5t62.5 226.5t96.5 238t128 222q28 38 28 84q0 70 -64 77v19h901v-19q-87 -13 -110 -76t-23 -173v-826q0 -93 26 -150t70 -57q26 1 60 25l100 -406l-18 -6q-40 102 -106.5 178.5t-162 119 t-215.5 42.5h-594q-121 0 -215.5 -42.5t-161.5 -119t-106 -178.5zM286 262q0 -72 18.5 -105.5t51 -42t94.5 -8.5h355q72 0 113.5 29.5t41.5 130.5v807q0 72 -8 106.5t-44 54.5t-116 20q-66 0 -129 -32t-104 -88q-68 -92 -130.5 -231t-102.5 -306.5t-40 -334.5z" />
<glyph unicode="&#xc5;" d="M72 0v18q62 10 90.5 43t35.5 77t7 116v826q0 111 -23 174q-22 62 -110 75v19h876q80 0 111 24l92 -412l-17 -6q-41 98 -121.5 166t-182.5 101t-212 33q-76 0 -115 -12.5t-56 -48.5q-17 -35 -17 -111v-118h158h45q84 0 133 24t49 100l19 6l80 -459l-17 -7 q-26 88 -63.5 138t-87 71t-107 26t-160.5 5h-49v-548q0 -94 11 -138t55 -66t145 -22q421 0 615 396l20 -6l-174 -510q-20 26 -90 26h-940z" />
<glyph unicode="&#xc6;" horiz-adv-x="2089" d="M-24 0v18q62 8 90 54t65 141l39 94q172 431 452 695l-153 126q-90 73 -135.5 106.5t-108.5 61.5t-139 33v19h494v-19q-56 0 -56 -49q0 -50 86 -138.5t168 -156.5l156 -141v250q0 112 -22 169.5t-111 65.5v19h491v-19q-88 -8 -110.5 -65.5t-22.5 -169.5v-250l156 141 q82 68 168 156.5t86 138.5q1 49 -55 49v19h493v-19q-56 -4 -106.5 -21.5t-95.5 -44.5t-97 -68t-84 -67l-154 -126q280 -264 453 -695l39 -94q41 -100 68 -143q28 -44 88 -52v-18h-451v18q32 0 52 23t20 57q0 73 -48.5 192.5t-101.5 211.5q-113 194 -268 364l-162 -151v-447 q0 -78 7 -125.5t36.5 -83t89.5 -41.5v-18h-491v18q62 6 90.5 41.5t35.5 83t7 125.5v447l-162 151q-155 -170 -268 -364q-52 -94 -101 -213t-49 -191q0 -34 20 -57t52 -23v-18h-450z" />
<glyph unicode="&#xc7;" horiz-adv-x="1229" d="M35 372l16 7q52 -122 171.5 -210.5t261.5 -88.5t243 36.5t155 110t54 183.5q0 114 -69 181t-203 95.5t-340 28.5v94q129 0 241.5 30.5t181 90.5t68.5 143q0 195 -258 195q-106 0 -186.5 -29t-140.5 -88t-107 -151l-21 8l138 382q24 -34 78 -34q18 0 95 10t144 10 q166 0 280 -36t168 -100t54 -148q0 -106 -96 -182q-95 -76 -221 -120q194 -41 311 -129.5t117 -254.5q0 -97 -42 -176.5t-126 -137.5t-208 -88t-284 -30q-54 0 -154 7t-135 7q-53 0 -71 -10z" />
<glyph unicode="&#xc8;" horiz-adv-x="1474" d="M74 0v18q61 8 90 42t36 77.5t7 116.5v826q0 112 -23 174q-22 63 -110 75v19h491v-19q-62 -6 -90.5 -38.5t-35.5 -76.5t-7 -120v-432l610 532q0 56 -22 91.5t-110 43.5v19h491v-19q-62 -8 -90.5 -40.5t-35.5 -78.5t-7 -116v-826q2 -82 8.5 -126.5t35 -80t89.5 -43.5v-18 h-491v18q88 6 110 64t22 172v800l-610 -532v-254q0 -78 7 -125.5t36 -83t90 -41.5v-18h-491z" />
<glyph unicode="&#xc9;" horiz-adv-x="1474" d="M74 0v18q61 8 90 42t36 77.5t7 116.5v826q0 112 -23 174q-22 63 -110 75v19h491v-19q-62 -6 -90.5 -38.5t-35.5 -76.5t-7 -120v-432l610 532q0 56 -22 91.5t-110 43.5v19h491v-19q-62 -8 -90.5 -40.5t-35.5 -78.5t-7 -116v-826q2 -82 8.5 -126.5t35 -80t89.5 -43.5v-18 h-491v18q88 6 110 64t22 172v800l-610 -532v-254q0 -78 7 -125.5t36 -83t90 -41.5v-18h-491zM490 1638h22q84 -114 234 -114q86 0 139 31t94 83h23q-8 -69 -42 -121.5t-90 -80.5q-54 -29 -124 -29q-65 0 -122.5 30t-93.5 83q-36 54 -40 118z" />
<glyph unicode="&#xca;" horiz-adv-x="1392" d="M74 0v18q62 10 90.5 43t35.5 77t7 116v826q0 112 -23 174q-22 62 -110 75v19h491v-19q-88 -8 -110.5 -65.5t-22.5 -169.5v-250l176 141q114 94 194 170t80 125q0 42 -54 49v19h493v-19q-76 -5 -139 -33t-108.5 -61t-135.5 -107l-154 -126q280 -264 453 -695l39 -94 q41 -100 68 -143q28 -44 88 -52v-18h-451v18q71 10 71 80q0 72 -49.5 194t-99.5 210q-105 178 -277 368l-194 -155v-447q0 -78 7 -125.5t36 -83t90 -41.5v-18h-491z" />
<glyph unicode="&#xcb;" horiz-adv-x="1351" d="M64 0q0 82 14.5 211t53.5 296t110 341q70 174 172 320q26 38 26 84q0 70 -63 77v19h901v-19q-87 -13 -110 -76t-23 -173v-826q0 -73 7 -116.5t36 -77.5q28 -34 90 -42v-18h-494v16q62 6 91.5 41.5t37 83t7.5 125.5v807q0 99 -29.5 140t-138.5 41q-146 0 -234 -120 q-68 -92 -130 -229.5t-102 -306.5t-40 -336q0 -90 43 -162t139 -82v-18h-364z" />
<glyph unicode="&#xcc;" horiz-adv-x="1618" d="M76 0v18q61 8 90 41.5t36 77t7 117.5v826q0 112 -22.5 174.5t-110.5 74.5v19h518v-19q-35 -8 -35 -39q1 -28 27 -78l235 -430l233 379q54 86 54 125q0 35 -39 43v19h493v-19q-62 -10 -90 -43t-35 -76.5t-7 -115.5v-826q0 -76 7 -122t35 -82t90 -46v-18h-491v18 q62 7 90.5 39.5t35.5 77t7 119.5v952l-448 -727l-414 727v-938q0 -78 7 -125.5t36 -83t90 -41.5v-18h-399z" />
<glyph unicode="&#xcd;" horiz-adv-x="1474" d="M74 0v18q61 8 90 42t36 77.5t7 116.5v826q0 112 -23 174q-22 63 -110 75v19h491v-19q-62 -6 -90.5 -38.5t-35.5 -76.5t-7 -120v-121h610v107q-1 79 -7.5 127t-34.5 82.5t-90 39.5v19h491v-19q-87 -10 -109 -65.5t-24 -169.5v-826q2 -82 8.5 -126.5t35 -80t89.5 -43.5v-18 h-491v18q88 6 109 63t23 173v620h-610v-606q0 -78 7 -125.5t36 -83t90 -41.5v-18h-491z" />
<glyph unicode="&#xce;" horiz-adv-x="1638" d="M92 670q0 152 55 280.5t155 224t232 147.5t281 52q155 0 289 -52t233.5 -149t154 -229t54.5 -288q0 -146 -59 -272t-161.5 -218.5t-234.5 -142t-276 -49.5t-273.5 47t-229.5 141q-68 64 -118 147t-76 176t-26 185zM338 744q0 -159 62 -313t181 -252.5t281 -98.5 q137 0 236.5 71.5t150.5 189t51 253.5q0 178 -72 334t-195 248t-265 92q-140 0 -237 -74t-145 -194q-48 -118 -48 -256z" />
<glyph unicode="&#xcf;" horiz-adv-x="1474" d="M76 0v18q62 8 90.5 42t35.5 77.5t7 116.5v826q0 74 -7 120t-35.5 82.5t-90.5 46.5v19h1327v-19q-87 -13 -110 -76t-23 -173v-826q0 -73 7 -116.5t36 -77.5t90 -42v-18h-493v16q62 6 91 41.5t36 83t7 125.5v807q0 79 -10.5 114t-50 51t-129.5 16h-230q-90 0 -129 -16 t-50 -51t-11 -114v-807q0 -78 7 -125.5t37 -82.5q30 -36 92 -42v-16h-494z" />
<glyph unicode="&#xd0;" horiz-adv-x="1188" d="M76 0v18q61 8 90 41.5t36 77t7 117.5v826q0 76 -7 123t-35.5 82.5t-90.5 43.5v19h752q148 0 235.5 -47.5t87.5 -182.5q0 -100 -74.5 -182t-190.5 -144t-229 -102t-223 -70v-352q0 -78 7 -125.5t36 -83t91 -41.5v-18h-492zM434 719q488 155 488 367q0 95 -76 131.5 t-220 36.5q-94 0 -134 -19t-49 -56t-9 -122v-338z" />
<glyph unicode="&#xd1;" horiz-adv-x="1433" d="M92 742q0 138 51 264t152 210q106 86 232.5 122t277.5 36l225 -18l66 -6q60 0 80 42l94 -386l-16 -6q-36 86 -106 146t-159.5 91t-183.5 31q-108 0 -189.5 -31t-146.5 -107q-64 -74 -97 -172q-34 -98 -34 -202q0 -133 43 -255.5t126 -217.5t197 -149t250 -54 q305 0 453 320l21 -9l-158 -411q-20 6 -68 6l-248 -12q-376 0 -598 184q-88 72 -147 165t-88 199t-29 220z" />
<glyph unicode="&#xd2;" horiz-adv-x="1188" d="M-22 968l100 406q14 -18 38 -22t82 -4h787q59 0 83.5 4t37.5 22l100 -406l-18 -6q-58 147 -175 213t-309 66v-975q0 -82 7 -130.5t36 -82t91 -35.5v-18h-492v18q88 2 110.5 60t22.5 176v987q-190 0 -307.5 -65.5t-175.5 -213.5z" />
<glyph unicode="&#xd3;" horiz-adv-x="1351" d="M22 1329v19h449v-19q-43 -8 -43 -53q0 -52 82 -192l305 -529l221 531q40 96 41 155q1 77 -71 88v19h364v-19q-62 -8 -99 -60.5t-81 -152.5l-350 -784q-144 -328 -346 -358q-34 -6 -64 -7q-152 0 -276 111l151 368l21 -2q-14 -75 -14 -137q0 -217 174 -217q130 18 222 234 l-478 784q-64 108 -108 161t-100 60z" />
<glyph unicode="&#xd4;" horiz-adv-x="1761" d="M80 670q0 112 53 200t148 147t219.5 92t267.5 40q0 90 -25 129.5t-110 50.5v19h493v-19q-62 -10 -90 -30.5t-36.5 -53t-8.5 -96.5q198 -10 353.5 -66.5t246.5 -164.5q91 -106 91 -260q0 -108 -55 -192.5t-152.5 -141t-219 -87.5t-264.5 -41q0 -58 9.5 -93t39.5 -56 q28 -21 86 -29v-18h-493v18q62 8 90.5 28t36.5 54q8 32 8 96q-202 12 -358 71t-243 162t-87 241zM328 731q0 -106 55 -200.5t155.5 -159.5t229.5 -87v779q-205 -8 -322.5 -93.5t-117.5 -238.5zM991 284q204 10 323.5 92t119.5 230q0 88 -36 166t-96 136.5t-142 98.5t-169 56 v-779z" />
<glyph unicode="&#xd5;" horiz-adv-x="1310" d="M-37 0v18q38 6 67.5 25.5t52.5 45t50 63.5t43 61l358 514l-229 346q-76 114 -136 181.5t-134 74.5v19h522v-19q-88 -13 -88 -71q-1 -46 59 -134l138 -204l135 192q79 113 79 164q0 48 -65 53v19h397v-19q-48 -4 -87 -26t-71 -55.5t-50 -57.5t-66 -92l-198 -283l426 -641 q51 -76 86.5 -111t99.5 -45v-26l-537 8v18q99 12 99 84q0 48 -50 126l-264 394l-192 -286q-116 -175 -117 -242q0 -64 90 -76v-18h-418z" />
<glyph unicode="&#xd6;" horiz-adv-x="1474" d="M76 0v18q88 14 110 76q23 62 23 174v826q0 73 -7 116.5t-35.5 76.5t-90.5 42v19h494v-17q-62 -6 -92 -41.5t-37 -82.5t-7 -125v-808q0 -79 11 -114t51 -50q38 -16 128 -16h228q90 0 129.5 15.5t50 51t10.5 113.5v808q0 78 -7 125t-36 82t-91 42v17h493v-19 q-88 -12 -110.5 -69.5t-22.5 -165.5v-826q0 -107 33 -157.5t71 -50.5q19 0 29 12l100 -406l-18 -6q-40 102 -106.5 178.5t-161.5 119t-215 42.5h-924z" />
<glyph unicode="&#xd7;" horiz-adv-x="1433" d="M41 1329v19h491v-19q-88 -8 -110 -65.5t-22 -169.5v-138q0 -107 64.5 -171t170.5 -64q171 0 367 100v259q-1 79 -7.5 127t-35.5 82.5t-91 39.5v19h492v-19q-62 -8 -90 -40.5t-35 -76.5t-8 -118v-826q1 -77 8 -123.5t35.5 -82.5t89.5 -44v-18h-492v18q88 6 110 63t24 173 v469q-240 -137 -462 -137q-160 0 -263 98t-103 252v144q0 115 -23 176.5t-110 72.5z" />
<glyph unicode="&#xd8;" horiz-adv-x="1925" d="M76 0v18q88 14 110 76q23 62 23 174v826q0 73 -7 116.5t-35.5 76.5t-90.5 42v19h494v-17q-62 -6 -92 -41.5t-37 -82.5t-7 -125v-808q0 -79 11 -114t51 -50q38 -16 128 -16h72q64 0 97 15t45 49t12 96v826q0 112 -23 174.5t-110 74.5v19h491v-19q-62 -10 -90.5 -43.5 t-35.5 -76.5t-7 -117v-824q0 -72 11.5 -108t43.5 -51t99 -15h71q90 0 130 15.5t50.5 51t10.5 113.5v808q0 78 -7.5 125t-36.5 82t-91 42v17h494v-19q-88 -12 -111 -69.5t-23 -165.5v-826q0 -112 23 -174t111 -76v-18h-1774z" />
<glyph unicode="&#xd9;" horiz-adv-x="1925" d="M76 0v18q88 14 110 76q23 62 23 174v826q0 73 -7 116.5t-35.5 76.5t-90.5 42v19h494v-17q-62 -6 -92 -41.5t-37 -82.5t-7 -125v-808q0 -79 11 -114t51 -50q38 -16 128 -16h72q64 0 97 15t45 49t12 96v826q0 112 -23 174.5t-110 74.5v19h491v-19q-62 -10 -90.5 -43.5 t-35.5 -76.5t-7 -117v-824q0 -72 11.5 -108t43.5 -51t99 -15h71q90 0 130 15.5t50.5 51t10.5 113.5v808q0 78 -7.5 125t-36.5 82t-91 42v17h494v-19q-88 -12 -111 -69.5t-23 -165.5v-826q0 -107 33 -157.5t71 -50.5q20 0 30 12l100 -406l-18 -6q-40 102 -106.5 178.5 t-162 119t-215.5 42.5h-1372z" />
<glyph unicode="&#xda;" horiz-adv-x="1433" d="M-26 968l100 406q14 -18 38 -22t82 -4h578v-19q-87 -8 -110 -72.5t-23 -176.5l-2 -198q208 -10 380.5 -73.5t272.5 -173t100 -248.5q0 -123 -64 -210t-190 -132t-304 -45h-554v18q62 8 91 42t36 77.5t7 116.5v1002h-82q-120 0 -200 -80q-81 -80 -138 -214zM637 248 q0 -58 9.5 -88.5t47.5 -48t121 -17.5q108 0 186 36t119 103t41 160q0 102 -67 190.5t-186.5 143.5t-270.5 63v-542z" />
<glyph unicode="&#xdb;" horiz-adv-x="1843" d="M74 0v18q62 8 90 41.5t35 77.5t8 117v826q-2 116 -24.5 176.5t-108.5 72.5v19h506v-19q-54 -10 -84 -32.5t-44 -55.5t-17 -67t-3 -90v-202q209 -10 381.5 -73.5t272.5 -172.5t100 -249q0 -123 -64.5 -210t-191 -132t-304.5 -45h-552zM432 248q0 -60 9 -90t46 -47t117 -17 q108 0 188 36t122 103t42 160q0 102 -66.5 190.5t-187 143.5t-270.5 63v-542zM1276 0v18q62 8 90.5 41t35.5 77t7 118v826q0 112 -22.5 174.5t-110.5 74.5v19h492v-19q-62 -10 -91 -43.5t-36 -76.5t-7 -117v-824q0 -76 7 -122.5t37 -82.5q30 -37 90 -45v-18h-492z" />
<glyph unicode="&#xdc;" horiz-adv-x="1229" d="M74 0v18q62 8 90 41.5t35 77.5t8 117v826q-2 116 -24.5 176.5t-108.5 72.5v19h506v-19q-54 -10 -84 -32.5t-44 -55.5t-17 -67t-3 -90v-202q209 -10 381.5 -73.5t272.5 -172.5t100 -249q0 -123 -64.5 -210t-191 -132t-304.5 -45h-552zM432 248q0 -60 9 -90t46 -47t117 -17 q108 0 188 36t122 103t42 160q0 102 -66.5 190.5t-187 143.5t-270.5 63v-542z" />
<glyph unicode="&#xdd;" horiz-adv-x="1433" d="M62 372l16 7q36 -87 109 -156t165 -107t184 -38q162 0 289 68t197 202t70 320h-633v108h621q-29 144 -95 255t-168 174q-101 63 -235 63q-296 0 -432 -268l-21 8l137 384q26 -36 82 -36q18 0 95 9t139 9q170 0 310.5 -56t241 -158t154.5 -242t54 -306q0 -158 -62 -278.5 t-173 -201t-257 -119.5t-314 -39q-54 0 -153.5 7t-134.5 7q-54 0 -72 -10z" />
<glyph unicode="&#xde;" horiz-adv-x="2089" d="M74 0v18q61 8 90 42t36 77.5t7 116.5v826q0 112 -23 174q-22 63 -110 75v19h491v-19q-62 -6 -90.5 -38.5t-35.5 -76.5t-7 -120v-320h196q10 126 64 235t144 191t210 128t260 46q154 0 282 -52t220 -149t140 -229q49 -130 49 -288q0 -146 -52.5 -272.5t-147.5 -219 t-220 -141.5t-269 -49t-267 54t-214 150t-143 223t-58 269h-194v-402q0 -78 7 -125.5t36 -83t90 -41.5v-18h-491zM872 744q0 -163 52 -315.5t161.5 -250.5t270.5 -98q136 0 225 71t129.5 187t40.5 256q0 136 -35.5 258t-101.5 216t-157 147t-197 53q-203 0 -295.5 -150 t-92.5 -374z" />
<glyph unicode="&#xdf;" horiz-adv-x="1392" d="M24 0v18q44 12 76 64t96 186q136 284 330 533q-107 57 -169.5 99.5t-102 101t-39.5 136.5q0 102 82.5 156t228.5 54h793v-19q-87 -12 -110 -74.5t-23 -174.5v-824q0 -109 23 -166.5t110 -71.5v-18h-491v18q62 8 90.5 42t35 80t6.5 128v367l-237 82q-49 -66 -99 -140.5 t-91 -143t-75 -135.5q-34 -66 -58 -122q-18 -42 -19 -78q-1 -66 75 -80v-18h-432zM456 1092q0 -86 88 -160t204 -124t212 -77v351q0 76 -5 106t-26.5 44t-68 18t-160.5 4q-74 0 -125 -11t-85 -47t-34 -104z" />
<glyph unicode="&#xe0;" horiz-adv-x="1147" d="M72 219q0 112 72 191.5t180.5 127.5t251 83t210.5 51v38q0 77 -20 121.5t-65 64.5t-121 20q-98 0 -182 -32t-149 -95t-105 -152l32 336q38 -27 62 -27q19 0 69 16q106 37 180.5 52.5t174.5 15.5q132 0 206 -33t107 -107t33 -204v-385q0 -124 25 -193.5t120 -89.5v-18 h-281q-66 86 -69 184q-38 -68 -103 -115t-143.5 -68t-160.5 -21q-143 0 -233.5 64t-90.5 175zM305 246q0 -70 48.5 -111t117.5 -41q172 0 243 124q72 122 72 318v52q-180 -39 -330.5 -121.5t-150.5 -220.5z" />
<glyph unicode="&#xe1;" d="M74 498q0 196 30 368.5t110.5 311t225.5 204.5q66 30 150 46.5t193 36.5q109 21 171 43q42 16 68 44t26 54h11q0 -112 -49 -196q-50 -84 -132 -118q-46 -19 -121.5 -35.5t-142 -31.5t-128.5 -41q-122 -50 -208 -163t-90 -243q68 103 187.5 177.5t267.5 74.5 q158 0 283.5 -61t196.5 -176.5t71 -274.5q0 -162 -75 -284.5t-205 -188t-292 -65.5q-156 0 -281 63t-196 181t-71 274zM307 538q0 -112 34.5 -217t109.5 -174t190 -69q98 0 170.5 57.5t110.5 152t38 202.5q0 110 -33.5 211t-108 166t-187.5 65q-163 0 -243.5 -112 t-80.5 -282z" />
<glyph unicode="&#xe2;" horiz-adv-x="1188" d="M62 0v18q80 6 101 67t21 167v506q0 106 -21 166t-101 67v19h562q112 0 191 -10.5t136 -52t57 -126.5q0 -72 -57 -125q-57 -54 -146 -82q136 -28 235.5 -103t99.5 -183q0 -109 -65 -183t-174 -109.5t-241 -35.5h-598zM393 256q0 -91 10.5 -122t52.5 -40q42 -10 164 -10 q126 2 207 61t81 164q0 88 -56 156.5t-152 106.5l-307 -76v-240zM393 586l201 49q192 48 192 168q0 123 -186 123q-108 0 -148 -10t-49.5 -40t-9.5 -118v-172z" />
<glyph unicode="&#xe3;" horiz-adv-x="942" d="M62 0v18q56 5 83 37.5t33 77.5t6 119v506q0 106 -21 166t-101 67v19h682q59 0 83.5 5t36.5 21l100 -405l-18 -7q-62 159 -147 225.5t-265 66.5q-69 0 -98.5 -16t-36 -46t-6.5 -96v-506q0 -112 21.5 -173t101.5 -61v-18h-454z" />
<glyph unicode="&#xe4;" horiz-adv-x="1188" d="M-123 -334l101 383q26 -21 48 -21q62 0 86 168q13 106 43 224t82.5 236t128.5 214q24 28 25 68q0 56 -59 56v16h794v-16q-80 0 -101 -62t-21 -174v-551q0 -179 73 -179q22 0 49 21l101 -385l-19 -4q-144 340 -479 340h-350q-120 0 -214.5 -42t-160.5 -118 q-66 -75 -110 -178zM260 196q0 -54 17.5 -78t47 -30t89.5 -6h235q69 0 107 22q38 20 38 96v558q0 68 -7 102t-35 54t-92 20q-120 0 -199 -88q-57 -62 -103 -165t-72 -230t-26 -255z" />
<glyph unicode="&#xe5;" horiz-adv-x="1147" d="M74 504q0 150 71 270t195 188t272 68q170 0 303 -95t175 -257l-783 -217q16 -105 76.5 -193t153 -139t196.5 -51q58 0 129.5 29t118.5 71q55 48 109 156l18 -8l-106 -338q-22 14 -48 14q-14 0 -38 -4l-216 -18q-103 0 -211 30t-203.5 95t-153.5 166t-58 233zM295 547 l555 157q-32 96 -98 162t-158 66q-97 0 -164.5 -53t-101 -141t-33.5 -191z" />
<glyph unicode="&#xe6;" horiz-adv-x="1802" d="M-10 0v18q50 6 68 30t54 92q65 125 123 223t127.5 191.5t153.5 172.5l-51 45q-132 114 -196.5 160t-158.5 59v19h418v-19q-58 -8 -57 -45q0 -48 76 -118l249 -260v190q0 112 -21 172.5t-101 60.5v19h454v-19q-80 0 -101 -60.5t-21 -172.5v-190l250 260q76 70 75 118 q0 36 -57 45v19h418v-19q-50 -7 -97 -28t-90 -52t-85 -67.5t-82 -71.5l-52 -45q82 -78 152 -171.5t128 -192.5t124 -223q16 -30 26 -49t21 -33.5t30 -25t45 -14.5v-18h-436v18q27 0 48.5 18.5t21.5 47.5q0 58 -54 164.5t-130 208.5t-130 145l-126 -131v-217q0 -82 6 -128.5 t33 -77t83 -30.5v-18h-454v18q82 0 102 57.5t20 178.5v217l-126 131q-52 -41 -128.5 -143.5t-131 -209.5t-54.5 -165q0 -28 21 -47t49 -19v-18h-436z" />
<glyph unicode="&#xe7;" horiz-adv-x="983" d="M35 278l12 4q44 -86 141.5 -145t204.5 -59q80 0 150 27t111.5 78t41.5 122q0 116 -91 169.5t-325 53.5v78q164 0 239 44t75 140q0 62 -45 104t-119 42q-125 0 -199 -57t-141 -173l-16 6l106 326q20 -24 56 -24q12 0 75 8t119 8q193 0 293.5 -57.5t100.5 -167.5 q0 -82 -70 -139t-162 -76q156 -35 241 -102.5t85 -184.5q0 -94 -56 -167t-168 -113.5t-272 -40.5q-32 0 -106 8t-118 8q-58 0 -102 -14z" />
<glyph unicode="&#xe8;" d="M62 0v18q80 6 101 67t21 167v506q0 106 -21 166t-101 67v19h454v-19q-80 0 -101.5 -60.5t-21.5 -172.5v-302l483 422q0 26 -23 66t-99 47v19h454v-19q-80 0 -101 -60.5t-21 -172.5v-506q0 -112 21 -173t101 -61v-18h-454v18q80 6 101 67t21 167v512l-483 -422v-90 q0 -112 21.5 -173t101.5 -61v-18h-454z" />
<glyph unicode="&#xe9;" d="M62 0v18q80 6 101 67t21 167v506q0 106 -21 166t-101 67v19h454v-19q-80 0 -101.5 -60.5t-21.5 -172.5v-302l483 422q0 26 -23 66t-99 47v19h454v-19q-80 0 -101 -60.5t-21 -172.5v-506q0 -112 21 -173t101 -61v-18h-454v18q80 6 101 67t21 167v512l-483 -422v-90 q0 -112 21.5 -173t101.5 -61v-18h-454zM379 1399h23q84 -115 233 -115q86 0 139 32q52 31 94 83h23q-8 -69 -41.5 -121.5t-89.5 -81t-125 -28.5q-65 0 -123 30t-94 83t-39 118z" />
<glyph unicode="&#xea;" horiz-adv-x="1229" d="M76 0v18q80 8 101 67.5t21 166.5v506q0 106 -21 166t-101 67v19h454v-19q-80 0 -101 -60.5t-21 -172.5v-190l270 260q76 70 76 118q0 36 -58 45v19h418v-19q-50 -7 -96.5 -28t-90 -52t-85.5 -67.5t-82 -71.5l-52 -45q120 -113 212 -254t192 -333q16 -30 26 -49 t21.5 -33.5t30 -25t45.5 -14.5v-18h-437v18q28 0 49 18.5t21 47.5q0 58 -54 164.5t-129.5 208.5t-129.5 145l-147 -131v-217q0 -82 6 -128.5t33 -77t83 -30.5v-18h-454z" />
<glyph unicode="&#xeb;" horiz-adv-x="1147" d="M64 0q0 522 262 870q24 36 24 68q0 50 -57 56v16h793v-16q-80 0 -102 -62t-22 -174v-506q0 -112 22 -173t102 -61v-18h-458v18q82 0 104 61t22 173v506q0 68 -7 102t-35.5 54t-93.5 20q-120 0 -198 -88q-88 -96 -144.5 -276t-56.5 -376q0 -64 46.5 -116t136.5 -60v-18 h-338z" />
<glyph unicode="&#xec;" horiz-adv-x="1392" d="M62 0v18q80 12 100 69.5t20 166.5v488q0 112 -21 174.5t-99 74.5v19h466v-19q-34 -9 -34 -39t26 -78l170 -317l160 267q51 96 51 126q-1 32 -37 41v19h467v-19q-56 -9 -82 -42t-32.5 -77t-6.5 -116v-488q0 -86 6.5 -133t33 -80t81.5 -37v-18h-453v18q78 7 101 67.5 t23 168.5v614l-367 -616l-340 616v-600q0 -72 7.5 -122.5t35.5 -86t84 -41.5v-18h-360z" />
<glyph unicode="&#xed;" d="M62 0v18q80 0 101 61t21 173v506q0 112 -21 172.5t-101 60.5v19h454v-19q-80 0 -101.5 -60.5t-21.5 -172.5v-82h483v82q0 112 -21 172.5t-101 60.5v19h454v-19q-80 0 -101 -60.5t-21 -172.5v-506q0 -112 21 -173t101 -61v-18h-454v18q80 0 101 61t21 173v332h-483v-332 q0 -112 21.5 -173t101.5 -61v-18h-454z" />
<glyph unicode="&#xee;" d="M74 498q0 160 74.5 281t205 186t289.5 65q158 0 284 -61t197.5 -177t71.5 -274q0 -162 -75 -284.5t-206 -188t-293 -65.5q-156 0 -281 63t-196 181t-71 274zM307 538q0 -112 34.5 -217t109.5 -174t190 -69q98 0 170.5 57.5t110.5 152t38 202.5q0 110 -33.5 211t-108 166 t-187.5 65q-163 0 -243.5 -112t-80.5 -282z" />
<glyph unicode="&#xef;" d="M62 0v18q56 5 83 37.5t33 77.5t6 119v506q0 106 -21 166t-101 67v19h1146v-19q-80 0 -101 -60.5t-21 -172.5v-506q0 -112 21 -173t101 -61v-18h-454v18q56 5 83 37.5t33 77.5t6 119v506q0 69 -5.5 99.5t-32 47.5t-84.5 17h-238q-58 0 -85 -17t-32.5 -48.5t-5.5 -98.5 v-506q0 -112 21.5 -173t101.5 -61v-18h-454z" />
<glyph unicode="&#xf0;" d="M62 -414q81 6 101.5 65t20.5 169v938q0 110 -21 169t-101 64v19h542q180 0 313.5 -58t206 -175t72.5 -285q0 -162 -73 -272.5t-203 -165.5q-132 -54 -302 -54l-222 8v-186q0 -110 20.5 -170t99.5 -66v-18h-454v18zM393 289q0 -76 13.5 -118.5t57.5 -63.5t136 -21 q116 0 201 56t129.5 152t44.5 210q0 128 -56.5 224t-156.5 146t-228 50h-141v-635z" />
<glyph unicode="&#xf1;" horiz-adv-x="1106" d="M74 538q0 138 63 251t175 177t251 64l145 -10l132 -12q52 0 86 22l59 -315l-12 -7q-52 105 -137.5 164.5t-198.5 59.5q-103 0 -181 -58t-119.5 -153t-41.5 -197q0 -126 60.5 -228t156.5 -160t194 -58q108 0 208 57t149 154l14 -9l-104 -294q-24 10 -43 10l-37 -2l-59 -6 l-136 -8q-124 0 -237 38t-200 110.5t-137 177t-50 232.5z" />
<glyph unicode="&#xf2;" horiz-adv-x="1024" d="M-22 631l100 405q13 -17 37.5 -21.5t82.5 -4.5h628q59 0 83.5 5t36.5 21l100 -405l-18 -7q-62 159 -147 225.5t-265 66.5v-664q0 -111 23 -171q23 -61 111 -63v-18h-476v18q87 2 110.5 64t23.5 170v664q-122 0 -199 -31t-124.5 -93t-88.5 -168z" />
<glyph unicode="&#xf3;" horiz-adv-x="983" d="M-47 991v19h411v-19q-66 -8 -65 -61q0 -25 33 -109l231 -565l175 512q42 130 42 158q0 58 -74 65v19h314v-19q-34 -4 -57.5 -21.5t-39 -42.5t-27.5 -60q-14 -35 -22 -60l-317 -911q-56 -162 -130 -248t-222 -86q-112 0 -203 74l117 276l16 -10q-6 -24 -6 -50 q0 -62 33.5 -107.5t89.5 -45.5q62 0 103 40.5t61 101.5t20 120q-4 99 -96 311l-240 547q-35 81 -66.5 126.5t-80.5 45.5z" />
<glyph unicode="&#xf4;" horiz-adv-x="1761" d="M74 492q0 124 43.5 223t119 164t170 98t197.5 33h172v86q0 78 -6.5 124t-33 77.5t-82.5 31.5v19l329 53v-391h174q104 0 198.5 -33t169.5 -98t119 -164t44 -223q0 -160 -70.5 -271.5t-188 -166t-257.5 -54.5l-187 10v-188q0 -110 21.5 -170t99.5 -66v-18h-450v18 q79 6 99.5 66t20.5 170v188l-186 -10q-104 0 -197 30.5t-165 92t-113 155.5t-41 214zM295 504q0 -116 37.5 -211t108.5 -151t167 -56q74 0 109 13t48 54.5t13 135.5v623h-104q-109 0 -195.5 -47.5t-135 -140t-48.5 -220.5zM983 289q0 -94 13 -135.5t47.5 -54.5t109.5 -13 q96 0 167.5 56t108.5 151t37 211q0 128 -48 220t-135 140t-195 48h-105v-623z" />
<glyph unicode="&#xf5;" horiz-adv-x="1147" d="M14 0v18q48 10 78 40t82 96l308 376l-173 248q-12 19 -40.5 62t-53.5 73.5t-56 53.5t-61 24v19h440v-19q-68 -6 -67 -51q-1 -42 63 -135l78 -115l92 121q78 104 78 137q0 38 -61 43v19h342v-19q-39 -4 -75 -24.5t-69 -52.5t-63 -70t-55 -68l-137 -164l315 -452 q19 -26 43 -59.5t51 -56t57 -26.5v-18h-424v18q64 8 64 48q0 34 -78 151l-154 231l-147 -184q-123 -156 -123 -200q0 -36 62 -46v-18h-316z" />
<glyph unicode="&#xf6;" d="M62 0v18q80 6 101 67t21 167v506q0 106 -21 166t-101 67v19h454v-19q-80 0 -101.5 -60.5t-21.5 -172.5v-506q0 -64 5.5 -96.5t32.5 -51t85 -18.5h238q58 0 84.5 18.5t32 51t5.5 96.5v506q0 106 -21 166t-101 67v19h454v-19q-80 0 -101 -60.5t-21 -172.5v-526 q0 -196 78 -197q22 0 44 16l100 -385l-18 -6q-39 102 -105.5 178.5t-162 119t-215.5 42.5h-745z" />
<glyph unicode="&#xf7;" horiz-adv-x="1229" d="M20 991v19h455v-19q-82 -2 -102.5 -52t-20.5 -161v-78q0 -80 50 -123t128 -43q72 0 158 32t148 86v106q0 106 -21 166t-103 67v19h456v-19q-80 0 -102 -60.5t-22 -172.5v-506q0 -112 22 -173t102 -61v-18h-456v18q80 6 102 67t22 167v316q-189 -150 -408 -150 q-130 0 -207 73t-77 199v68q0 108 -21 167t-103 66z" />
<glyph unicode="&#xf8;" horiz-adv-x="1843" d="M62 0v18q80 6 101 67t21 167v506q0 106 -21 166t-101 67v19h454v-19q-80 0 -101.5 -60.5t-21.5 -172.5v-506q0 -64 5.5 -96.5t32.5 -51t85 -18.5h178q58 0 85 18.5t32.5 51t5.5 96.5v506q0 106 -21 166q-22 60 -102 67v19h455v-19q-80 0 -101.5 -60.5t-21.5 -172.5v-506 q0 -64 6 -96.5t33 -51t84 -18.5h178q58 0 84.5 18.5t32.5 51t6 96.5v506q0 106 -21 166t-102 67v19h455v-19q-80 0 -101.5 -60.5t-21.5 -172.5v-506q0 -112 21.5 -173t101.5 -61v-18h-1720z" />
<glyph unicode="&#xf9;" horiz-adv-x="1843" d="M62 0v18q80 6 101 67t21 167v506q0 106 -21 166t-101 67v19h454v-19q-80 0 -101.5 -60.5t-21.5 -172.5v-506q0 -64 5.5 -96.5t32.5 -51t85 -18.5h178q58 0 85 18.5t32.5 51t5.5 96.5v506q0 106 -21 166q-22 60 -102 67v19h455v-19q-80 0 -101.5 -60.5t-21.5 -172.5v-506 q0 -64 6 -96.5t33 -51t84 -18.5h178q58 0 84.5 18.5t32.5 51t6 96.5v506q0 106 -21 166t-102 67v19h455v-19q-80 0 -101.5 -60.5t-21.5 -172.5v-526q-1 -196 77 -197q22 0 46 16l100 -385l-18 -6q-39 102 -106 178.5t-162 119t-216 42.5h-1318z" />
<glyph unicode="&#xfa;" d="M-41 631l101 405q20 -26 120 -26h520v-19q-96 -8 -119.5 -66.5t-23.5 -166.5v-86q195 0 349 -42.5t241.5 -126.5t87.5 -204q0 -92 -58.5 -159.5t-170.5 -103.5t-268 -36h-512v18q43 4 66.5 25t34 52t14.5 74t7 83v674q-105 0 -173.5 -35t-112.5 -99t-84 -168zM557 250 q0 -82 9.5 -115t35.5 -41t94 -8q92 0 161 25.5t107 74.5t38 117q0 86 -52 150.5t-153 99.5t-240 35v-338z" />
<glyph unicode="&#xfb;" horiz-adv-x="1679" d="M62 0v18q80 6 101 67t21 167v506q0 106 -21 166t-101 67v19h474v-19q-96 -8 -119.5 -66.5t-23.5 -166.5v-86q195 0 349 -42.5t241.5 -126.5t87.5 -204q0 -92 -58 -159.5t-170.5 -103.5t-268.5 -36h-512zM393 250q0 -82 9.5 -115t35.5 -41t94 -8q140 0 223 57t83 160 q0 86 -52 150.5t-152.5 99.5t-240.5 35v-338zM1164 0v18q80 6 101 67t21 167v506q0 106 -21 166t-101 67v19h454v-19q-80 0 -101.5 -60.5t-21.5 -172.5v-506q0 -112 21.5 -173t101.5 -61v-18h-454z" />
<glyph unicode="&#xfc;" horiz-adv-x="1106" d="M62 0v18q80 6 101 67t21 167v506q0 106 -21 166t-101 67v19h474v-19q-96 -8 -119.5 -66.5t-23.5 -166.5v-86q195 0 349 -42.5t241.5 -126.5t87.5 -204q0 -92 -58 -159.5t-170.5 -103.5t-268.5 -36h-512zM393 250q0 -82 9.5 -115t35.5 -41t94 -8q140 0 223 57t83 160 q0 86 -52 150.5t-152.5 99.5t-240.5 35v-338z" />
<glyph unicode="&#xfd;" horiz-adv-x="1065" d="M22 282l13 7q104 -209 342 -209q106 0 196.5 54.5t143.5 148.5q53 95 53 205v6h-498v94h490q-14 100 -58 178t-116 123t-166 45q-78 0 -146 -29t-119 -79q-51 -52 -85 -118l-14 9l104 309q21 -12 59 -12q26 0 98.5 9t110.5 9q118 0 222 -42t179 -117t117.5 -178 t42.5 -222q0 -110 -43 -202t-118 -156.5t-174 -98.5q-100 -34 -206 -34q-47 0 -141.5 11t-136.5 11q-62 0 -90 -22z" />
<glyph unicode="&#xfe;" horiz-adv-x="1720" d="M62 0v18q80 6 101 67t21 167v506q0 106 -21 166t-101 67v19h454v-19q-80 0 -101.5 -60.5t-21.5 -172.5v-178h175q18 136 95 238.5t194.5 157t254.5 54.5q148 0 269 -61t191 -177t70 -274q0 -162 -73 -284.5t-199 -188t-278 -65.5q-144 0 -265 61.5t-193 176.5 q-71 116 -71 268h-170v-234q0 -112 21.5 -173t101.5 -61v-18h-454zM796 538q0 -116 30 -220t100 -172t184 -68q97 0 164.5 57t101 151t33.5 204q0 112 -28.5 212.5t-98.5 165t-182 64.5q-162 0 -233 -110t-71 -284z" />
<glyph unicode="&#xff;" horiz-adv-x="1188" d="M10 0v18q60 18 178 232q84 148 228 326q-276 100 -276 245q0 122 111 155.5t291 33.5h584v-19q-56 0 -83 -34t-33 -80.5t-6 -118.5v-506q0 -109 22 -172q20 -62 100 -62v-18h-456l2 22q78 0 100 61t22 167v240q-8 2 -61 12t-109 22q-145 -166 -233 -348q-21 -42 -21 -78 q0 -66 78 -80v-18h-438zM368 803q0 -64 60 -111q60 -48 148 -70l218 -40v196q0 78 -10 105t-53 35t-163 8q-200 0 -200 -123z" />
<glyph unicode="&#x2000;" horiz-adv-x="869" />
<glyph unicode="&#x2001;" horiz-adv-x="1739" />
<glyph unicode="&#x2002;" horiz-adv-x="869" />
<glyph unicode="&#x2003;" horiz-adv-x="1739" />
<glyph unicode="&#x2004;" horiz-adv-x="579" />
<glyph unicode="&#x2005;" horiz-adv-x="434" />
<glyph unicode="&#x2006;" horiz-adv-x="289" />
<glyph unicode="&#x2007;" horiz-adv-x="289" />
<glyph unicode="&#x2008;" horiz-adv-x="217" />
<glyph unicode="&#x2009;" horiz-adv-x="347" />
<glyph unicode="&#x200a;" horiz-adv-x="96" />
<glyph unicode="&#x2010;" horiz-adv-x="532" d="M4 375l86 229q24 -16 88 -16h178q61 0 97 9t59 44h16l-86 -229q-24 16 -88 16h-178q-61 0 -96.5 -8.5t-59.5 -44.5h-16z" />
<glyph unicode="&#x2011;" horiz-adv-x="532" d="M4 375l86 229q24 -16 88 -16h178q61 0 97 9t59 44h16l-86 -229q-24 16 -88 16h-178q-61 0 -96.5 -8.5t-59.5 -44.5h-16z" />
<glyph unicode="&#x2012;" horiz-adv-x="532" d="M4 375l86 229q24 -16 88 -16h178q61 0 97 9t59 44h16l-86 -229q-24 16 -88 16h-178q-61 0 -96.5 -8.5t-59.5 -44.5h-16z" />
<glyph unicode="&#x2013;" horiz-adv-x="1024" d="M-43 375l86 229q24 -16 88 -16h764q61 0 97 9t58 44h17l-86 -229q-24 16 -88 16h-764q-61 0 -97 -9q-34 -9 -58 -44h-17z" />
<glyph unicode="&#x2014;" horiz-adv-x="2048" d="M-43 375l86 229q24 -16 88 -16h1788q61 0 97 9t58 44h17l-86 -229q-24 16 -88 16h-1788q-61 0 -97 -9q-34 -9 -58 -44h-17z" />
<glyph unicode="&#x2018;" horiz-adv-x="614" d="M106 934l234 414h168q-30 -26 -68 -101l-78 -163q-44 -104 -44 -128q0 -10 8 -22h-220z" />
<glyph unicode="&#x2019;" horiz-adv-x="614" d="M106 934q30 26 68 100l78 164q45 94 45 125q0 17 -8 25h219l-234 -414h-168z" />
<glyph unicode="&#x201a;" horiz-adv-x="655" d="M127 -172q29 26 67 100l78 164q46 94 46 125q0 17 -9 25h219l-233 -414h-168z" />
<glyph unicode="&#x201c;" horiz-adv-x="901" d="M88 934l234 414h168q-30 -26 -68 -101l-78 -163q-45 -104 -45 -128q0 -10 8 -22h-219zM412 934l233 414h168q-29 -26 -67 -101l-78 -163q-46 -104 -46 -128q0 -11 9 -22h-219z" />
<glyph unicode="&#x201d;" horiz-adv-x="901" d="M88 934q30 26 68 100l78 164q44 94 44 125q0 17 -8 25h220l-234 -414h-168zM412 934q32 27 67 100l78 164q45 94 45 125q0 17 -8 25h219l-233 -414h-168z" />
<glyph unicode="&#x201e;" horiz-adv-x="901" d="M88 -172q30 26 68 100l78 164q44 94 44 125q0 17 -8 25h220l-234 -414h-168zM412 -172q32 26 67 100l78 164q45 94 45 125q0 17 -8 25h219l-233 -414h-168z" />
<glyph unicode="&#x2022;" horiz-adv-x="737" d="M166 672q0 60 27 111t75 80.5t109 29.5q82 0 137.5 -64.5t55.5 -148.5q0 -86 -60 -156t-146 -70q-55 0 -100.5 31t-71.5 82t-26 105z" />
<glyph unicode="&#x2026;" horiz-adv-x="2048" d="M207 123q0 62 39.5 104.5t99.5 42.5q56 0 92.5 -42t36.5 -99q0 -58 -39.5 -103.5t-95.5 -45.5t-94.5 43.5t-38.5 99.5zM889 123q0 62 39.5 104.5t99.5 42.5q56 0 92.5 -42.5t36.5 -98.5t-40.5 -102.5t-96.5 -46.5q-54 0 -92.5 43.5t-38.5 99.5zM1571 123q0 62 39.5 104.5 t99.5 42.5q56 0 92.5 -42.5t36.5 -98.5q0 -58 -39.5 -103.5t-95.5 -45.5t-94.5 43.5t-38.5 99.5z" />
<glyph unicode="&#x202f;" horiz-adv-x="347" />
<glyph unicode="&#x2039;" horiz-adv-x="450" d="M131 506l147 272l56 -26l-84 -246l84 -252l-56 -24z" />
<glyph unicode="&#x203a;" horiz-adv-x="450" d="M116 256l84 246l-84 252l56 24l148 -276l-148 -272z" />
<glyph unicode="&#x205f;" horiz-adv-x="434" />
<glyph unicode="&#x2122;" horiz-adv-x="1884" d="M144 1151v197h628v-197h-45q0 60 -16.5 88.5t-48.5 35.5t-99 7h-43v-536q0 -67 23 -90.5t104 -29.5v-18h-379v18q52 2 80 15t38 39t10 72v530q-87 0 -126 -7t-58.5 -34.5t-23.5 -89.5h-44zM872 608v18q58 4 73 33t15 91v522q0 27 -15 32.5t-58 5.5v38h251l220 -520 l223 520h256v-38q-66 0 -83.5 -15t-17.5 -66v-491q0 -62 17.5 -85t83.5 -27v-18h-319v18q62 4 78 28t16 88v536h-4l-283 -672h-17l-276 660h-4v-516q0 -62 16 -93t76 -31v-18h-248z" />
<glyph unicode="&#x25fc;" horiz-adv-x="1010" d="M0 0v1010h1010v-1010h-1010z" />
</font>
</defs>
</svg>
