<?xml version="1.0" standalone="no"?>
<!DOCTYPE svg PUBLIC "-//W3C//DTD SVG 1.1//EN" "http://www.w3.org/Graphics/SVG/1.1/DTD/svg11.dtd" >
<svg xmlns="http://www.w3.org/2000/svg" xmlns:xlink="http://www.w3.org/1999/xlink" version="1.1">
<metadata></metadata>
<defs>
<font id="ag_souvenirregular" horiz-adv-x="1229" >
<font-face units-per-em="2048" ascent="1638" descent="-410" />
<missing-glyph horiz-adv-x="500" />
<glyph horiz-adv-x="0" />
<glyph unicode="&#xd;" horiz-adv-x="0" />
<glyph unicode=" " />
<glyph unicode="!" horiz-adv-x="614" d="M190 96q0 45 32 76t77 31q47 0 79 -33t32 -80q0 -44 -34 -75t-77 -31q-47 0 -78 32t-31 80zM198 1407q0 143 109 143q99 0 99 -137q0 -39 -2 -57l-66 -883q-4 -48 -9 -72t-32 -24q-18 0 -26 18.5t-9.5 37.5t-3.5 51z" />
<glyph unicode="&#x22;" horiz-adv-x="737" d="M94 1440q0 36 27 63t61 27t61 -27t27 -63l-67 -402h-41zM465 1440q0 36 26.5 63t61.5 27q34 0 61 -27t27 -63l-67 -402h-42z" />
<glyph unicode="#" d="M28 592q0 55 70 55h184l109 326h-143q-72 0 -72 57q0 58 68 58h186l84 245q18 57 64 57q26 0 43.5 -17t17.5 -42q-1 -19 -17 -65l-59 -178h299l82 250q22 52 64 52q24 0 40.5 -16t16.5 -41q-1 -19 -17 -63l-61 -182h141q72 0 72 -58q0 -57 -70 -57h-180l-110 -326h141 q71 0 71 -55q0 -58 -69 -58h-180l-84 -250q-17 -52 -61 -52q-26 0 -43 16t-17 41q0 11 7 33t9 30l62 182h-299l-72 -216q-16 -48 -28.5 -67t-46.5 -19q-26 0 -44 16.5t-18 42.5q0 13 18 65l60 178h-146q-72 0 -72 58zM416 649h299l109 326h-300z" />
<glyph unicode="$" d="M144 303q0 69 59 69q30 0 43.5 -18t21.5 -51q32 -122 102 -175.5t202 -65.5v659l-27 12q-124 58 -197.5 105.5t-121.5 123.5t-48 191q0 104 54.5 191.5t145 140.5t194.5 59v156q0 40 8 58t40 18q35 0 43.5 -18t8.5 -58v-156q80 -3 158 -36t129 -94.5t51 -143.5 q0 -36 -17 -64t-51 -28q-68 0 -72 88q0 52 -4 76q-4 22 -20 38q-30 34 -72 47t-102 23v-568q133 -55 223.5 -112.5t147.5 -147.5t57 -218q0 -120 -56.5 -216t-154 -153t-217.5 -70v-165q0 -44 -9 -62t-41 -18q-34 0 -42 14t-8 53v178q-168 14 -269 84q-62 45 -110.5 116.5 t-48.5 137.5zM301 1198q0 -103 70.5 -161.5t198.5 -114.5v524q-111 -6 -190 -72.5t-79 -175.5zM672 60q128 10 214.5 88t86.5 202q0 86 -41.5 145t-99.5 94t-160 83v-612z" />
<glyph unicode="%" horiz-adv-x="1679" d="M47 1082q0 112 31.5 215t103.5 171t186 68q88 0 151.5 -40.5t101 -107t54.5 -146.5t17 -160q0 -113 -31.5 -216.5t-104 -171.5t-188.5 -68q-114 0 -186 68t-103.5 171.5t-31.5 216.5zM172 1080q0 -148 41 -273t157 -125q119 0 158.5 128t39.5 282q0 388 -198 388 q-126 0 -162 -119t-36 -281zM336 12q0 8 5 18t12 22t11 20l848 1378q27 42 35 50t39 8q45 0 45 -21q-1 -14 -21 -45l-847 -1378q-28 -44 -39.5 -57t-44.5 -13q-43 0 -43 18zM977 424q0 112 31.5 215.5t103.5 170.5q72 68 186 68q88 0 151.5 -40.5t101 -107t54.5 -146 t17 -160.5t-17 -161t-54.5 -146.5t-101 -106.5t-151.5 -40q-114 0 -186 67t-103.5 170.5t-31.5 216.5zM1102 422q0 -148 41 -273t157 -125q196 0 197 410q-1 390 -197 390q-126 0 -162 -119.5t-36 -282.5z" />
<glyph unicode="&#x26;" horiz-adv-x="1638" d="M45 362q0 143 96.5 256.5t245.5 198.5q-74 98 -112.5 181.5t-38.5 179.5q0 109 57.5 189.5t152.5 121.5t203 41q131 0 225 -68q54 -38 89 -99t35 -124q0 -94 -61 -172.5t-139.5 -131.5t-195.5 -118l398 -467q68 78 123 171.5t55 166.5q0 28 -17.5 42.5t-51 27t-49.5 24 t-16 33.5q0 28 19 34.5t53 6.5h310q82 0 82 -43q0 -34 -52 -51q-66 -28 -92 -56q-32 -39 -88 -141l-201 -287q171 -166 351 -166q31 0 78 9.5t69 9.5q16 0 27.5 -10.5t11.5 -26.5q0 -42 -82 -80q-82 -34 -182 -34q-113 0 -208 45q-96 45 -190 131q-210 -186 -452 -186 q-86 0 -167 26t-147 79t-102.5 125t-36.5 162zM209 396q0 -89 44 -158.5t118.5 -106.5t162.5 -37q102 0 177 32q75 34 165 106l-428 506q-240 -136 -239 -342zM383 1237q-1 -135 155 -336q91 48 156.5 89.5t115.5 100.5t50 131q0 97 -67 157.5t-165 60.5q-60 0 -116 -24.5 t-92.5 -71t-36.5 -107.5z" />
<glyph unicode="'" horiz-adv-x="327" d="M76 1440q0 36 27 63t61 27t61 -27t27 -63l-68 -402h-40z" />
<glyph unicode="(" horiz-adv-x="491" d="M76 614q0 308 120 615q64 164 136 274q17 27 32.5 37t45.5 10q50 0 49 -24q0 -7 -33 -84q-190 -394 -190 -830q0 -434 190 -827q10 -20 21.5 -46.5t11.5 -37.5q1 -25 -49 -25q-22 0 -39 8t-28 22t-24 38t-18 33q-225 415 -225 837z" />
<glyph unicode=")" horiz-adv-x="491" d="M30 -299q0 16 34 84q188 395 188 827q0 218 -47 425t-141 405q-34 58 -34 84q0 24 50 24q42 0 60 -22q18 -23 48 -78q226 -418 226 -838q0 -310 -123 -616q-69 -174 -133 -272q-15 -26 -31.5 -37t-46.5 -11q-50 0 -50 25z" />
<glyph unicode="*" horiz-adv-x="737" d="M84 1100q0 68 135 80q125 14 125 40q0 24 -89 36t-130 24t-41 60q0 29 19 50t49 21q39 0 60 -22t70.5 -84t71.5 -62q8 1 8 15q0 32 -32 108q-33 76 -33 96q0 30 20.5 52t50.5 22q33 0 52.5 -23t19.5 -57q0 -29 -31.5 -101.5t-31.5 -98.5q0 -16 8 -17q22 0 71.5 66 t70.5 89t59 23q28 0 49 -19.5t21 -47.5q0 -52 -44.5 -67t-129 -28t-84.5 -35t84.5 -34.5t129 -28t44.5 -67.5q0 -29 -21 -48.5t-49 -19.5q-38 0 -59 23t-71 89t-71 66q-8 0 -8 -16q0 -24 31.5 -98t31.5 -103q0 -34 -20 -57t-52 -23q-30 0 -49.5 21.5t-19.5 52.5 q0 22 31.5 97.5t31.5 107.5q0 16 -8 16q-26 0 -80 -74q-44 -56 -64.5 -76t-57.5 -20q-28 0 -48 22t-20 50z" />
<glyph unicode="+" horiz-adv-x="1351" d="M144 469v129h468v467h130v-467h466v-129h-466v-469h-130v469h-468z" />
<glyph unicode="," horiz-adv-x="614" d="M182 92q0 30 16 54t41 37t56 13q72 0 106.5 -54.5t34.5 -131.5q0 -91 -43 -181.5t-113 -152.5q-26 -26 -36 -26q-9 0 -18 9t-9 19q0 8 40.5 52t68.5 89.5t28 100.5q0 37 -10 50.5t-41 13.5q-60 0 -84 20q-37 36 -37 88z" />
<glyph unicode="-" horiz-adv-x="614" d="M45 578q0 44 16 54.5t72 10.5h349q50 0 69 -8.5t19 -40.5q0 -46 -16 -57t-72 -11h-349q-50 0 -69 9t-19 43z" />
<glyph unicode="." horiz-adv-x="614" d="M196 96q0 45 32 76t77 31q48 0 79.5 -32.5t31.5 -80.5q0 -44 -34 -75t-77 -31q-47 0 -78 32t-31 80z" />
<glyph unicode="/" horiz-adv-x="1065" d="M14 -176q0 12 8 28l932 1637q19 32 36.5 46.5t51.5 14.5q56 0 56 -42q0 -16 -6 -32l-928 -1628q-20 -37 -38 -54t-52 -17q-60 0 -60 47z" />
<glyph unicode="0" d="M106 748q0 174 52 356t168 307t294 125q131 0 233 -76t169 -200q55 -102 83.5 -241t28.5 -271q0 -127 -27 -260t-88 -252t-161 -192.5t-238 -73.5q-137 0 -236.5 73.5t-160.5 192t-89 253.5t-28 259zM301 748q-1 -254 53 -420q36 -111 102 -188q64 -78 164 -78 q104 0 170.5 81t102.5 199q47 160 47 406q0 262 -51 422q-36 113 -102.5 193.5t-166.5 80.5q-183 0 -272 -287q-47 -163 -47 -409z" />
<glyph unicode="1" d="M228 1331q0 18 10.5 28t27 14.5t36.5 6.5t32 2q170 12 305 111q2 2 20.5 16.5t31 20.5t26.5 6q39 0 39 -84v-1172q0 -76 9 -109t41 -48t104 -19q56 -3 90 -11.5t34 -39.5q0 -34 -18 -43.5t-60 -9.5h-592q-84 0 -84 47q0 18 15 28.5t37 15.5t46 7t40 4q72 6 105 25t41 53 t8 109v854q0 83 -17 111q-31 38 -151 38l-109 -4q-67 0 -67 43z" />
<glyph unicode="2" d="M112 51q0 35 63 134t109 159l316 342q99 96 160.5 163t110.5 153t49 176q0 74 -37.5 133t-101 93t-136.5 34q-122 0 -221 -72q-40 -32 -70 -77t-30 -89q0 -27 5 -40.5t23 -41.5q4 -7 13.5 -20.5t13.5 -23.5t4 -22q0 -39 -28.5 -59t-70.5 -20q-59 0 -93.5 47.5 t-34.5 109.5q0 158 143 283q141 123 361 123q180 0 302 -88q152 -112 152 -291q0 -106 -53 -200.5t-126 -165.5t-187 -165q-157 -128 -262 -235q-104 -107 -172 -239h440q80 0 115.5 4t68.5 25t78 71q42 47 72 47q16 0 25 -10.5t9 -26.5q0 -28 -26 -80q-24 -54 -33 -98 q-9 -39 -21 -57t-34 -22.5t-70 -4.5h-742q-40 0 -62 9t-22 42z" />
<glyph unicode="3" d="M106 282q0 46 25 75.5t72 29.5q44 0 60 -23q15 -24 19 -71q8 -117 89 -174t203 -57q166 0 260 86q50 48 78 120t28 148q0 91 -38 163.5t-107.5 115.5t-161.5 49l-149 6q-76 4 -76 53q0 23 21 33.5t49 13.5l52 4q95 8 153 25q57 17 109 67q84 84 84 232q0 80 -40 139 t-107 90t-145 31q-92 0 -159 -42t-67 -128q0 -16 5 -45t5 -41q0 -30 -25 -46t-57 -16q-49 0 -80.5 29.5t-31.5 77.5q0 101 108 195q70 56 162 85t187 29q86 0 164 -25t140.5 -73t99 -119t36.5 -160q0 -128 -92 -215q-91 -86 -227 -125q74 -14 143.5 -47.5t124 -84.5 t86.5 -118t32 -145q0 -100 -46 -190t-126 -152q-144 -112 -380 -112q-72 0 -155.5 17t-158 55t-120.5 99t-46 141z" />
<glyph unicode="4" d="M58 456q0 64 54 195t105 221q139 250 323 447l179 166q34 28 54.5 39.5t54.5 11.5q51 0 64 -32t13 -91v-897h191q46 0 65 -10q19 -12 19 -52q0 -34 -18 -44t-56 -10h-201v-162q1 -64 13 -98q8 -20 20 -27t39 -15q36 -8 51.5 -16t15.5 -37q0 -45 -67 -45h-323 q-68 0 -68 43q0 34 47 43q60 11 74 33.5t14 97.5v183h-551q-62 0 -87 10t-25 46zM196 514h525v830q-176 -172 -309.5 -383t-215.5 -447z" />
<glyph unicode="5" d="M100 270q0 45 26 70.5t72 25.5q36 0 61 -18t25 -51q0 -10 -3 -28.5t-3 -26.5q0 -90 82 -133t180 -43q125 0 215.5 49t138.5 141t48 217q0 104 -36 187.5t-109 131.5t-179 48q-94 0 -155 -29t-127 -75q-64 -46 -92 -46q-26 0 -35 18.5t-9 63.5l48 764l322 -26l312 16 q50 10 82 10q46 0 46 -37q0 -67 -166 -113q-147 -36 -367 -36h-119l-32 -500q148 88 315 88q142 0 255.5 -52t178.5 -154t65 -246q0 -108 -46 -210t-128 -172q-158 -134 -411 -134q-180 0 -309 77q-62 36 -104 95.5t-42 127.5z" />
<glyph unicode="6" d="M100 610q0 126 28 245t86 226t144 195q68 72 165 132t204.5 94t208.5 34q64 0 64 -43q0 -40 -103 -47q-132 -17 -240.5 -79.5t-185.5 -158.5t-121 -216t-53 -252q90 82 198 129t222 47q125 0 221.5 -55.5t149 -154t52.5 -222.5q0 -144 -65 -262t-181 -185t-261 -67 q-270 0 -416 194q-117 154 -117 446zM295 620q0 -216 49 -336q36 -96 115 -156t180 -60q100 0 176.5 65t106.5 162q6 23 15 82t9 82q0 94 -32.5 174.5t-99 129t-162.5 48.5q-192 -1 -357 -191z" />
<glyph unicode="7" d="M144 1239l4 88q0 133 16 153q16 18 86 19h782q42 0 57 -6q15 -7 15 -27q0 -14 -37 -104l-455 -1227q-16 -48 -30.5 -94t-41 -73.5t-75.5 -27.5q-36 0 -69.5 17t-33.5 49q0 26 15 54l563 1290h-498q-104 0 -150 -21t-58 -109q-8 -62 -50 -61q-26 0 -33 22t-7 58z" />
<glyph unicode="8" d="M98 342q0 143 110 246.5t265 165.5q-301 140 -301 372q0 85 42 164q42 80 112 134q144 112 336 112q98 0 201 -38t172 -112t69 -178q0 -125 -90 -211.5t-236 -162.5q104 -40 185.5 -98t131.5 -140t50 -186q0 -95 -47 -181.5t-127 -146.5q-152 -112 -379 -112 q-122 0 -235 40t-186 124t-73 208zM248 340q0 -60 32 -118q32 -57 86 -95q85 -57 232 -57q88 0 178 33t148.5 98t58.5 155q0 76 -40.5 133t-102.5 94t-130 66t-155 63q-134 -58 -220.5 -150.5t-86.5 -221.5zM320 1172q0 -82 57 -141t122.5 -88t188.5 -73q266 146 266 310 q0 79 -44 138t-115.5 90.5t-147.5 31.5q-78 0 -154.5 -33t-124.5 -94t-48 -141z" />
<glyph unicode="9" d="M104 1026q0 145 67 261.5t185 182.5t264 66q121 0 224.5 -48t177.5 -140q118 -157 118 -449q0 -126 -27 -243.5t-83 -224.5t-141 -195q-110 -116 -269 -191t-313 -75q-73 0 -73 42q0 19 12 26q10 6 34 11q154 20 271 75.5t198.5 146.5t129.5 213.5t63 273.5 q-204 -166 -414 -166q-128 0 -224 55t-148 154t-52 225zM299 1061q0 -152 74.5 -262.5t220.5 -110.5q194 0 350 186v48q0 78 -12 171.5t-37 147.5q-38 84 -117.5 140.5t-169.5 56.5q-72 0 -134 -35t-106 -97q-70 -93 -69 -245z" />
<glyph unicode=":" horiz-adv-x="614" d="M196 96q0 45 32 76t77 31q48 0 79.5 -32.5t31.5 -80.5q0 -44 -34 -75t-77 -31q-47 0 -78 32t-31 80zM196 696q0 46 32 76.5t77 30.5q48 0 79.5 -32.5t31.5 -80.5q0 -44 -34 -75t-77 -31q-47 0 -78 32t-31 80z" />
<glyph unicode=";" horiz-adv-x="614" d="M182 92q0 30 16 54t41 37t56 13q72 0 106.5 -54.5t34.5 -131.5q0 -91 -43 -181.5t-113 -152.5q-26 -26 -36 -26q-9 0 -18 9t-9 19q0 8 40.5 52t68.5 89.5t28 100.5q0 37 -10 50.5t-41 13.5q-60 0 -84 20q-37 36 -37 88zM192 696q0 45 32.5 76t78.5 31q47 0 78 -32.5 t31 -80.5q0 -44 -33 -75t-78 -31q-47 0 -78 32t-31 80z" />
<glyph unicode="&#x3c;" horiz-adv-x="1351" d="M114 471v119l1136 522v-133l-988 -451l988 -444v-131z" />
<glyph unicode="=" horiz-adv-x="1351" d="M144 312v128h1064v-128h-1064zM144 624v130h1064v-130h-1064z" />
<glyph unicode="&#x3e;" horiz-adv-x="1351" d="M102 -47v131l988 444l-988 451v133l1135 -522v-119z" />
<glyph unicode="?" horiz-adv-x="942" d="M78 1274q0 107 96 182q121 94 299 94q118 0 209.5 -46t142.5 -134t51 -206q0 -92 -33 -182t-93 -158q-54 -58 -111.5 -91t-173.5 -86q-34 -19 -39 -33q-14 -36 -14 -145q0 -90 -48 -90q-42 -1 -42 67q0 10 1 24t1 18v178q0 40 4 53.5t13 18t63 28.5q83 40 127.5 68 t86.5 78q96 112 97 258q0 130 -71.5 213t-199.5 83q-86 0 -147 -40q-32 -20 -43 -48q-12 -28 -12 -82q0 -64 -8 -78q-24 -32 -72 -32q-84 0 -84 88zM276 96q0 44 33 75.5t78 31.5q47 0 78 -32.5t31 -80.5q0 -45 -33 -75.5t-78 -30.5q-47 0 -78 32t-31 80z" />
<glyph unicode="@" horiz-adv-x="1679" d="M121 740q0 216 101.5 398t276.5 287t381 105q130 0 251 -47t216 -133.5t149 -204t54 -256.5q0 -215 -139 -391q-46 -56 -104.5 -102.5t-126.5 -73.5t-136 -27q-65 0 -96.5 37.5t-31.5 119.5q-135 -146 -281 -145q-109 0 -171 76.5t-62 192.5q0 140 63 288t176 245t252 97 q146 0 207 -124l34 94h156l-231 -623q-39 -115 -39 -135q0 -26 21 -40t49 -14q75 0 148.5 52t129.5 126q54 70 73 152t19 193q0 134 -54.5 240.5t-142 174.5t-188.5 103t-193 35q-144 0 -268 -52t-214 -146t-139.5 -224t-49.5 -280q0 -190 85.5 -346t235 -244t330.5 -88 q196 0 352.5 90t241.5 264h72q-46 -104 -116 -187.5t-154.5 -140t-186 -86.5t-211.5 -30q-198 0 -368 103.5t-270.5 281t-100.5 385.5zM547 520q0 -63 31 -103q32 -40 90 -40q66 0 113 35t76.5 82.5t70.5 129.5q44 89 79 192t35 173q0 62 -28 103.5t-84 41.5 q-80 0 -150.5 -64t-123 -164t-81 -206t-28.5 -180z" />
<glyph unicode="A" horiz-adv-x="1474" d="M0 47q0 27 33 49q28 18 40.5 34t22.5 44l74 211l440 1016q12 22 26 46.5t27 45.5t26 34t23 13q25 0 56.5 -45t59.5 -94q66 -112 128 -238.5t118 -256.5t104 -261q50 -131 90 -260l80 -221q12 -30 26 -43t46 -31q34 -17 34 -45q0 -30 -22 -37.5t-60 -7.5h-254 q-74 0 -74 47q0 26 26.5 39.5t52.5 26.5t26 41q0 25 -43 148q-42 124 -66 184l-14 38h-666q-7 -26 -34.5 -103t-43.5 -132t-16 -86q0 -54 19 -73.5t54.5 -40.5t35.5 -44q0 -47 -76 -47q-10 0 -26 1t-21 1h-119q-4 0 -19 -1t-24 -1q-90 0 -90 49zM393 631h601l-23 51 l-283 616z" />
<glyph unicode="B" horiz-adv-x="1392" d="M62 47q0 22 13 32q13 9 37 17q38 12 54 24t19 31t3 66v1139q0 20 -16 27t-51 18q-32 8 -45.5 17.5t-13.5 33.5q0 47 75 47h666h6q182 0 275 -59q69 -42 109 -110t40 -146q0 -86 -48.5 -158t-122.5 -121.5t-161 -83.5q112 -17 212.5 -71t163.5 -142t63 -202 q0 -95 -49.5 -174.5t-133.5 -135.5q-143 -96 -383 -96h-641q-33 0 -52 9t-19 38zM372 264q0 -66 8 -95t36 -44q46 -23 198 -23q224 0 346 62q76 36 122 100t46 146q0 146 -114 232q-112 86 -272 114l-370 -94v-398zM372 776q137 31 209.5 49t160.5 51q86 32 142 72 q60 44 99 103t39 123q0 102 -58 150t-137 59t-196 11q-171 0 -221 -24q-38 -24 -38 -98v-48v-448z" />
<glyph unicode="C" horiz-adv-x="1474" d="M74 692q0 164 61 316t170.5 270t256 185t312.5 67q206 0 392 -96q98 -56 112 -78q21 -31 25 -84v-148q1 -70 -51 -70q-14 0 -26 13t-21 32t-15 33q-38 78 -70 124q-34 46 -90 88q-116 82 -264 82q-250 0 -422 -214q-162 -198 -162 -458q0 -116 33 -242t95 -213 q152 -213 444 -213q129 0 230.5 49t201.5 149q6 6 21 22.5t28 25t29 8.5q20 0 32.5 -14t12.5 -35q0 -44 -73.5 -112t-131.5 -103q-80 -51 -181 -78.5t-202 -27.5q-152 0 -288.5 53t-239.5 151t-161 231t-58 287z" />
<glyph unicode="D" horiz-adv-x="1515" d="M60 47q0 22 13 32q13 9 37 17q50 14 61 35t11 86v1139q0 20 -16 28q-16 7 -50 17q-31 11 -42.5 19.5t-11.5 31.5q0 47 71 47h422q136 0 233 -8.5t192.5 -41.5t185.5 -99q284 -212 284 -604q0 -154 -55 -294t-160 -247q-78 -78 -167.5 -123.5t-186.5 -63.5t-217 -18h-531 q-34 0 -53.5 9t-19.5 38zM366 360q0 -122 12 -170t57.5 -67t156.5 -19q148 0 269 43t206 126t129.5 202t44.5 269q0 142 -45.5 273t-136.5 220q-159 157 -491 157q-94 0 -136 -17t-54 -59t-12 -134v-824z" />
<glyph unicode="E" d="M60 47q0 22 12 32q12 9 36 17q49 14 60.5 35t11.5 86v1081q0 45 -13 71.5t-53 33.5q-29 8 -41.5 17.5t-12.5 33.5q0 29 19 37t54 8h907q62 -14 74 -98l16 -125q-2 -33 -34 -33q-22 1 -35 17q-44 56 -107 94q-62 38 -126 38h-330q-72 0 -103 -34t-31 -125v-373h394 q49 0 78.5 7.5t58.5 33.5q26 27 45 27q43 0 43 -94q0 -13 -1 -31.5t-1 -22.5q0 -50 -9.5 -70t-39.5 -20q-19 0 -45 27q-28 25 -50.5 31t-68.5 6h-404v-402q0 -93 12 -143.5t51 -76.5t118 -26h307q73 0 130.5 28t117.5 85q28 27 43 39t33 12q15 0 23.5 -10t8.5 -24 q0 -16 -3 -37t-10 -57q-7 -38 -7 -40q-10 -60 -16 -76t-22 -20q-14 -5 -64 -6h-955q-33 0 -52 9t-19 38z" />
<glyph unicode="F" horiz-adv-x="1147" d="M60 1454q0 29 19 37t54 8h907q72 -11 90 -94l25 -127q-7 -33 -31 -33q-16 0 -59 43q-100 104 -244 104h-335q-120 0 -120 -54v-517h424q48 0 70 7q24 6 56 32q28 24 46 24q48 0 48 -86q0 -15 -2 -37.5t-2 -27.5q-4 -44 -9 -64t-31 -20q-24 0 -48 25q-32 29 -54 35t-74 6 h-426l2 -569q0 -20 14 -28t50 -20q30 -8 45 -17t15 -34q0 -30 -20 -39q-20 -8 -56 -8h-279q-73 0 -73 47q0 22 12 32q12 9 36 17q40 14 53.5 25t15 24t3.5 72v1139q0 20 -16 28q-16 7 -50 17q-32 12 -44 20.5t-12 32.5z" />
<glyph unicode="G" horiz-adv-x="1556" d="M76 725q0 224 108 408.5t294 290.5t409 106q107 0 228 -27t206 -73q50 -28 70 -57t22.5 -56t3.5 -117q0 -58 -6.5 -81t-30.5 -23t-47 44q-61 144 -151 204q-128 82 -300 82q-138 0 -251 -59.5t-190 -161t-117 -228.5t-40 -260q0 -267 160 -447q84 -94 202 -145t247 -51 q80 0 168 21t141 63q60 48 77 122t17 181q0 86 -13 122.5t-49.5 49.5t-125.5 19q-70 0 -112 12q-28 10 -28 44q0 28 28 38q26 6 140 6h140q126 0 180 -14q33 -10 33 -44l-4 -45l-19 -231q0 -100 17 -176q4 -20 4 -35q0 -72 -201 -156q-208 -81 -399 -81q-103 0 -205 19 t-194 62t-168 109q-120 106 -182 253t-62 312z" />
<glyph unicode="H" horiz-adv-x="1638" d="M60 47q0 23 13 33q13 8 39 16q50 14 61 35t11 86v1137q0 22 -16 29.5t-49 17.5q-33 12 -46 20.5t-13 32.5q0 30 20 37.5t55 7.5h283q72 0 72 -45q0 -23 -12 -32t-38 -19q-52 -17 -62 -36.5t-10 -84.5v-414h888v488q0 30 -68 45q-32 11 -45 20t-13 33q0 45 72 45h291 q71 0 71 -45q0 -36 -50 -51q-36 -11 -51 -22.5t-19 -32t-4 -66.5v-1118q0 -22 8 -34t30 -22l23 -10l19 -10q27 -13 35.5 -19t8.5 -22q0 -30 -19 -38.5t-52 -8.5h-289q-34 0 -54 9t-20 38q0 22 13 32q13 9 39 17q51 14 62.5 35t11.5 86v545h-888v-616q0 -14 10 -23t25.5 -14 t30.5 -11q30 -10 43 -19t13 -32q0 -30 -20 -38.5t-54 -8.5h-283q-34 0 -53.5 9t-19.5 38z" />
<glyph unicode="I" horiz-adv-x="532" d="M51 47q0 22 13 32q14 9 40 17q49 14 60.5 35t11.5 86v1139q0 20 -16 27.5t-50 17.5q-32 12 -44.5 20.5t-12.5 32.5q0 30 19.5 37.5t54.5 7.5h283q72 0 72 -45q0 -23 -11 -32t-39 -19q-38 -12 -52 -23.5t-16 -27.5t-4 -70v-1136q0 -14 10 -23t25.5 -14t30.5 -11 q28 -10 42 -19t14 -32q0 -30 -20 -38.5t-54 -8.5h-283q-34 0 -54 9t-20 38z" />
<glyph unicode="J" horiz-adv-x="983" d="M2 289q0 61 26.5 119.5t76 95t112.5 36.5q36 0 63 -21.5t27 -57.5q0 -34 -19.5 -48.5t-59.5 -25.5q-4 -2 -25 -7.5t-33 -11.5q-10 -7 -20 -18q-30 -34 -31 -82q0 -88 76.5 -140t168.5 -52q136 0 208 96q54 72 54 254v930q0 29 -69 45q-31 9 -45 18.5t-14 34.5q0 29 19 37 t55 8h286q35 0 54.5 -7.5t19.5 -37.5q0 -24 -13 -33.5t-39 -17.5q-34 -12 -47 -22.5t-17.5 -31.5t-4.5 -67v-811q0 -241 -78 -348q-55 -76 -149 -114.5t-195 -38.5q-99 0 -188 37t-144 109t-55 173z" />
<glyph unicode="K" horiz-adv-x="1433" d="M60 47q0 23 13 33q13 8 39 16q51 14 62.5 35t11.5 86v1139q0 29 -65 45q-33 10 -46 19.5t-13 33.5q0 45 71 45h281q74 0 74 -45q0 -22 -10 -30t-40 -21q-39 -17 -51 -27t-13.5 -24.5t-3.5 -69.5v-596l349 330l186 192q16 17 38.5 42.5t38.5 50.5t16 47q0 26 -14 37 t-41.5 20.5t-40.5 20t-13 34.5q0 26 17.5 32.5t47.5 6.5h302q77 0 77 -38q0 -35 -47 -54q-59 -28 -90.5 -56.5t-85.5 -92.5l-338 -361l52 -53q318 -342 444 -612q28 -59 48 -85.5t64 -44.5q30 -12 45 -22t15 -37q0 -43 -72 -43h-266q-96 0 -96 47q0 18 10 27t30 18.5 t31 21.5t11 32q0 54 -84.5 182t-193.5 262t-167 188l-273 -248v-384q0 -14 10 -23t25.5 -14t30.5 -11q28 -10 41 -19t13 -32q0 -30 -20 -38.5t-54 -8.5h-283q-34 0 -53.5 9t-19.5 38z" />
<glyph unicode="L" d="M62 1454q0 30 19 37.5t54 7.5h279q35 0 54.5 -7.5t19.5 -37.5q0 -23 -11 -30.5t-39 -18.5q-43 -16 -54.5 -29.5t-11.5 -48.5v-43v-1046q0 -6 -1 -20t-1 -22q0 -46 23 -63q14 -10 36.5 -15.5t50 -8t53.5 -3.5q27 -2 41 -2h110l226 12q78 12 115 27t93 57q2 2 19 16t31 22 t26 8q35 0 35 -41q0 -15 -14 -82t-21 -82q-13 -26 -38 -33q-24 -8 -66 -8h-946q-34 0 -53 9t-19 38q0 22 11 31q11 8 36 18q48 18 58.5 37t10.5 84v1139q0 20 -19 29t-48 16q-32 8 -45.5 17.5t-13.5 35.5z" />
<glyph unicode="M" horiz-adv-x="1761" d="M68 1454q0 45 55 45h273q23 0 38 -17t26 -44.5l19 -47.5l385 -919l228 471l198 471q18 45 31 65.5t45 20.5h264q30 0 44 -9t14 -42q0 -32 -56 -45q-54 -14 -69 -32.5t-15 -74.5v-1150q0 -11 7.5 -19.5t18 -12.5t25.5 -8q15 -6 25 -8q32 -8 47 -16t15 -35q0 -30 -20 -38.5 t-54 -8.5h-276q-72 0 -72 47q0 22 10 31q10 8 36 18q38 14 49 26t11 36q0 6 -1 25t-1 34v1073l-295 -688l-153 -318q-44 -90 -76 -90q-22 0 -34 16t-28 46l-219 469l-201 495l-40 103v-1169q2 -13 9 -22t16 -14t23 -9.5t28 -10.5q32 -10 48.5 -20t16.5 -38q0 -40 -55 -40 h-246q-37 0 -55.5 8t-18.5 37q0 22 12 32q12 9 37 19q32 12 44.5 22.5t15.5 26t3 53.5v1131q0 52 -18 61.5t-66 22.5t-48 41z" />
<glyph unicode="N" horiz-adv-x="1515" d="M62 1460q0 39 59 39h235q37 0 171.5 -159.5t248.5 -311.5l104 -139q120 -159 332 -504v862q0 81 -4 105q-4 22 -17 31t-38 16q-38 12 -51.5 20.5t-13.5 34.5q0 45 55 45h251q60 0 60 -47q0 -29 -51 -47q-36 -15 -48.5 -21.5t-16.5 -23.5q-4 -20 -5 -100v-1182 q0 -60 -8.5 -84t-38.5 -24q-28 0 -57 58q-31 62 -75 132t-106 158t-94 138q-210 323 -334 501.5t-284 346.5v-1104q0 -47 10 -66.5t52 -31.5q34 -8 49.5 -17t15.5 -40q0 -45 -53 -45h-279q-53 0 -53 47q0 37 49 49q57 12 72.5 30t15.5 58v60v1006q0 75 -15 113t-75 50 q-38 10 -50.5 16.5t-12.5 30.5z" />
<glyph unicode="O" horiz-adv-x="1638" d="M76 742q0 161 51 304t148 252.5t233 170.5t301 61q154 0 293.5 -58t243.5 -168q71 -73 117.5 -163.5t67.5 -190.5q21 -98 21 -206q0 -217 -96 -394.5t-270 -278.5t-392 -101q-98 0 -190.5 24t-176 72t-151.5 120q-200 212 -200 556zM284 744q0 -269 128 -453 q70 -102 172 -158.5t221 -56.5q122 0 229 57.5t182 159.5q128 176 128 440q0 132 -31 256.5t-99 216.5q-72 100 -178 158t-227 58q-126 0 -232 -65q-105 -65 -175 -175q-118 -180 -118 -438z" />
<glyph unicode="P" horiz-adv-x="1270" d="M60 1452q0 47 71 47h533q115 0 204 -14q88 -13 166 -55q98 -49 150.5 -132.5t52.5 -191.5q0 -94 -42.5 -177t-114.5 -147t-158 -106q-116 -58 -253 -79t-303 -23v-430q0 -30 72 -46q30 -8 46 -17t16 -34q0 -30 -20 -38.5t-54 -8.5h-286q-35 0 -54.5 9t-19.5 38 q0 22 11 30.5t37 18.5q46 17 57 36.5t11 84.5v1139q0 20 -16 28q-16 7 -50 17q-30 8 -43 17.5t-13 33.5zM366 680q156 0 307.5 39.5t252.5 130.5q102 92 102 236q0 75 -36 138.5t-99 104.5q-59 38 -129 50.5t-160 12.5q-133 0 -184 -26q-36 -19 -45 -48.5t-9 -82.5v-555z " />
<glyph unicode="Q" horiz-adv-x="1638" d="M74 746q0 156 54 298.5t154 252.5t235 171.5t294 61.5q160 0 296.5 -58t236.5 -162t154 -244t54 -300q0 -172 -64 -328t-186 -271t-286 -165q152 -142 324 -142q24 0 68 6.5t70 6.5q30 0 46 -19.5t16 -49.5q0 -48 -48 -69t-104 -21q-136 0 -266 74t-223 188l-107 -6 q-94 0 -187.5 27t-178 79t-148.5 120q-100 110 -152 253t-52 297zM282 735q0 -124 36 -242.5t107 -215.5t177 -154t240 -57q-54 134 -54 227q0 79 48 79q27 0 34 -20q6 -20 12 -61q18 -126 66 -207q132 44 221 147t132 239t43 278q0 161 -59 318t-177 258.5t-284 101.5 q-174 0 -297 -101t-184 -261t-61 -329z" />
<glyph unicode="R" horiz-adv-x="1392" d="M60 1452q0 30 19 38.5t54 8.5h637h5q194 0 300 -71q74 -46 114 -118t40 -155q0 -96 -46.5 -173.5t-121.5 -133.5q-75 -54 -168 -96q96 -109 169.5 -238.5t151.5 -302.5q25 -55 44.5 -78t62.5 -43q30 -12 41.5 -20t11.5 -29q0 -26 -19 -33.5t-51 -7.5h-302q-82 0 -82 43 q0 22 12 31.5t39 21.5t40 25t13 39q0 52 -58 160t-136 220t-128 162l-332 -59v-499q0 -14 9.5 -22.5t23 -13l31.5 -10.5q33 -14 43.5 -21t10.5 -32q0 -30 -20 -37.5t-56 -7.5h-275q-34 0 -53.5 8.5t-19.5 36.5q0 24 12 33q10 8 38 18q39 12 53.5 24t16.5 27t2 70v1137 q0 22 -16 29t-51 18q-32 8 -45.5 17.5t-13.5 33.5zM370 750q186 30 253 43t166.5 52t164.5 109q66 70 66 176q0 262 -428 262q-148 0 -184 -26q-24 -16 -31 -48t-7 -79v-489z" />
<glyph unicode="S" d="M45 334q0 26 14.5 46t40.5 20q38 0 70 -56q76 -132 158 -186q126 -82 296 -82q98 0 190 36t149 108t57 176q0 144 -109.5 199t-340 107t-349.5 132t-119 264q0 90 41 171.5t113 141.5q138 119 366 119q65 0 131.5 -11t130.5 -34t116 -55q36 -24 44 -52q6 -24 6 -118 q0 -72 -32 -72q-16 0 -62 50t-84 85t-116 69t-184 34q-74 0 -142 -31.5t-110 -89t-42 -131.5q0 -114 74 -174t199 -90l187 -44q206 -48 294 -116q70 -55 108 -135.5t38 -172.5q0 -100 -46 -190q-46 -92 -124 -156q-156 -126 -408 -126q-234 0 -379 104q-66 50 -121 122 t-55 138z" />
<glyph unicode="T" horiz-adv-x="1310" d="M10 1276q0 12 3 26t3 21q2 24 8 67t18 76t34 33h1136q32 -4 40 -12q20 -22 38 -156q8 -30 8 -53q0 -43 -36 -43q-22 0 -68 41q-56 44 -84 62t-78 32q-80 24 -176 24q-54 0 -77 -14t-28 -40t-5 -84v-1110q0 -20 16 -28q15 -10 49 -20q30 -10 43.5 -18.5t13.5 -32.5 q0 -30 -19 -38.5t-55 -8.5h-284q-74 0 -74 47q0 22 14 32q14 9 40 17q49 14 60 35t11 86v1051q0 76 -15.5 101t-74.5 25q-74 0 -170 -20q-58 -12 -92 -33q-35 -21 -93 -69q-10 -9 -20 -19t-22 -17t-23 -7q-41 0 -41 47z" />
<glyph unicode="U" horiz-adv-x="1556" d="M60 1454q0 29 19 37t54 8h269q73 0 73 -44q0 -24 -12.5 -33t-38.5 -17q-35 -10 -49.5 -22.5t-17.5 -31.5t-3 -67v-622q0 -94 4 -158.5t22 -132t56 -121.5q58 -86 156 -129t192 -43q77 0 152 20t137.5 62t102.5 104q54 88 68 193.5t14 261.5v569q0 40 -26 71t-62 44 q-30 12 -45 22t-15 31q0 39 60 43h272q53 -4 53 -47q0 -20 -12 -29t-39 -20q-42 -16 -55 -36.5t-13 -70.5v-596q0 -176 -23 -297t-106 -223q-85 -104 -223 -157q-136 -53 -284 -53q-115 0 -236.5 46t-200.5 138q-82 97 -107.5 215.5t-25.5 284.5v679q0 33 -12 44t-46 26 q-30 10 -41 18.5t-11 32.5z" />
<glyph unicode="V" horiz-adv-x="1433" d="M2 1458q0 41 66 41h292q64 0 64 -45q0 -28 -43 -47q-48 -24 -63 -40.5t-15 -62.5q0 -90 56.5 -272t115.5 -332q117 -288 263 -536q74 114 132.5 243t118.5 289q183 483 183 619q0 44 -17.5 55.5t-67 36.5t-49.5 51q0 41 60 41h276q50 0 50 -41q0 -24 -38 -55 q-32 -27 -46 -67l-66 -230q-72 -254 -205 -572t-262 -499q-63 -88 -101 -88t-78 57q-92 134 -169 289t-143 329q-126 330 -208 678q-13 56 -29.5 74t-46.5 38.5t-30 45.5z" />
<glyph unicode="W" horiz-adv-x="1925" d="M2 1458q0 41 68 41h274q68 0 68 -41q0 -24 -42 -44.5t-60.5 -36t-18.5 -67.5q0 -140 98 -524q40 -150 79.5 -278t101.5 -308q148 376 198 542q44 146 83.5 319t39.5 262q0 38 -13.5 55.5t-44.5 33t-40 23t-9 29.5q0 16 15 25.5t35 9.5h268q59 0 59 -39q0 -24 -37.5 -46 t-55.5 -39t-18 -69q0 -150 142 -581q48 -154 98 -279.5t115 -236.5q140 363 221 762q32 152 45 220q13 67 13 119q0 53 -20 67.5t-67 34.5t-47 48q0 39 50 39h239q67 -1 67 -37q0 -12 -5.5 -21.5t-14.5 -17t-18 -14.5q-34 -25 -44 -51t-18 -80q-32 -157 -66.5 -327.5 t-72 -320.5t-88.5 -302t-117 -293q-20 -44 -35 -66t-45 -22q-20 0 -43 27.5t-39 58.5t-30 59q-172 338 -328 854q-86 -320 -196 -639q-62 -179 -136 -293q-23 -38 -35.5 -52.5t-38.5 -14.5q-15 0 -25.5 8.5t-18 22.5t-15.5 28q-72 141 -138 332.5t-116 389.5 q-49 198 -83 378l-36 188q-10 54 -18 72t-45 41q-39 26 -39 51z" />
<glyph unicode="X" horiz-adv-x="1433" d="M16 39q0 28 17 37q17 8 61 22q42 16 69 48t60 88l139 198l226 303q-121 129 -223 273t-203 317q-34 60 -80 78q-32 12 -47 23.5t-15 35.5q0 36 68 37h287q71 -1 71 -33q0 -16 -6 -22t-26 -16q-30 -17 -41 -27t-11 -35q0 -70 110 -209t236 -279l191 236q24 30 46.5 58.5 t45 61.5t38 64.5t15.5 53.5q0 28 -15 42t-44 25t-43 21t-14 30q0 28 53 29h297q66 -1 66 -35q0 -32 -44 -51q-48 -18 -73 -45q-21 -24 -103 -152l-326 -424q130 -136 224 -247t166 -229l66 -109q32 -48 54 -69.5t68 -37.5q58 -21 58 -57q0 -43 -66 -43h-316q-67 0 -67 38 q0 21 12 31t37 20.5t37.5 19.5t12.5 26q0 50 -167 249.5t-243 267.5l-25 -30q-94 -120 -202.5 -275t-108.5 -203q0 -28 23 -40t46 -25t23 -40q0 -26 -18 -33q-18 -6 -48 -6h-262q-40 0 -63 7t-23 32z" />
<glyph unicode="Y" horiz-adv-x="1433" d="M0 1460q0 39 64 39h302q68 0 68 -41q0 -22 -24.5 -35l-49 -26t-24.5 -35q0 -40 55 -128t105 -152q51 -66 134.5 -187t123.5 -174q168 214 292 389q122 168 122 226q0 31 -15 46.5t-45 28.5t-42 22t-12 31q0 34 66 35h230q82 -1 82 -37q0 -28 -36 -49q-34 -20 -46 -32 t-31 -50q-69 -140 -229 -360q-90 -124 -281 -369v-456q0 -20 15 -28q16 -10 50 -20q28 -8 43 -17t15 -34q0 -30 -19 -38.5t-53 -8.5h-280q-34 0 -54 9t-20 38q0 22 12 32q13 9 37 17q48 16 58.5 36t10.5 85v389q-52 74 -162.5 228t-182 260.5t-133.5 220.5q-20 36 -37 54 t-49 32q-29 14 -44.5 25.5t-15.5 33.5z" />
<glyph unicode="Z" horiz-adv-x="1188" d="M45 72q0 45 16.5 78.5t61.5 105.5l135 196l473 650q41 57 93 143.5t52 116.5q0 34 -80 34h-184q-126 0 -214 -18q-72 -14 -114 -35t-86 -71q-5 -7 -13.5 -17.5t-16.5 -17t-18 -6.5q-20 0 -27 16.5t-7 60.5q0 5 4.5 52.5t9.5 79.5q4 30 12 40q16 18 77 19h781q48 0 72 -10 q24 -9 24 -49q0 -86 -166 -338t-312 -444l-231 -320q-22 -30 -47.5 -65.5t-46.5 -71.5q-21 -35 -21 -55q0 -24 17 -31t51 -7h250q152 0 251 22t177 100q6 6 23 24t33 28.5t30 10.5q28 0 28 -31q0 -94 -26 -219q-6 -27 -24.5 -35t-51.5 -8h-860q-53 0 -89 14t-36 58z" />
<glyph unicode="[" horiz-adv-x="491" d="M125 -215v1677q0 46 4 63t21 21t65 4h127q49 0 71.5 -8.5t22.5 -38.5q0 -22 -15.5 -32t-45.5 -19q-74 -28 -92.5 -54t-18.5 -94v-48v-1264v-54q0 -39 6.5 -62.5t27 -40.5t66.5 -33q39 -14 55.5 -23t16.5 -33q0 -32 -26 -40.5t-68 -8.5h-127q-47 0 -64 4.5t-21.5 20.5 t-4.5 63z" />
<glyph unicode="\" d="M170 1550h146l626 -1550h-141z" />
<glyph unicode="]" horiz-adv-x="491" d="M47 -254q0 24 15.5 32t56.5 24q46 17 66.5 33.5t27 40.5t6.5 62v54v1264v48q0 67 -18.5 93.5t-92.5 54.5q-31 10 -46 19t-15 32q0 30 22.5 38.5t72.5 8.5h126q47 0 64.5 -4.5t21.5 -20.5q4 -17 4 -63v-1677q0 -47 -4 -63t-21 -20.5t-65 -4.5h-126q-42 0 -68.5 8.5 t-26.5 40.5z" />
<glyph unicode="^" horiz-adv-x="1351" d="M192 574l422 925h119l426 -925h-131l-356 774l-350 -774h-130z" />
<glyph unicode="_" horiz-adv-x="1024" d="M0 -160h1024v-100h-1024v100z" />
<glyph unicode="`" horiz-adv-x="655" d="M150 1390q0 26 34 27l78 -6q74 0 92 -10q14 -7 31 -49l103 -184q20 -42 20 -56t-10 -22t-25 -8q-10 0 -21.5 7t-21.5 17q-10 8 -18 16l-216 209q-4 4 -17 16.5t-21 22.5t-8 20z" />
<glyph unicode="a" horiz-adv-x="1024" d="M51 262q1 178 175 289q146 94 372 94l125 -6q-5 74 -45 129.5t-104 85.5t-136 30q-57 0 -92.5 -11t-89.5 -43q-18 -12 -31 -20t-29 -14t-32 -6q-58 0 -58 52q0 45 82 88q112 53 250 53q186 0 310 -96q130 -103 130 -305v-330q0 -100 15 -131q14 -22 53 -33q43 -12 43 -43 q0 -29 -22.5 -37t-58.5 -8h-91q-34 0 -50 10t-20.5 32t-4.5 68v52q-122 -192 -342 -192q-92 0 -172 33t-128.5 99t-48.5 160zM215 269q0 -82 53 -127q64 -58 148 -58q61 0 122.5 21t104.5 57q48 41 65 92.5t17 126.5v166l-92 6q-96 0 -192.5 -27.5t-161 -90.5t-64.5 -166z " />
<glyph unicode="b" horiz-adv-x="1065" d="M16 1444q0 16 10 23t32 20q31 18 89.5 40.5t86.5 22.5q46 0 46 -86v-643q134 162 328 162q100 0 177 -37.5t127 -103.5t74 -151t24 -183q0 -234 -128 -377q-68 -76 -167.5 -118.5t-202.5 -42.5q-210 0 -309 126q-48 60 -62 143t-14 193v891q0 46 -18 60.5t-60 29.5 q-33 10 -33 31zM280 432q0 -84 10 -145t42 -109q36 -54 92 -83t118 -29q102 0 171 58t101 149t32 190q0 157 -66 272q-34 62 -88 102.5t-116 40.5q-56 0 -113 -24.5t-104 -65t-79 -90.5v-266z" />
<glyph unicode="c" horiz-adv-x="942" d="M60 454q0 107 36 203.5t103 169.5t158 114.5t200 41.5h4q125 0 221 -67q82 -54 82 -126q0 -30 -21 -55t-49 -25q-23 0 -36.5 8t-25.5 22.5t-26 31.5q-46 60 -84.5 85t-107.5 25q-66 0 -123 -37t-92 -97q-37 -59 -56.5 -141.5t-19.5 -158.5q0 -93 38 -176t110.5 -133.5 t166.5 -50.5q72 0 141 29t113 83q20 24 33 36t33 12q35 0 35 -37q0 -48 -80 -123q-132 -118 -301 -118q-138 0 -241 63.5t-157 174t-54 246.5z" />
<glyph unicode="d" horiz-adv-x="1065" d="M28 456q0 104 33 198t96 169t151 117.5t194 42.5q76 0 132 -20.5t130 -67.5v457q0 28 -17 38t-57 23q-32 15 -32 33q0 16 9 23t31 20q122 61 174 61q30 0 38 -22t8 -60v-1306q0 -42 36 -60l25 -12q35 -19 35 -43q0 -30 -16.5 -38.5t-61.5 -8.5h-129q-19 0 -25 27t-6 100 q-122 -157 -311 -157q-131 0 -230.5 66.5t-153 179t-53.5 240.5zM192 484q0 -106 32 -197t102 -146t180 -55q56 0 118 23.5t101 62.5q28 26 33.5 47t5.5 65v512q-84 48 -132.5 67t-119.5 19q-100 0 -173.5 -58t-110 -150t-36.5 -190z" />
<glyph unicode="e" horiz-adv-x="1024" d="M56 436q0 148 72 274t197 199.5t273 73.5q124 0 209 -53q56 -35 91.5 -90.5t35.5 -116.5q0 -187 -246 -281q-87 -34 -169 -48q-83 -14 -247 -34l-40 -4q22 -123 118 -196q96 -74 222 -74q77 0 135.5 24t104.5 63.5t70 62t42 22.5q16 0 27 -11t11 -26q0 -38 -41 -82.5 t-87 -74.5q-140 -94 -296 -94q-133 0 -243.5 59.5t-174.5 166t-64 240.5zM219 444h4q138 14 249.5 36.5t204.5 82.5t93 164q0 77 -51 116t-131 39q-120 0 -204 -59.5t-124.5 -160t-40.5 -218.5z" />
<glyph unicode="f" horiz-adv-x="614" d="M43 924q0 47 59 47h2q12 0 25 -1.5t19 -1.5h52q0 2 2 84t4 125.5t9 91t19 89.5q30 98 93 164.5t155 66.5q49 0 86.5 -29.5t37.5 -76.5q0 -32 -22 -55t-52 -23q-10 1 -34 17q-40 30 -62 30q-82 0 -82 -209v-43v-232h121q52 0 70 -8t18 -42q0 -31 -22.5 -39.5t-61.5 -8.5 h-125v-616q0 -6 -1 -26t-1 -32q0 -54 12 -75q5 -8 12.5 -12.5t19.5 -10t18 -8.5q40 -14 40 -43t-17 -38t-50 -9h-233q-30 0 -42 8.5t-12 38.5q0 28 35 41l31 14q34 18 34 109v43v616h-48q-61 0 -85 10t-24 44z" />
<glyph unicode="g" horiz-adv-x="1065" d="M45 504q0 140 59.5 249t168 169.5t247.5 60.5q159 -15 377 -15q52 0 80.5 -9t28.5 -45q0 -54 -90 -54q-12 0 -32 1t-26 1h-64q148 -146 148 -350q0 -110 -48 -206t-134 -164q96 -34 160 -100q65 -66 65 -158q0 -117 -85.5 -184.5t-204.5 -92.5t-239 -25q-130 0 -260 35 t-130 127q0 26 16 61t41.5 60t52.5 25t27 -32q0 -10 -3 -26q-2 -14 -2 -24q0 -65 96 -88t192 -23q333 0 333 181q0 75 -46.5 116.5t-131.5 79.5q-79 -28 -157 -29q-202 0 -320.5 128.5t-118.5 330.5zM209 508q0 -88 28.5 -169t89.5 -132t150 -51q103 0 171 50t99 133t31 185 q0 92 -30 176t-94 136q-62 51 -158 51q-94 0 -159 -56.5t-96.5 -143.5t-31.5 -179z" />
<glyph unicode="h" horiz-adv-x="1147" d="M49 47q0 26 37 41q40 12 56 28q16 29 16 136v1077q0 41 -17 55t-57 29q-33 9 -33 31q0 16 9.5 23t31.5 20q30 17 88.5 40t85.5 23q29 0 38 -20q8 -20 8 -64v-616q68 65 154 99t179 34q76 0 145.5 -28.5t119.5 -82.5q51 -56 67.5 -123t16.5 -161v-336q0 -100 14 -131 q10 -17 49 -31q41 -14 41 -43q0 -22 -16 -34.5t-38 -12.5h-223q-45 0 -60 9t-15 38q0 23 32 41l20 10l26 18q16 29 16 136v404q0 94 -62.5 154t-171.5 60q-90 0 -157 -32q-67 -30 -137 -98v-488q0 -100 14 -131q9 -16 51 -31q43 -16 43 -43q0 -47 -54 -47h-239 q-45 0 -61.5 9t-16.5 38z" />
<glyph unicode="i" horiz-adv-x="491" d="M51 854q1 18 13 28q26 26 126 66q3 2 25.5 13.5t34.5 16.5t22 5q33 0 41 -21q9 -20 17 -73q8 -48 8 -113q0 -19 -1 -57q-1 -37 -1 -57v-410q0 -6 -1 -25t-1 -31q0 -54 12 -75q10 -16 52 -31q42 -16 42 -45q0 -28 -17 -36.5t-51 -8.5h-230q-70 0 -70 45q0 32 38 43 q44 12 58 40t14 93v433q-2 36 -3 64t-6.5 46t-23 32t-53.5 21q-46 9 -45 37zM116 1254q0 48 34 79t82 31q47 0 78.5 -30t31.5 -76q0 -54 -33 -86t-86 -32q-47 0 -77 33.5t-30 80.5z" />
<glyph unicode="j" horiz-adv-x="450" d="M-60 -344q0 36 25 59t61 23q20 0 46 -8t36 -8q50 0 63 47t13 145v760q0 86 -20 114q-16 20 -66 29q-45 9 -45 38q0 16 13 29q11 9 29.5 19t46.5 23.5t50 23.5q14 6 30 14.5t30 13.5t24 5q44 0 52 -53q10 -90 10 -268v-472q0 -264 -56 -390q-34 -84 -102.5 -152 t-144.5 -68q-34 0 -64.5 21.5t-30.5 54.5zM114 1254q0 48 34 79t82 31q47 0 78.5 -30t31.5 -76q0 -54 -33 -86t-86 -32q-48 0 -77.5 33.5t-29.5 80.5z" />
<glyph unicode="k" horiz-adv-x="1024" d="M51 1446q0 16 9.5 23t33.5 20q117 61 172 61q30 0 38 -22t8 -60v-991q364 282 364 373q0 24 -31 47q-29 22 -29 41q0 30 50 30h239q27 0 40 -5t13 -27q0 -34 -46 -54q-32 -14 -56 -29t-43.5 -34t-44.5 -46t-45 -48l-103 -105l-26 -26q190 -178 344 -440q16 -28 26 -39 t34 -23q36 -18 36 -47q0 -30 -10.5 -37.5t-40.5 -7.5h-233q-58 0 -58 41q0 16 9 26t26 19.5t25 16.5t8 22q0 58 -101 186.5t-171 190.5l-176 -144v-104q0 -100 14 -131q10 -17 49 -31q37 -20 37 -45q0 -21 -16 -34t-38 -13h-235q-33 0 -51.5 9t-18.5 38q0 28 37 43 q44 14 54 29q14 18 14 86v49v1000v44q0 48 -14 74t-58 41q-35 16 -35 33z" />
<glyph unicode="l" horiz-adv-x="450" d="M47 1444q0 12 6.5 19t16.5 13t18 11q127 63 174 63q28 0 35.5 -19t7.5 -63v-1216q1 -78 9 -110q4 -20 9 -27t21 -15l22 -12q38 -18 38 -43q0 -29 -11 -37t-45 -8h-238q-30 0 -42 8.5t-12 36.5q0 24 34 43l37 18q27 20 27 92q0 11 -1 29.5t-1 24.5v1079q0 60 -72 82 q-33 10 -33 31z" />
<glyph unicode="m" horiz-adv-x="1720" d="M47 854q0 13 9.5 25.5t23.5 23.5q12 11 26 23q8 6 22 17t28 20.5t26.5 14.5t26.5 5q40 0 56 -53t26 -127q62 86 146.5 133t184.5 47t172 -45.5t126 -134.5q58 82 148 131t188 49q154 -1 245 -107q76 -88 76 -286v-442q0 -20 7.5 -28t29.5 -18l22 -12q36 -18 37 -43 q0 -30 -11 -38.5t-44 -8.5h-222q-40 0 -55.5 8.5t-15.5 38.5q0 24 35 41q15 6 29.5 12t24.5 17t10 31v448q0 123 -28 176q-23 48 -68.5 73t-100.5 25q-62 0 -127.5 -26t-109.5 -77t-44 -120v-499q0 -19 7 -29t19 -15t34 -14q36 -18 36 -43q0 -31 -11 -39t-46 -8h-223 q-38 0 -53 8.5t-15 38.5q0 24 33 41q4 2 23.5 9.5t30.5 18t11 32.5v428q0 86 -14 149t-59 104t-131 41q-95 0 -183.5 -61t-88.5 -162v-499q0 -20 10 -31t24 -16t31 -11q39 -15 39 -43q0 -29 -17 -38t-49 -9h-210q-42 0 -60 9t-18 38q0 24 32 39q6 3 19 8t23 11.5t16 16.5 q6 12 6 26v504q0 79 -12.5 116.5t-55.5 50.5q-6 2 -19.5 7t-20.5 11.5t-7 16.5z" />
<glyph unicode="n" horiz-adv-x="1147" d="M49 854q0 19 12.5 32.5t38.5 35.5q18 14 34 26.5t35.5 23.5t35.5 11q24 0 40 -18.5t24.5 -47t13.5 -60.5t8 -52q74 93 159.5 135.5t205.5 42.5q78 0 149 -25.5t117 -77.5q76 -82 76 -296v-436q0 -20 11 -31t24.5 -16t27.5 -11q37 -18 37 -43q0 -21 -15 -34t-37 -13h-225 q-46 0 -61.5 9t-15.5 38q0 27 34 41l18 6t22.5 10t18 17t7.5 27v530q0 192 -238 192q-128 0 -225 -86q-42 -39 -53.5 -81.5t-11.5 -112.5v-442q0 -14 6 -24t17.5 -17.5t21 -10.5t18.5 -6q41 -14 41 -43q0 -21 -15 -34t-39 -13h-226q-47 0 -64.5 9t-17.5 38q0 27 36 41 q10 3 21 6.5t21 9t18 16t8 28.5v528q0 62 -11 94t-55 47q-48 16 -47 37z" />
<glyph unicode="o" horiz-adv-x="1147" d="M64 475q0 135 70 253t188 186.5t254 68.5t253 -66.5t186 -181.5t69 -251q0 -144 -69 -262t-188.5 -185t-261.5 -67q-136 0 -251.5 68t-182.5 184t-67 253zM228 467q0 -168 89 -282.5t251 -114.5q77 0 147.5 35t118.5 98q86 111 86 283q0 107 -41 197.5t-120 144.5 t-187 54q-114 0 -192 -58t-115 -152t-37 -205z" />
<glyph unicode="p" horiz-adv-x="1188" d="M51 866q0 36 69.5 76.5t109.5 40.5q30 0 50 -16.5t32 -42.5t20.5 -61t13.5 -56q78 88 157 132t183 44h3q188 0 317 -145q116 -134 116 -346q0 -227 -116 -361q-66 -76 -163 -118.5t-198 -42.5q-62 0 -148.5 28.5t-86.5 77.5q0 17 10 32t26 15q18 -1 44 -15 q74 -34 168 -34q63 0 124.5 33t97.5 85q78 112 78 283q0 164 -72 277q-72 112 -228 112q-128 0 -218 -80q-52 -48 -72 -103t-20 -132v-701q0 -100 14 -130q8 -14 50 -34q38 -14 38 -42q0 -27 -11 -35.5t-39 -8.5h-246q-32 0 -45 7t-13 37q0 26 33 42q40 0 52.5 39.5 t12.5 104.5v832q0 84 -15 124t-71 48q-6 2 -16.5 3t-20 5t-15 10t-5.5 16z" />
<glyph unicode="q" horiz-adv-x="1065" d="M30 456q0 140 61.5 261.5t173 193.5t253.5 72q156 0 272 -86q10 8 37 33.5t47 39t38 13.5q30 0 30 -80v-1055q0 -100 14 -130q8 -14 50 -34q38 -14 38 -42q0 -29 -8 -36.5t-36 -7.5h-250q-30 0 -43 8t-13 36q0 22 31 40q39 2 51 34t12 92v323q-58 -75 -143.5 -118 t-179.5 -43q-132 0 -230.5 67t-151.5 179t-53 240zM194 461q0 -98 36 -184.5t106 -138.5t170 -52q128 0 225 84q39 34 48 68.5t9 103.5v264q0 138 -71 207q-77 71 -189 71q-115 0 -189.5 -59t-109.5 -155t-35 -209z" />
<glyph unicode="r" horiz-adv-x="737" d="M51 853q0 30 53 69q83 61 114 61h1q51 0 74 -78.5t37 -179.5q37 89 116.5 173.5t157.5 84.5q59 0 88 -32.5t29 -92.5q0 -28 -11.5 -52t-35.5 -24q-16 0 -59.5 22t-65.5 22q-41 0 -81 -39t-68 -89q-60 -100 -60 -216v-314q0 -39 16 -52q16 -12 46 -24q36 -18 36 -43 q0 -30 -18 -39q-18 -10 -50 -10h-218q-32 0 -51 9t-19 40q0 26 34 41q10 3 21 6.5t23 11.5t19 22t7 38v492q0 56 -26 94q-28 39 -62 55q-26 12 -36.5 19t-10.5 25z" />
<glyph unicode="s" horiz-adv-x="819" d="M47 184q0 22 15.5 41t35.5 19q22 0 36.5 -13t41.5 -45q40 -44 53 -56t47 -28q77 -34 142 -34q82 0 148 46q65 46 65 124q0 86 -62.5 117t-201.5 65.5t-211 90t-72 179.5q0 63 28 121q28 59 80 99q89 73 232 73h4h4q138 0 250 -65q28 -16 34.5 -35t6.5 -57q0 -51 -4.5 -72 t-22.5 -21q-22 0 -68.5 47t-95 77t-126.5 30q-76 0 -134 -38q-59 -37 -59 -109q0 -62 45 -92t123 -52l113 -28q134 -36 192 -86q40 -33 64 -83t24 -100q0 -98 -54 -173.5t-141 -115.5t-183 -40q-126 0 -238 67q-42 26 -76 66q-35 39 -35 81z" />
<glyph unicode="t" horiz-adv-x="614" d="M14 930q0 38 68 38q41 0 65 9q23 9 37 43q12 30 27 99t19 110q6 57 15.5 88t43.5 31q43 0 43 -78v-302h158q56 0 76 -8t20 -38q0 -34 -24 -43q-22 -9 -64 -9h-166v-612q0 -59 7.5 -91t34.5 -49.5t85 -17.5q6 0 25 1t30 1q76 0 76 -51q0 -24 -19 -37.5t-45 -13.5h-276 q-46 0 -59 24q-13 22 -13 74v772h-70q-50 0 -72 11.5t-22 48.5z" />
<glyph unicode="u" horiz-adv-x="1065" d="M30 912q0 26 71.5 48.5t107.5 22.5q73 -1 73 -113v-520q0 -122 25 -174q49 -94 170 -94q68 0 140.5 29t117.5 79q45 48 45 124v54v342v48q0 41 -9.5 66.5t-42 44t-32.5 36.5t12 27.5t35 20t65 20.5t68 10q36 0 47 -30.5t11 -98.5v-604q0 -100 14 -131q14 -19 54 -31 q42 -16 42 -43q0 -28 -12 -36.5t-41 -8.5h-143q-24 0 -41 40q-17 42 -17 100q-70 -76 -162 -123t-186 -47q-72 0 -136 29t-106 83q-71 93 -71 273v5v328q-1 96 -13 131q-8 25 -48 49q-38 18 -38 44z" />
<glyph unicode="v" horiz-adv-x="942" d="M2 924q0 22 15 33t36 11h240q18 0 30.5 -13t12.5 -31q0 -22 -31 -42t-46 -36t-15 -66q0 -69 45 -194.5t109 -249.5q64 -122 112 -182q90 122 156 278q102 268 102 354q0 60 -45 92q-22 19 -27.5 25.5t-5.5 26.5q0 38 58 38h153q32 0 45.5 -7t13.5 -33q0 -12 -26 -52 q-22 -28 -28 -42t-22 -70l-34 -127q-64 -235 -205 -475q-26 -50 -77 -121q-50 -71 -86 -71t-99 88q-65 92 -112 178t-81.5 176t-59 176t-54.5 215q-7 31 -18.5 48t-28 30t-22 20t-5.5 23z" />
<glyph unicode="w" horiz-adv-x="1474" d="M4 928q0 27 13 33.5t41 6.5h198q31 0 41 -7t10 -39q0 -17 -7.5 -24t-28.5 -18.5t-31 -25.5t-10 -41q0 -108 77 -352q57 -191 137 -309q65 84 120 198t88.5 237t33.5 222q0 36 -9.5 47t-36 33t-26.5 43q0 36 66 36h188q42 0 42 -38q0 -20 -8 -27t-28 -20t-30 -28t-10 -44 q0 -88 35.5 -210.5t90 -244.5t105.5 -204q49 64 102 187t88 249t35 204q0 44 -13 60t-40 36t-27 40q0 27 14 33.5t42 6.5h154q56 0 56 -34q0 -12 -10 -29q-24 -36 -31.5 -56t-25.5 -85l-29 -108q-88 -318 -188 -500q-44 -82 -106 -162q-22 -24 -50 -24q-64 0 -154 195 t-144 355q-25 -68 -85 -201t-127.5 -241t-111.5 -108q-21 0 -48 30t-51.5 73t-43.5 82t-31 64q-60 132 -103 280.5t-67 301.5q-4 31 -15 50t-21 28.5t-20 21.5q-10 13 -10 27z" />
<glyph unicode="x" horiz-adv-x="1024" d="M16 43q0 28 37 43q44 22 54.5 31t42.5 53l254 309l-224 271q-36 55 -61 83.5t-63 48.5q-22 14 -30 23t-8 31t12 27t38 5h239q26 0 36.5 -6t10.5 -28q0 -18 -24.5 -39.5t-24.5 -38.5q0 -19 23.5 -55.5t55.5 -74.5t75 -84t49 -54q60 62 124 145t64 123q0 14 -8 21t-24.5 17 t-23.5 18t-7 24q0 32 53 32h188q28 0 40 -6t12 -28q0 -26 -33 -43q-36 -19 -48.5 -30t-35.5 -44l-237 -297l231 -272q71 -94 102 -121q14 -14 68 -39q35 -17 35 -45q0 -43 -58 -43h-246q-26 0 -38 7.5t-12 31.5q0 12 6 21.5t19.5 21.5t19 19.5t5.5 19.5q0 29 -67 105 t-135 146l-35 38q-64 -66 -130.5 -151t-66.5 -124q0 -20 9.5 -30.5t28 -20.5t28.5 -20t10 -27q0 -37 -55 -37h-231q-26 0 -35 7t-9 36z" />
<glyph unicode="y" horiz-adv-x="983" d="M0 932q0 23 13 29.5t40 6.5h217q48 0 48 -32q0 -20 -26 -41.5t-40 -44t-14 -76.5q0 -40 13 -113t33 -152t34 -118q43 -109 102 -174q62 -71 118 -71q98 0 164 202q34 94 61 207t27 193q0 78 -17.5 102.5t-49 42t-31.5 45.5q0 20 11 25t35 5h180q44 0 44 -28q0 -16 -6 -28 q-32 -63 -38 -107l-29 -174q-17 -104 -52 -217.5t-82 -223.5t-97 -202q-88 -160 -218.5 -284t-275.5 -124q-46 0 -79.5 21t-33.5 63q0 29 21.5 51.5t50.5 22.5q18 0 54.5 -8t56.5 -8q62 0 134 57t129 137t77 144q-60 -20 -95 -21q-81 0 -150 65t-114 152q-86 170 -121 422 l-12 98q-6 48 -14 72t-33 41q-8 6 -16 12.5t-13.5 14t-5.5 16.5z" />
<glyph unicode="z" horiz-adv-x="860" d="M45 68q0 37 49.5 111.5t123.5 165.5t100 122l243 297q45 56 45 80q0 22 -68 22h-168q-76 0 -115 -14t-79 -70q-6 -9 -14 -20.5t-17 -19t-20 -7.5q-25 0 -25 39q0 10 2 25t2 18q1 5 7.5 39t14.5 63t14 37q14 12 71 12h491q64 0 93 -10t29 -42q0 -45 -39.5 -104 t-100.5 -134l-252 -310l-133 -170q-31 -34 -31 -67q0 -29 62 -29h272q29 0 52.5 19t39.5 42t31 44q37 49 63 49q22 0 23 -26q0 -38 -10.5 -102t-22.5 -91q-10 -24 -33 -30.5t-61 -6.5h-514q-56 0 -90.5 12t-34.5 56z" />
<glyph unicode="{" horiz-adv-x="614" d="M76 654q54 6 106 46q40 34 50 74t10 110v353q0 116 25 183t90 98.5t188 31.5q-90 -26 -126 -83t-36 -154v-373q0 -84 -13.5 -140t-53.5 -93t-116 -53q74 -18 113 -53t54.5 -87t15.5 -131v-401q0 -100 34.5 -155t127.5 -85q-81 0 -130 9t-95 46q-48 35 -63 90t-15 135v398 q0 58 -7 90q-7 34 -37 70q-44 54 -122 74z" />
<glyph unicode="|" horiz-adv-x="1351" d="M618 0v1550h130v-1550h-130z" />
<glyph unicode="}" horiz-adv-x="614" d="M78 -258q92 30 127 84q35 56 35 156v401q0 116 38 180q38 65 144 91q-76 16 -116 53t-53 93t-13 140v373q0 98 -37 155.5t-125 81.5q122 0 187 -31.5t90.5 -99t25.5 -182.5v-353q0 -70 9.5 -110t49.5 -74q52 -42 107 -46q-78 -20 -123 -74q-29 -36 -36 -69t-7 -91v-398 q0 -80 -14.5 -135t-63.5 -90q-47 -36 -96 -45.5t-129 -9.5z" />
<glyph unicode="~" horiz-adv-x="1351" d="M104 448q72 111 145 169.5t181 58.5q56 0 120 -19.5t155 -56t141.5 -53.5t91.5 -17q70 0 116 39.5t95 112.5l98 -62q-50 -70 -89.5 -113t-92.5 -72t-123 -29q-50 0 -91 11t-116 39l-113 42q-76 30 -113 42.5t-81 12.5q-75 0 -124.5 -42.5t-103.5 -125.5z" />
<glyph unicode="&#xa0;" />
<glyph unicode="&#xa4;" d="M43 1245q0 23 20.5 42t42.5 19q20 0 46 -24t64 -66t50 -50q67 64 154 95t184 31q184 0 336 -112l98 100q27 27 37.5 35t28.5 8q22 0 42 -21q20 -20 20 -42t-26 -44l-116 -118q48 -67 75 -117.5t39.5 -106.5t12.5 -134q-1 -182 -109 -316l101 -100q41 -37 41 -62 q0 -23 -23 -46.5t-45 -23.5q-26 0 -64 44l-100 98q-70 -54 -160 -86.5t-176 -32.5q-178 1 -332 115l-108 -109q-10 -9 -20 -19t-21 -16t-23 -6q-20 0 -40 20q-21 22 -21 42t7.5 29t33.5 34l108 109q-124 149 -124 358q0 186 108 310l-100 100q-9 9 -19 19.5t-16 20.5t-6 23z M226 750q0 -105 53 -193.5t142 -139.5t193 -51t192.5 53t139.5 141q52 90 52 194q0 107 -53.5 195t-144.5 138.5t-196 50.5q-103 0 -190.5 -53t-137.5 -143q-50 -88 -50 -192z" />
<glyph unicode="&#xa5;" d="M16 1456q0 43 46 43h229q59 0 59 -49q0 -17 -10 -27.5t-29 -21t-29 -21t-10 -30.5q0 -44 146 -296l208 -344q100 122 172 256l82 154q90 170 91 213q0 32 -12.5 46t-35.5 24.5t-34 21.5t-11 35q0 39 56 39h217q37 0 37 -45q0 -20 -33 -64q-45 -58 -75 -122l-284 -494h166 q28 0 38 -6.5t10 -36.5q0 -36 -16 -45.5t-58 -9.5h-203l-35 -60v-78h246q37 0 50 -8q14 -6 14 -36q0 -36 -16 -45t-52 -9h-242v-262q0 -30 24.5 -53t49.5 -35q39 -18 39 -53q0 -37 -47 -37h-282q-16 0 -28 13.5t-12 33.5q0 22 10 29.5t32 13.5q44 14 54 56t13 124v170h-250 q-34 0 -48.5 9t-14.5 45q0 30 12.5 37t40.5 7h37h223v60l-51 78h-188q-48 0 -65 10t-17 47q0 41 44 41h162l-288 510q-44 92 -74 106q-34 18 -46 27.5t-12 38.5z" />
<glyph unicode="&#xa7;" horiz-adv-x="1065" d="M45 612q0 150 176 304q-54 64 -78 115t-24 124q0 110 63.5 196.5t164.5 132.5t210 46q151 0 313 -84q34 -20 47 -34t16 -27t13 -70l16 -97q4 -24 4 -38q0 -50 -42 -50q-24 0 -42 38q-116 262 -323 262q-68 0 -136.5 -27t-113.5 -79t-45 -122q0 -94 77 -149t195 -91 l134 -38q108 -32 181 -68t123 -100t50 -160q0 -91 -37 -162.5t-115 -171.5q51 -62 76 -115t25 -125q0 -88 -39.5 -170t-107.5 -143q-134 -119 -330 -119q-143 0 -277 72q-37 18 -50 30t-23 44q-18 54 -40 140t-22 118q0 47 45 47q24 0 44.5 -46t59.5 -124.5t101 -125 t164 -46.5q78 0 152 33.5t120.5 94.5t46.5 143q0 100 -80.5 162t-194.5 96l-170 48q-166 47 -228 111q-98 97 -99 225zM205 664q0 -96 68.5 -147t180.5 -83l148 -41q128 -33 194 -75q4 8 30.5 54t37 77t10.5 69q0 90 -63 150q-43 44 -153 76l-216 59q-91 24 -147 59 q-46 -54 -68 -96t-22 -102z" />
<glyph unicode="&#xa9;" horiz-adv-x="1720" d="M108 750q0 211 101 390.5t274 284.5t375 105q204 0 377 -105t274 -285t101 -390t-101 -390.5t-274 -285t-377 -104.5q-202 0 -375 105t-274 285t-101 390zM198 750q0 -186 89.5 -345t241.5 -252t329 -93q178 0 331 93t242 251q89 160 89 346t-89 345t-242 252t-331 93 q-177 0 -329 -93t-241.5 -252t-89.5 -345zM442 760q0 95 30 184.5t87 163t137 116t172 42.5q75 0 158.5 -25t137.5 -69q21 -16 25 -46t7 -88q0 -59 -9 -80.5t-40 -21.5q-26 0 -44.5 33.5t-42.5 79t-69 75t-125 29.5q-138 0 -198 -121.5t-60 -277.5q0 -98 31 -185.5t96 -143 t160 -55.5q78 0 127.5 29t93.5 95q19 29 31.5 41t36.5 12q22 0 37.5 -17.5t15.5 -39.5q0 -49 -51 -105q-112 -135 -306 -135q-100 0 -182 40.5t-139.5 112.5t-87 163.5t-29.5 193.5z" />
<glyph unicode="&#xab;" horiz-adv-x="696" d="M51 584q0 10 33 61l139 215q8 12 18.5 27t22.5 25t27 10q12 0 22.5 -9t10.5 -22q0 -8 -23 -70l-84 -207q-6 -16 -6 -36q0 -18 6 -38l84 -194q0 -1 11.5 -27.5t11.5 -36.5q0 -14 -9 -24t-22 -10q-14 0 -26.5 11t-24.5 28t-19 27l-135 198q-37 58 -37 72zM354 584 q0 8 33 61l139 215q5 8 13 19.5t16 21t18 15.5t21 6q12 0 22 -9t10 -22t-22 -70l-84 -207q-6 -16 -6 -36q0 -18 6 -38l84 -194q22 -58 22 -64q0 -14 -8 -24t-22 -10q-26 0 -70 66l-135 198q-37 58 -37 72z" />
<glyph unicode="&#xac;" horiz-adv-x="1351" d="M144 624v130h1064v-648h-126v518h-938z" />
<glyph unicode="&#xad;" horiz-adv-x="614" d="M45 578q0 44 16 54.5t72 10.5h349q50 0 69 -8.5t19 -40.5q0 -46 -16 -57t-72 -11h-349q-50 0 -69 9t-19 43z" />
<glyph unicode="&#xae;" horiz-adv-x="1638" d="M82 750q0 211 101 390.5t274 284.5t375 105t375 -105t273.5 -285t100.5 -390t-100.5 -390t-273.5 -285t-375 -105t-375 105t-274 285t-101 390zM172 750q0 -186 89 -345t241 -252t330 -93t330 93t240.5 252t88.5 345t-88.5 345t-240.5 252t-330 93t-330 -93t-241 -252 t-89 -345zM438 328q0 36 44 47q28 8 28 96v621q0 38 -22 42q-28 12 -39 21t-11 31q0 34 20 43.5t64 9.5h369q139 0 205 -53q41 -30 66 -78q26 -48 26 -100q0 -84 -53 -149t-135 -107q64 -82 101 -143.5t67 -147.5q9 -25 14.5 -40t14.5 -27t27 -22q23 -14 31.5 -21t8.5 -27 q0 -32 -22 -41q-20 -9 -58 -9h-136q-39 0 -60.5 9t-21.5 41q0 18 9 27.5t26 17t23 11.5t6 16q0 41 -29 102.5t-70 119.5q-41 56 -73 90l-200 -42v-218q0 -40 5 -52t25 -17q26 -8 40 -18.5t14 -36.5q0 -32 -22 -41t-60 -9h-138q-40 0 -62 10t-22 44zM658 780q380 60 380 222 q0 63 -39 93t-90 36.5t-121 6.5q-46 4 -53 5q-44 0 -60.5 -16.5t-16.5 -55.5v-291z" />
<glyph unicode="&#xb0;" horiz-adv-x="819" d="M102 1229q0 82 41.5 153t112 112.5t154.5 41.5q82 0 153 -41.5t112.5 -113t41.5 -152.5q0 -83 -41.5 -154t-112.5 -112t-153 -41q-84 0 -154.5 41t-112 111.5t-41.5 154.5zM198 1229q0 -89 62 -150t150 -61q58 0 105.5 28t76 76t28.5 107q0 56 -28.5 104.5t-77.5 77.5 q-48 29 -106 29q-56 0 -104.5 -29t-77 -77.5t-28.5 -104.5z" />
<glyph unicode="&#xb1;" horiz-adv-x="1351" d="M144 0v129h1064v-129h-1064zM144 598v129h468v338h130v-338h466v-129h-466v-340h-130v340h-468z" />
<glyph unicode="&#xb4;" horiz-adv-x="655" d="M152 1112q0 14 20 56l102 184q16 42 31 49q19 10 93 10l77 6q35 -1 35 -27q0 -10 -8 -20t-22 -23t-17 -16l-215 -209q-8 -8 -18.5 -17t-21.5 -16q-12 -7 -22 -7q-34 0 -34 30z" />
<glyph unicode="&#xb5;" horiz-adv-x="1065" d="M49 912q0 26 71.5 48.5t107.5 22.5q74 -1 73 -113v-520q1 -122 25 -174q50 -94 170 -94q68 0 140 29t118 79q44 48 44 124v54v342v48q0 80 -50 110q-32 18 -33 37q0 35 68 56.5t112 21.5q37 0 47 -30.5t10 -98.5v-604q0 -64 3.5 -91.5t17 -43t47.5 -27.5q43 -16 43 -43 q0 -28 -12 -37q-11 -8 -41 -8h-144q-24 0 -40 40q-17 42 -17 100q-70 -76 -161.5 -123t-186.5 -47q-88 0 -160 42v-326q0 -50 -18.5 -69t-59.5 -19q-40 0 -57.5 19t-17.5 69v1002q0 88 -10 121t-52 59q-37 18 -37 44z" />
<glyph unicode="&#xb6;" horiz-adv-x="1474" d="M41 1069q0 226 172 342q84 56 178.5 72t226.5 16h715q33 0 55.5 -22.5t22.5 -54.5q0 -38 -28.5 -57t-67.5 -19q-20 0 -40 2.5t-45.5 7t-39.5 6.5v-1592q0 -80 -13 -113.5t-61 -33.5q-50 0 -63 29t-13 88v1640h-135v-1614v-42q0 -46 -14 -74q-13 -27 -57 -27q-51 0 -63 33 q-11 32 -15 100v762q-128 12 -251 48.5t-229 103t-170.5 167t-64.5 232.5zM236 1067q0 -122 58.5 -207.5t170.5 -147.5q157 -84 291 -92v770h-62q-458 0 -458 -323z" />
<glyph unicode="&#xb7;" horiz-adv-x="942" d="M119 698q0 94 48.5 175t131 127t178.5 46q92 0 172 -46t127.5 -126t47.5 -176t-48 -176t-130.5 -127t-180.5 -47q-92 0 -171.5 47t-127 128t-47.5 175z" />
<glyph unicode="&#xb9;" horiz-adv-x="819" d="M76 702q0 25 23 32.5t73 7.5h465q48 0 68 -7t20 -33q0 -34 -84 -34h-469q-52 0 -74 6t-22 28zM78 1206q0 83 46 153t122 110.5t158 40.5q86 0 159 -40t117.5 -110t44.5 -156q0 -88 -45.5 -158t-121.5 -109.5t-162 -39.5t-159 40.5t-116 111.5t-43 157zM194 1198 q0 -64 23.5 -115t69 -81.5t111.5 -30.5q97 0 152.5 68t55.5 167q0 98 -55 164t-151 66q-98 0 -152 -68t-54 -170z" />
<glyph unicode="&#xbb;" horiz-adv-x="696" d="M60 278q0 10 22 70l84 207q6 18 6 37q0 22 -6 36l-84 196q-22 60 -22 63q0 13 8 24t22 11q26 0 70 -66l135 -198q37 -58 37 -72q0 -8 -33 -62l-139 -215q-11 -16 -20 -29t-20.5 -22.5t-27.5 -9.5q-12 0 -22 9t-10 21zM362 278q0 10 23 70l84 207q6 18 6 37q0 22 -6 36 l-84 196q-23 60 -23 63q0 13 9 24t22 11q19 0 35 -19t35 -47l135 -198q37 -58 37 -72q0 -10 -33 -62l-139 -215q-8 -12 -18.5 -27t-22.5 -24.5t-26 -9.5q-12 0 -23 9t-11 21z" />
<glyph unicode="&#x2000;" horiz-adv-x="888" />
<glyph unicode="&#x2001;" horiz-adv-x="1776" />
<glyph unicode="&#x2002;" horiz-adv-x="888" />
<glyph unicode="&#x2003;" horiz-adv-x="1776" />
<glyph unicode="&#x2004;" horiz-adv-x="592" />
<glyph unicode="&#x2005;" horiz-adv-x="444" />
<glyph unicode="&#x2006;" horiz-adv-x="296" />
<glyph unicode="&#x2007;" horiz-adv-x="296" />
<glyph unicode="&#x2008;" horiz-adv-x="222" />
<glyph unicode="&#x2009;" horiz-adv-x="355" />
<glyph unicode="&#x200a;" horiz-adv-x="98" />
<glyph unicode="&#x2010;" horiz-adv-x="614" d="M45 578q0 44 16 54.5t72 10.5h349q50 0 69 -8.5t19 -40.5q0 -46 -16 -57t-72 -11h-349q-50 0 -69 9t-19 43z" />
<glyph unicode="&#x2011;" horiz-adv-x="614" d="M45 578q0 44 16 54.5t72 10.5h349q50 0 69 -8.5t19 -40.5q0 -46 -16 -57t-72 -11h-349q-50 0 -69 9t-19 43z" />
<glyph unicode="&#x2012;" horiz-adv-x="614" d="M45 578q0 44 16 54.5t72 10.5h349q50 0 69 -8.5t19 -40.5q0 -46 -16 -57t-72 -11h-349q-50 0 -69 9t-19 43z" />
<glyph unicode="&#x2013;" horiz-adv-x="1024" d="M-12 578q0 44 17 54.5t77 10.5h858q56 0 76 -8.5t20 -40.5q0 -46 -17 -57t-79 -11h-858q-54 0 -74 10t-20 42z" />
<glyph unicode="&#x2014;" horiz-adv-x="2048" d="M-12 578q0 31 9 44.5t32 17t75 3.5h1840q68 0 92 -8.5t24 -40.5q0 -46 -20 -57t-96 -11h-1840q-68 0 -92 10t-24 42z" />
<glyph unicode="&#x2018;" horiz-adv-x="573" d="M172 1204q0 84 38 166q38 84 102 138q22 22 32 22t17 -8t7 -16t-35 -47t-61 -81.5t-26 -97.5q0 -29 9.5 -39t35.5 -10q109 -1 109 -99q0 -40 -30 -67t-71 -27q-63 0 -95 50t-32 116z" />
<glyph unicode="&#x2019;" horiz-adv-x="573" d="M174 1436q0 27 14 48.5t37 33.5t49 12q64 0 96 -49.5t32 -116.5q0 -84 -38 -166t-102 -137q-20 -23 -32 -23q-10 0 -17.5 8t-7.5 17q0 8 35.5 46.5t61.5 81.5t26 97q0 30 -9 40t-37 10q-108 0 -108 98z" />
<glyph unicode="&#x201c;" horiz-adv-x="942" d="M172 1204q0 84 38 166q38 84 102 138q22 22 32 22t17 -8t7 -16t-35 -47t-61 -81.5t-26 -97.5q0 -29 9.5 -39t35.5 -10q109 -1 109 -99q0 -40 -30 -67t-71 -27q-63 0 -95 50t-32 116zM530 1204q0 84 38 167t102 137q24 22 32 22q10 0 17.5 -8t7.5 -16t-36.5 -47.5 t-61.5 -81.5t-25 -97q0 -29 9.5 -39t35.5 -10q109 -1 109 -99q0 -40 -30 -67t-70 -27q-64 0 -96 50t-32 116z" />
<glyph unicode="&#x201d;" horiz-adv-x="942" d="M174 1436q0 27 14 48.5t37 33.5t49 12q64 0 96 -49.5t32 -116.5q0 -84 -38 -166t-102 -137q-20 -23 -32 -23q-10 0 -17.5 8t-7.5 17q0 8 35.5 46.5t61.5 81.5t26 97q0 30 -9 40t-37 10q-108 0 -108 98zM532 1436q0 27 14 48.5t37 33.5t50 12q64 0 95.5 -49.5t31.5 -116.5 q0 -84 -38 -166t-102 -137q-21 -23 -32 -23q-10 0 -17.5 7.5t-7.5 17.5q0 8 36.5 47t61.5 81.5t25 96.5q0 30 -9 40t-36 10q-109 0 -109 98z" />
<glyph unicode="&#x2026;" horiz-adv-x="2048" d="M232 96q0 44 32 75.5t78 31.5q47 0 77.5 -32.5t30.5 -80.5q0 -45 -32.5 -75.5t-77.5 -30.5q-47 0 -77.5 32t-30.5 80zM914 96q0 44 32 75.5t78 31.5q47 0 77.5 -32.5t30.5 -80.5q0 -45 -32.5 -75.5t-77.5 -30.5q-47 0 -77.5 32t-30.5 80zM1596 96q0 44 32 75.5t78 31.5 q47 0 77.5 -32.5t30.5 -80.5q0 -45 -32.5 -75.5t-77.5 -30.5q-47 0 -77.5 32t-30.5 80z" />
<glyph unicode="&#x202f;" horiz-adv-x="355" />
<glyph unicode="&#x205f;" horiz-adv-x="444" />
<glyph unicode="&#x2122;" horiz-adv-x="1638" d="M53 1323q0 12 4.5 35.5t6.5 33.5q4 19 10 50.5t12 41t20 12.5t48 3h506q32 0 47 -4.5t21 -13.5t10 -28t10 -48q4 -18 6 -31.5t4 -23.5t2 -21q0 -49 -39 -49q-19 0 -35 30q-26 49 -61 66.5t-99 24.5q-14 2 -27 4t-15 2q-12 0 -13 -33v-634q0 -40 4.5 -55t22.5 -19 q44 -14 44 -48q0 -28 -12 -37q-10 -9 -40 -9h-164q-29 0 -41.5 9t-12.5 37q0 34 37 44q24 8 29.5 22t5.5 56v630q0 26 -3 31.5t-17 5.5q-24 -1 -82 -13q-44 -11 -67.5 -27.5t-43.5 -53.5t-41 -37q-37 0 -37 47zM762 618q0 34 36 44q24 8 30 22t6 56v644q0 5 -4 8t-8.5 4.5 t-10.5 4.5q-25 9 -35 19t-10 34q0 30 17 37.5t55 7.5h98q38 0 50 -6q12 -7 22 -31l10 -34l154 -439q34 49 80 201l69 227q14 58 28 70t66 12h43q8 0 26 1t28 1q54 0 54 -47q0 -40 -38 -58q-18 -10 -22.5 -21t-4.5 -39v-596q0 -42 7 -56q6 -14 28 -22q37 -10 37 -44 q0 -28 -12 -37q-11 -9 -41 -9h-160q-28 2 -40 10q-12 6 -12 34q0 34 40 48q30 12 30 32v562l-143 -374q-43 -102 -71 -102q-26 0 -46 35l-86 195l-104 276v-592q0 -12 43 -30q41 -14 41 -50q0 -42 -35 -44h-162q-29 0 -41 10q-12 8 -12 36z" />
<glyph unicode="&#x25fc;" horiz-adv-x="967" d="M0 0v968h968v-968h-968z" />
</font>
</defs>
</svg>
